<?xml version="1.0" encoding="utf-8"?>
<!-- Generator: Adobe Illustrator 21.0.0, SVG Export Plug-In . SVG Version: 6.00 Build 0)  -->
<svg version="1.1" id="SVG" xmlns="http://www.w3.org/2000/svg" xmlns:xlink="http://www.w3.org/1999/xlink" x="0px" y="0px"
	 viewBox="0 0 286.2 168.6" style="enable-background:new 0 0 286.2 168.6;" xml:space="preserve">
<style type="text/css">
	.st0{fill:#343A3B;}
</style>
<g>
	<g id="CCTS_x5F_icon_x5F_Grp_1_">
		<g id="tracking_x5F_icon_x5F_grp_7_">
			<g>
				<g>
					<path class="st0" d="M217.3,117.1l-0.8-1c-1.7-2.1-40.8-52-40.8-74.5c0-22.9,18.7-41.6,41.6-41.6s41.6,18.7,41.6,41.6
						c0,22.5-39.1,72.4-40.8,74.5L217.3,117.1z M217.3,2c-21.8,0-39.6,17.8-39.6,39.6c0,20.1,34,65,39.6,72.3
						c5.6-7.3,39.6-52.2,39.6-72.3C256.9,19.8,239.1,2,217.3,2z"/>
				</g>
			</g>
			<g>
				<g>
					<path class="st0" d="M217.3,71.3c-16.4,0-29.7-13.3-29.7-29.7s13.3-29.7,29.7-29.7S247,25.2,247,41.6S233.7,71.3,217.3,71.3z
						 M217.3,13.9c-15.3,0-27.7,12.4-27.7,27.7s12.4,27.7,27.7,27.7S245,56.9,245,41.6S232.6,13.9,217.3,13.9z"/>
				</g>
			</g>
			<g>
				<g>
					<rect x="1.5" y="115.1" class="st0" width="284.5" height="2"/>
				</g>
			</g>
			<g>
				<g>
					<path class="st0" d="M165.5,122.2c-3.4,0-6.1-2.8-6.1-6.1c0-3.4,2.8-6.1,6.1-6.1s6.1,2.8,6.1,6.1
						C171.6,119.5,168.9,122.2,165.5,122.2z M165.5,111.9c-2.3,0-4.1,1.9-4.1,4.1s1.9,4.1,4.1,4.1s4.1-1.9,4.1-4.1
						S167.8,111.9,165.5,111.9z"/>
				</g>
			</g>
			<g>
				<g>
					<path class="st0" d="M192.2,122.2c-3.4,0-6.1-2.8-6.1-6.1c0-3.4,2.8-6.1,6.1-6.1c3.4,0,6.1,2.8,6.1,6.1
						C198.4,119.5,195.6,122.2,192.2,122.2z M192.2,111.9c-2.3,0-4.1,1.9-4.1,4.1s1.9,4.1,4.1,4.1c2.3,0,4.1-1.9,4.1-4.1
						S194.5,111.9,192.2,111.9z"/>
				</g>
			</g>
			<g>
				<g>
					<path class="st0" d="M217.3,122.2c-3.4,0-6.1-2.8-6.1-6.1c0-3.4,2.8-6.1,6.1-6.1s6.1,2.8,6.1,6.1
						C223.4,119.5,220.7,122.2,217.3,122.2z M217.3,111.9c-2.3,0-4.1,1.9-4.1,4.1s1.9,4.1,4.1,4.1s4.1-1.9,4.1-4.1
						S219.6,111.9,217.3,111.9z"/>
				</g>
			</g>
		</g>
		<g id="female_x5F_icon_x5F_grp_1_">
			<g>
				<g>
					<path class="st0" d="M207.3,45.2c-4.5,0-8.1-3.6-8.1-8.1s3.6-8.1,8.1-8.1s8.1,3.6,8.1,8.1S211.7,45.2,207.3,45.2z M207.3,31
						c-3.4,0-6.1,2.7-6.1,6.1s2.7,6.1,6.1,6.1s6.1-2.7,6.1-6.1S210.6,31,207.3,31z"/>
				</g>
			</g>
			<g>
				<g>
					<rect x="206.3" y="44.2" class="st0" width="2" height="8.9"/>
				</g>
			</g>
			<g>
				<g>
					<rect x="202.8" y="47.8" class="st0" width="8.9" height="2"/>
				</g>
			</g>
		</g>
		<g id="male_x5F_icon_x5F_grp_1_">
			<g>
				<g>
					<path class="st0" d="M224,52.5c-4.5,0-8.1-3.6-8.1-8.1s3.6-8.1,8.1-8.1s8.1,3.6,8.1,8.1S228.5,52.5,224,52.5z M224,38.3
						c-3.4,0-6.1,2.7-6.1,6.1s2.7,6.1,6.1,6.1s6.1-2.7,6.1-6.1S227.4,38.3,224,38.3z"/>
				</g>
			</g>
			<g>
				<g>
					<g>
						
							<rect x="227.7" y="35.1" transform="matrix(0.71 -0.7042 0.7042 0.71 41.9409 174.0713)" class="st0" width="9.2" height="2"/>
					</g>
				</g>
				<g>
					<g>
						<g>
							<polygon class="st0" points="236.4,40.7 234.9,40.7 235.2,33.3 227.8,33.5 227.8,32 236.8,31.7 							"/>
						</g>
					</g>
				</g>
			</g>
		</g>
	</g>
	<g>
		<path class="st0" d="M15.5,162.1c-0.7,0.4-1.4,0.8-2.4,1c-0.9,0.3-2,0.4-3.1,0.4c-1.5,0-2.9-0.3-4.1-0.8s-2.3-1.3-3.1-2.2
			c-0.9-0.9-1.5-2-2-3.2C0.2,156.2,0,155,0,153.6c0-1.5,0.3-2.8,0.8-4c0.5-1.2,1.3-2.3,2.2-3.2c0.9-0.9,2-1.6,3.2-2.2
			c1.2-0.5,2.5-0.8,3.9-0.8c1,0,2,0.1,2.9,0.4c0.9,0.3,1.7,0.6,2.4,1c-0.1,0.2-0.2,0.3-0.3,0.4c-0.1,0.1-0.2,0.3-0.3,0.5
			c-0.7-0.4-1.4-0.7-2.2-0.9c-0.8-0.2-1.6-0.3-2.4-0.3c-1.3,0-2.4,0.2-3.5,0.7c-1.1,0.5-2.1,1.1-2.9,2C3,148,2.3,148.9,1.9,150
			c-0.5,1.1-0.7,2.3-0.7,3.5c0,1.2,0.2,2.3,0.6,3.4s1,2,1.8,2.8c0.8,0.8,1.7,1.5,2.8,1.9c1.1,0.5,2.3,0.7,3.6,0.7c1,0,2-0.1,2.8-0.4
			c0.9-0.3,1.6-0.6,2.1-0.9L15.5,162.1z"/>
		<path class="st0" d="M17.9,142.2h1v13c0.4-0.8,1-1.5,1.8-2.1c0.8-0.5,1.7-0.8,2.8-0.8c1,0,1.9,0.3,2.5,0.9c0.6,0.6,0.9,1.4,1,2.3
			v7.8h-1v-7.7c0-0.7-0.3-1.2-0.7-1.7c-0.4-0.5-1.1-0.7-1.9-0.8c-0.6,0-1.2,0.1-1.7,0.3s-1,0.5-1.4,0.8c-0.4,0.4-0.7,0.8-1,1.3
			s-0.4,1-0.4,1.6v6h-1V142.2z"/>
		<path class="st0" d="M30.4,148.8c0-0.2,0.1-0.4,0.3-0.6s0.4-0.3,0.6-0.3c0.2,0,0.4,0.1,0.6,0.3s0.3,0.4,0.3,0.6
			c0,0.2-0.1,0.4-0.3,0.6c-0.2,0.2-0.4,0.2-0.6,0.2c-0.2,0-0.4-0.1-0.6-0.2C30.5,149.2,30.4,149,30.4,148.8z M31.7,163.4h-1v-10.8h1
			V163.4z"/>
		<path class="st0" d="M36.7,163.4h-1v-21.2h1V163.4z"/>
		<path class="st0" d="M39.9,158c0-0.8,0.1-1.5,0.4-2.2c0.3-0.7,0.7-1.3,1.2-1.8c0.5-0.5,1.1-0.9,1.8-1.2c0.7-0.3,1.4-0.4,2.2-0.4
			c0.6,0,1.1,0.1,1.6,0.2c0.5,0.2,1,0.4,1.4,0.7c0.4,0.3,0.8,0.6,1.1,1c0.3,0.4,0.5,0.8,0.7,1.2v-13.2h1v21.2h-1v-1.3
			c0-0.3,0-0.5,0-0.8c0-0.2,0-0.5,0-0.7c-0.4,0.8-1,1.5-1.8,2.1c-0.8,0.6-1.8,0.9-3,0.9c-0.8,0-1.5-0.2-2.2-0.4
			c-0.7-0.3-1.3-0.7-1.8-1.2c-0.5-0.5-0.9-1.1-1.2-1.8C40,159.5,39.9,158.7,39.9,158z M40.9,158c0,0.7,0.1,1.3,0.4,1.8
			s0.6,1.1,1,1.5s0.9,0.8,1.5,1c0.6,0.2,1.2,0.4,1.8,0.4c0.7,0,1.3-0.1,1.8-0.4c0.6-0.2,1.1-0.6,1.5-1s0.8-0.9,1-1.5
			c0.2-0.6,0.4-1.2,0.4-1.8s-0.1-1.3-0.4-1.8c-0.2-0.6-0.6-1.1-1-1.5s-0.9-0.8-1.5-1c-0.6-0.2-1.2-0.4-1.8-0.4
			c-0.7,0-1.3,0.1-1.8,0.4c-0.6,0.2-1.1,0.6-1.5,1s-0.8,0.9-1,1.5C41,156.7,40.9,157.3,40.9,158z"/>
		<path class="st0" d="M77.3,162.1c-0.7,0.4-1.4,0.8-2.4,1c-0.9,0.3-2,0.4-3.1,0.4c-1.5,0-2.9-0.3-4.1-0.8s-2.3-1.3-3.1-2.2
			c-0.9-0.9-1.5-2-2-3.2c-0.5-1.2-0.7-2.5-0.7-3.8c0-1.5,0.3-2.8,0.8-4c0.5-1.2,1.3-2.3,2.2-3.2c0.9-0.9,2-1.6,3.2-2.2
			c1.2-0.5,2.5-0.8,3.9-0.8c1,0,2,0.1,2.9,0.4c0.9,0.3,1.7,0.6,2.4,1c-0.1,0.2-0.2,0.3-0.3,0.4c-0.1,0.1-0.2,0.3-0.3,0.5
			c-0.7-0.4-1.4-0.7-2.2-0.9c-0.8-0.2-1.6-0.3-2.4-0.3c-1.3,0-2.4,0.2-3.5,0.7c-1.1,0.5-2.1,1.1-2.9,2c-0.8,0.8-1.5,1.8-1.9,2.9
			c-0.5,1.1-0.7,2.3-0.7,3.5c0,1.2,0.2,2.3,0.6,3.4s1,2,1.8,2.8c0.8,0.8,1.7,1.5,2.8,1.9c1.1,0.5,2.3,0.7,3.6,0.7c1,0,2-0.1,2.8-0.4
			c0.9-0.3,1.6-0.6,2.1-0.9L77.3,162.1z"/>
		<path class="st0" d="M78.5,158c0-0.8,0.1-1.5,0.4-2.2c0.3-0.7,0.7-1.3,1.2-1.8s1.1-0.9,1.8-1.2c0.7-0.3,1.4-0.4,2.2-0.4
			c0.6,0,1.1,0.1,1.6,0.2c0.5,0.2,1,0.4,1.4,0.7c0.4,0.3,0.8,0.6,1.1,1c0.3,0.4,0.5,0.8,0.7,1.2c0-0.5,0-0.9,0-1.4s0-0.9,0.1-1.4
			h0.8v10.8h-1v-2.8c-0.3,0.8-0.9,1.5-1.7,2.1c-0.8,0.6-1.8,0.9-3,0.9c-0.8,0-1.5-0.2-2.2-0.4c-0.7-0.3-1.3-0.7-1.8-1.2
			c-0.5-0.5-0.9-1.1-1.2-1.8C78.7,159.5,78.5,158.8,78.5,158z M79.5,158c0,0.7,0.1,1.3,0.4,1.8c0.2,0.6,0.6,1.1,1,1.5s0.9,0.8,1.5,1
			c0.6,0.2,1.2,0.4,1.8,0.4c0.7,0,1.3-0.1,1.8-0.4c0.6-0.2,1.1-0.6,1.5-1c0.4-0.4,0.8-0.9,1-1.5c0.2-0.6,0.4-1.2,0.4-1.8
			s-0.1-1.3-0.4-1.8c-0.2-0.6-0.6-1.1-1-1.5c-0.4-0.4-0.9-0.8-1.5-1c-0.6-0.2-1.2-0.4-1.8-0.4c-0.7,0-1.3,0.1-1.8,0.4
			c-0.6,0.2-1.1,0.6-1.5,1s-0.8,0.9-1,1.5C79.6,156.7,79.5,157.3,79.5,158z"/>
		<path class="st0" d="M99.2,153.6l-0.6,0.7c-0.2-0.3-0.6-0.5-1-0.7c-0.5-0.2-0.9-0.3-1.3-0.3c-0.2,0-0.5,0-0.7,0.1
			s-0.5,0.2-0.7,0.3c-0.2,0.1-0.4,0.3-0.5,0.6c-0.1,0.2-0.2,0.5-0.2,0.9c0,0.5,0.1,0.8,0.4,1.1c0.3,0.3,0.6,0.5,1,0.7
			s0.8,0.4,1.3,0.5c0.5,0.2,0.9,0.3,1.3,0.6c0.4,0.2,0.7,0.5,1,0.9c0.3,0.4,0.4,0.8,0.4,1.4c0,0.4-0.1,0.8-0.2,1.2
			c-0.1,0.4-0.4,0.7-0.7,1c-0.3,0.3-0.7,0.5-1.1,0.7c-0.4,0.2-0.9,0.3-1.5,0.3c-0.6,0-1.2-0.1-1.8-0.3c-0.6-0.2-1.2-0.6-1.6-1
			c0.1-0.1,0.2-0.2,0.4-0.4c0.1-0.2,0.2-0.3,0.3-0.3c0.1,0.1,0.2,0.3,0.4,0.4c0.2,0.1,0.4,0.2,0.7,0.3c0.3,0.1,0.5,0.2,0.8,0.3
			c0.3,0.1,0.5,0.1,0.8,0.1c0.2,0,0.5,0,0.8-0.1c0.3-0.1,0.5-0.2,0.8-0.4s0.5-0.4,0.6-0.7c0.2-0.3,0.3-0.6,0.3-1
			c0-0.5-0.1-0.9-0.4-1.2s-0.6-0.5-1-0.7s-0.8-0.4-1.3-0.5c-0.5-0.1-0.9-0.3-1.3-0.6c-0.4-0.2-0.8-0.5-1-0.9
			c-0.3-0.4-0.4-0.8-0.4-1.4c0-0.5,0.1-0.9,0.3-1.3c0.2-0.4,0.4-0.6,0.7-0.9c0.3-0.2,0.6-0.4,1-0.5c0.4-0.1,0.7-0.2,1.1-0.2
			c0.4,0,0.9,0.1,1.5,0.3C98.3,152.9,98.8,153.2,99.2,153.6z"/>
		<path class="st0" d="M111.4,162.1c-0.5,0.5-1.1,0.8-1.8,1.1c-0.7,0.3-1.4,0.4-2.2,0.4c-0.8,0-1.5-0.2-2.2-0.4
			c-0.7-0.3-1.3-0.7-1.8-1.2c-0.5-0.5-0.9-1.1-1.2-1.8c-0.3-0.7-0.4-1.4-0.4-2.2c0-0.8,0.1-1.5,0.4-2.2c0.3-0.7,0.7-1.3,1.2-1.8
			c0.5-0.5,1.1-0.9,1.8-1.2c0.7-0.3,1.4-0.4,2.2-0.4c1.2,0,2.2,0.4,3.1,1c0.8,0.7,1.5,1.6,1.9,2.7c-0.7,0.3-1.4,0.6-2.2,0.9
			c-0.8,0.3-1.6,0.6-2.4,1c-0.8,0.3-1.6,0.7-2.4,1c-0.8,0.3-1.6,0.6-2.3,0.9c0.4,0.9,0.9,1.6,1.7,2.1c0.8,0.5,1.7,0.8,2.6,0.8
			c0.6,0,1.2-0.1,1.8-0.3c0.6-0.2,1-0.5,1.5-0.9L111.4,162.1z M111.2,155.7c-0.3-0.7-0.8-1.3-1.5-1.8s-1.4-0.7-2.3-0.7
			c-0.7,0-1.3,0.1-1.8,0.4c-0.6,0.3-1.1,0.6-1.5,1s-0.8,0.9-1,1.5c-0.2,0.6-0.4,1.2-0.4,1.8c0,0.2,0,0.4,0,0.6s0.1,0.4,0.1,0.6
			c0.6-0.3,1.3-0.5,2-0.8c0.7-0.3,1.4-0.6,2.1-0.9s1.4-0.6,2.1-0.9C109.9,156.3,110.5,156,111.2,155.7z"/>
		<path class="st0" d="M132.5,143.6v1.1H127v18.7h-1.1v-18.7h-5.4v-1.1H132.5z"/>
		<path class="st0" d="M137.7,153.5c-0.6,0-1.1,0.1-1.7,0.3c-0.5,0.2-1,0.5-1.4,0.8s-0.7,0.8-1,1.2c-0.2,0.5-0.4,1-0.4,1.6v6h-1
			v-10.8h0.8c0,0.1,0,0.3,0,0.5c0,0.3,0,0.6,0,0.9s0,0.6,0,0.9c0,0.3,0,0.4,0,0.5c0.4-0.9,1.1-1.7,1.9-2.2c0.9-0.5,1.8-0.8,2.7-0.8
			L137.7,153.5z"/>
		<path class="st0" d="M138.4,158c0-0.8,0.1-1.5,0.4-2.2c0.3-0.7,0.7-1.3,1.2-1.8s1.1-0.9,1.8-1.2c0.7-0.3,1.4-0.4,2.2-0.4
			c0.6,0,1.1,0.1,1.6,0.2c0.5,0.2,1,0.4,1.4,0.7c0.4,0.3,0.8,0.6,1.1,1c0.3,0.4,0.5,0.8,0.7,1.2c0-0.5,0-0.9,0-1.4s0-0.9,0.1-1.4
			h0.8v10.8h-1v-2.8c-0.3,0.8-0.9,1.5-1.7,2.1c-0.8,0.6-1.8,0.9-3,0.9c-0.8,0-1.5-0.2-2.2-0.4c-0.7-0.3-1.3-0.7-1.8-1.2
			c-0.5-0.5-0.9-1.1-1.2-1.8C138.6,159.5,138.4,158.8,138.4,158z M139.4,158c0,0.7,0.1,1.3,0.4,1.8c0.2,0.6,0.6,1.1,1,1.5
			s0.9,0.8,1.5,1c0.6,0.2,1.2,0.4,1.8,0.4c0.7,0,1.3-0.1,1.8-0.4c0.6-0.2,1.1-0.6,1.5-1c0.4-0.4,0.8-0.9,1-1.5
			c0.2-0.6,0.4-1.2,0.4-1.8s-0.1-1.3-0.4-1.8c-0.2-0.6-0.6-1.1-1-1.5c-0.4-0.4-0.9-0.8-1.5-1c-0.6-0.2-1.2-0.4-1.8-0.4
			c-0.7,0-1.3,0.1-1.8,0.4c-0.6,0.2-1.1,0.6-1.5,1s-0.8,0.9-1,1.5C139.5,156.7,139.4,157.3,139.4,158z"/>
		<path class="st0" d="M161.4,161.6c0.1,0.1,0.2,0.2,0.3,0.3c0.1,0.1,0.2,0.2,0.3,0.4c-0.5,0.4-1,0.7-1.6,0.9
			c-0.6,0.2-1.2,0.3-1.9,0.3c-0.8,0-1.5-0.2-2.2-0.4c-0.7-0.3-1.3-0.7-1.8-1.2c-0.5-0.5-0.9-1.1-1.2-1.8c-0.3-0.7-0.4-1.4-0.4-2.2
			c0-0.8,0.1-1.5,0.4-2.2s0.7-1.3,1.2-1.8c0.5-0.5,1.1-0.9,1.8-1.2c0.7-0.3,1.4-0.4,2.2-0.4c0.7,0,1.3,0.1,1.9,0.3s1.2,0.5,1.6,0.9
			c-0.1,0.1-0.2,0.3-0.3,0.4c-0.1,0.1-0.2,0.2-0.3,0.4c-0.4-0.3-0.8-0.6-1.3-0.8c-0.5-0.2-1-0.3-1.6-0.3c-0.7,0-1.3,0.1-1.9,0.4
			c-0.6,0.2-1.1,0.6-1.5,1s-0.8,0.9-1,1.5c-0.2,0.6-0.4,1.2-0.4,1.8s0.1,1.3,0.4,1.8c0.2,0.6,0.6,1.1,1,1.5s0.9,0.8,1.5,1
			c0.6,0.2,1.2,0.4,1.9,0.4c0.6,0,1.1-0.1,1.6-0.3C160.6,162.2,161,161.9,161.4,161.6z"/>
		<path class="st0" d="M172,152.3l0.6,0.6l-4.1,3.9c0.8,1.1,1.6,2.2,2.4,3.3c0.8,1.1,1.6,2.2,2.4,3.3h-1.1c-0.7-1-1.5-2-2.2-3
			s-1.5-2-2.2-3l-2,1.8v4.1h-1v-21.2h1V158c1.1-1,2.1-1.9,3.1-2.9C169.9,154.2,171,153.3,172,152.3z"/>
		<path class="st0" d="M175.3,148.8c0-0.2,0.1-0.4,0.3-0.6s0.4-0.3,0.6-0.3c0.2,0,0.4,0.1,0.6,0.3s0.3,0.4,0.3,0.6
			c0,0.2-0.1,0.4-0.3,0.6c-0.2,0.2-0.4,0.2-0.6,0.2c-0.2,0-0.4-0.1-0.6-0.2C175.4,149.2,175.3,149,175.3,148.8z M176.6,163.4h-1
			v-10.8h1V163.4z"/>
		<path class="st0" d="M180.5,152.6h0.8c0,0.1,0,0.3,0,0.5c0,0.3,0,0.6,0,0.9s0,0.6,0,0.9c0,0.3,0,0.4,0,0.5c0.4-0.9,1-1.6,1.8-2.2
			c0.8-0.6,1.8-0.8,2.9-0.8c1,0,1.9,0.3,2.5,0.9c0.6,0.6,0.9,1.4,1,2.3v7.8h-1v-7.7c0-0.7-0.3-1.2-0.7-1.7c-0.4-0.5-1.1-0.7-1.9-0.8
			c-0.6,0-1.2,0.1-1.7,0.3s-1,0.5-1.4,0.8c-0.4,0.4-0.7,0.8-1,1.3s-0.4,1-0.4,1.6v6h-1V152.6z"/>
		<path class="st0" d="M192.5,158c0-0.8,0.1-1.5,0.4-2.2c0.3-0.7,0.7-1.3,1.2-1.8c0.5-0.5,1.1-0.9,1.8-1.2c0.7-0.3,1.4-0.4,2.2-0.4
			c0.6,0,1.2,0.1,1.7,0.3c0.5,0.2,1,0.4,1.4,0.7s0.8,0.6,1.1,1c0.3,0.4,0.5,0.7,0.7,1.1c0-0.5,0-0.9,0-1.4c0-0.5,0.1-0.9,0.1-1.4
			h0.9v10.8c0,0.7-0.1,1.4-0.3,2c-0.2,0.6-0.5,1.2-1,1.7c-0.4,0.5-1,0.9-1.8,1.1c-0.7,0.3-1.6,0.4-2.6,0.4c-0.9,0-1.7-0.2-2.5-0.5
			c-0.8-0.3-1.6-0.9-2.5-1.8l0.6-0.7c0.4,0.4,0.8,0.7,1.2,1c0.4,0.3,0.8,0.4,1.1,0.6s0.7,0.2,1,0.3c0.3,0.1,0.7,0.1,1,0.1
			c0.9,0,1.6-0.1,2.2-0.3c0.6-0.2,1.1-0.5,1.4-0.9c0.4-0.4,0.6-0.9,0.8-1.4c0.2-0.5,0.3-1.1,0.3-1.8V162c0,0,0-0.1,0-0.3
			c0-0.1,0-0.3,0-0.5s0-0.3,0-0.5s0-0.2,0-0.3c-0.4,0.9-1,1.6-1.8,2.2c-0.8,0.6-1.8,0.9-3,0.9c-0.8,0-1.5-0.1-2.2-0.4
			c-0.7-0.3-1.3-0.7-1.8-1.2c-0.5-0.5-0.9-1.1-1.2-1.8C192.6,159.5,192.5,158.7,192.5,158z M193.5,158c0,0.7,0.1,1.3,0.4,1.8
			s0.6,1.1,1,1.5s0.9,0.8,1.5,1c0.6,0.2,1.2,0.4,1.8,0.4c0.7,0,1.3-0.1,1.8-0.4c0.6-0.2,1.1-0.6,1.5-1s0.8-0.9,1-1.5
			c0.2-0.6,0.4-1.2,0.4-1.8s-0.1-1.3-0.4-1.8c-0.2-0.6-0.6-1.1-1-1.5s-0.9-0.8-1.5-1c-0.6-0.2-1.2-0.4-1.8-0.4
			c-0.7,0-1.3,0.1-1.8,0.4c-0.6,0.2-1.1,0.6-1.5,1s-0.8,0.9-1,1.5C193.6,156.7,193.5,157.3,193.5,158z"/>
		<path class="st0" d="M225.7,144.6l-0.4,0.9c-0.6-0.2-1.3-0.5-2.1-0.7c-0.8-0.2-1.6-0.3-2.4-0.3c-0.7,0-1.4,0.1-1.9,0.3
			c-0.6,0.2-1.1,0.5-1.5,0.8c-0.4,0.3-0.7,0.7-0.9,1.1c-0.2,0.4-0.3,0.9-0.3,1.4c0,0.6,0.1,1.1,0.4,1.5c0.3,0.4,0.7,0.8,1.2,1.1
			c0.5,0.3,1.1,0.6,1.7,0.8s1.3,0.5,1.9,0.7c0.7,0.2,1.3,0.5,1.9,0.8c0.6,0.3,1.2,0.7,1.7,1.1s0.9,1,1.2,1.6
			c0.3,0.6,0.4,1.3,0.4,2.2c0,0.9-0.2,1.6-0.5,2.3c-0.3,0.7-0.8,1.3-1.3,1.8c-0.6,0.5-1.3,0.9-2.1,1.1s-1.7,0.4-2.7,0.4
			c-0.8,0-1.5-0.1-2.1-0.2s-1.2-0.3-1.7-0.5s-0.9-0.4-1.3-0.6c-0.4-0.2-0.6-0.4-0.9-0.5l0.6-1c0.3,0.2,0.7,0.4,1.1,0.6
			s0.9,0.4,1.3,0.6c0.5,0.2,1,0.3,1.5,0.4c0.5,0.1,1,0.2,1.6,0.2c0.6,0,1.2-0.1,1.8-0.3c0.6-0.2,1.2-0.4,1.7-0.8
			c0.5-0.4,1-0.8,1.3-1.4c0.3-0.6,0.5-1.2,0.5-2c0-0.7-0.1-1.4-0.4-1.9s-0.7-1-1.2-1.3c-0.5-0.4-1.1-0.7-1.7-1
			c-0.6-0.3-1.3-0.5-1.9-0.8c-0.7-0.2-1.3-0.5-1.9-0.8c-0.6-0.3-1.2-0.6-1.7-0.9s-0.9-0.8-1.2-1.3c-0.3-0.5-0.4-1.1-0.4-1.8
			c0-0.7,0.1-1.3,0.4-1.9c0.3-0.6,0.7-1.1,1.1-1.5s1.1-0.8,1.8-1s1.5-0.4,2.3-0.4c0.4,0,0.9,0,1.4,0.1c0.5,0.1,0.9,0.1,1.4,0.3
			s0.9,0.2,1.3,0.3C225.1,144.3,225.4,144.4,225.7,144.6z"/>
		<path class="st0" d="M231.4,168.6h-1.1c0.2-0.5,0.4-0.9,0.6-1.3c0.2-0.4,0.3-0.8,0.5-1.2c0.2-0.4,0.3-0.8,0.5-1.3s0.4-1,0.7-1.6
			c-0.9-1.7-1.7-3.5-2.4-5.3c-0.7-1.8-1.6-3.6-2.4-5.3h1c0.5,1,1,1.9,1.3,2.8s0.8,1.7,1.1,2.5s0.7,1.6,1,2.3c0.3,0.7,0.6,1.5,1,2.2
			c0.3-0.7,0.7-1.5,1-2.2c0.3-0.7,0.6-1.5,1-2.3c0.3-0.8,0.7-1.6,1.1-2.5c0.4-0.9,0.8-1.8,1.3-2.8h1.1L231.4,168.6z"/>
		<path class="st0" d="M246.3,153.6l-0.6,0.7c-0.2-0.3-0.6-0.5-1-0.7c-0.5-0.2-0.9-0.3-1.3-0.3c-0.2,0-0.5,0-0.7,0.1
			s-0.5,0.2-0.7,0.3c-0.2,0.1-0.4,0.3-0.5,0.6s-0.2,0.5-0.2,0.9c0,0.5,0.1,0.8,0.4,1.1c0.3,0.3,0.6,0.5,1,0.7s0.8,0.4,1.3,0.5
			c0.5,0.2,0.9,0.3,1.3,0.6c0.4,0.2,0.7,0.5,1,0.9c0.3,0.4,0.4,0.8,0.4,1.4c0,0.4-0.1,0.8-0.2,1.2c-0.2,0.4-0.4,0.7-0.7,1
			c-0.3,0.3-0.7,0.5-1.1,0.7s-0.9,0.3-1.5,0.3c-0.6,0-1.2-0.1-1.8-0.3c-0.6-0.2-1.2-0.6-1.6-1c0.1-0.1,0.2-0.2,0.4-0.4
			c0.1-0.2,0.2-0.3,0.3-0.3c0.1,0.1,0.2,0.3,0.4,0.4c0.2,0.1,0.4,0.2,0.7,0.3c0.3,0.1,0.5,0.2,0.8,0.3c0.3,0.1,0.5,0.1,0.8,0.1
			c0.2,0,0.5,0,0.8-0.1c0.3-0.1,0.5-0.2,0.8-0.4s0.5-0.4,0.6-0.7s0.3-0.6,0.3-1c0-0.5-0.1-0.9-0.4-1.2c-0.3-0.3-0.6-0.5-1-0.7
			s-0.8-0.4-1.3-0.5s-0.9-0.3-1.3-0.6c-0.4-0.2-0.8-0.5-1-0.9c-0.3-0.4-0.4-0.8-0.4-1.4c0-0.5,0.1-0.9,0.3-1.3
			c0.2-0.4,0.4-0.6,0.7-0.9c0.3-0.2,0.6-0.4,1-0.5c0.4-0.1,0.7-0.2,1.1-0.2c0.4,0,0.9,0.1,1.5,0.3S245.9,153.2,246.3,153.6z"/>
		<path class="st0" d="M250.6,147.8h1v4.9h3.4v0.9h-3.4v9.8h-1v-9.8h-2.4v-0.9h2.4V147.8z"/>
		<path class="st0" d="M265.7,162.1c-0.5,0.5-1.1,0.8-1.8,1.1s-1.4,0.4-2.2,0.4c-0.8,0-1.5-0.2-2.2-0.4c-0.7-0.3-1.3-0.7-1.8-1.2
			s-0.9-1.1-1.2-1.8c-0.3-0.7-0.4-1.4-0.4-2.2c0-0.8,0.2-1.5,0.4-2.2c0.3-0.7,0.7-1.3,1.2-1.8c0.5-0.5,1.1-0.9,1.8-1.2
			c0.7-0.3,1.4-0.4,2.2-0.4c1.2,0,2.2,0.4,3.1,1c0.8,0.7,1.5,1.6,1.9,2.7c-0.7,0.3-1.4,0.6-2.2,0.9c-0.8,0.3-1.6,0.6-2.4,1
			c-0.8,0.3-1.6,0.7-2.4,1s-1.6,0.6-2.3,0.9c0.4,0.9,0.9,1.6,1.7,2.1c0.8,0.5,1.7,0.8,2.6,0.8c0.6,0,1.2-0.1,1.8-0.3
			c0.6-0.2,1-0.5,1.5-0.9L265.7,162.1z M265.4,155.7c-0.3-0.7-0.8-1.3-1.5-1.8s-1.4-0.7-2.3-0.7c-0.7,0-1.3,0.1-1.8,0.4
			c-0.6,0.3-1.1,0.6-1.5,1s-0.8,0.9-1,1.5s-0.4,1.2-0.4,1.8c0,0.2,0,0.4,0,0.6c0,0.2,0.1,0.4,0.1,0.6c0.6-0.3,1.3-0.5,2-0.8
			c0.7-0.3,1.4-0.6,2.1-0.9s1.4-0.6,2.1-0.9C264.2,156.3,264.8,156,265.4,155.7z"/>
		<path class="st0" d="M269.3,152.6h0.8c0,0.1,0,0.3,0,0.5c0,0.3,0,0.6,0,0.9c0,0.3,0,0.6,0,0.9c0,0.3,0,0.4,0,0.5
			c0.4-0.9,1-1.6,1.8-2.2c0.8-0.6,1.7-0.8,2.8-0.8c1,0,1.8,0.3,2.4,0.8c0.6,0.5,1,1.2,1,2.1c0.4-0.9,1-1.6,1.8-2.1
			c0.8-0.5,1.7-0.8,2.7-0.8s1.9,0.3,2.5,0.9c0.6,0.6,0.9,1.4,1,2.3v7.8h-1v-7.7c0-0.7-0.3-1.2-0.7-1.7s-1.1-0.7-1.9-0.8
			c-0.6,0-1.2,0.1-1.7,0.3c-0.5,0.2-1,0.5-1.4,0.8c-0.4,0.3-0.7,0.8-1,1.2c-0.2,0.5-0.4,1-0.4,1.6v6.2h-1v-7.7
			c0-0.7-0.3-1.2-0.7-1.7s-1.1-0.7-1.9-0.8c-0.6,0-1.2,0.1-1.7,0.3c-0.5,0.2-1,0.5-1.4,0.8s-0.7,0.8-1,1.3s-0.3,1-0.3,1.6v6h-1
			V152.6z"/>
	</g>
</g>
</svg>
