<?xml version="1.0" encoding="utf-8"?>
<!-- Generator: Adobe Illustrator 21.0.0, SVG Export Plug-In . SVG Version: 6.00 Build 0)  -->
<svg version="1.1" id="SVG" xmlns="http://www.w3.org/2000/svg" xmlns:xlink="http://www.w3.org/1999/xlink" x="0px" y="0px"
	 viewBox="0 0 37.3 37.3" style="enable-background:new 0 0 37.3 37.3;" xml:space="preserve">
<style type="text/css">
	.st0{fill:#343A3B;}
</style>
<g id="photo_x5F_icon_x5F_grp_1_">
	<g>
		<path class="st0" d="M37.3,37.3H0V0h37.3V37.3z M2,35.3h33.3V2H2V35.3z"/>
	</g>
	<g>
		<polygon class="st0" points="1.5,37.2 0.5,35.5 27.9,17.7 37.1,27 35.6,28.4 27.6,20.3 		"/>
	</g>
	<g>
		<polygon class="st0" points="1.5,28.5 0.5,26.8 15.5,17.7 20.9,23.2 19.5,24.6 15.2,20.2 		"/>
	</g>
	<g>
		<path class="st0" d="M22.4,14.7c-1.7,0-3.2-1.4-3.2-3.2c0-1.7,1.4-3.2,3.2-3.2c1.7,0,3.2,1.4,3.2,3.2
			C25.5,13.3,24.1,14.7,22.4,14.7z M22.4,10.3c-0.6,0-1.2,0.5-1.2,1.2c0,0.6,0.5,1.2,1.2,1.2s1.2-0.5,1.2-1.2
			C23.5,10.9,23,10.3,22.4,10.3z"/>
	</g>
</g>
</svg>
