<?xml version="1.0" encoding="utf-8"?>
<!-- Generator: Adobe Illustrator 21.0.0, SVG Export Plug-In . SVG Version: 6.00 Build 0)  -->
<svg version="1.1" id="SVG" xmlns="http://www.w3.org/2000/svg" xmlns:xlink="http://www.w3.org/1999/xlink" x="0px" y="0px"
	 viewBox="0 0 42.5 33" style="enable-background:new 0 0 42.5 33;" xml:space="preserve">
<style type="text/css">
	.st0{fill:#343A3B;}
</style>
<g id="audio_x5F_icon_x5F_grp_1_">
	<g>
		<path class="st0" d="M23.6,33L7.9,21.9H0V11.1h7.9L23.6,0V33z M2,19.9h6.5l13.1,9.3V3.9L8.5,13.1H2V19.9z"/>
	</g>
	<g>
		<path class="st0" d="M29.7,28.8L29,27c3.9-1.5,6.5-5.8,6.5-10.7c0-4.8-2.6-9.1-6.4-10.7l0.7-1.9c4.6,1.8,7.7,6.9,7.7,12.5
			C37.5,22,34.3,27,29.7,28.8z"/>
	</g>
	<g>
		<path class="st0" d="M34.8,31.6l-0.9-1.8c3.9-1.9,6.6-7.3,6.6-13.5c0-6.1-2.6-11.5-6.5-13.4L34.9,1c4.5,2.2,7.6,8.4,7.6,15.2
			C42.5,23.2,39.4,29.4,34.8,31.6z"/>
	</g>
	<g>
		<rect x="7.2" y="12.1" class="st0" width="2" height="8.8"/>
	</g>
</g>
</svg>
