<?xml version="1.0" encoding="utf-8"?>
<!-- Generator: Adobe Illustrator 21.0.0, SVG Export Plug-In . SVG Version: 6.00 Build 0)  -->
<svg version="1.1" id="SVG" xmlns="http://www.w3.org/2000/svg" xmlns:xlink="http://www.w3.org/1999/xlink" x="0px" y="0px"
	 viewBox="0 0 49.1 38.3" style="enable-background:new 0 0 49.1 38.3;" xml:space="preserve">
<style type="text/css">
	.st0{fill:#343A3B;}
</style>
<g id="video_x5F_icon_x5F_grp_1_">
	<g>
		<path class="st0" d="M37.1,38.3H4.5V17.6h32.5V38.3z M6.5,36.3h28.5V19.6H6.5V36.3z"/>
	</g>
	<g>
		<path class="st0" d="M39.5,29.5h-4.4v-6.8h4.4V29.5z M37.1,27.5h0.4v-2.8h-0.4V27.5z"/>
	</g>
	<g>
		<path class="st0" d="M44.2,30.9h-6.7v-9.6h6.7V30.9z M39.5,28.9h2.7v-5.6h-2.7V28.9z"/>
	</g>
	<g>
		<polygon class="st0" points="47.4,32.9 42.6,29.8 43.7,28.1 45.4,29.2 45.4,22.9 43.7,24 42.6,22.4 47.4,19.2 		"/>
	</g>
	<g>
		<rect x="45.4" y="18.6" class="st0" width="3.7" height="14.7"/>
	</g>
	<g>
		<g>
			<path class="st0" d="M34.2,19.4l-1-1.7c2.6-1.5,4.3-4.3,4.3-7.3c0-4.6-3.8-8.4-8.4-8.4s-8.4,3.8-8.4,8.4c0,3,1.6,5.8,4.3,7.3
				l-1,1.7c-3.3-1.8-5.3-5.3-5.3-9.1C18.7,4.7,23.4,0,29.1,0c5.7,0,10.4,4.7,10.4,10.4C39.5,14.1,37.4,17.6,34.2,19.4z"/>
		</g>
		<g>
			<path class="st0" d="M29.1,14.7c-2.4,0-4.3-1.9-4.3-4.3c0-2.4,1.9-4.3,4.3-4.3s4.3,1.9,4.3,4.3C33.4,12.7,31.5,14.7,29.1,14.7z
				 M29.1,8.1c-1.3,0-2.3,1-2.3,2.3s1,2.3,2.3,2.3s2.3-1,2.3-2.3S30.4,8.1,29.1,8.1z"/>
		</g>
	</g>
	<g>
		<g>
			<path class="st0" d="M15.4,19.4l-1-1.7c2.6-1.5,4.3-4.3,4.3-7.3C18.7,5.8,15,2,10.4,2S2,5.8,2,10.4c0,3,1.6,5.8,4.3,7.3l-1,1.7
				C2,17.6,0,14.1,0,10.4C0,4.7,4.7,0,10.4,0s10.4,4.7,10.4,10.4C20.7,14.1,18.7,17.6,15.4,19.4z"/>
		</g>
		<g>
			<path class="st0" d="M10.4,14.7c-2.4,0-4.3-1.9-4.3-4.3C6.1,8,8,6.1,10.4,6.1s4.3,1.9,4.3,4.3C14.7,12.7,12.7,14.7,10.4,14.7z
				 M10.4,8.1c-1.3,0-2.3,1-2.3,2.3s1,2.3,2.3,2.3s2.3-1,2.3-2.3S11.6,8.1,10.4,8.1z"/>
		</g>
	</g>
</g>
</svg>
