<?xml version="1.0" encoding="utf-8"?>
<!-- Generator: Adobe Illustrator 21.0.0, SVG Export Plug-In . SVG Version: 6.00 Build 0)  -->
<svg version="1.1" id="Icons" xmlns="http://www.w3.org/2000/svg" xmlns:xlink="http://www.w3.org/1999/xlink" x="0px" y="0px"
	 viewBox="0 0 150 150" style="enable-background:new 0 0 150 150;" xml:space="preserve">
<style type="text/css">
	.st0{fill:#FFFFFF;}
	.st1{fill:#396D5D;}
	.st2{fill:#333A3B;}
	.st3{fill:#394142;}
</style>
<rect id="bg" x="-99.2" y="-479.6" class="st0" width="1827.2" height="718.2"/>
<g>
	<g id="institutional_x5F_report_x5F_grp">
		<g id="social_x5F_background_x5F_report_x5F_icon_x5F_grp_7_">
			<g>
				<path class="st2" d="M97.1,90.2H53V27.5h35l-0.6,9.8l9.6-1.8V90.2z M54,89.2h42.1V36.7l-9.7,1.8l0.6-10H54V89.2z"/>
			</g>
			<g>
				<g>
					<rect x="59.6" y="77" class="st2" width="31.3" height="1"/>
				</g>
				<g>
					<rect x="59.6" y="80.8" class="st2" width="31.3" height="1"/>
				</g>
				<g>
					<rect x="59.6" y="73.2" class="st2" width="31.3" height="1"/>
				</g>
			</g>
		</g>
		<g>
			<g>
				<path class="st2" d="M88.3,50.2H61.5l13.5-7L88.3,50.2z M65.6,49.2h18.7L75,44.3L65.6,49.2z"/>
			</g>
			<g>
				<path class="st2" d="M84.6,52.8H65.2v-2.9h19.4V52.8z M66.2,51.8h17.4v-0.9H66.2V51.8z"/>
			</g>
			<g>
				<path class="st2" d="M69.1,63.8h-2.9v-12h2.9V63.8z M67.1,62.8h0.9v-10h-0.9V62.8z"/>
			</g>
			<g>
				<path class="st2" d="M73.9,63.8H71v-12h2.9V63.8z M72,62.8h0.9v-10H72V62.8z"/>
			</g>
			<g>
				<path class="st2" d="M78.7,63.8h-2.9v-12h2.9V63.8z M76.8,62.8h0.9v-10h-0.9V62.8z"/>
			</g>
			<g>
				<path class="st2" d="M83.5,63.8h-3v-12h3V63.8z M81.6,62.8h1v-10h-1V62.8z"/>
			</g>
			<g>
				<path class="st2" d="M87,67.5H62.9v-2.9H64v-1.8h21.8v1.8H87V67.5z M63.9,66.5H86v-0.9h-1.2v-1.8H65v1.8h-1.2V66.5z"/>
			</g>
			<g>
				<rect x="64.3" y="64.6" class="st2" width="21.1" height="1"/>
			</g>
		</g>
	</g>
	<g>
		<path class="st2" d="M21.8,108.4h1v10h-1V108.4z"/>
		<path class="st2" d="M25,112.8h0.7l0.1,1.4c0.2-0.5,0.5-0.8,0.9-1.1s0.9-0.4,1.4-0.4c0.6,0,1,0.2,1.3,0.5c0.3,0.3,0.5,0.7,0.5,1.2
			v4h-0.8v-3.8c0-0.3-0.1-0.6-0.3-0.8s-0.5-0.3-0.9-0.4c-0.3,0-0.6,0-0.8,0.1s-0.5,0.2-0.7,0.4c-0.2,0.2-0.3,0.4-0.4,0.6
			c-0.1,0.2-0.2,0.5-0.2,0.8v3H25V112.8z"/>
		<path class="st2" d="M34.7,113.4l-0.4,0.5c-0.1-0.1-0.2-0.2-0.4-0.3c-0.2-0.1-0.4-0.1-0.7-0.1c-0.1,0-0.2,0-0.3,0
			c-0.1,0-0.2,0.1-0.3,0.1s-0.2,0.1-0.2,0.2c-0.1,0.1-0.1,0.2-0.1,0.4c0,0.2,0.1,0.4,0.2,0.5c0.1,0.1,0.3,0.2,0.5,0.3
			c0.2,0.1,0.4,0.2,0.6,0.3s0.4,0.2,0.6,0.3c0.2,0.1,0.4,0.3,0.5,0.5s0.2,0.4,0.2,0.7c0,0.5-0.2,0.9-0.5,1.2s-0.8,0.5-1.4,0.5
			c-0.3,0-0.6-0.1-1-0.2c-0.3-0.1-0.6-0.3-0.8-0.5c0,0,0.1-0.1,0.1-0.2c0.1-0.1,0.1-0.1,0.2-0.2s0.1-0.1,0.1-0.1
			c0,0,0.1-0.1,0.1-0.1c0,0,0.1,0.1,0.2,0.2c0.1,0.1,0.2,0.1,0.3,0.2c0.1,0.1,0.3,0.1,0.4,0.1s0.3,0.1,0.4,0.1c0.1,0,0.2,0,0.4,0
			c0.1,0,0.2-0.1,0.4-0.2c0.1-0.1,0.2-0.2,0.3-0.3c0.1-0.1,0.1-0.2,0.1-0.4c0-0.2-0.1-0.4-0.2-0.5c-0.1-0.1-0.3-0.2-0.5-0.3
			s-0.4-0.2-0.6-0.3c-0.2-0.1-0.4-0.2-0.6-0.3s-0.4-0.3-0.5-0.5c-0.1-0.2-0.2-0.4-0.2-0.8c0-0.3,0.1-0.5,0.2-0.7s0.2-0.3,0.4-0.5
			c0.2-0.1,0.3-0.2,0.5-0.3c0.2-0.1,0.4-0.1,0.6-0.1c0.2,0,0.5,0.1,0.8,0.2C34.2,113,34.4,113.1,34.7,113.4z"/>
		<path class="st2" d="M36.8,110.4h0.8v2.5h1.7v0.7h-1.7v4.8h-0.8v-4.8h-1.1v-0.7h1.1V110.4z"/>
		<path class="st2" d="M40.2,110.8c0-0.2,0.1-0.3,0.2-0.4c0.1-0.1,0.2-0.2,0.4-0.2c0.1,0,0.3,0.1,0.4,0.2c0.1,0.1,0.2,0.2,0.2,0.4
			c0,0.2-0.1,0.3-0.2,0.4c-0.1,0.1-0.2,0.2-0.4,0.2c-0.1,0-0.3-0.1-0.4-0.2C40.2,111.1,40.2,111,40.2,110.8z M41.1,118.4h-0.8v-5.6
			h0.8V118.4z"/>
		<path class="st2" d="M43.5,110.4h0.8v2.5h1.7v0.7h-1.7v4.8h-0.8v-4.8h-1.1v-0.7h1.1V110.4z"/>
		<path class="st2" d="M51.9,118.5h-0.6l-0.1-1.5c-0.2,0.5-0.5,0.8-0.9,1.1c-0.4,0.3-0.9,0.4-1.5,0.4c-0.6,0-1-0.2-1.3-0.5
			c-0.3-0.3-0.5-0.7-0.5-1.2v-4h0.8v3.8c0,0.3,0.1,0.6,0.3,0.8s0.5,0.3,0.9,0.4c0.3,0,0.6-0.1,0.8-0.1s0.5-0.2,0.7-0.4
			c0.2-0.2,0.3-0.4,0.4-0.6c0.1-0.2,0.2-0.5,0.2-0.8v-3h0.8V118.5z"/>
		<path class="st2" d="M54.2,110.4H55v2.5h1.7v0.7H55v4.8h-0.8v-4.8h-1.1v-0.7h1.1V110.4z"/>
		<path class="st2" d="M57.6,110.8c0-0.2,0.1-0.3,0.2-0.4c0.1-0.1,0.2-0.2,0.4-0.2c0.1,0,0.3,0.1,0.4,0.2c0.1,0.1,0.2,0.2,0.2,0.4
			c0,0.2-0.1,0.3-0.2,0.4c-0.1,0.1-0.2,0.2-0.4,0.2c-0.1,0-0.3-0.1-0.4-0.2C57.7,111.1,57.6,111,57.6,110.8z M58.6,118.4h-0.8v-5.6
			h0.8V118.4z"/>
		<path class="st2" d="M60.1,115.6c0-0.4,0.1-0.8,0.2-1.1c0.2-0.4,0.4-0.7,0.6-0.9c0.3-0.3,0.6-0.5,0.9-0.6c0.4-0.2,0.7-0.2,1.2-0.2
			c0.4,0,0.8,0.1,1.2,0.2c0.4,0.2,0.7,0.4,0.9,0.6s0.5,0.6,0.6,0.9c0.1,0.4,0.2,0.7,0.2,1.1c0,0.4-0.1,0.8-0.2,1.1
			c-0.1,0.4-0.4,0.7-0.6,0.9c-0.3,0.3-0.6,0.5-0.9,0.6c-0.4,0.2-0.7,0.2-1.2,0.2c-0.4,0-0.8-0.1-1.1-0.2c-0.4-0.1-0.7-0.3-0.9-0.6
			c-0.3-0.3-0.5-0.6-0.6-0.9C60.1,116.4,60.1,116,60.1,115.6z M60.8,115.6c0,0.3,0.1,0.6,0.2,0.8c0.1,0.3,0.3,0.5,0.5,0.7
			c0.2,0.2,0.4,0.3,0.7,0.5c0.3,0.1,0.5,0.2,0.8,0.2s0.6-0.1,0.8-0.2c0.3-0.1,0.5-0.3,0.7-0.5c0.2-0.2,0.4-0.4,0.5-0.7
			c0.1-0.3,0.2-0.5,0.2-0.8s-0.1-0.6-0.2-0.8c-0.1-0.3-0.3-0.5-0.5-0.7c-0.2-0.2-0.4-0.3-0.7-0.5c-0.3-0.1-0.5-0.2-0.8-0.2
			s-0.6,0.1-0.8,0.2c-0.3,0.1-0.5,0.3-0.7,0.5c-0.2,0.2-0.4,0.4-0.5,0.7C60.9,115,60.8,115.3,60.8,115.6z"/>
		<path class="st2" d="M67.4,112.8h0.7l0.1,1.4c0.2-0.5,0.5-0.8,0.9-1.1s0.9-0.4,1.4-0.4c0.6,0,1,0.2,1.3,0.5
			c0.3,0.3,0.5,0.7,0.5,1.2v4h-0.8v-3.8c0-0.3-0.1-0.6-0.3-0.8s-0.5-0.3-0.9-0.4c-0.3,0-0.6,0-0.8,0.1s-0.5,0.2-0.7,0.4
			c-0.2,0.2-0.3,0.4-0.4,0.6c-0.1,0.2-0.2,0.5-0.2,0.8v3h-0.8V112.8z"/>
		<path class="st2" d="M73.8,115.6c0-0.4,0.1-0.8,0.2-1.1c0.2-0.4,0.4-0.7,0.6-0.9c0.3-0.3,0.6-0.5,0.9-0.6s0.7-0.2,1.1-0.2
			c0.3,0,0.5,0,0.8,0.1c0.2,0.1,0.5,0.2,0.7,0.3s0.4,0.3,0.5,0.4s0.2,0.3,0.3,0.5l0.1-1.2h0.7v5.6h-0.8v-0.6c0-0.1,0-0.2,0-0.3
			c0-0.1,0-0.2,0-0.3c-0.1,0.2-0.2,0.3-0.3,0.5c-0.1,0.1-0.3,0.3-0.5,0.4s-0.4,0.2-0.7,0.3c-0.2,0.1-0.5,0.1-0.8,0.1
			c-0.4,0-0.8-0.1-1.2-0.2s-0.7-0.4-0.9-0.6c-0.3-0.3-0.5-0.6-0.6-0.9S73.8,116,73.8,115.6z M74.6,115.6c0,0.3,0.1,0.6,0.2,0.9
			c0.1,0.3,0.3,0.5,0.5,0.7c0.2,0.2,0.4,0.3,0.7,0.5c0.3,0.1,0.6,0.2,0.9,0.2s0.6-0.1,0.9-0.2c0.3-0.1,0.5-0.3,0.7-0.5
			c0.2-0.2,0.4-0.4,0.5-0.7c0.1-0.3,0.2-0.5,0.2-0.9c0-0.3-0.1-0.6-0.2-0.8c-0.1-0.3-0.3-0.5-0.5-0.7c-0.2-0.2-0.4-0.3-0.7-0.5
			c-0.3-0.1-0.6-0.2-0.9-0.2s-0.6,0.1-0.9,0.2c-0.3,0.1-0.5,0.3-0.7,0.5c-0.2,0.2-0.4,0.4-0.5,0.7C74.6,115,74.6,115.3,74.6,115.6z"
			/>
		<path class="st2" d="M82.4,118.4h-0.8v-10.7h0.8V118.4z"/>
		<path class="st2" d="M88.3,118.4v-10h2.4c0.4,0,0.8,0.1,1.2,0.2c0.4,0.1,0.7,0.3,1,0.5c0.3,0.2,0.5,0.5,0.7,0.9
			c0.2,0.4,0.3,0.8,0.3,1.3c0,0.6-0.1,1.1-0.4,1.6s-0.7,0.9-1.2,1.2c0.1,0.1,0.2,0.3,0.3,0.6c0.1,0.2,0.3,0.5,0.5,0.8
			s0.3,0.6,0.5,0.9c0.2,0.3,0.4,0.6,0.5,0.9s0.3,0.5,0.5,0.7c0.1,0.2,0.3,0.4,0.3,0.5h-1.2c-0.1-0.1-0.2-0.3-0.3-0.5
			c-0.1-0.2-0.3-0.4-0.4-0.7c-0.1-0.2-0.3-0.5-0.5-0.8c-0.2-0.3-0.3-0.5-0.5-0.8c-0.2-0.3-0.3-0.5-0.5-0.7c-0.1-0.2-0.3-0.4-0.4-0.6
			c-0.1,0-0.2,0-0.3,0c-0.1,0-0.2,0-0.3,0h-1.5v4H88.3z M89.2,113.5h1.5c0.4,0,0.8-0.1,1.1-0.2c0.3-0.2,0.5-0.3,0.7-0.6
			c0.2-0.2,0.3-0.5,0.4-0.7c0.1-0.2,0.1-0.5,0.1-0.7c0-0.3,0-0.5-0.1-0.7c-0.1-0.2-0.2-0.5-0.4-0.7s-0.4-0.3-0.7-0.5
			c-0.3-0.1-0.6-0.2-1-0.2h-1.5V113.5z"/>
		<path class="st2" d="M100.3,117.7c-0.3,0.2-0.6,0.4-1,0.6s-0.7,0.2-1.1,0.2c-0.4,0-0.8-0.1-1.2-0.2s-0.7-0.4-0.9-0.6
			c-0.3-0.3-0.5-0.6-0.6-0.9c-0.2-0.4-0.2-0.7-0.2-1.1c0-0.4,0.1-0.8,0.2-1.1c0.2-0.4,0.4-0.7,0.6-0.9c0.3-0.3,0.6-0.5,0.9-0.6
			c0.4-0.2,0.7-0.2,1.1-0.2c0.6,0,1.2,0.2,1.6,0.6c0.5,0.4,0.8,0.8,1,1.4c-0.3,0.1-0.7,0.3-1.1,0.4c-0.4,0.2-0.8,0.3-1.2,0.5
			c-0.4,0.2-0.8,0.3-1.2,0.5c-0.4,0.2-0.8,0.3-1.1,0.5c0.2,0.4,0.4,0.7,0.8,0.9c0.3,0.2,0.7,0.4,1.2,0.4c0.3,0,0.6-0.1,0.9-0.2
			c0.3-0.1,0.5-0.2,0.7-0.4L100.3,117.7z M99.8,114.5c-0.2-0.3-0.4-0.6-0.7-0.8c-0.3-0.2-0.6-0.3-1-0.3c-0.3,0-0.6,0.1-0.8,0.2
			c-0.3,0.1-0.5,0.3-0.7,0.5c-0.2,0.2-0.4,0.4-0.5,0.7c-0.1,0.3-0.2,0.5-0.2,0.8c0,0.2,0,0.3,0,0.4c0.3-0.1,0.6-0.2,0.9-0.4
			c0.3-0.1,0.7-0.3,1-0.4c0.3-0.1,0.6-0.3,1-0.4C99.2,114.7,99.5,114.6,99.8,114.5z"/>
		<path class="st2" d="M107.9,115.6c0,0.4-0.1,0.8-0.2,1.1c-0.1,0.4-0.3,0.7-0.6,0.9c-0.3,0.3-0.6,0.5-0.9,0.6s-0.7,0.2-1.2,0.2
			c-0.5,0-1-0.1-1.4-0.4c-0.4-0.2-0.7-0.5-0.8-0.9c0,0.1,0,0.2,0,0.3c0,0.1,0,0.2,0,0.3v3.3H102v-8.3h0.7c0,0,0,0.1,0,0.2
			c0,0.1,0,0.2,0,0.3c0,0.1,0,0.2,0,0.4c0,0.1,0,0.2,0,0.3c0.2-0.3,0.5-0.6,0.9-0.9c0.4-0.3,0.9-0.4,1.4-0.4c0.4,0,0.8,0.1,1.2,0.2
			c0.4,0.1,0.7,0.3,0.9,0.6c0.3,0.3,0.5,0.6,0.6,0.9C107.9,114.8,107.9,115.2,107.9,115.6z M107.1,115.6c0-0.3-0.1-0.6-0.2-0.9
			c-0.1-0.3-0.2-0.5-0.4-0.7s-0.4-0.3-0.7-0.5c-0.3-0.1-0.5-0.2-0.9-0.2s-0.6,0.1-0.9,0.2c-0.3,0.1-0.5,0.3-0.7,0.5
			c-0.2,0.2-0.4,0.4-0.5,0.7c-0.1,0.3-0.2,0.5-0.2,0.9c0,0.3,0.1,0.6,0.2,0.9c0.1,0.3,0.3,0.5,0.5,0.7c0.2,0.2,0.4,0.3,0.7,0.5
			c0.3,0.1,0.6,0.2,0.9,0.2s0.6-0.1,0.9-0.2c0.3-0.1,0.5-0.3,0.7-0.5s0.3-0.4,0.4-0.7C107.1,116.2,107.1,115.9,107.1,115.6z"/>
		<path class="st2" d="M109.1,115.6c0-0.4,0.1-0.8,0.2-1.1c0.2-0.4,0.4-0.7,0.6-0.9c0.3-0.3,0.6-0.5,0.9-0.6
			c0.4-0.2,0.7-0.2,1.2-0.2c0.4,0,0.8,0.1,1.2,0.2c0.4,0.2,0.7,0.4,0.9,0.6s0.5,0.6,0.6,0.9c0.1,0.4,0.2,0.7,0.2,1.1
			c0,0.4-0.1,0.8-0.2,1.1c-0.1,0.4-0.4,0.7-0.6,0.9c-0.3,0.3-0.6,0.5-0.9,0.6c-0.4,0.2-0.7,0.2-1.2,0.2c-0.4,0-0.8-0.1-1.1-0.2
			c-0.4-0.1-0.7-0.3-0.9-0.6c-0.3-0.3-0.5-0.6-0.6-0.9C109.1,116.4,109.1,116,109.1,115.6z M109.8,115.6c0,0.3,0.1,0.6,0.2,0.8
			c0.1,0.3,0.3,0.5,0.5,0.7c0.2,0.2,0.4,0.3,0.7,0.5c0.3,0.1,0.5,0.2,0.8,0.2s0.6-0.1,0.8-0.2c0.3-0.1,0.5-0.3,0.7-0.5
			c0.2-0.2,0.4-0.4,0.5-0.7c0.1-0.3,0.2-0.5,0.2-0.8s-0.1-0.6-0.2-0.8c-0.1-0.3-0.3-0.5-0.5-0.7c-0.2-0.2-0.4-0.3-0.7-0.5
			c-0.3-0.1-0.5-0.2-0.8-0.2s-0.6,0.1-0.8,0.2c-0.3,0.1-0.5,0.3-0.7,0.5c-0.2,0.2-0.4,0.4-0.5,0.7
			C109.9,115,109.8,115.3,109.8,115.6z"/>
		<path class="st2" d="M119.3,113.7c-0.3,0-0.5,0-0.8,0.1c-0.3,0.1-0.5,0.2-0.7,0.4s-0.4,0.4-0.5,0.6c-0.1,0.2-0.2,0.5-0.2,0.8v2.9
			h-0.8v-5.6h0.7l0.1,1.4c0.1-0.2,0.3-0.5,0.4-0.7s0.4-0.4,0.6-0.5s0.4-0.2,0.7-0.3s0.4-0.1,0.7-0.1L119.3,113.7z"/>
		<path class="st2" d="M121,110.4h0.8v2.5h1.7v0.7h-1.7v4.8H121v-4.8h-1.1v-0.7h1.1V110.4z"/>
	</g>
</g>
</svg>
