<?xml version="1.0" encoding="utf-8"?>
<!-- Generator: Adobe Illustrator 21.0.0, SVG Export Plug-In . SVG Version: 6.00 Build 0)  -->
<svg version="1.1" id="Icons" xmlns="http://www.w3.org/2000/svg" xmlns:xlink="http://www.w3.org/1999/xlink" x="0px" y="0px"
	 viewBox="0 0 150 150" style="enable-background:new 0 0 150 150;" xml:space="preserve">
<style type="text/css">
	.st0{fill:#FFFFFF;}
	.st1{fill:#396D5D;}
	.st2{fill:#333A3B;}
	.st3{fill:#394142;}
</style>
<rect id="bg" x="-1616" y="-293.4" class="st0" width="1827.2" height="549.1"/>
<rect id="green_x5F_bg" x="-646.8" y="-293.4" class="st1" width="858" height="549.1"/>
<g id="Case_x5F_Green_1_">
	<g id="case_x5F_history_x5F_grp_1_">
		<g>
			<path class="st0" d="M78,84.9H67.5c-0.6,0-1.2-0.3-1.6-0.7c-0.4-0.4-0.6-1-0.5-1.6l0.4-3.7c0.1-0.8,0.4-1.6,1-2.3
				c0.5-0.5,1.1-0.9,1.8-1.1l1.2-0.4v-1.1c-0.4-0.1-0.8-0.5-0.8-1v-0.4c0-0.6,0.5-1.1,1.1-1.1h5.3c0.6,0,1.1,0.5,1.1,1.1v0.4
				c0,0.5-0.3,0.9-0.8,1v1.1l1.2,0.4c0.7,0.2,1.3,0.6,1.8,1.1c0.6,0.6,0.9,1.4,1,2.3l0.4,3.7c0.1,0.6-0.1,1.2-0.5,1.6
				C79.2,84.7,78.6,84.9,78,84.9z M70.1,72.6l-0.1,0.5l0.3,0.1h0.5V76l-2,0.6c-0.5,0.1-1,0.4-1.3,0.8c-0.4,0.5-0.7,1.1-0.8,1.7
				l-0.4,3.7c0,0.3,0.1,0.6,0.3,0.8c0.2,0.2,0.5,0.4,0.8,0.4H78c0.3,0,0.6-0.1,0.8-0.4c0.2-0.2,0.3-0.5,0.3-0.8l-0.4-3.7
				c-0.1-0.6-0.3-1.2-0.8-1.7c-0.4-0.4-0.8-0.7-1.3-0.8l-2-0.6v-2.9h0.7l0.1-0.5l-2.7-0.1H70.1z"/>
		</g>
		<g>
			<path class="st0" d="M72.8,70.9l-0.5-1.5c-0.1-0.3-2.4-7.8-1.8-12.8l0.2-1.7l0.8,1.5c0.5,1,1.1,1.8,1.7,2.4
				c-0.6-1.7-1.3-3.6-1.6-4.1l-0.1-0.2l0.1-0.2c0.5-1.7,5.9-14.5,14.3-19.2c3.2-1.8,6.4-2.2,9.7-1.2l0.8,0.2l-0.6,0.6
				c-2.9,2.7-4.7,9.9-3.8,11.9l0.3,0.7l-0.8,0c-0.5,0-1,0-1.5,0c0.5,0.1,1,0.3,1.2,0.3l0.7,0.1l-0.3,0.6
				c-0.6,1.2-10.6,17.8-15.7,19.2l-1.2,0.3l0.7-1.1c1-1.6,2.9-6,4.4-9.6C77,62,73.6,68.4,73.2,69.4L72.8,70.9z M71.4,58.3
				c0,3.4,1,7.6,1.5,9.6c1.9-3.7,7.6-14.5,9.3-16.5c0,0,0,0,0,0h0c0.2-0.2,0.3-0.3,0.3-0.3l0.9-0.2l-0.4,0.9
				c-0.2,0.4-4,9.8-6.2,14.1c4.3-3,11.5-14.1,13.4-17.4c-1.3-0.3-3.5-1-3.7-1l-2.5-0.7l2.6-0.3c0.1,0,1.8-0.2,4-0.2
				c-0.5-2.8,1.1-8.7,3.6-11.6c-2.7-0.6-5.4-0.1-8.1,1.3c-7.9,4.4-13.1,16.2-13.8,18.4c0.6,1.3,2.1,5.7,2.2,5.9l0.5,1.5L73.9,61
				C73.9,60.9,72.5,59.9,71.4,58.3z"/>
		</g>
		<g>
			<path class="st0" d="M71.9,72.1c0-0.1-0.1-2.4,1.3-5.1l0.9,0.5c-1.3,2.5-1.2,4.6-1.2,4.6L71.9,72.1z"/>
		</g>
	</g>
	<g>
		<path class="st0" d="M46.8,112.9c-0.3,0.2-0.7,0.4-1.3,0.6c-0.5,0.2-1.1,0.3-1.8,0.3c-0.8,0-1.6-0.1-2.2-0.4
			c-0.7-0.3-1.2-0.7-1.7-1.2c-0.5-0.5-0.8-1.1-1.1-1.7s-0.4-1.3-0.4-2.1c0-0.8,0.1-1.5,0.4-2.2c0.3-0.7,0.7-1.3,1.2-1.8
			c0.5-0.5,1.1-0.9,1.8-1.2c0.7-0.3,1.4-0.4,2.1-0.4c0.3,0,0.5,0,0.8,0.1c0.3,0,0.5,0.1,0.8,0.2c0.3,0.1,0.5,0.2,0.7,0.2
			s0.4,0.2,0.5,0.3c-0.1,0.1-0.1,0.1-0.1,0.2c0,0-0.1,0.1-0.1,0.2c0,0.1-0.1,0.1-0.1,0.2c0,0.1-0.1,0.2-0.2,0.3
			c-0.3-0.2-0.7-0.4-1.1-0.5c-0.4-0.1-0.8-0.2-1.2-0.2c-0.6,0-1.2,0.1-1.8,0.4c-0.6,0.2-1,0.6-1.4,1s-0.7,0.9-1,1.4
			c-0.2,0.5-0.4,1.1-0.4,1.7c0,0.6,0.1,1.1,0.3,1.7s0.5,1,0.9,1.4s0.9,0.7,1.4,1c0.5,0.2,1.1,0.4,1.8,0.4c0.3,0,0.6,0,0.8-0.1
			c0.3,0,0.5-0.1,0.8-0.2c0.2-0.1,0.4-0.2,0.6-0.2s0.3-0.2,0.4-0.2L46.8,112.9z"/>
		<path class="st0" d="M47.5,110.7c0-0.4,0.1-0.8,0.2-1.2c0.2-0.4,0.4-0.7,0.7-1s0.6-0.5,1-0.7s0.8-0.2,1.2-0.2c0.3,0,0.6,0,0.8,0.1
			c0.3,0.1,0.5,0.2,0.7,0.3c0.2,0.1,0.4,0.3,0.5,0.5c0.1,0.2,0.2,0.3,0.3,0.5l0.1-1.2h0.8v6H53V113c0-0.1,0-0.2,0-0.3
			c0-0.1,0-0.2,0-0.3c-0.1,0.2-0.2,0.3-0.3,0.5c-0.1,0.2-0.3,0.3-0.5,0.4s-0.4,0.2-0.7,0.3c-0.3,0.1-0.5,0.1-0.9,0.1
			c-0.5,0-0.9-0.1-1.3-0.2c-0.4-0.2-0.7-0.4-1-0.7c-0.3-0.3-0.5-0.6-0.7-1C47.6,111.5,47.5,111.1,47.5,110.7z M48.3,110.6
			c0,0.3,0.1,0.6,0.2,0.9c0.1,0.3,0.3,0.5,0.5,0.7s0.5,0.4,0.7,0.5c0.3,0.1,0.6,0.2,0.9,0.2s0.6-0.1,0.9-0.2
			c0.3-0.1,0.5-0.3,0.7-0.5s0.4-0.5,0.5-0.7c0.1-0.3,0.2-0.6,0.2-0.9c0-0.3-0.1-0.6-0.2-0.9s-0.3-0.5-0.5-0.7s-0.5-0.4-0.7-0.5
			c-0.3-0.1-0.6-0.2-0.9-0.2s-0.6,0.1-0.9,0.2c-0.3,0.1-0.5,0.3-0.7,0.5s-0.4,0.4-0.5,0.7C48.4,110,48.3,110.3,48.3,110.6z"/>
		<path class="st0" d="M59,108.2l-0.4,0.6c-0.1-0.1-0.2-0.2-0.5-0.3c-0.2-0.1-0.5-0.1-0.7-0.1c-0.1,0-0.2,0-0.3,0s-0.2,0.1-0.3,0.1
			c-0.1,0.1-0.2,0.2-0.2,0.3c-0.1,0.1-0.1,0.2-0.1,0.4c0,0.2,0.1,0.4,0.2,0.5c0.1,0.1,0.3,0.3,0.5,0.4c0.2,0.1,0.4,0.2,0.7,0.3
			s0.5,0.2,0.7,0.3s0.4,0.3,0.5,0.5c0.1,0.2,0.2,0.5,0.2,0.8c0,0.5-0.2,0.9-0.5,1.3c-0.3,0.3-0.8,0.5-1.5,0.5c-0.3,0-0.7-0.1-1-0.2
			c-0.4-0.1-0.6-0.3-0.9-0.6c0,0,0.1-0.1,0.2-0.2c0.1-0.1,0.1-0.1,0.2-0.2c0-0.1,0.1-0.1,0.1-0.2s0.1-0.1,0.1-0.1
			c0,0,0.1,0.1,0.2,0.2c0.1,0.1,0.2,0.1,0.3,0.2c0.1,0.1,0.3,0.1,0.4,0.1c0.2,0,0.3,0.1,0.4,0.1c0.1,0,0.2,0,0.4-0.1
			c0.1,0,0.3-0.1,0.4-0.2c0.1-0.1,0.2-0.2,0.3-0.3c0.1-0.1,0.1-0.3,0.1-0.4c0-0.2-0.1-0.4-0.2-0.5c-0.1-0.1-0.3-0.3-0.5-0.4
			c-0.2-0.1-0.4-0.2-0.7-0.3s-0.5-0.2-0.7-0.3s-0.4-0.3-0.5-0.5c-0.1-0.2-0.2-0.5-0.2-0.8c0-0.3,0.1-0.6,0.2-0.8
			c0.1-0.2,0.2-0.4,0.4-0.5c0.2-0.1,0.4-0.2,0.6-0.3c0.2-0.1,0.4-0.1,0.6-0.1c0.3,0,0.5,0.1,0.9,0.2C58.5,107.8,58.8,108,59,108.2z"
			/>
		<path class="st0" d="M65.8,112.9c-0.3,0.3-0.6,0.5-1,0.6c-0.4,0.2-0.8,0.2-1.2,0.2c-0.4,0-0.9-0.1-1.2-0.2c-0.4-0.2-0.7-0.4-1-0.7
			s-0.5-0.6-0.7-1c-0.2-0.4-0.2-0.8-0.2-1.2s0.1-0.8,0.2-1.2c0.2-0.4,0.4-0.7,0.7-1s0.6-0.5,1-0.7s0.8-0.2,1.2-0.2
			c0.7,0,1.2,0.2,1.7,0.6c0.5,0.4,0.8,0.9,1.1,1.5c-0.3,0.1-0.7,0.3-1.1,0.4c-0.4,0.2-0.8,0.3-1.3,0.5s-0.9,0.3-1.3,0.5
			c-0.4,0.2-0.8,0.3-1.2,0.5c0.2,0.4,0.5,0.7,0.8,1c0.4,0.3,0.8,0.4,1.3,0.4c0.3,0,0.6-0.1,0.9-0.2c0.3-0.1,0.5-0.3,0.7-0.4
			L65.8,112.9z M65.3,109.4c-0.2-0.3-0.4-0.6-0.7-0.8c-0.3-0.2-0.7-0.3-1-0.3c-0.3,0-0.6,0.1-0.9,0.2c-0.3,0.1-0.5,0.3-0.7,0.5
			s-0.4,0.5-0.5,0.7c-0.1,0.3-0.2,0.6-0.2,0.9c0,0.2,0,0.3,0,0.4c0.3-0.1,0.6-0.3,1-0.4c0.3-0.1,0.7-0.3,1-0.4
			c0.3-0.1,0.7-0.3,1-0.4C64.7,109.7,65,109.5,65.3,109.4z"/>
		<path class="st0" d="M71.9,113.6v-10.7h1v4.8H79v-4.8h1c0,0.4,0,0.8,0,1.4c0,0.6,0,1.2,0,1.9s0,1.4,0,2.1c0,0.7,0,1.4,0,2.1
			c0,0.7,0,1.3,0,1.9s0,1,0,1.4h-1v-4.9h-6.1v4.9H71.9z"/>
		<path class="st0" d="M82.2,105.5c0-0.2,0.1-0.3,0.2-0.4s0.3-0.2,0.4-0.2c0.1,0,0.3,0.1,0.4,0.2s0.2,0.3,0.2,0.4
			c0,0.2-0.1,0.3-0.2,0.4c-0.1,0.1-0.3,0.2-0.4,0.2c-0.2,0-0.3-0.1-0.4-0.2C82.3,105.8,82.2,105.7,82.2,105.5z M83.3,113.6h-0.8v-6
			h0.8V113.6z"/>
		<path class="st0" d="M88.5,108.2l-0.4,0.6c-0.1-0.1-0.2-0.2-0.5-0.3c-0.2-0.1-0.5-0.1-0.7-0.1c-0.1,0-0.2,0-0.3,0
			s-0.2,0.1-0.3,0.1c-0.1,0.1-0.2,0.2-0.2,0.3c-0.1,0.1-0.1,0.2-0.1,0.4c0,0.2,0.1,0.4,0.2,0.5c0.1,0.1,0.3,0.3,0.5,0.4
			c0.2,0.1,0.4,0.2,0.7,0.3s0.5,0.2,0.7,0.3s0.4,0.3,0.5,0.5c0.1,0.2,0.2,0.5,0.2,0.8c0,0.5-0.2,0.9-0.5,1.3
			c-0.3,0.3-0.8,0.5-1.5,0.5c-0.3,0-0.7-0.1-1-0.2c-0.4-0.1-0.6-0.3-0.9-0.6c0,0,0.1-0.1,0.2-0.2c0.1-0.1,0.1-0.1,0.2-0.2
			c0-0.1,0.1-0.1,0.1-0.2s0.1-0.1,0.1-0.1c0,0,0.1,0.1,0.2,0.2c0.1,0.1,0.2,0.1,0.3,0.2c0.1,0.1,0.3,0.1,0.4,0.1
			c0.2,0,0.3,0.1,0.4,0.1c0.1,0,0.2,0,0.4-0.1c0.1,0,0.3-0.1,0.4-0.2c0.1-0.1,0.2-0.2,0.3-0.3c0.1-0.1,0.1-0.3,0.1-0.4
			c0-0.2-0.1-0.4-0.2-0.5c-0.1-0.1-0.3-0.3-0.5-0.4c-0.2-0.1-0.4-0.2-0.7-0.3s-0.5-0.2-0.7-0.3s-0.4-0.3-0.5-0.5
			c-0.1-0.2-0.2-0.5-0.2-0.8c0-0.3,0.1-0.6,0.2-0.8c0.1-0.2,0.2-0.4,0.4-0.5c0.2-0.1,0.4-0.2,0.6-0.3c0.2-0.1,0.4-0.1,0.6-0.1
			c0.3,0,0.5,0.1,0.9,0.2C88,107.8,88.2,108,88.5,108.2z"/>
		<path class="st0" d="M90.7,105h0.8v2.7h1.8v0.8h-1.8v5.2h-0.8v-5.2h-1.2v-0.8h1.2V105z"/>
		<path class="st0" d="M93.9,110.6c0-0.4,0.1-0.8,0.2-1.2c0.2-0.4,0.4-0.7,0.7-1s0.6-0.5,1-0.7c0.4-0.2,0.8-0.2,1.2-0.2
			c0.4,0,0.9,0.1,1.2,0.2s0.7,0.4,1,0.7c0.3,0.3,0.5,0.6,0.7,1c0.2,0.4,0.2,0.8,0.2,1.2s-0.1,0.8-0.2,1.2c-0.2,0.4-0.4,0.7-0.7,1
			s-0.6,0.5-1,0.7c-0.4,0.2-0.8,0.2-1.2,0.2c-0.4,0-0.9-0.1-1.2-0.2c-0.4-0.2-0.7-0.4-1-0.7c-0.3-0.3-0.5-0.6-0.7-1
			C94,111.5,93.9,111.1,93.9,110.6z M94.8,110.6c0,0.3,0.1,0.6,0.2,0.9c0.1,0.3,0.3,0.5,0.5,0.7s0.5,0.4,0.7,0.5
			c0.3,0.1,0.6,0.2,0.9,0.2s0.6-0.1,0.9-0.2c0.3-0.1,0.5-0.3,0.7-0.5s0.4-0.5,0.5-0.7c0.1-0.3,0.2-0.6,0.2-0.9s-0.1-0.6-0.2-0.9
			s-0.3-0.5-0.5-0.7s-0.5-0.4-0.7-0.5c-0.3-0.1-0.6-0.2-0.9-0.2s-0.6,0.1-0.9,0.2c-0.3,0.1-0.5,0.3-0.7,0.5s-0.4,0.5-0.5,0.7
			S94.8,110.3,94.8,110.6z"/>
		<path class="st0" d="M105,108.6c-0.3,0-0.6,0-0.9,0.1c-0.3,0.1-0.5,0.2-0.7,0.4s-0.4,0.4-0.5,0.6c-0.1,0.2-0.2,0.5-0.2,0.8v3.1
			h-0.8v-6h0.7l0.1,1.5c0.1-0.3,0.3-0.5,0.5-0.7c0.2-0.2,0.4-0.4,0.6-0.5c0.2-0.1,0.5-0.3,0.7-0.3s0.5-0.1,0.7-0.1L105,108.6z"/>
		<path class="st0" d="M107.6,116.5h-0.9c0.1-0.3,0.2-0.5,0.4-0.8c0.1-0.2,0.2-0.5,0.3-0.7c0.1-0.2,0.2-0.5,0.3-0.8
			c0.1-0.3,0.2-0.6,0.4-0.9c-0.5-0.9-0.9-1.9-1.4-2.9c-0.4-1-0.9-2-1.3-2.9h0.9c0.3,0.6,0.6,1.1,0.8,1.6c0.2,0.5,0.4,0.9,0.6,1.3
			c0.2,0.4,0.3,0.8,0.5,1.1c0.1,0.3,0.3,0.7,0.4,1c0.1-0.3,0.3-0.7,0.4-1s0.3-0.7,0.5-1.1s0.4-0.8,0.6-1.3c0.2-0.5,0.5-1,0.8-1.6
			h0.9L107.6,116.5z"/>
	</g>
</g>
</svg>
