<?xml version="1.0" encoding="utf-8"?>
<!-- Generator: Adobe Illustrator 21.0.0, SVG Export Plug-In . SVG Version: 6.00 Build 0)  -->
<svg version="1.1" id="Icons" xmlns="http://www.w3.org/2000/svg" xmlns:xlink="http://www.w3.org/1999/xlink" x="0px" y="0px"
	 viewBox="0 0 150 150" style="enable-background:new 0 0 150 150;" xml:space="preserve">
<style type="text/css">
	.st0{fill:#FFFFFF;}
	.st1{fill:#396D5D;}
	.st2{fill:#333A3B;}
	.st3{fill:#394142;}
</style>
<rect id="bg" x="-1216.2" y="-108.2" class="st0" width="2000" height="718.2"/>
<rect id="green_x5F_bg" x="-74.2" y="-108.2" class="st1" width="1050" height="718.2"/>
<g>
	<g id="CICL_x5F_grp_1_">
		<g>
			<path class="st0" d="M75,32.1c-2.3,0-4.2-1.9-4.2-4.2s1.9-4.2,4.2-4.2s4.2,1.9,4.2,4.2S77.3,32.1,75,32.1z M75,24.7
				c-1.8,0-3.2,1.4-3.2,3.2s1.4,3.2,3.2,3.2c1.8,0,3.2-1.4,3.2-3.2S76.8,24.7,75,24.7z"/>
		</g>
		<g>
			<rect x="74.5" y="18.5" class="st0" width="1" height="5.7"/>
		</g>
		<g>
			<rect x="74.5" y="31.6" class="st0" width="1" height="47"/>
		</g>
		<g>
			<rect x="56.2" y="78.2" class="st0" width="37.5" height="1"/>
		</g>
		<g>
			<rect x="49.7" y="29.2" transform="matrix(0.9924 -0.1231 0.1231 0.9924 -3.2011 7.6539)" class="st0" width="21.3" height="1"/>
		</g>
		<g>
			<rect x="79" y="25.6" transform="matrix(0.9924 -0.1231 0.1231 0.9924 -2.5285 11.2314)" class="st0" width="21.3" height="1"/>
		</g>
		<g>
			<g>
				<path class="st0" d="M66.6,57.4H49.2l8.2-28.1L66.6,57.4z M50.6,56.4h14.6l-7.7-23.7L50.6,56.4z"/>
			</g>
			<g>
				<path class="st0" d="M57.9,65.8c-4.8,0-8.6-3.9-8.6-8.7h1c0,4.2,3.4,7.7,7.6,7.7c4.2,0,7.6-3.5,7.6-7.7h1
					C66.5,61.9,62.7,65.8,57.9,65.8z"/>
			</g>
		</g>
		<g>
			<g>
				<path class="st0" d="M100.8,53.2H83.4l8.2-28.1L100.8,53.2z M84.8,52.2h14.6l-7.7-23.7L84.8,52.2z"/>
			</g>
			<g>
				<path class="st0" d="M92.1,61.6c-4.8,0-8.6-3.9-8.6-8.7h1c0,4.2,3.4,7.7,7.6,7.7c4.2,0,7.6-3.5,7.6-7.7h1
					C100.7,57.7,96.8,61.6,92.1,61.6z"/>
			</g>
		</g>
	</g>
	<g>
		<path class="st0" d="M22.1,98.4v10.5c-0.3-0.3-0.6-0.7-1-1.2c-0.4-0.5-0.8-0.9-1.3-1.4c-0.5-0.5-0.9-1-1.4-1.6
			c-0.5-0.5-1-1.1-1.4-1.6c-0.5-0.5-0.9-1-1.3-1.4s-0.7-0.8-0.9-1.2c0,0-0.1-0.1-0.1-0.2c-0.1-0.1-0.1-0.1-0.2-0.2l0,0.4v7.8h-1V98
			c0.3,0.3,0.6,0.7,1,1.2c0.4,0.4,0.8,0.9,1.3,1.4s0.9,1,1.4,1.6s1,1,1.4,1.5c0.5,0.5,0.9,1,1.3,1.4c0.4,0.4,0.7,0.8,1,1.2
			c0,0,0.1,0.1,0.1,0.2c0.1,0.1,0.1,0.1,0.2,0.2l0-0.5v-7.7H22.1z"/>
		<path class="st0" d="M28.8,107.7c-0.3,0.2-0.6,0.4-1,0.6c-0.4,0.1-0.7,0.2-1.1,0.2c-0.4,0-0.8-0.1-1.2-0.2s-0.7-0.4-0.9-0.6
			c-0.3-0.3-0.5-0.6-0.6-0.9c-0.2-0.4-0.2-0.7-0.2-1.1s0.1-0.8,0.2-1.1c0.2-0.4,0.4-0.7,0.6-0.9c0.3-0.3,0.6-0.5,0.9-0.6
			c0.4-0.2,0.7-0.2,1.1-0.2c0.6,0,1.2,0.2,1.6,0.6c0.5,0.4,0.8,0.8,1,1.4c-0.3,0.1-0.7,0.3-1.1,0.4c-0.4,0.2-0.8,0.3-1.2,0.5
			c-0.4,0.2-0.8,0.3-1.2,0.5c-0.4,0.2-0.8,0.3-1.1,0.5c0.2,0.4,0.4,0.7,0.8,0.9c0.4,0.2,0.7,0.4,1.2,0.4c0.3,0,0.6-0.1,0.9-0.2
			c0.3-0.1,0.5-0.2,0.7-0.4L28.8,107.7z M28.3,104.5c-0.2-0.3-0.4-0.6-0.7-0.7c-0.3-0.2-0.6-0.3-1-0.3c-0.3,0-0.6,0.1-0.8,0.2
			c-0.3,0.1-0.5,0.3-0.7,0.5c-0.2,0.2-0.3,0.4-0.5,0.7c-0.1,0.3-0.2,0.5-0.2,0.8c0,0.1,0,0.3,0,0.4c0.3-0.1,0.6-0.2,0.9-0.4
			c0.3-0.1,0.7-0.3,1-0.4c0.3-0.1,0.6-0.3,1-0.4C27.7,104.7,28,104.6,28.3,104.5z"/>
		<path class="st0" d="M33.6,104l-0.5-1.2h0.7c0.5,1,0.9,1.9,1.2,2.6c0.3,0.7,0.6,1.3,0.8,1.9c0.1-0.3,0.2-0.7,0.4-1s0.3-0.6,0.4-1
			c0.1-0.3,0.3-0.7,0.5-1.1c0.2-0.4,0.4-0.9,0.6-1.4h0.8l-2.6,5.9c-0.3-0.7-0.6-1.3-0.9-2c-0.3-0.7-0.6-1.3-0.9-2l-1.7,4
			c-0.4-1-0.9-2-1.3-3c-0.4-1-0.9-2-1.3-3h0.8c0.2,0.5,0.4,1,0.6,1.4c0.2,0.4,0.3,0.8,0.5,1.1c0.1,0.3,0.3,0.7,0.4,1
			c0.1,0.3,0.2,0.6,0.3,1c0.1-0.2,0.2-0.4,0.2-0.6c0.1-0.2,0.2-0.4,0.3-0.7c0.1-0.3,0.2-0.5,0.3-0.9S33.4,104.4,33.6,104z"/>
		<path class="st0" d="M50.3,107.7c-0.3,0.2-0.7,0.4-1.2,0.5c-0.5,0.2-1.1,0.3-1.7,0.3c-0.8,0-1.5-0.1-2.1-0.4
			c-0.6-0.3-1.1-0.6-1.6-1.1c-0.4-0.5-0.8-1-1-1.6c-0.2-0.6-0.4-1.3-0.4-1.9c0-0.7,0.1-1.4,0.4-2.1c0.3-0.6,0.6-1.2,1.1-1.6
			s1-0.8,1.6-1.1c0.6-0.3,1.3-0.4,2-0.4c0.3,0,0.5,0,0.8,0c0.3,0,0.5,0.1,0.7,0.1c0.2,0.1,0.4,0.1,0.6,0.2c0.2,0.1,0.4,0.2,0.5,0.3
			c0,0.1-0.1,0.1-0.1,0.2c0,0-0.1,0.1-0.1,0.1c0,0.1-0.1,0.1-0.1,0.2c0,0.1-0.1,0.1-0.1,0.3c-0.3-0.2-0.6-0.3-1-0.4
			c-0.4-0.1-0.8-0.1-1.1-0.1c-0.6,0-1.1,0.1-1.7,0.3c-0.5,0.2-1,0.5-1.3,0.9c-0.4,0.4-0.7,0.8-0.9,1.3s-0.3,1-0.3,1.6
			c0,0.5,0.1,1.1,0.3,1.6c0.2,0.5,0.5,0.9,0.8,1.3c0.4,0.4,0.8,0.7,1.3,0.9s1.1,0.3,1.7,0.3c0.3,0,0.5,0,0.8-0.1s0.5-0.1,0.7-0.2
			c0.2-0.1,0.4-0.1,0.6-0.2c0.2-0.1,0.3-0.1,0.4-0.2L50.3,107.7z"/>
		<path class="st0" d="M51.5,97.7h0.8v6.5c0.2-0.4,0.5-0.8,0.9-1.1c0.4-0.3,0.9-0.4,1.4-0.4c0.6,0,1,0.2,1.3,0.5
			c0.3,0.3,0.5,0.7,0.5,1.2v4h-0.8v-3.8c0-0.3-0.1-0.6-0.3-0.8c-0.2-0.2-0.5-0.3-0.9-0.4c-0.3,0-0.6,0-0.8,0.1
			c-0.3,0.1-0.5,0.2-0.7,0.4c-0.2,0.2-0.3,0.4-0.4,0.6c-0.1,0.2-0.2,0.5-0.2,0.8v3h-0.8V97.7z"/>
		<path class="st0" d="M58.1,100.8c0-0.2,0.1-0.3,0.2-0.4c0.1-0.1,0.2-0.2,0.4-0.2c0.1,0,0.3,0.1,0.4,0.2c0.1,0.1,0.2,0.2,0.2,0.4
			c0,0.2-0.1,0.3-0.2,0.4c-0.1,0.1-0.2,0.2-0.4,0.2c-0.1,0-0.3-0.1-0.4-0.2C58.1,101.1,58.1,101,58.1,100.8z M59,108.4h-0.8v-5.6H59
			V108.4z"/>
		<path class="st0" d="M61.7,108.4h-0.8V97.7h0.8V108.4z"/>
		<path class="st0" d="M63.2,105.6c0-0.4,0.1-0.8,0.2-1.2c0.1-0.4,0.4-0.7,0.6-0.9s0.6-0.5,0.9-0.6s0.7-0.2,1.1-0.2
			c0.3,0,0.6,0,0.8,0.1c0.2,0.1,0.5,0.2,0.7,0.3c0.2,0.1,0.4,0.3,0.5,0.4c0.1,0.2,0.2,0.3,0.3,0.5v-6.3h0.8v10.7h-0.8v-0.6
			c0-0.1,0-0.2,0-0.3c0-0.1,0-0.2,0-0.3c-0.2,0.3-0.5,0.6-0.9,0.9c-0.4,0.3-0.9,0.4-1.4,0.4c-0.4,0-0.8-0.1-1.2-0.2
			s-0.7-0.4-0.9-0.6c-0.3-0.3-0.4-0.6-0.6-0.9C63.3,106.4,63.2,106,63.2,105.6z M64,105.6c0,0.3,0.1,0.6,0.2,0.9
			c0.1,0.3,0.3,0.5,0.5,0.7c0.2,0.2,0.4,0.4,0.7,0.5c0.3,0.1,0.6,0.2,0.9,0.2s0.6-0.1,0.9-0.2c0.3-0.1,0.5-0.3,0.7-0.5
			c0.2-0.2,0.4-0.4,0.5-0.7c0.1-0.3,0.2-0.5,0.2-0.9c0-0.3-0.1-0.6-0.2-0.8c-0.1-0.3-0.3-0.5-0.5-0.7c-0.2-0.2-0.4-0.4-0.7-0.5
			c-0.3-0.1-0.6-0.2-0.9-0.2s-0.6,0.1-0.9,0.2c-0.3,0.1-0.5,0.3-0.7,0.5c-0.2,0.2-0.4,0.4-0.5,0.7C64.1,105,64,105.3,64,105.6z"/>
		<path class="st0" d="M75,108.4v-10h2.4c0.4,0,0.8,0.1,1.2,0.2c0.4,0.1,0.7,0.3,1,0.5c0.3,0.2,0.5,0.5,0.7,0.9
			c0.2,0.4,0.3,0.8,0.3,1.3c0,0.6-0.1,1.1-0.4,1.6s-0.7,0.9-1.2,1.2c0.1,0.1,0.2,0.3,0.3,0.6s0.3,0.5,0.5,0.8s0.3,0.6,0.5,0.9
			c0.2,0.3,0.4,0.6,0.5,0.9c0.2,0.3,0.3,0.5,0.5,0.7c0.1,0.2,0.3,0.4,0.3,0.5h-1.2c-0.1-0.1-0.2-0.3-0.3-0.5
			c-0.1-0.2-0.3-0.4-0.4-0.7c-0.1-0.2-0.3-0.5-0.5-0.8s-0.3-0.5-0.5-0.8c-0.2-0.3-0.3-0.5-0.5-0.7c-0.1-0.2-0.3-0.4-0.4-0.6
			c-0.1,0-0.2,0-0.3,0c-0.1,0-0.2,0-0.3,0h-1.5v4H75z M75.9,103.5h1.5c0.4,0,0.8-0.1,1.1-0.2s0.5-0.3,0.7-0.6
			c0.2-0.2,0.3-0.5,0.4-0.7c0.1-0.2,0.1-0.5,0.1-0.7c0-0.3,0-0.5-0.1-0.7c-0.1-0.2-0.2-0.5-0.4-0.7s-0.4-0.3-0.7-0.5
			c-0.3-0.1-0.6-0.2-1-0.2h-1.5V103.5z"/>
		<path class="st0" d="M87,107.7c-0.3,0.2-0.6,0.4-1,0.6c-0.4,0.1-0.7,0.2-1.1,0.2c-0.4,0-0.8-0.1-1.2-0.2c-0.4-0.2-0.7-0.4-0.9-0.6
			c-0.3-0.3-0.5-0.6-0.6-0.9S82,106,82,105.6s0.1-0.8,0.2-1.1c0.2-0.4,0.4-0.7,0.6-0.9s0.6-0.5,0.9-0.6c0.4-0.2,0.7-0.2,1.1-0.2
			c0.6,0,1.1,0.2,1.6,0.6s0.8,0.8,1,1.4c-0.3,0.1-0.7,0.3-1.1,0.4c-0.4,0.2-0.8,0.3-1.2,0.5c-0.4,0.2-0.8,0.3-1.2,0.5
			s-0.8,0.3-1.1,0.5c0.2,0.4,0.4,0.7,0.8,0.9c0.3,0.2,0.7,0.4,1.2,0.4c0.3,0,0.6-0.1,0.9-0.2s0.5-0.2,0.7-0.4L87,107.7z M86.5,104.5
			c-0.2-0.3-0.4-0.6-0.7-0.7c-0.3-0.2-0.6-0.3-1-0.3c-0.3,0-0.6,0.1-0.8,0.2c-0.3,0.1-0.5,0.3-0.7,0.5s-0.3,0.4-0.5,0.7
			c-0.1,0.3-0.2,0.5-0.2,0.8c0,0.1,0,0.3,0,0.4c0.3-0.1,0.6-0.2,0.9-0.4c0.3-0.1,0.7-0.3,1-0.4c0.3-0.1,0.6-0.3,1-0.4
			C86,104.7,86.2,104.6,86.5,104.5z"/>
		<path class="st0" d="M88.3,105.6c0-0.4,0.1-0.8,0.2-1.2c0.1-0.4,0.4-0.7,0.6-0.9c0.3-0.3,0.6-0.5,0.9-0.6c0.3-0.1,0.7-0.2,1.1-0.2
			c0.3,0,0.6,0,0.8,0.1c0.3,0.1,0.5,0.2,0.7,0.3s0.4,0.3,0.5,0.4s0.2,0.3,0.3,0.4c0-0.2,0-0.4,0-0.6c0-0.2,0-0.4,0-0.6h0.7v5.5
			c0,0.4-0.1,0.8-0.2,1.1s-0.3,0.6-0.5,0.9c-0.2,0.2-0.6,0.4-0.9,0.6c-0.4,0.1-0.8,0.2-1.3,0.2c-0.5,0-1-0.1-1.4-0.3
			c-0.4-0.2-0.8-0.5-1.2-0.9l0.5-0.5c0.4,0.4,0.7,0.6,1,0.7c0.3,0.1,0.7,0.2,1,0.2c0.4,0,0.7,0,1-0.1c0.3-0.1,0.5-0.2,0.7-0.4
			c0.2-0.2,0.3-0.4,0.4-0.6s0.1-0.5,0.1-0.8c0-0.1,0-0.1,0-0.2s0-0.2,0-0.3c0,0,0-0.1,0-0.1s0-0.1,0-0.2c0-0.1,0-0.1,0-0.2
			s0-0.1,0-0.1c-0.2,0.4-0.5,0.7-0.8,0.9s-0.9,0.4-1.4,0.4c-0.4,0-0.8-0.1-1.1-0.2c-0.4-0.1-0.7-0.4-0.9-0.6
			c-0.3-0.3-0.5-0.6-0.6-0.9C88.4,106.4,88.3,106,88.3,105.6z M89.1,105.6c0,0.3,0.1,0.6,0.2,0.9c0.1,0.3,0.3,0.5,0.5,0.7
			c0.2,0.2,0.4,0.4,0.7,0.5c0.3,0.1,0.6,0.2,0.9,0.2c0.3,0,0.6-0.1,0.9-0.2c0.3-0.1,0.5-0.3,0.7-0.5c0.2-0.2,0.3-0.4,0.5-0.7
			c0.1-0.3,0.2-0.5,0.2-0.9c0-0.3-0.1-0.6-0.2-0.8c-0.1-0.3-0.3-0.5-0.5-0.7c-0.2-0.2-0.4-0.4-0.7-0.5c-0.3-0.1-0.6-0.2-0.9-0.2
			c-0.3,0-0.6,0.1-0.9,0.2c-0.3,0.1-0.5,0.3-0.7,0.5c-0.2,0.2-0.3,0.4-0.5,0.7C89.2,105,89.1,105.3,89.1,105.6z"/>
		<path class="st0" d="M96,100.8c0-0.2,0.1-0.3,0.2-0.4c0.1-0.1,0.2-0.2,0.4-0.2c0.1,0,0.3,0.1,0.4,0.2c0.1,0.1,0.2,0.2,0.2,0.4
			c0,0.2-0.1,0.3-0.2,0.4c-0.1,0.1-0.2,0.2-0.4,0.2c-0.1,0-0.3-0.1-0.4-0.2C96.1,101.1,96,101,96,100.8z M96.9,108.4h-0.8v-5.6h0.8
			V108.4z"/>
		<path class="st0" d="M101.8,103.3l-0.4,0.5c-0.1-0.1-0.2-0.2-0.4-0.3s-0.4-0.1-0.7-0.1c-0.1,0-0.2,0-0.3,0c-0.1,0-0.2,0.1-0.3,0.1
			s-0.2,0.1-0.2,0.2c-0.1,0.1-0.1,0.2-0.1,0.4c0,0.2,0.1,0.4,0.2,0.5s0.3,0.2,0.5,0.3c0.2,0.1,0.4,0.2,0.6,0.3s0.4,0.2,0.6,0.3
			c0.2,0.1,0.4,0.3,0.5,0.5s0.2,0.4,0.2,0.7c0,0.5-0.2,0.9-0.5,1.2s-0.8,0.5-1.4,0.5c-0.3,0-0.6-0.1-1-0.2c-0.3-0.1-0.6-0.3-0.8-0.5
			c0,0,0.1-0.1,0.1-0.2c0.1-0.1,0.1-0.1,0.2-0.2c0-0.1,0.1-0.1,0.1-0.1c0,0,0.1-0.1,0.1-0.1c0,0,0.1,0.1,0.2,0.2
			c0.1,0.1,0.2,0.1,0.3,0.2c0.1,0.1,0.3,0.1,0.4,0.1c0.1,0,0.3,0.1,0.4,0.1c0.1,0,0.2,0,0.4,0c0.1,0,0.2-0.1,0.4-0.2
			c0.1-0.1,0.2-0.2,0.3-0.3s0.1-0.2,0.1-0.4c0-0.2-0.1-0.4-0.2-0.5c-0.1-0.1-0.3-0.2-0.5-0.3c-0.2-0.1-0.4-0.2-0.6-0.3
			s-0.4-0.2-0.6-0.3s-0.4-0.3-0.5-0.5c-0.1-0.2-0.2-0.4-0.2-0.8c0-0.3,0.1-0.5,0.2-0.7s0.2-0.3,0.4-0.5c0.2-0.1,0.3-0.2,0.5-0.3
			c0.2-0.1,0.4-0.1,0.6-0.1c0.2,0,0.5,0.1,0.8,0.2C101.3,103,101.6,103.1,101.8,103.3z"/>
		<path class="st0" d="M103.9,100.4h0.8v2.5h1.7v0.7h-1.7v4.8h-0.8v-4.8h-1.1v-0.7h1.1V100.4z"/>
		<path class="st0" d="M110.4,103.7c-0.3,0-0.5,0-0.8,0.1s-0.5,0.2-0.7,0.4c-0.2,0.2-0.4,0.4-0.5,0.6c-0.1,0.2-0.2,0.5-0.2,0.8v2.9
			h-0.8v-5.6h0.7l0.1,1.4c0.1-0.2,0.3-0.5,0.4-0.7s0.4-0.4,0.6-0.5c0.2-0.1,0.4-0.2,0.7-0.3c0.2-0.1,0.4-0.1,0.7-0.1L110.4,103.7z"
			/>
		<path class="st0" d="M111,105.6c0-0.4,0.1-0.8,0.2-1.1c0.2-0.4,0.4-0.7,0.6-0.9c0.3-0.3,0.6-0.5,0.9-0.6s0.7-0.2,1.1-0.2
			c0.3,0,0.5,0,0.8,0.1c0.2,0.1,0.5,0.2,0.7,0.3c0.2,0.1,0.4,0.3,0.5,0.4c0.1,0.2,0.2,0.3,0.3,0.5l0.1-1.2h0.7v5.6h-0.8v-0.6
			c0-0.1,0-0.2,0-0.3c0-0.1,0-0.2,0-0.3c-0.1,0.2-0.2,0.3-0.3,0.5c-0.1,0.1-0.3,0.3-0.5,0.4c-0.2,0.1-0.4,0.2-0.7,0.3
			c-0.2,0.1-0.5,0.1-0.8,0.1c-0.4,0-0.8-0.1-1.2-0.2s-0.7-0.4-0.9-0.6c-0.3-0.3-0.5-0.6-0.6-0.9C111.1,106.4,111,106,111,105.6z
			 M111.8,105.6c0,0.3,0.1,0.6,0.2,0.9c0.1,0.3,0.3,0.5,0.5,0.7c0.2,0.2,0.4,0.4,0.7,0.5c0.3,0.1,0.6,0.2,0.9,0.2s0.6-0.1,0.9-0.2
			c0.3-0.1,0.5-0.3,0.7-0.5c0.2-0.2,0.4-0.4,0.5-0.7c0.1-0.3,0.2-0.5,0.2-0.9c0-0.3-0.1-0.6-0.2-0.8c-0.1-0.3-0.3-0.5-0.5-0.7
			c-0.2-0.2-0.4-0.4-0.7-0.5c-0.3-0.1-0.6-0.2-0.9-0.2s-0.6,0.1-0.9,0.2c-0.3,0.1-0.5,0.3-0.7,0.5c-0.2,0.2-0.4,0.4-0.5,0.7
			C111.8,105,111.8,105.3,111.8,105.6z"/>
		<path class="st0" d="M119.3,100.4h0.8v2.5h1.7v0.7H120v4.8h-0.8v-4.8h-1.1v-0.7h1.1V100.4z"/>
		<path class="st0" d="M122.7,100.8c0-0.2,0.1-0.3,0.2-0.4c0.1-0.1,0.2-0.2,0.4-0.2c0.1,0,0.3,0.1,0.4,0.2c0.1,0.1,0.2,0.2,0.2,0.4
			c0,0.2-0.1,0.3-0.2,0.4c-0.1,0.1-0.2,0.2-0.4,0.2c-0.1,0-0.3-0.1-0.4-0.2C122.7,101.1,122.7,101,122.7,100.8z M123.6,108.4h-0.8
			v-5.6h0.8V108.4z"/>
		<path class="st0" d="M125.1,105.6c0-0.4,0.1-0.8,0.2-1.1c0.2-0.4,0.4-0.7,0.6-0.9c0.3-0.3,0.6-0.5,0.9-0.6
			c0.4-0.2,0.7-0.2,1.2-0.2c0.4,0,0.8,0.1,1.2,0.2c0.4,0.2,0.7,0.4,0.9,0.6s0.5,0.6,0.6,0.9c0.1,0.4,0.2,0.7,0.2,1.1
			s-0.1,0.8-0.2,1.1s-0.4,0.7-0.6,0.9c-0.3,0.3-0.6,0.5-0.9,0.6c-0.4,0.2-0.7,0.2-1.2,0.2c-0.4,0-0.8-0.1-1.1-0.2
			c-0.4-0.1-0.7-0.3-0.9-0.6c-0.3-0.3-0.5-0.6-0.6-0.9C125.2,106.4,125.1,106,125.1,105.6z M125.9,105.6c0,0.3,0.1,0.6,0.2,0.8
			c0.1,0.3,0.3,0.5,0.5,0.7c0.2,0.2,0.4,0.4,0.7,0.5c0.3,0.1,0.5,0.2,0.8,0.2c0.3,0,0.6-0.1,0.8-0.2c0.3-0.1,0.5-0.3,0.7-0.5
			c0.2-0.2,0.4-0.4,0.5-0.7c0.1-0.3,0.2-0.5,0.2-0.8s-0.1-0.6-0.2-0.8c-0.1-0.3-0.3-0.5-0.5-0.7c-0.2-0.2-0.4-0.4-0.7-0.5
			c-0.3-0.1-0.5-0.2-0.8-0.2c-0.3,0-0.6,0.1-0.8,0.2c-0.3,0.1-0.5,0.3-0.7,0.5c-0.2,0.2-0.4,0.4-0.5,0.7
			C125.9,105,125.9,105.3,125.9,105.6z"/>
		<path class="st0" d="M132.5,102.8h0.7l0.1,1.4c0.2-0.5,0.5-0.8,0.9-1.1s0.9-0.4,1.4-0.4c0.6,0,1,0.2,1.3,0.5
			c0.3,0.3,0.5,0.7,0.5,1.2v4h-0.8v-3.8c0-0.3-0.1-0.6-0.3-0.8c-0.2-0.2-0.5-0.3-0.9-0.4c-0.3,0-0.6,0-0.8,0.1
			c-0.3,0.1-0.5,0.2-0.7,0.4c-0.2,0.2-0.3,0.4-0.4,0.6c-0.1,0.2-0.2,0.5-0.2,0.8v3h-0.8V102.8z"/>
		<path class="st0" d="M57.3,121.1c0-0.7,0.1-1.4,0.2-2c0.1-0.6,0.3-1.2,0.5-1.8c0.2-0.6,0.5-1,0.7-1.5c0.3-0.4,0.6-0.8,0.9-1.1
			l0.7,0.3c-0.3,0.3-0.5,0.7-0.8,1.1c-0.3,0.4-0.5,0.9-0.7,1.4c-0.2,0.5-0.4,1.1-0.5,1.7c-0.1,0.6-0.2,1.2-0.2,1.9s0.1,1.3,0.2,1.9
			c0.1,0.6,0.3,1.2,0.5,1.7c0.2,0.5,0.4,1,0.7,1.4c0.3,0.4,0.5,0.8,0.8,1.1l-0.7,0.3c-0.3-0.3-0.6-0.7-0.9-1.1s-0.5-0.9-0.7-1.5
			c-0.2-0.5-0.4-1.1-0.5-1.8C57.3,122.5,57.3,121.8,57.3,121.1z"/>
		<path class="st0" d="M68.8,124.5c-0.3,0.2-0.7,0.4-1.2,0.5c-0.5,0.2-1.1,0.3-1.7,0.3c-0.8,0-1.5-0.1-2.1-0.4
			c-0.6-0.3-1.1-0.6-1.6-1.1c-0.4-0.5-0.8-1-1-1.6s-0.4-1.3-0.4-1.9c0-0.7,0.1-1.4,0.4-2.1c0.3-0.6,0.6-1.2,1.1-1.6s1-0.8,1.6-1.1
			c0.6-0.3,1.3-0.4,2-0.4c0.3,0,0.5,0,0.8,0c0.3,0,0.5,0.1,0.7,0.1s0.4,0.1,0.6,0.2c0.2,0.1,0.4,0.2,0.5,0.3c0,0.1-0.1,0.1-0.1,0.2
			s-0.1,0.1-0.1,0.1c0,0.1-0.1,0.1-0.1,0.2c0,0.1-0.1,0.1-0.1,0.3c-0.3-0.2-0.6-0.3-1-0.4c-0.4-0.1-0.8-0.1-1.1-0.1
			c-0.6,0-1.1,0.1-1.7,0.3s-1,0.5-1.3,0.9c-0.4,0.4-0.7,0.8-0.9,1.3c-0.2,0.5-0.3,1-0.3,1.6c0,0.5,0.1,1.1,0.3,1.6
			c0.2,0.5,0.5,0.9,0.8,1.3s0.8,0.7,1.3,0.9s1.1,0.3,1.7,0.3c0.3,0,0.5,0,0.8-0.1s0.5-0.1,0.7-0.2c0.2-0.1,0.4-0.1,0.6-0.2
			c0.2-0.1,0.3-0.1,0.4-0.2L68.8,124.5z"/>
		<path class="st0" d="M70.6,115.2h1v10h-1V115.2z"/>
		<path class="st0" d="M81.6,124.5c-0.3,0.2-0.7,0.4-1.2,0.5c-0.5,0.2-1.1,0.3-1.7,0.3c-0.8,0-1.5-0.1-2.1-0.4
			c-0.6-0.3-1.1-0.6-1.6-1.1c-0.4-0.5-0.8-1-1-1.6s-0.4-1.3-0.4-1.9c0-0.7,0.1-1.4,0.4-2.1c0.3-0.6,0.6-1.2,1.1-1.6s1-0.8,1.6-1.1
			c0.6-0.3,1.3-0.4,2-0.4c0.3,0,0.5,0,0.8,0c0.3,0,0.5,0.1,0.7,0.1s0.4,0.1,0.6,0.2c0.2,0.1,0.4,0.2,0.5,0.3c0,0.1-0.1,0.1-0.1,0.2
			s-0.1,0.1-0.1,0.1c0,0.1-0.1,0.1-0.1,0.2c0,0.1-0.1,0.1-0.1,0.3c-0.3-0.2-0.6-0.3-1-0.4c-0.4-0.1-0.8-0.1-1.1-0.1
			c-0.6,0-1.1,0.1-1.7,0.3s-1,0.5-1.3,0.9c-0.4,0.4-0.7,0.8-0.9,1.3c-0.2,0.5-0.3,1-0.3,1.6c0,0.5,0.1,1.1,0.3,1.6
			c0.2,0.5,0.5,0.9,0.8,1.3s0.8,0.7,1.3,0.9s1.1,0.3,1.7,0.3c0.3,0,0.5,0,0.8-0.1s0.5-0.1,0.7-0.2c0.2-0.1,0.4-0.1,0.6-0.2
			c0.2-0.1,0.3-0.1,0.4-0.2L81.6,124.5z"/>
		<path class="st0" d="M83.4,125.2v-10h1v9.1h5.3v0.9H83.4z"/>
		<path class="st0" d="M93.2,121.1c0,0.7-0.1,1.4-0.2,2c-0.1,0.6-0.3,1.2-0.5,1.8s-0.5,1-0.7,1.5s-0.6,0.8-0.9,1.1
			c-0.1-0.1-0.2-0.1-0.3-0.2c-0.1-0.1-0.2-0.1-0.3-0.1c0.3-0.3,0.5-0.7,0.8-1.1s0.5-0.9,0.7-1.4c0.2-0.5,0.4-1.1,0.5-1.7
			c0.1-0.6,0.2-1.2,0.2-1.9c0-0.7-0.1-1.3-0.2-1.9c-0.1-0.6-0.3-1.2-0.5-1.7c-0.2-0.5-0.4-1-0.7-1.4c-0.3-0.4-0.5-0.8-0.8-1.1
			c0.1-0.1,0.2-0.1,0.3-0.2c0.1-0.1,0.2-0.1,0.3-0.2c0.3,0.3,0.6,0.7,0.9,1.1s0.5,0.9,0.7,1.5s0.4,1.1,0.5,1.8
			C93.1,119.8,93.2,120.4,93.2,121.1z"/>
	</g>
</g>
</svg>
