<?xml version="1.0" encoding="utf-8"?>
<!-- Generator: Adobe Illustrator 21.0.0, SVG Export Plug-In . SVG Version: 6.00 Build 0)  -->
<svg version="1.1" id="Icons" xmlns="http://www.w3.org/2000/svg" xmlns:xlink="http://www.w3.org/1999/xlink" x="0px" y="0px"
	 viewBox="0 0 150 150" style="enable-background:new 0 0 150 150;" xml:space="preserve">
<style type="text/css">
	.st0{fill:#396D5D;}
	.st1{display:none;}
	.st2{display:inline;}
	.st3{fill:none;stroke:#FFFFFF;stroke-width:1.5;stroke-miterlimit:10;}
	.st4{display:inline;fill:none;stroke:#FFFFFF;stroke-width:1.5;stroke-miterlimit:10;}
	.st5{enable-background:new    ;}
	.st6{fill:#FFFFFF;}
</style>
<rect id="green_x5F_bg" class="st0" width="150" height="150"/>
<g id="follow_x5F_up_x5F_form_x5F_green">
	<g id="follow_x5F_up_x5F_form_x5F_grp_x5F_1_2_">
		<g class="st1">
			<g class="st2">
				<circle class="st3" cx="74.9" cy="50.7" r="11"/>
				<path class="st3" d="M85.9,47.8c1.3,0,2.4,1.1,2.4,2.4c0,1.3-1.1,2.4-2.4,2.4"/>
				<path class="st3" d="M64,47.8c-1.3,0-2.4,1.1-2.4,2.4c0,1.3,1.1,2.4,2.4,2.4"/>
				<circle class="st3" cx="73.3" cy="49" r="0.5"/>
				<circle class="st3" cx="76.3" cy="49" r="0.5"/>
				<path class="st3" d="M81.2,52c0,2.9-2.9,5.3-6.4,5.3s-6.4-2.4-6.4-5.3"/>
			</g>
			<polygon class="st4" points="95.9,84.2 54,84.2 54,24.2 87.1,24.2 86.5,33.9 95.9,32.1 			"/>
			<g class="st2">
				<line class="st3" x1="60" y1="72.3" x2="90.5" y2="72.3"/>
				<line class="st3" x1="60" y1="76" x2="90.5" y2="76"/>
				<line class="st3" x1="90.5" y1="68.6" x2="60" y2="68.6"/>
			</g>
		</g>
		<g id="child_x5F_face_x5F_grp_1_" class="st1">
			<circle class="st4" cx="75" cy="47.5" r="11"/>
			<path class="st4" d="M86,44.5c1.3,0,2.4,1.1,2.4,2.4s-1.1,2.4-2.4,2.4"/>
			<path class="st4" d="M64,44.5c-1.3,0-2.4,1.1-2.4,2.4s1.1,2.4,2.4,2.4"/>
			<circle class="st4" cx="73.4" cy="45.8" r="0.5"/>
			<circle class="st4" cx="76.4" cy="45.8" r="0.5"/>
			<path class="st4" d="M81.2,48.8c0,2.9-2.9,5.3-6.4,5.3s-6.4-2.4-6.4-5.3"/>
		</g>
		<polygon class="st3" points="96,84.2 54.1,84.2 54.1,24.2 87.1,24.2 86.6,33.9 96,32.1 		"/>
		<g>
			<line class="st3" x1="59.8" y1="69.6" x2="90.3" y2="69.6"/>
			<line class="st3" x1="59.8" y1="73.8" x2="90.3" y2="73.8"/>
			<line class="st3" x1="90.3" y1="65.4" x2="59.8" y2="65.4"/>
		</g>
		<g>
			<g>
				<g>
					<line class="st3" x1="78.6" y1="46.9" x2="85.8" y2="54.2"/>
					<line class="st3" x1="85.8" y1="47" x2="78.6" y2="54.1"/>
				</g>
				<circle class="st3" cx="82.2" cy="50.5" r="8.4"/>
			</g>
			<g>
				<polyline class="st3" points="63,52.3 65.5,54.3 72.7,46.8 				"/>
				<circle class="st3" cx="67.8" cy="50.5" r="8.4"/>
			</g>
		</g>
	</g>
	<g class="st5">
		<path class="st6" d="M44.4,110.7V99.3H51v1h-5.5v4.3h4.8v1h-4.8v5.1H44.4z"/>
	</g>
	<g class="st5">
		<path class="st6" d="M51.2,107.5c0-0.5,0.1-0.9,0.3-1.3c0.2-0.4,0.4-0.8,0.7-1.1c0.3-0.3,0.7-0.5,1.1-0.7c0.4-0.2,0.9-0.3,1.3-0.3
			c0.5,0,0.9,0.1,1.3,0.3s0.8,0.4,1.1,0.7c0.3,0.3,0.5,0.7,0.7,1.1c0.2,0.4,0.3,0.8,0.3,1.3c0,0.5-0.1,0.9-0.3,1.3
			c-0.2,0.4-0.4,0.8-0.7,1.1s-0.7,0.5-1.1,0.7s-0.8,0.3-1.3,0.3c-0.5,0-0.9-0.1-1.3-0.2s-0.8-0.4-1.1-0.7c-0.3-0.3-0.5-0.7-0.7-1.1
			C51.3,108.4,51.2,108,51.2,107.5z M52.1,107.5c0,0.3,0.1,0.7,0.2,1c0.1,0.3,0.3,0.6,0.5,0.8s0.5,0.4,0.8,0.5
			c0.3,0.1,0.6,0.2,1,0.2s0.7-0.1,1-0.2s0.6-0.3,0.8-0.5s0.4-0.5,0.5-0.8c0.1-0.3,0.2-0.6,0.2-1c0-0.3-0.1-0.7-0.2-1
			s-0.3-0.6-0.5-0.8s-0.5-0.4-0.8-0.5s-0.6-0.2-1-0.2s-0.7,0.1-1,0.2c-0.3,0.1-0.6,0.3-0.8,0.5s-0.4,0.5-0.5,0.8
			C52.1,106.8,52.1,107.2,52.1,107.5z"/>
		<path class="st6" d="M60.5,110.7h-0.9V98.4h0.9V110.7z"/>
		<path class="st6" d="M63.6,110.7h-0.9V98.4h0.9V110.7z"/>
	</g>
	<g class="st5">
		<path class="st6" d="M65.4,107.5c0-0.5,0.1-0.9,0.3-1.3c0.2-0.4,0.4-0.8,0.7-1.1c0.3-0.3,0.7-0.5,1.1-0.7c0.4-0.2,0.9-0.3,1.3-0.3
			c0.5,0,0.9,0.1,1.3,0.3s0.8,0.4,1.1,0.7c0.3,0.3,0.5,0.7,0.7,1.1c0.2,0.4,0.3,0.8,0.3,1.3c0,0.5-0.1,0.9-0.3,1.3
			c-0.2,0.4-0.4,0.8-0.7,1.1s-0.7,0.5-1.1,0.7s-0.8,0.3-1.3,0.3c-0.5,0-0.9-0.1-1.3-0.2s-0.8-0.4-1.1-0.7c-0.3-0.3-0.5-0.7-0.7-1.1
			C65.5,108.4,65.4,108,65.4,107.5z M66.3,107.5c0,0.3,0.1,0.7,0.2,1c0.1,0.3,0.3,0.6,0.5,0.8s0.5,0.4,0.8,0.5
			c0.3,0.1,0.6,0.2,1,0.2s0.7-0.1,1-0.2s0.6-0.3,0.8-0.5s0.4-0.5,0.5-0.8c0.1-0.3,0.2-0.6,0.2-1c0-0.3-0.1-0.7-0.2-1
			s-0.3-0.6-0.5-0.8s-0.5-0.4-0.8-0.5s-0.6-0.2-1-0.2s-0.7,0.1-1,0.2c-0.3,0.1-0.6,0.3-0.8,0.5s-0.4,0.5-0.5,0.8
			C66.3,106.8,66.3,107.2,66.3,107.5z"/>
	</g>
	<g class="st5">
		<path class="st6" d="M77.3,105.7l-0.6-1.4h0.8c0.5,1.2,1,2.2,1.3,3c0.3,0.8,0.6,1.5,0.9,2.1c0.1-0.4,0.3-0.8,0.4-1.1
			s0.3-0.7,0.5-1.1c0.2-0.4,0.4-0.8,0.6-1.3c0.2-0.5,0.4-1,0.7-1.6h0.9l-3,6.8c-0.4-0.8-0.7-1.5-1-2.3c-0.3-0.7-0.6-1.5-1-2.3
			l-1.9,4.5c-0.5-1.1-1-2.3-1.5-3.4c-0.5-1.1-1-2.3-1.5-3.4h0.9c0.3,0.6,0.5,1.1,0.7,1.6s0.4,0.9,0.5,1.3s0.3,0.8,0.4,1.1
			c0.1,0.4,0.3,0.7,0.4,1.1c0.1-0.2,0.2-0.5,0.3-0.7c0.1-0.2,0.2-0.5,0.3-0.8c0.1-0.3,0.3-0.6,0.4-1S77.1,106.1,77.3,105.7z"/>
		<path class="st6" d="M83.9,107.8v-0.9h3v0.9H83.9z"/>
	</g>
	<g class="st5">
		<path class="st6" d="M93.5,110.8c-0.6,0-1.1-0.1-1.6-0.3s-0.9-0.5-1.3-0.8c-0.4-0.3-0.6-0.8-0.9-1.3s-0.3-1.1-0.3-1.7v-7.5h1.1
			v7.5c0,0.5,0.1,0.9,0.2,1.2c0.1,0.4,0.4,0.7,0.6,1c0.3,0.3,0.6,0.5,0.9,0.6c0.4,0.1,0.8,0.2,1.2,0.2c0.4,0,0.8-0.1,1.2-0.2
			c0.4-0.1,0.7-0.3,0.9-0.6c0.3-0.3,0.5-0.6,0.6-1c0.2-0.4,0.2-0.8,0.2-1.2v-7.5h1.1v7.5c0,0.6-0.1,1.2-0.3,1.7s-0.5,0.9-0.9,1.3
			c-0.4,0.3-0.8,0.6-1.3,0.8S94.1,110.8,93.5,110.8z"/>
	</g>
	<g class="st5">
		<path class="st6" d="M106.6,107.5c0,0.5-0.1,0.9-0.2,1.3c-0.2,0.4-0.4,0.8-0.7,1.1c-0.3,0.3-0.7,0.5-1.1,0.7s-0.8,0.3-1.3,0.3
			c-0.6,0-1.1-0.1-1.6-0.4s-0.8-0.6-1-1c0,0.1,0,0.2,0,0.3c0,0.1,0,0.2,0,0.3v3.7h-0.9v-9.5h0.8c0,0,0,0.1,0,0.2c0,0.1,0,0.2,0,0.4
			c0,0.1,0,0.3,0,0.4c0,0.1,0,0.3,0,0.4c0.2-0.4,0.5-0.7,1-1s1-0.4,1.6-0.4c0.5,0,0.9,0.1,1.3,0.2c0.4,0.2,0.7,0.4,1,0.7
			c0.3,0.3,0.5,0.6,0.7,1.1C106.5,106.5,106.6,107,106.6,107.5z M105.7,107.5c0-0.4-0.1-0.7-0.2-1c-0.1-0.3-0.3-0.6-0.5-0.8
			s-0.5-0.4-0.8-0.5c-0.3-0.1-0.6-0.2-1-0.2c-0.4,0-0.7,0.1-1,0.2c-0.3,0.1-0.6,0.3-0.8,0.5c-0.2,0.2-0.4,0.5-0.5,0.8
			c-0.1,0.3-0.2,0.6-0.2,1c0,0.4,0.1,0.7,0.2,1c0.1,0.3,0.3,0.6,0.5,0.8c0.2,0.2,0.5,0.4,0.8,0.5c0.3,0.1,0.6,0.2,1,0.2
			c0.4,0,0.7-0.1,1-0.2c0.3-0.1,0.6-0.3,0.8-0.5s0.4-0.5,0.5-0.8C105.6,108.2,105.7,107.8,105.7,107.5z"/>
	</g>
	<g class="st5">
		<path class="st6" d="M60.2,129.9v-11.4h6.5v1h-5.5v4.3h4.8v1h-4.8v5.1H60.2z"/>
	</g>
	<g class="st5">
		<path class="st6" d="M67.1,126.7c0-0.5,0.1-0.9,0.3-1.3c0.2-0.4,0.4-0.8,0.7-1.1c0.3-0.3,0.7-0.5,1.1-0.7c0.4-0.2,0.9-0.3,1.3-0.3
			c0.5,0,0.9,0.1,1.3,0.3s0.8,0.4,1.1,0.7c0.3,0.3,0.5,0.7,0.7,1.1c0.2,0.4,0.3,0.8,0.3,1.3c0,0.5-0.1,0.9-0.3,1.3
			c-0.2,0.4-0.4,0.8-0.7,1.1s-0.7,0.5-1.1,0.7s-0.8,0.3-1.3,0.3c-0.5,0-0.9-0.1-1.3-0.2s-0.8-0.4-1.1-0.7c-0.3-0.3-0.5-0.7-0.7-1.1
			C67.2,127.6,67.1,127.2,67.1,126.7z M68,126.7c0,0.3,0.1,0.7,0.2,1c0.1,0.3,0.3,0.6,0.5,0.8s0.5,0.4,0.8,0.5
			c0.3,0.1,0.6,0.2,1,0.2s0.7-0.1,1-0.2s0.6-0.3,0.8-0.5s0.4-0.5,0.5-0.8c0.1-0.3,0.2-0.6,0.2-1c0-0.3-0.1-0.7-0.2-1
			s-0.3-0.6-0.5-0.8s-0.5-0.4-0.8-0.5s-0.6-0.2-1-0.2s-0.7,0.1-1,0.2c-0.3,0.1-0.6,0.3-0.8,0.5s-0.4,0.5-0.5,0.8
			C68,126,68,126.4,68,126.7z"/>
		<path class="st6" d="M78.8,124.5c-0.3,0-0.6,0.1-0.9,0.2s-0.6,0.2-0.8,0.4c-0.2,0.2-0.4,0.4-0.5,0.7c-0.1,0.3-0.2,0.6-0.2,0.9v3.3
			h-0.9v-6.4h0.8l0.1,1.6c0.1-0.3,0.3-0.5,0.5-0.7c0.2-0.2,0.4-0.4,0.7-0.6c0.2-0.2,0.5-0.3,0.8-0.4c0.3-0.1,0.5-0.1,0.7-0.1
			L78.8,124.5z"/>
		<path class="st6" d="M80.2,123.5H81c0,0.1,0,0.2,0,0.4c0,0.2,0,0.3,0,0.5s0,0.3,0,0.5c0,0.1,0,0.3,0,0.3c0.2-0.5,0.6-1,1-1.3
			c0.4-0.3,1-0.5,1.6-0.5c0.6,0,1.1,0.2,1.4,0.5c0.4,0.3,0.6,0.7,0.6,1.2c0.2-0.5,0.6-0.9,1-1.2c0.4-0.3,0.9-0.5,1.6-0.5
			c0.6,0,1.1,0.2,1.5,0.5c0.4,0.4,0.6,0.8,0.6,1.4v4.6h-0.9v-4.3c0-0.4-0.1-0.7-0.4-0.9s-0.6-0.4-1.1-0.4c-0.3,0-0.6,0.1-0.9,0.2
			c-0.3,0.1-0.5,0.3-0.7,0.5s-0.4,0.4-0.5,0.7c-0.1,0.3-0.2,0.6-0.2,0.9v3.4h-0.9v-4.3c0-0.4-0.1-0.7-0.4-0.9s-0.6-0.4-1-0.4
			c-0.3,0-0.7,0.1-0.9,0.2c-0.3,0.1-0.5,0.3-0.7,0.5c-0.2,0.2-0.4,0.4-0.5,0.7s-0.2,0.6-0.2,0.9v3.4h-0.9V123.5z"/>
	</g>
</g>
</svg>
