<?xml version="1.0" encoding="utf-8"?>
<!-- Generator: Adobe Illustrator 21.0.0, SVG Export Plug-In . SVG Version: 6.00 Build 0)  -->
<svg version="1.1" id="Icons" xmlns="http://www.w3.org/2000/svg" xmlns:xlink="http://www.w3.org/1999/xlink" x="0px" y="0px"
	 viewBox="0 0 150 150" style="enable-background:new 0 0 150 150;" xml:space="preserve">
<style type="text/css">
	.st0{fill:#FFFFFF;}
	.st1{fill:#396D5D;}
	.st2{fill:#333A3B;}
	.st3{fill:#394142;}
</style>
<rect id="bg" x="-1043.4" y="-293.4" class="st0" width="1827.2" height="549.1"/>
<rect id="green_x5F_bg" x="-74.2" y="-293.4" class="st1" width="858" height="549.1"/>
<g id="SIR_x5F_Green">
	<g>
		<path class="st0" d="M25.7,100.7l-0.4,0.8c-0.4-0.1-0.7-0.3-1.2-0.4c-0.4-0.1-0.8-0.1-1.2-0.1c-0.4,0-0.7,0-1,0.1
			c-0.3,0.1-0.5,0.2-0.7,0.4c-0.2,0.2-0.4,0.3-0.5,0.5s-0.2,0.4-0.2,0.7c0,0.3,0.1,0.5,0.2,0.7c0.2,0.2,0.4,0.4,0.6,0.5
			c0.3,0.1,0.6,0.3,0.9,0.4c0.3,0.1,0.7,0.3,1,0.4c0.3,0.1,0.7,0.3,1,0.4s0.6,0.4,0.9,0.6s0.5,0.5,0.6,0.9c0.2,0.3,0.2,0.7,0.2,1.2
			c0,0.5-0.1,0.9-0.3,1.3c-0.2,0.4-0.4,0.7-0.7,1c-0.3,0.3-0.7,0.5-1.2,0.6s-1,0.2-1.6,0.2c-0.4,0-0.8,0-1.2-0.1
			c-0.4-0.1-0.7-0.2-0.9-0.3c-0.3-0.1-0.5-0.2-0.7-0.3s-0.4-0.2-0.5-0.3l0.5-0.9c0.2,0.1,0.4,0.2,0.6,0.3c0.2,0.1,0.5,0.2,0.7,0.3
			s0.5,0.1,0.8,0.2c0.3,0,0.5,0.1,0.8,0.1c0.3,0,0.6,0,0.9-0.1c0.3-0.1,0.6-0.2,0.9-0.4s0.5-0.4,0.7-0.7c0.2-0.3,0.3-0.6,0.3-1
			c0-0.5-0.1-0.8-0.4-1.1c-0.3-0.3-0.6-0.5-1-0.7c-0.4-0.2-0.9-0.4-1.3-0.5s-0.9-0.3-1.3-0.6c-0.4-0.2-0.8-0.5-1-0.8
			c-0.3-0.3-0.4-0.7-0.4-1.2c0-0.4,0.1-0.7,0.2-1c0.1-0.3,0.4-0.6,0.6-0.9c0.3-0.3,0.6-0.4,1-0.6s0.9-0.2,1.4-0.2
			c0.3,0,0.6,0,0.9,0.1c0.3,0,0.6,0.1,0.8,0.2c0.3,0.1,0.5,0.1,0.7,0.2S25.6,100.6,25.7,100.7z"/>
		<path class="st0" d="M27.3,107.8c0-0.4,0.1-0.8,0.2-1.2s0.4-0.7,0.7-1c0.3-0.3,0.6-0.5,1-0.7c0.4-0.2,0.8-0.2,1.2-0.2
			s0.9,0.1,1.2,0.2c0.4,0.2,0.7,0.4,1,0.7s0.5,0.6,0.7,1c0.2,0.4,0.2,0.8,0.2,1.2s-0.1,0.8-0.2,1.2c-0.2,0.4-0.4,0.7-0.7,1
			s-0.6,0.5-1,0.7c-0.4,0.2-0.8,0.2-1.2,0.2c-0.4,0-0.9-0.1-1.2-0.2c-0.4-0.2-0.7-0.4-1-0.7c-0.3-0.3-0.5-0.6-0.7-1
			S27.3,108.3,27.3,107.8z M28.1,107.8c0,0.3,0.1,0.6,0.2,0.9c0.1,0.3,0.3,0.5,0.5,0.7s0.5,0.4,0.7,0.5s0.6,0.2,0.9,0.2
			c0.3,0,0.6-0.1,0.9-0.2s0.5-0.3,0.7-0.5s0.4-0.5,0.5-0.7c0.1-0.3,0.2-0.6,0.2-0.9s-0.1-0.6-0.2-0.9c-0.1-0.3-0.3-0.5-0.5-0.7
			s-0.5-0.4-0.7-0.5c-0.3-0.1-0.6-0.2-0.9-0.2c-0.3,0-0.6,0.1-0.9,0.2c-0.3,0.1-0.5,0.3-0.7,0.5s-0.4,0.5-0.5,0.7
			C28.2,107.2,28.1,107.5,28.1,107.8z"/>
		<path class="st0" d="M39.4,109.6l0.5,0.6c-0.3,0.2-0.6,0.4-0.9,0.5c-0.3,0.1-0.7,0.2-1.1,0.2c-0.4,0-0.9-0.1-1.2-0.2
			c-0.4-0.2-0.7-0.4-1-0.7c-0.3-0.3-0.5-0.6-0.7-1s-0.2-0.8-0.2-1.2s0.1-0.8,0.2-1.2s0.4-0.7,0.7-1c0.3-0.3,0.6-0.5,1-0.7
			c0.4-0.2,0.8-0.2,1.2-0.2c0.4,0,0.7,0.1,1.1,0.2c0.3,0.1,0.6,0.3,0.9,0.5c-0.1,0.1-0.2,0.2-0.3,0.3c-0.1,0.1-0.2,0.2-0.3,0.3
			c-0.4-0.3-0.9-0.5-1.5-0.5c-0.3,0-0.6,0.1-0.9,0.2c-0.3,0.1-0.5,0.3-0.7,0.5s-0.4,0.5-0.5,0.7c-0.1,0.3-0.2,0.6-0.2,0.9
			c0,0.3,0.1,0.6,0.2,0.9c0.1,0.3,0.3,0.5,0.5,0.7s0.5,0.4,0.7,0.5c0.3,0.1,0.6,0.2,0.9,0.2C38.5,110.1,39,110,39.4,109.6z"/>
		<path class="st0" d="M41.2,102.6c0-0.2,0.1-0.3,0.2-0.4s0.3-0.2,0.4-0.2s0.3,0.1,0.4,0.2c0.1,0.1,0.2,0.3,0.2,0.4
			c0,0.2-0.1,0.3-0.2,0.4c-0.1,0.1-0.3,0.2-0.4,0.2s-0.3-0.1-0.4-0.2C41.3,103,41.2,102.8,41.2,102.6z M42.2,110.8h-0.8v-6h0.8
			V110.8z"/>
		<path class="st0" d="M43.8,107.8c0-0.4,0.1-0.8,0.2-1.2s0.4-0.7,0.7-1c0.3-0.3,0.6-0.5,1-0.7s0.8-0.2,1.2-0.2c0.3,0,0.6,0,0.8,0.1
			c0.3,0.1,0.5,0.2,0.7,0.3s0.4,0.3,0.5,0.5s0.2,0.3,0.3,0.5l0.1-1.2h0.8v6h-0.8v-0.6c0-0.1,0-0.2,0-0.3c0-0.1,0-0.2,0-0.3
			c-0.1,0.2-0.2,0.3-0.3,0.5c-0.1,0.2-0.3,0.3-0.5,0.4s-0.4,0.2-0.7,0.3c-0.3,0.1-0.5,0.1-0.9,0.1c-0.5,0-0.9-0.1-1.3-0.2
			c-0.4-0.2-0.7-0.4-1-0.7c-0.3-0.3-0.5-0.6-0.7-1C43.9,108.7,43.8,108.3,43.8,107.8z M44.7,107.8c0,0.3,0.1,0.6,0.2,0.9
			c0.1,0.3,0.3,0.5,0.5,0.7s0.5,0.4,0.7,0.5c0.3,0.1,0.6,0.2,0.9,0.2s0.6-0.1,0.9-0.2c0.3-0.1,0.5-0.3,0.7-0.5s0.4-0.5,0.5-0.7
			c0.1-0.3,0.2-0.6,0.2-0.9c0-0.3-0.1-0.6-0.2-0.9c-0.1-0.3-0.3-0.5-0.5-0.7s-0.5-0.4-0.7-0.5c-0.3-0.1-0.6-0.2-0.9-0.2
			s-0.6,0.1-0.9,0.2c-0.3,0.1-0.5,0.3-0.7,0.5s-0.4,0.4-0.5,0.7C44.7,107.2,44.7,107.5,44.7,107.8z"/>
		<path class="st0" d="M53.1,110.8h-0.8V99.3h0.8V110.8z"/>
		<path class="st0" d="M59.4,100.1h1v10.7h-1V100.1z"/>
		<path class="st0" d="M62.8,104.8h0.7l0.1,1.5c0.2-0.5,0.5-0.9,1-1.2c0.4-0.3,0.9-0.5,1.5-0.5c0.6,0,1.1,0.2,1.4,0.5
			c0.3,0.3,0.5,0.8,0.5,1.3v4.3h-0.8v-4c0-0.3-0.1-0.6-0.4-0.9c-0.2-0.2-0.6-0.4-1-0.4c-0.3,0-0.6,0.1-0.9,0.2
			c-0.3,0.1-0.5,0.3-0.7,0.4c-0.2,0.2-0.4,0.4-0.5,0.7c-0.1,0.3-0.2,0.5-0.2,0.9v3.2h-0.8V104.8z"/>
		<path class="st0" d="M72.1,111.2c-0.3-0.5-0.5-1.1-0.8-1.6c-0.3-0.5-0.5-1.1-0.7-1.6c-0.2-0.5-0.5-1.1-0.7-1.6
			c-0.2-0.5-0.5-1.1-0.8-1.6H70c0.3,0.6,0.6,1.1,0.8,1.6c0.2,0.5,0.4,0.9,0.5,1.2c0.2,0.4,0.3,0.7,0.4,1c0.1,0.3,0.3,0.6,0.4,1
			c0.1-0.3,0.3-0.6,0.4-1c0.1-0.3,0.3-0.7,0.4-1c0.2-0.4,0.3-0.8,0.5-1.2c0.2-0.5,0.5-1,0.8-1.6h0.9c-0.5,1.1-1,2.1-1.5,3.2
			C73.2,109,72.7,110.1,72.1,111.2z"/>
		<path class="st0" d="M81.1,110.1c-0.3,0.3-0.6,0.5-1,0.6c-0.4,0.2-0.8,0.2-1.2,0.2c-0.4,0-0.9-0.1-1.2-0.2s-0.7-0.4-1-0.7
			s-0.5-0.6-0.7-1s-0.2-0.8-0.2-1.2s0.1-0.8,0.2-1.2s0.4-0.7,0.7-1s0.6-0.5,1-0.7s0.8-0.2,1.2-0.2c0.7,0,1.2,0.2,1.7,0.6
			c0.5,0.4,0.8,0.9,1.1,1.5c-0.3,0.1-0.7,0.3-1.1,0.4s-0.8,0.3-1.3,0.5c-0.4,0.2-0.9,0.3-1.3,0.5c-0.4,0.2-0.8,0.3-1.2,0.5
			c0.2,0.4,0.5,0.7,0.8,1c0.4,0.3,0.8,0.4,1.3,0.4c0.3,0,0.6-0.1,0.9-0.2c0.3-0.1,0.5-0.3,0.7-0.4L81.1,110.1z M80.6,106.6
			c-0.2-0.3-0.4-0.6-0.7-0.8c-0.3-0.2-0.7-0.3-1-0.3c-0.3,0-0.6,0.1-0.9,0.2c-0.3,0.1-0.5,0.3-0.7,0.5s-0.4,0.5-0.5,0.7
			c-0.1,0.3-0.2,0.6-0.2,0.9c0,0.2,0,0.3,0,0.4c0.3-0.1,0.6-0.3,1-0.4c0.3-0.1,0.7-0.3,1-0.4s0.7-0.3,1-0.4S80.3,106.7,80.6,106.6z"
			/>
		<path class="st0" d="M86.1,105.4l-0.5,0.6c-0.1-0.1-0.2-0.2-0.5-0.3s-0.5-0.1-0.7-0.1c-0.1,0-0.2,0-0.3,0s-0.2,0.1-0.3,0.1
			c-0.1,0.1-0.2,0.2-0.2,0.3c-0.1,0.1-0.1,0.2-0.1,0.4c0,0.2,0.1,0.4,0.2,0.5c0.1,0.1,0.3,0.3,0.5,0.4c0.2,0.1,0.4,0.2,0.7,0.3
			c0.2,0.1,0.5,0.2,0.7,0.3s0.4,0.3,0.5,0.5s0.2,0.5,0.2,0.8c0,0.5-0.2,0.9-0.5,1.3s-0.8,0.5-1.5,0.5c-0.3,0-0.7-0.1-1-0.2
			c-0.4-0.1-0.6-0.3-0.9-0.6c0,0,0.1-0.1,0.2-0.2c0.1-0.1,0.1-0.1,0.2-0.2c0-0.1,0.1-0.1,0.1-0.2s0.1-0.1,0.1-0.1
			c0,0,0.1,0.1,0.2,0.2c0.1,0.1,0.2,0.1,0.3,0.2c0.1,0.1,0.3,0.1,0.4,0.1c0.2,0,0.3,0.1,0.4,0.1c0.1,0,0.2,0,0.4-0.1
			c0.1,0,0.3-0.1,0.4-0.2c0.1-0.1,0.2-0.2,0.3-0.3c0.1-0.1,0.1-0.3,0.1-0.4c0-0.2-0.1-0.4-0.2-0.5c-0.1-0.1-0.3-0.3-0.5-0.4
			c-0.2-0.1-0.4-0.2-0.7-0.3s-0.5-0.2-0.7-0.3c-0.2-0.1-0.4-0.3-0.5-0.5c-0.1-0.2-0.2-0.5-0.2-0.8c0-0.3,0.1-0.6,0.2-0.8
			c0.1-0.2,0.3-0.4,0.4-0.5s0.4-0.2,0.6-0.3c0.2-0.1,0.4-0.1,0.6-0.1c0.3,0,0.5,0.1,0.9,0.2C85.6,105,85.9,105.2,86.1,105.4z"/>
		<path class="st0" d="M88.4,102.2h0.8v2.7H91v0.8h-1.8v5.2h-0.8v-5.2h-1.2v-0.8h1.2V102.2z"/>
		<path class="st0" d="M92.1,102.6c0-0.2,0.1-0.3,0.2-0.4s0.3-0.2,0.4-0.2c0.2,0,0.3,0.1,0.4,0.2s0.2,0.3,0.2,0.4
			c0,0.2-0.1,0.3-0.2,0.4c-0.1,0.1-0.3,0.2-0.4,0.2c-0.1,0-0.3-0.1-0.4-0.2C92.1,103,92.1,102.8,92.1,102.6z M93.1,110.8h-0.8v-6
			h0.8V110.8z"/>
		<path class="st0" d="M94.7,107.8c0-0.4,0.1-0.9,0.2-1.2c0.2-0.4,0.4-0.7,0.7-1s0.6-0.5,1-0.7c0.4-0.2,0.8-0.2,1.2-0.2
			c0.3,0,0.6,0,0.9,0.1c0.3,0.1,0.5,0.2,0.7,0.3c0.2,0.1,0.4,0.3,0.5,0.4c0.1,0.2,0.2,0.3,0.3,0.5c0-0.2,0-0.4,0-0.6
			c0-0.2,0-0.4,0-0.6h0.8v5.9c0,0.4-0.1,0.8-0.2,1.2c-0.1,0.4-0.3,0.7-0.6,0.9c-0.3,0.3-0.6,0.5-1,0.6c-0.4,0.1-0.9,0.2-1.4,0.2
			c-0.6,0-1.1-0.1-1.5-0.3s-0.9-0.5-1.3-0.9l0.5-0.6c0.4,0.4,0.8,0.6,1.1,0.8c0.4,0.1,0.7,0.2,1.1,0.2c0.4,0,0.8-0.1,1.1-0.2
			c0.3-0.1,0.5-0.3,0.7-0.4c0.2-0.2,0.3-0.4,0.4-0.7s0.1-0.6,0.1-0.9c0-0.1,0-0.2,0-0.2c0-0.1,0-0.2,0-0.3c0,0,0-0.1,0-0.1
			c0-0.1,0-0.1,0-0.2s0-0.1,0-0.2c0-0.1,0-0.1,0-0.1c-0.2,0.4-0.5,0.7-0.9,1s-0.9,0.4-1.5,0.4c-0.4,0-0.8-0.1-1.2-0.2
			s-0.7-0.4-1-0.7c-0.3-0.3-0.5-0.6-0.7-1C94.8,108.7,94.7,108.3,94.7,107.8z M95.5,107.8c0,0.3,0.1,0.6,0.2,0.9
			c0.1,0.3,0.3,0.5,0.5,0.7s0.5,0.4,0.7,0.5s0.6,0.2,0.9,0.2s0.6-0.1,0.9-0.2s0.5-0.3,0.7-0.5s0.4-0.5,0.5-0.7
			c0.1-0.3,0.2-0.6,0.2-0.9c0-0.3-0.1-0.6-0.2-0.9c-0.1-0.3-0.3-0.5-0.5-0.7s-0.5-0.4-0.7-0.5c-0.3-0.1-0.6-0.2-0.9-0.2
			s-0.6,0.1-0.9,0.2c-0.3,0.1-0.5,0.3-0.7,0.5s-0.4,0.4-0.5,0.7C95.6,107.2,95.5,107.5,95.5,107.8z"/>
		<path class="st0" d="M102.6,107.8c0-0.4,0.1-0.8,0.2-1.2s0.4-0.7,0.7-1s0.6-0.5,1-0.7s0.8-0.2,1.2-0.2c0.3,0,0.6,0,0.8,0.1
			c0.3,0.1,0.5,0.2,0.7,0.3s0.4,0.3,0.5,0.5c0.1,0.2,0.2,0.3,0.3,0.5l0.1-1.2h0.8v6h-0.8v-0.6c0-0.1,0-0.2,0-0.3c0-0.1,0-0.2,0-0.3
			c-0.1,0.2-0.2,0.3-0.3,0.5s-0.3,0.3-0.5,0.4s-0.4,0.2-0.7,0.3c-0.3,0.1-0.5,0.1-0.9,0.1c-0.5,0-0.9-0.1-1.3-0.2s-0.7-0.4-1-0.7
			s-0.5-0.6-0.7-1S102.6,108.3,102.6,107.8z M103.5,107.8c0,0.3,0.1,0.6,0.2,0.9c0.1,0.3,0.3,0.5,0.5,0.7s0.5,0.4,0.7,0.5
			c0.3,0.1,0.6,0.2,0.9,0.2s0.6-0.1,0.9-0.2s0.5-0.3,0.7-0.5s0.4-0.5,0.5-0.7c0.1-0.3,0.2-0.6,0.2-0.9c0-0.3-0.1-0.6-0.2-0.9
			s-0.3-0.5-0.5-0.7s-0.5-0.4-0.7-0.5c-0.3-0.1-0.6-0.2-0.9-0.2s-0.6,0.1-0.9,0.2c-0.3,0.1-0.5,0.3-0.7,0.5s-0.4,0.4-0.5,0.7
			C103.5,107.2,103.5,107.5,103.5,107.8z"/>
		<path class="st0" d="M111.5,102.2h0.8v2.7h1.8v0.8h-1.8v5.2h-0.8v-5.2h-1.2v-0.8h1.2V102.2z"/>
		<path class="st0" d="M115.1,102.6c0-0.2,0.1-0.3,0.2-0.4s0.3-0.2,0.4-0.2c0.2,0,0.3,0.1,0.4,0.2s0.2,0.3,0.2,0.4
			c0,0.2-0.1,0.3-0.2,0.4c-0.1,0.1-0.3,0.2-0.4,0.2c-0.1,0-0.3-0.1-0.4-0.2C115.2,103,115.1,102.8,115.1,102.6z M116.1,110.8h-0.8
			v-6h0.8V110.8z"/>
		<path class="st0" d="M117.7,107.8c0-0.4,0.1-0.8,0.2-1.2s0.4-0.7,0.7-1c0.3-0.3,0.6-0.5,1-0.7c0.4-0.2,0.8-0.2,1.2-0.2
			c0.4,0,0.9,0.1,1.2,0.2s0.7,0.4,1,0.7c0.3,0.3,0.5,0.6,0.7,1s0.2,0.8,0.2,1.2s-0.1,0.8-0.2,1.2s-0.4,0.7-0.7,1s-0.6,0.5-1,0.7
			s-0.8,0.2-1.2,0.2c-0.4,0-0.8-0.1-1.2-0.2c-0.4-0.2-0.7-0.4-1-0.7c-0.3-0.3-0.5-0.6-0.7-1S117.7,108.3,117.7,107.8z M118.6,107.8
			c0,0.3,0.1,0.6,0.2,0.9c0.1,0.3,0.3,0.5,0.5,0.7s0.5,0.4,0.7,0.5c0.3,0.1,0.6,0.2,0.9,0.2s0.6-0.1,0.9-0.2s0.5-0.3,0.7-0.5
			s0.4-0.5,0.5-0.7c0.1-0.3,0.2-0.6,0.2-0.9s-0.1-0.6-0.2-0.9c-0.1-0.3-0.3-0.5-0.5-0.7s-0.5-0.4-0.7-0.5c-0.3-0.1-0.6-0.2-0.9-0.2
			s-0.6,0.1-0.9,0.2c-0.3,0.1-0.5,0.3-0.7,0.5s-0.4,0.5-0.5,0.7S118.6,107.5,118.6,107.8z"/>
		<path class="st0" d="M125.7,104.8h0.7l0.1,1.5c0.2-0.5,0.5-0.9,1-1.2c0.4-0.3,0.9-0.5,1.5-0.5c0.6,0,1.1,0.2,1.4,0.5
			s0.5,0.8,0.5,1.3v4.3h-0.8v-4c0-0.3-0.1-0.6-0.4-0.9s-0.5-0.4-1-0.4c-0.3,0-0.6,0.1-0.9,0.2c-0.3,0.1-0.5,0.3-0.7,0.4
			c-0.2,0.2-0.4,0.4-0.5,0.7c-0.1,0.3-0.2,0.5-0.2,0.9v3.2h-0.8V104.8z"/>
		<path class="st0" d="M57.2,128.8v-10.7h2.6c0.5,0,0.9,0.1,1.3,0.2c0.4,0.1,0.8,0.3,1.1,0.6c0.3,0.3,0.6,0.6,0.8,1
			c0.2,0.4,0.3,0.9,0.3,1.4c0,0.6-0.1,1.2-0.4,1.7s-0.7,1-1.3,1.2c0.1,0.2,0.2,0.4,0.4,0.6c0.1,0.3,0.3,0.5,0.5,0.8
			c0.2,0.3,0.4,0.6,0.6,0.9c0.2,0.3,0.4,0.6,0.6,0.9c0.2,0.3,0.3,0.6,0.5,0.8c0.1,0.2,0.3,0.4,0.4,0.6h-1.2
			c-0.1-0.1-0.2-0.3-0.3-0.5s-0.3-0.4-0.4-0.7c-0.2-0.3-0.3-0.5-0.5-0.8c-0.2-0.3-0.4-0.6-0.5-0.9c-0.2-0.3-0.3-0.5-0.5-0.8
			c-0.2-0.3-0.3-0.5-0.4-0.6c-0.1,0-0.2,0-0.3,0s-0.2,0-0.3,0h-1.6v4.3H57.2z M58.2,123.5h1.6c0.5,0,0.9-0.1,1.2-0.2
			c0.3-0.2,0.6-0.4,0.8-0.6c0.2-0.2,0.3-0.5,0.4-0.8c0.1-0.3,0.1-0.5,0.1-0.7c0-0.3-0.1-0.5-0.2-0.8c-0.1-0.3-0.3-0.5-0.5-0.7
			s-0.5-0.4-0.8-0.5c-0.3-0.1-0.7-0.2-1.1-0.2h-1.6V123.5z"/>
		<path class="st0" d="M70.1,128.1c-0.3,0.3-0.6,0.5-1,0.6c-0.4,0.2-0.8,0.2-1.2,0.2c-0.4,0-0.9-0.1-1.2-0.2c-0.4-0.2-0.7-0.4-1-0.7
			c-0.3-0.3-0.5-0.6-0.7-1s-0.2-0.8-0.2-1.2s0.1-0.8,0.2-1.2s0.4-0.7,0.7-1c0.3-0.3,0.6-0.5,1-0.7s0.8-0.2,1.2-0.2
			c0.7,0,1.2,0.2,1.7,0.6c0.5,0.4,0.8,0.9,1.1,1.5c-0.3,0.1-0.7,0.3-1.1,0.4s-0.8,0.3-1.3,0.5s-0.9,0.3-1.3,0.5
			c-0.4,0.2-0.8,0.3-1.2,0.5c0.2,0.4,0.5,0.7,0.8,1c0.4,0.3,0.8,0.4,1.3,0.4c0.3,0,0.6-0.1,0.9-0.2c0.3-0.1,0.5-0.3,0.7-0.4
			L70.1,128.1z M69.5,124.6c-0.2-0.3-0.4-0.6-0.7-0.8c-0.3-0.2-0.7-0.3-1-0.3c-0.3,0-0.6,0.1-0.9,0.2s-0.5,0.3-0.7,0.5
			s-0.4,0.5-0.5,0.7c-0.1,0.3-0.2,0.6-0.2,0.9c0,0.2,0,0.3,0,0.4c0.3-0.1,0.6-0.3,1-0.4c0.4-0.1,0.7-0.3,1.1-0.4
			c0.3-0.1,0.7-0.3,1-0.4S69.3,124.7,69.5,124.6z"/>
		<path class="st0" d="M78.3,125.8c0,0.4-0.1,0.8-0.2,1.2c-0.2,0.4-0.4,0.7-0.7,1c-0.3,0.3-0.6,0.5-1,0.7c-0.4,0.2-0.8,0.2-1.2,0.2
			c-0.6,0-1.1-0.1-1.5-0.4c-0.4-0.3-0.7-0.6-0.9-1c0,0.1,0,0.2,0,0.3c0,0.1,0,0.2,0,0.3v3.5h-0.8v-8.9h0.8c0,0,0,0.1,0,0.2
			c0,0.1,0,0.2,0,0.3s0,0.3,0,0.4c0,0.1,0,0.2,0,0.3c0.2-0.4,0.5-0.7,0.9-1s0.9-0.4,1.5-0.4c0.5,0,0.9,0.1,1.2,0.2
			c0.4,0.2,0.7,0.4,1,0.6c0.3,0.3,0.5,0.6,0.6,1C78.2,124.9,78.3,125.4,78.3,125.8z M77.4,125.8c0-0.3-0.1-0.6-0.2-0.9
			c-0.1-0.3-0.3-0.5-0.5-0.7s-0.4-0.4-0.7-0.5c-0.3-0.1-0.6-0.2-0.9-0.2c-0.3,0-0.6,0.1-0.9,0.2c-0.3,0.1-0.5,0.3-0.7,0.5
			s-0.4,0.4-0.5,0.7c-0.1,0.3-0.2,0.6-0.2,0.9s0.1,0.6,0.2,0.9c0.1,0.3,0.3,0.5,0.5,0.7s0.5,0.4,0.7,0.5c0.3,0.1,0.6,0.2,0.9,0.2
			c0.3,0,0.6-0.1,0.9-0.2c0.3-0.1,0.5-0.3,0.7-0.5s0.4-0.5,0.5-0.7C77.3,126.4,77.4,126.1,77.4,125.8z"/>
		<path class="st0" d="M79.5,125.8c0-0.4,0.1-0.8,0.2-1.2s0.4-0.7,0.7-1c0.3-0.3,0.6-0.5,1-0.7c0.4-0.2,0.8-0.2,1.2-0.2
			c0.4,0,0.9,0.1,1.2,0.2s0.7,0.4,1,0.7c0.3,0.3,0.5,0.6,0.7,1s0.2,0.8,0.2,1.2s-0.1,0.8-0.2,1.2s-0.4,0.7-0.7,1s-0.6,0.5-1,0.7
			s-0.8,0.2-1.2,0.2c-0.4,0-0.8-0.1-1.2-0.2c-0.4-0.2-0.7-0.4-1-0.7c-0.3-0.3-0.5-0.6-0.7-1S79.5,126.3,79.5,125.8z M80.3,125.8
			c0,0.3,0.1,0.6,0.2,0.9c0.1,0.3,0.3,0.5,0.5,0.7s0.5,0.4,0.7,0.5c0.3,0.1,0.6,0.2,0.9,0.2s0.6-0.1,0.9-0.2s0.5-0.3,0.7-0.5
			s0.4-0.5,0.5-0.7c0.1-0.3,0.2-0.6,0.2-0.9s-0.1-0.6-0.2-0.9c-0.1-0.3-0.3-0.5-0.5-0.7s-0.5-0.4-0.7-0.5c-0.3-0.1-0.6-0.2-0.9-0.2
			s-0.6,0.1-0.9,0.2c-0.3,0.1-0.5,0.3-0.7,0.5s-0.4,0.5-0.5,0.7S80.3,125.5,80.3,125.8z"/>
		<path class="st0" d="M90.5,123.7c-0.3,0-0.6,0-0.9,0.1c-0.3,0.1-0.5,0.2-0.7,0.4s-0.4,0.4-0.5,0.6s-0.2,0.5-0.2,0.8v3.1h-0.8v-6
			h0.7l0.1,1.5c0.1-0.3,0.3-0.5,0.5-0.7c0.2-0.2,0.4-0.4,0.6-0.5c0.2-0.1,0.5-0.3,0.7-0.3s0.5-0.1,0.7-0.1L90.5,123.7z"/>
		<path class="st0" d="M92.2,120.2h0.8v2.7h1.8v0.8h-1.8v5.2h-0.8v-5.2H91v-0.8h1.2V120.2z"/>
	</g>
	<g id="social_x5F_investigation_x5F_report_x5F_icon_x5F_grp_2_">
		<g>
			<path class="st0" d="M96.6,79H53.8V18.3h34l-0.6,9.5l9.3-1.8V79z M54.8,78h40.7V27.2L86.2,29l0.6-9.7H54.8V78z"/>
		</g>
		<g>
			<g>
				<rect x="60" y="66.2" class="st0" width="30.3" height="1"/>
			</g>
			<g>
				<rect x="60" y="69.8" class="st0" width="30.3" height="1"/>
			</g>
			<g>
				<rect x="60" y="62.5" class="st0" width="30.3" height="1"/>
			</g>
		</g>
		<g>
			<g>
				<g>
					<path class="st0" d="M70.6,48.4c-0.8,0-1.5-0.4-2.2-0.9c-1.5-1-1.5-2.3-1.1-3.1c0.3-0.7,0.8-1.2,2.2-2.5l0.2-0.2
						c0.7-0.6,1.6-2,2.3-5.1c0.2-1,1-1.8,2-2c0.6-0.2,2-0.1,3.3-0.1c0.2,0,0.4,0,0.5,0c0,0,0.1,0,0.1,0c0.5,0,1.9-0.2,2.6,1.6
						c0.7,1.7,0.1,3.6-0.5,4.1c-0.6,0.5-1.5,0.4-2.1,0.1c-0.5-0.2-1.2-0.2-1.6-0.2h-0.1c0,0,0,0,0,0c-1.9,0-3.1,3.2-3.1,3.8l0,0
						c0,0.1,0,0.3,0.1,0.4c0.1,0.3,0.2,0.6,0.2,1.1c0,0.9-0.7,2.1-1.5,2.7C71.3,48.3,71,48.4,70.6,48.4z M75.6,35.4
						c-0.5,0-1,0-1.3,0.1c-0.7,0.2-1.1,0.6-1.3,1.3c-0.6,2.6-1.5,4.5-2.6,5.5l-0.2,0.2c-1.3,1.2-1.8,1.7-2,2.2
						c-0.3,0.6,0,1.3,0.8,1.8c1.2,0.8,1.7,0.9,2.2,0.6c0.6-0.4,1.1-1.3,1-1.8c0-0.3-0.1-0.6-0.1-0.8C72,44.4,72,44.1,72,43.9l0,0
						c0-0.9,1.4-4.8,4.1-4.8c0,0,0,0,0,0h0.1c0.5,0,1.3,0,2,0.3c0.3,0.1,0.8,0.2,1.1,0c0.3-0.3,0.8-1.6,0.2-3
						c-0.4-0.9-0.9-1-1.6-0.9c-0.1,0-0.2,0-0.2,0c-0.1,0-0.3,0-0.5,0C76.8,35.5,76.2,35.4,75.6,35.4z"/>
				</g>
				<g>
					<path class="st0" d="M75.1,34.7C75,34.7,75,34.7,75.1,34.7c-0.7-0.1-1.1-0.7-1-1.3c0-0.3,0.2-0.6,0.4-0.8
						c0.2-0.2,0.5-0.4,0.8-0.3c0.6,0.1,1,0.7,1,1.3c0,0.4-0.2,0.7-0.5,0.9C75.5,34.6,75.3,34.7,75.1,34.7z M75.1,33.2
						c0,0-0.1,0.1-0.1,0.2c0,0.1,0,0.2,0.1,0.3c0,0,0.1-0.1,0.1-0.2h0C75.2,33.3,75.1,33.2,75.1,33.2z"/>
				</g>
				<g>
					<path class="st0" d="M76.6,34.6C76.6,34.6,76.6,34.6,76.6,34.6c-0.7-0.1-1.1-0.7-1-1.3c0-0.3,0.2-0.6,0.4-0.9
						c0.3-0.3,0.6-0.5,0.9-0.5c0.2,0,0.4,0.1,0.5,0.3c0.3,0.4,0.3,1.1,0.3,1.3l0,0c0,0.4-0.2,0.7-0.5,0.9
						C77.1,34.5,76.9,34.6,76.6,34.6z M76.7,33c-0.1,0.1-0.1,0.2-0.2,0.3c0,0.1,0,0.2,0.1,0.3c0,0,0.1-0.1,0.1-0.2v0
						C76.7,33.3,76.7,33.1,76.7,33z"/>
				</g>
				<g>
					<path class="st0" d="M78,34.5C78,34.5,78,34.5,78,34.5c-0.6-0.1-1-0.5-0.9-1.1c0-0.3,0.2-0.7,0.5-0.9c0.2-0.2,0.4-0.2,0.6-0.2
						c0.5,0,0.8,0.6,0.7,1.3c0,0.3-0.2,0.6-0.4,0.8C78.4,34.4,78.2,34.5,78,34.5z"/>
				</g>
				<g>
					<path class="st0" d="M79.5,34.8c-0.1,0-0.1,0-0.2,0c-0.6-0.1-1-0.7-0.9-1.4c0.1-0.6,0.8-1.4,1.4-1.3c0.2,0,0.6,0.2,0.7,0.8
						c0.1,0.2,0.1,0.6,0,0.8C80.5,34.3,80,34.8,79.5,34.8z M79.6,33.2c-0.1,0.1-0.2,0.2-0.2,0.3c0,0.1,0,0.2,0.1,0.3
						c0,0,0.1-0.1,0.1-0.2C79.6,33.4,79.6,33.3,79.6,33.2z"/>
				</g>
				<g>
					<path class="st0" d="M81.3,36.8c0,0-0.1,0-0.2,0c-0.4,0-0.8-0.3-1-0.7c-0.2-0.4-0.3-0.8-0.3-1.3c0.1-0.4,0.3-0.9,0.6-1.3
						c0.4-0.4,0.9-0.6,1.3-0.6c0.3,0,0.7,0.2,1,0.9c0.1,0.4,0.2,0.8,0.1,1.3c-0.1,0.5-0.2,0.9-0.5,1.2
						C82.1,36.7,81.7,36.8,81.3,36.8z M81.7,34c-0.1,0-0.2,0.1-0.4,0.3c-0.2,0.2-0.3,0.5-0.4,0.7c0,0.2,0,0.5,0.1,0.6
						c0,0.1,0.1,0.2,0.3,0.2c0.1,0,0.3-0.1,0.3-0.1c0.1-0.1,0.2-0.4,0.3-0.6c0-0.3,0-0.6-0.1-0.8C81.8,34.1,81.7,34,81.7,34
						C81.7,34,81.7,34,81.7,34z"/>
				</g>
			</g>
			<g>
				<g>
					<path class="st0" d="M71.4,59.2c-0.6,0-1.3-0.3-2.1-1c-0.9-0.9-1.7-1.9-1.1-3.2c0.4-0.9,1.5-1.8,2.4-1.9c0.4-0.1,0.8,0,1.1,0
						c0.2,0,0.3,0,0.4,0h0c0.6-0.1,3.6-1.8,3.3-3.7l0-0.1c-0.1-0.4-0.2-1.1-0.5-1.6c-0.4-0.5-0.6-1.4-0.2-2.1c0.5-0.7,2.2-1.6,4-1.2
						c1.8,0.4,1.9,1.8,2,2.3c0,0.1,0,0.1,0,0.1c0,0.1,0,0.2,0.1,0.4c0.3,1.2,0.5,2.6,0.5,3.2c-0.1,1.1-0.7,1.9-1.7,2.3
						c-2.9,1.2-4.1,2.3-4.6,3.1l-0.2,0.3c-1.1,1.6-1.5,2.2-2.1,2.6C72.3,59,71.9,59.2,71.4,59.2z M71.1,54c-0.1,0-0.2,0-0.3,0
						c-0.5,0.1-1.3,0.7-1.6,1.3c-0.3,0.6-0.1,1.1,0.9,2.1c0.7,0.7,1.4,0.9,1.9,0.5c0.5-0.3,0.9-0.9,1.9-2.4l0.2-0.3
						c0.9-1.3,2.6-2.4,5.1-3.4c0.6-0.3,1-0.8,1.1-1.5c0.1-0.6-0.3-2.2-0.4-3c0-0.2-0.1-0.4-0.1-0.5c0-0.1,0-0.1,0-0.2
						c0-0.6-0.2-1.2-1.2-1.4c-1.4-0.3-2.7,0.4-2.9,0.7c-0.2,0.3,0,0.8,0.2,1c0.4,0.6,0.6,1.4,0.6,1.9l0,0.1c0.5,2.7-3.2,4.7-4.1,4.8
						c-0.2,0-0.5,0-0.7,0C71.5,54,71.3,54,71.1,54z"/>
				</g>
				<g>
					<path class="st0" d="M82,50.4c-0.5,0-1-0.3-1.1-0.8c-0.2-0.6,0.3-1.2,0.9-1.4c0.3-0.1,0.7,0,1,0.1c0.2,0.1,0.4,0.4,0.5,0.6
						c0.1,0.3,0,0.6-0.2,0.9c-0.2,0.2-0.4,0.4-0.7,0.5C82.3,50.4,82.2,50.4,82,50.4z M81.9,49.3c0,0,0.1,0,0.3,0
						c0.1,0,0.2-0.1,0.2-0.2l0,0c0,0-0.1,0-0.3,0C82,49.2,81.9,49.3,81.9,49.3L81.9,49.3z"/>
				</g>
				<g>
					<path class="st0" d="M81.9,48.8c-0.5,0-1-0.3-1.1-0.8c-0.2-0.6,0.3-1.2,0.9-1.4h0c0.7-0.2,1.5-0.1,1.7,0.5
						c0.2,0.7-0.6,1.4-1.1,1.5C82.1,48.8,82,48.8,81.9,48.8z M81.7,47.8c0,0,0.1,0,0.3,0c0.1,0,0.2-0.1,0.3-0.2c-0.1,0-0.2,0-0.3,0
						l0,0C81.8,47.7,81.7,47.8,81.7,47.8C81.7,47.8,81.7,47.8,81.7,47.8z"/>
				</g>
				<g>
					<path class="st0" d="M81.6,47.3c-0.4,0-0.8-0.3-0.9-0.7c-0.1-0.5,0.2-1,0.8-1.2l0,0c0.7-0.2,1.3,0,1.4,0.5
						c0.1,0.6-0.4,1.2-0.9,1.3C81.8,47.3,81.7,47.3,81.6,47.3z"/>
				</g>
				<g>
					<path class="st0" d="M81.2,46c-0.5,0-0.9-0.3-1.1-0.7c-0.1-0.3-0.1-0.6,0.1-0.9c0.2-0.2,0.4-0.4,0.7-0.5h0
						c0.2-0.1,0.8-0.3,1.3,0c0.2,0.1,0.3,0.3,0.4,0.5c0.1,0.3,0,0.7-0.2,1c-0.2,0.3-0.5,0.5-0.8,0.6C81.6,46,81.4,46,81.2,46z
						 M81.1,45c0,0,0.1,0,0.3,0c0.1,0,0.2-0.1,0.3-0.2c-0.1,0-0.2,0-0.3,0.1l0,0C81.2,44.9,81.1,45,81.1,45L81.1,45z"/>
				</g>
				<g>
					<path class="st0" d="M79.4,44.9c-0.3,0-0.6-0.1-0.9-0.2c-0.3-0.2-0.6-0.5-0.7-0.8c-0.2-0.8,0.4-1.7,1.3-2l0,0
						c0.9-0.3,2.1-0.2,2.3,0.7c0.3,0.9-0.6,1.9-1.5,2.2C79.8,44.8,79.6,44.9,79.4,44.9z M80,42.7c-0.2,0-0.4,0-0.6,0.1l0,0
						c-0.5,0.1-0.7,0.5-0.6,0.7c0,0.1,0.1,0.2,0.2,0.2c0.2,0.1,0.5,0.1,0.7,0c0.5-0.1,0.9-0.8,0.8-1C80.5,42.8,80.3,42.7,80,42.7z"
						/>
				</g>
			</g>
		</g>
	</g>
</g>
</svg>
