<?xml version="1.0" encoding="utf-8"?>
<!-- Generator: Adobe Illustrator 21.0.0, SVG Export Plug-In . SVG Version: 6.00 Build 0)  -->
<svg version="1.1" id="Icons" xmlns="http://www.w3.org/2000/svg" xmlns:xlink="http://www.w3.org/1999/xlink" x="0px" y="0px"
	 viewBox="0 0 150 150" style="enable-background:new 0 0 150 150;" xml:space="preserve">
<style type="text/css">
	.st0{fill:#FFFFFF;}
	.st1{fill:#396D5D;}
	.st2{fill:#333A3B;}
	.st3{fill:#394142;}
</style>
<rect id="bg" x="-1428.4" y="-108.2" class="st0" width="1827.2" height="549.1"/>
<rect id="green_x5F_bg" x="-459.2" y="-108.2" class="st1" width="858" height="549.1"/>
<g id="Interim_x5F_Green">
	<g>
		<path class="st0" d="M29.5,93.1h1v10.7h-1V93.1z"/>
		<path class="st0" d="M32.9,97.8h0.7l0.1,1.5c0.2-0.5,0.5-0.9,1-1.2s0.9-0.5,1.5-0.5c0.6,0,1.1,0.2,1.4,0.5s0.5,0.8,0.5,1.3v4.3
			h-0.8v-4c0-0.3-0.1-0.6-0.4-0.9c-0.2-0.2-0.5-0.4-1-0.4c-0.3,0-0.6,0.1-0.9,0.2c-0.3,0.1-0.5,0.3-0.7,0.4
			c-0.2,0.2-0.4,0.4-0.5,0.7c-0.1,0.3-0.2,0.5-0.2,0.9v3.2h-0.8V97.8z"/>
		<path class="st0" d="M40.6,95.2h0.8v2.7h1.8v0.8h-1.8v5.2h-0.8v-5.2h-1.2v-0.8h1.2V95.2z"/>
		<path class="st0" d="M49.2,103.1c-0.3,0.3-0.6,0.5-1,0.6c-0.4,0.2-0.8,0.2-1.2,0.2c-0.4,0-0.9-0.1-1.2-0.2c-0.4-0.2-0.7-0.4-1-0.7
			s-0.5-0.6-0.7-1c-0.2-0.4-0.2-0.8-0.2-1.2s0.1-0.8,0.2-1.2c0.2-0.4,0.4-0.7,0.7-1s0.6-0.5,1-0.7s0.8-0.2,1.2-0.2
			c0.7,0,1.2,0.2,1.7,0.6c0.5,0.4,0.8,0.9,1.1,1.5c-0.3,0.1-0.7,0.3-1.1,0.4c-0.4,0.2-0.8,0.3-1.3,0.5s-0.9,0.3-1.3,0.5
			c-0.4,0.2-0.8,0.3-1.2,0.5c0.2,0.4,0.5,0.7,0.8,1c0.4,0.3,0.8,0.4,1.3,0.4c0.3,0,0.6-0.1,0.9-0.2c0.3-0.1,0.5-0.3,0.7-0.4
			L49.2,103.1z M48.7,99.6c-0.2-0.3-0.4-0.6-0.7-0.8c-0.3-0.2-0.7-0.3-1-0.3c-0.3,0-0.6,0.1-0.9,0.2c-0.3,0.1-0.5,0.3-0.7,0.5
			s-0.4,0.5-0.5,0.7c-0.1,0.3-0.2,0.6-0.2,0.9c0,0.2,0,0.3,0,0.4c0.3-0.1,0.6-0.3,1-0.4c0.3-0.1,0.7-0.3,1-0.4
			c0.3-0.1,0.7-0.3,1-0.4C48.1,99.9,48.4,99.7,48.7,99.6z"/>
		<path class="st0" d="M54.2,98.7c-0.3,0-0.6,0-0.9,0.1c-0.3,0.1-0.5,0.2-0.7,0.4s-0.4,0.4-0.5,0.6c-0.1,0.2-0.2,0.5-0.2,0.8v3.1
			h-0.8v-6h0.7l0.1,1.5c0.1-0.3,0.3-0.5,0.5-0.7c0.2-0.2,0.4-0.4,0.6-0.5c0.2-0.1,0.5-0.3,0.7-0.3s0.5-0.1,0.7-0.1L54.2,98.7z"/>
		<path class="st0" d="M55.3,95.7c0-0.2,0.1-0.3,0.2-0.4s0.3-0.2,0.4-0.2c0.1,0,0.3,0.1,0.4,0.2s0.2,0.3,0.2,0.4
			c0,0.2-0.1,0.3-0.2,0.4c-0.1,0.1-0.3,0.2-0.4,0.2c-0.2,0-0.3-0.1-0.4-0.2C55.4,96,55.3,95.9,55.3,95.7z M56.3,103.8h-0.8v-6h0.8
			V103.8z"/>
		<path class="st0" d="M58.4,97.8h0.7c0,0.1,0,0.2,0,0.4c0,0.1,0,0.3,0,0.5s0,0.3,0,0.4s0,0.2,0,0.3c0.2-0.5,0.5-0.9,0.9-1.2
			c0.4-0.3,0.9-0.5,1.5-0.5c0.6,0,1,0.1,1.4,0.4c0.3,0.3,0.5,0.7,0.6,1.2c0.2-0.5,0.5-0.9,0.9-1.2c0.4-0.3,0.9-0.4,1.5-0.5
			c0.6,0,1.1,0.2,1.4,0.5c0.3,0.3,0.5,0.8,0.5,1.3v4.3h-0.8v-4c0-0.3-0.1-0.6-0.4-0.9c-0.2-0.2-0.6-0.4-1-0.4
			c-0.3,0-0.6,0.1-0.9,0.2c-0.3,0.1-0.5,0.3-0.7,0.4c-0.2,0.2-0.3,0.4-0.5,0.7c-0.1,0.3-0.2,0.5-0.2,0.8v3.2h-0.8v-4
			c0-0.3-0.1-0.6-0.4-0.9s-0.5-0.4-1-0.4c-0.3,0-0.6,0.1-0.9,0.2c-0.3,0.1-0.5,0.3-0.7,0.4c-0.2,0.2-0.4,0.4-0.5,0.7
			c-0.1,0.3-0.2,0.5-0.2,0.9v3.2h-0.8V97.8z"/>
		<path class="st0" d="M74.1,93.1h2.5c1.1,0,2,0.2,2.7,0.5s1.4,0.8,1.8,1.3c0.5,0.5,0.8,1.1,1,1.7c0.2,0.6,0.3,1.3,0.3,1.9
			c0,0.8-0.1,1.5-0.4,2.2s-0.7,1.2-1.2,1.7s-1.1,0.8-1.7,1.1s-1.3,0.4-2.1,0.4h-3V93.1z M77,102.9c0.6,0,1.2-0.1,1.7-0.3
			c0.5-0.2,1-0.5,1.4-0.9c0.4-0.4,0.7-0.8,1-1.4c0.2-0.5,0.3-1.2,0.3-1.8c0-0.6-0.1-1.2-0.3-1.7s-0.5-1-0.9-1.4
			c-0.4-0.4-0.9-0.7-1.4-0.9c-0.6-0.2-1.2-0.3-1.9-0.3h-1.8v8.7H77z"/>
		<path class="st0" d="M89,103.1c-0.3,0.3-0.6,0.5-1,0.6c-0.4,0.2-0.8,0.2-1.2,0.2c-0.4,0-0.9-0.1-1.2-0.2c-0.4-0.2-0.7-0.4-1-0.7
			s-0.5-0.6-0.7-1c-0.2-0.4-0.2-0.8-0.2-1.2s0.1-0.8,0.2-1.2c0.2-0.4,0.4-0.7,0.7-1s0.6-0.5,1-0.7s0.8-0.2,1.2-0.2
			c0.7,0,1.2,0.2,1.7,0.6c0.5,0.4,0.8,0.9,1.1,1.5c-0.3,0.1-0.7,0.3-1.1,0.4c-0.4,0.2-0.8,0.3-1.3,0.5s-0.9,0.3-1.3,0.5
			c-0.4,0.2-0.8,0.3-1.2,0.5c0.2,0.4,0.5,0.7,0.8,1c0.4,0.3,0.8,0.4,1.3,0.4c0.3,0,0.6-0.1,0.9-0.2c0.3-0.1,0.5-0.3,0.7-0.4
			L89,103.1z M88.5,99.6c-0.2-0.3-0.4-0.6-0.7-0.8c-0.3-0.2-0.7-0.3-1-0.3c-0.3,0-0.6,0.1-0.9,0.2c-0.3,0.1-0.5,0.3-0.7,0.5
			s-0.4,0.5-0.5,0.7c-0.1,0.3-0.2,0.6-0.2,0.9c0,0.2,0,0.3,0,0.4c0.3-0.1,0.6-0.3,1-0.4c0.3-0.1,0.7-0.3,1-0.4
			c0.3-0.1,0.7-0.3,1-0.4C87.9,99.9,88.2,99.7,88.5,99.6z"/>
		<path class="st0" d="M95.1,102.7l0.5,0.6c-0.3,0.2-0.6,0.4-0.9,0.5c-0.3,0.1-0.7,0.2-1.1,0.2c-0.4,0-0.9-0.1-1.2-0.2
			c-0.4-0.2-0.7-0.4-1-0.7s-0.5-0.6-0.7-1c-0.2-0.4-0.2-0.8-0.2-1.2s0.1-0.8,0.2-1.2c0.2-0.4,0.4-0.7,0.7-1s0.6-0.5,1-0.7
			c0.4-0.2,0.8-0.2,1.2-0.2c0.4,0,0.7,0.1,1.1,0.2s0.6,0.3,0.9,0.5c-0.1,0.1-0.2,0.2-0.3,0.3c-0.1,0.1-0.2,0.2-0.3,0.3
			c-0.4-0.3-0.9-0.5-1.5-0.5c-0.3,0-0.6,0.1-0.9,0.2c-0.3,0.1-0.5,0.3-0.7,0.5s-0.4,0.5-0.5,0.7c-0.1,0.3-0.2,0.6-0.2,0.9
			c0,0.3,0.1,0.6,0.2,0.9c0.1,0.3,0.3,0.5,0.5,0.7s0.5,0.4,0.7,0.5c0.3,0.1,0.6,0.2,0.9,0.2C94.2,103.2,94.7,103,95.1,102.7z"/>
		<path class="st0" d="M96.9,95.7c0-0.2,0.1-0.3,0.2-0.4s0.3-0.2,0.4-0.2c0.1,0,0.3,0.1,0.4,0.2s0.2,0.3,0.2,0.4
			c0,0.2-0.1,0.3-0.2,0.4c-0.1,0.1-0.3,0.2-0.4,0.2c-0.2,0-0.3-0.1-0.4-0.2C97,96,96.9,95.9,96.9,95.7z M97.9,103.8h-0.8v-6h0.8
			V103.8z"/>
		<path class="st0" d="M103.1,98.4l-0.4,0.6c-0.1-0.1-0.2-0.2-0.5-0.3c-0.2-0.1-0.5-0.1-0.7-0.1c-0.1,0-0.2,0-0.3,0
			c-0.1,0-0.2,0.1-0.3,0.1c-0.1,0.1-0.2,0.2-0.2,0.3c-0.1,0.1-0.1,0.2-0.1,0.4c0,0.2,0.1,0.4,0.2,0.5c0.1,0.1,0.3,0.3,0.5,0.4
			c0.2,0.1,0.4,0.2,0.7,0.3s0.5,0.2,0.7,0.3s0.4,0.3,0.5,0.5c0.1,0.2,0.2,0.5,0.2,0.8c0,0.5-0.2,0.9-0.5,1.3
			c-0.3,0.3-0.8,0.5-1.5,0.5c-0.3,0-0.7-0.1-1-0.2c-0.4-0.1-0.6-0.3-0.9-0.6c0,0,0.1-0.1,0.2-0.2c0.1-0.1,0.1-0.1,0.2-0.2
			c0-0.1,0.1-0.1,0.1-0.2s0.1-0.1,0.1-0.1c0,0,0.1,0.1,0.2,0.2c0.1,0.1,0.2,0.1,0.3,0.2c0.1,0.1,0.3,0.1,0.4,0.1
			c0.2,0,0.3,0.1,0.4,0.1c0.1,0,0.2,0,0.4-0.1c0.1,0,0.3-0.1,0.4-0.2c0.1-0.1,0.2-0.2,0.3-0.3c0.1-0.1,0.1-0.3,0.1-0.4
			c0-0.2-0.1-0.4-0.2-0.5c-0.1-0.1-0.3-0.3-0.5-0.4c-0.2-0.1-0.4-0.2-0.7-0.3s-0.5-0.2-0.7-0.3s-0.4-0.3-0.5-0.5
			c-0.1-0.2-0.2-0.5-0.2-0.8c0-0.3,0.1-0.6,0.2-0.8c0.1-0.2,0.2-0.4,0.4-0.5c0.2-0.1,0.4-0.2,0.6-0.3c0.2-0.1,0.4-0.1,0.6-0.1
			c0.3,0,0.5,0.1,0.9,0.2C102.6,98,102.9,98.2,103.1,98.4z"/>
		<path class="st0" d="M104.7,95.7c0-0.2,0.1-0.3,0.2-0.4s0.3-0.2,0.4-0.2c0.1,0,0.3,0.1,0.4,0.2s0.2,0.3,0.2,0.4
			c0,0.2-0.1,0.3-0.2,0.4c-0.1,0.1-0.3,0.2-0.4,0.2c-0.2,0-0.3-0.1-0.4-0.2C104.8,96,104.7,95.9,104.7,95.7z M105.7,103.8h-0.8v-6
			h0.8V103.8z"/>
		<path class="st0" d="M107.4,100.8c0-0.4,0.1-0.8,0.2-1.2c0.2-0.4,0.4-0.7,0.7-1c0.3-0.3,0.6-0.5,1-0.7c0.4-0.2,0.8-0.2,1.2-0.2
			c0.4,0,0.9,0.1,1.2,0.2s0.7,0.4,1,0.7c0.3,0.3,0.5,0.6,0.7,1c0.2,0.4,0.2,0.8,0.2,1.2s-0.1,0.8-0.2,1.2c-0.2,0.4-0.4,0.7-0.7,1
			s-0.6,0.5-1,0.7c-0.4,0.2-0.8,0.2-1.2,0.2c-0.4,0-0.9-0.1-1.2-0.2c-0.4-0.2-0.7-0.4-1-0.7c-0.3-0.3-0.5-0.6-0.7-1
			C107.4,101.7,107.4,101.3,107.4,100.8z M108.2,100.8c0,0.3,0.1,0.6,0.2,0.9c0.1,0.3,0.3,0.5,0.5,0.7s0.5,0.4,0.7,0.5
			c0.3,0.1,0.6,0.2,0.9,0.2s0.6-0.1,0.9-0.2c0.3-0.1,0.5-0.3,0.7-0.5s0.4-0.5,0.5-0.7c0.1-0.3,0.2-0.6,0.2-0.9s-0.1-0.6-0.2-0.9
			s-0.3-0.5-0.5-0.7s-0.5-0.4-0.7-0.5c-0.3-0.1-0.6-0.2-0.9-0.2s-0.6,0.1-0.9,0.2c-0.3,0.1-0.5,0.3-0.7,0.5s-0.4,0.5-0.5,0.7
			S108.2,100.5,108.2,100.8z"/>
		<path class="st0" d="M115.3,97.8h0.7l0.1,1.5c0.2-0.5,0.5-0.9,1-1.2s0.9-0.5,1.5-0.5c0.6,0,1.1,0.2,1.4,0.5s0.5,0.8,0.5,1.3v4.3
			h-0.8v-4c0-0.3-0.1-0.6-0.4-0.9c-0.2-0.2-0.5-0.4-1-0.4c-0.3,0-0.6,0.1-0.9,0.2c-0.3,0.1-0.5,0.3-0.7,0.4
			c-0.2,0.2-0.4,0.4-0.5,0.7c-0.1,0.3-0.2,0.5-0.2,0.9v3.2h-0.8V97.8z"/>
		<path class="st0" d="M38.1,118.9c0-0.4,0.1-0.8,0.2-1.2c0.2-0.4,0.4-0.7,0.7-1s0.6-0.5,1-0.7s0.8-0.2,1.2-0.2c0.3,0,0.6,0,0.8,0.1
			c0.3,0.1,0.5,0.2,0.7,0.3c0.2,0.1,0.4,0.3,0.5,0.5c0.1,0.2,0.2,0.3,0.3,0.5l0.1-1.2h0.8v6h-0.8v-0.6c0-0.1,0-0.2,0-0.3
			c0-0.1,0-0.2,0-0.3c-0.1,0.2-0.2,0.3-0.3,0.5c-0.1,0.2-0.3,0.3-0.5,0.4s-0.4,0.2-0.7,0.3c-0.3,0.1-0.5,0.1-0.9,0.1
			c-0.5,0-0.9-0.1-1.3-0.2c-0.4-0.2-0.7-0.4-1-0.7c-0.3-0.3-0.5-0.6-0.7-1C38.2,119.7,38.1,119.3,38.1,118.9z M38.9,118.8
			c0,0.3,0.1,0.6,0.2,0.9c0.1,0.3,0.3,0.5,0.5,0.7s0.5,0.4,0.7,0.5c0.3,0.1,0.6,0.2,0.9,0.2s0.6-0.1,0.9-0.2
			c0.3-0.1,0.5-0.3,0.7-0.5s0.4-0.5,0.5-0.7c0.1-0.3,0.2-0.6,0.2-0.9c0-0.3-0.1-0.6-0.2-0.9s-0.3-0.5-0.5-0.7s-0.5-0.4-0.7-0.5
			c-0.3-0.1-0.6-0.2-0.9-0.2s-0.6,0.1-0.9,0.2c-0.3,0.1-0.5,0.3-0.7,0.5s-0.4,0.4-0.5,0.7C39,118.2,38.9,118.5,38.9,118.8z"/>
		<path class="st0" d="M46.5,115.8h0.7l0.1,1.5c0.2-0.5,0.5-0.9,1-1.2s0.9-0.5,1.5-0.5c0.6,0,1.1,0.2,1.4,0.5s0.5,0.8,0.5,1.3v4.3
			h-0.8v-4c0-0.3-0.1-0.6-0.4-0.9c-0.2-0.2-0.5-0.4-1-0.4c-0.3,0-0.6,0.1-0.9,0.2c-0.3,0.1-0.5,0.3-0.7,0.4
			c-0.2,0.2-0.4,0.4-0.5,0.7c-0.1,0.3-0.2,0.5-0.2,0.9v3.2h-0.8V115.8z"/>
		<path class="st0" d="M53.3,118.8c0-0.5,0.1-0.9,0.2-1.3c0.2-0.4,0.4-0.7,0.7-1c0.3-0.3,0.6-0.5,1-0.7c0.4-0.2,0.8-0.2,1.2-0.2
			c0.3,0,0.6,0,0.9,0.1c0.3,0.1,0.5,0.2,0.7,0.3s0.4,0.3,0.5,0.5c0.1,0.2,0.3,0.3,0.3,0.5v-6.8h0.8v11.5h-0.8v-0.6
			c0-0.1,0-0.2,0-0.3s0-0.2,0-0.3c-0.2,0.4-0.5,0.7-0.9,1c-0.4,0.3-0.9,0.4-1.5,0.4c-0.5,0-0.9-0.1-1.3-0.2s-0.7-0.4-1-0.7
			c-0.3-0.3-0.5-0.6-0.6-1C53.4,119.7,53.3,119.3,53.3,118.8z M54.2,118.8c0,0.3,0.1,0.6,0.2,0.9c0.1,0.3,0.3,0.5,0.5,0.7
			s0.5,0.4,0.7,0.5s0.6,0.2,0.9,0.2s0.6-0.1,0.9-0.2s0.5-0.3,0.7-0.5s0.4-0.5,0.5-0.7c0.1-0.3,0.2-0.6,0.2-0.9
			c0-0.3-0.1-0.6-0.2-0.9c-0.1-0.3-0.3-0.5-0.5-0.7s-0.5-0.4-0.7-0.5c-0.3-0.1-0.6-0.2-0.9-0.2s-0.6,0.1-0.9,0.2
			c-0.3,0.1-0.5,0.3-0.7,0.5s-0.4,0.4-0.5,0.7C54.2,118.2,54.2,118.5,54.2,118.8z"/>
		<path class="st0" d="M73.7,121.1c-0.3,0.2-0.7,0.4-1.3,0.6c-0.5,0.2-1.1,0.3-1.8,0.3c-0.8,0-1.6-0.1-2.2-0.4
			c-0.7-0.3-1.2-0.7-1.7-1.2c-0.5-0.5-0.8-1.1-1.1-1.7s-0.4-1.3-0.4-2.1c0-0.8,0.1-1.5,0.4-2.2c0.3-0.7,0.7-1.3,1.2-1.8
			c0.5-0.5,1.1-0.9,1.8-1.2c0.7-0.3,1.4-0.4,2.1-0.4c0.3,0,0.5,0,0.8,0.1c0.3,0,0.5,0.1,0.8,0.2c0.3,0.1,0.5,0.2,0.7,0.2
			s0.4,0.2,0.5,0.3c-0.1,0.1-0.1,0.1-0.1,0.2c0,0-0.1,0.1-0.1,0.2c0,0.1-0.1,0.1-0.1,0.2c0,0.1-0.1,0.2-0.2,0.3
			c-0.3-0.2-0.7-0.4-1.1-0.5c-0.4-0.1-0.8-0.2-1.2-0.2c-0.6,0-1.2,0.1-1.8,0.4c-0.6,0.2-1,0.6-1.4,1s-0.7,0.9-1,1.4
			c-0.2,0.5-0.4,1.1-0.4,1.7c0,0.6,0.1,1.1,0.3,1.7c0.2,0.5,0.5,1,0.9,1.4c0.4,0.4,0.9,0.7,1.4,1c0.5,0.2,1.1,0.4,1.8,0.4
			c0.3,0,0.6,0,0.8-0.1c0.3,0,0.5-0.1,0.8-0.2c0.2-0.1,0.4-0.2,0.6-0.2s0.3-0.2,0.4-0.2L73.7,121.1z"/>
		<path class="st0" d="M80,121.9h-0.7l-0.1-1.6c-0.2,0.5-0.5,0.9-1,1.2c-0.4,0.3-1,0.5-1.6,0.5c-0.6,0-1.1-0.2-1.4-0.5
			c-0.3-0.3-0.5-0.8-0.5-1.3v-4.3h0.8v4c0,0.3,0.1,0.6,0.4,0.9c0.2,0.2,0.6,0.4,1,0.4c0.3,0,0.6-0.1,0.9-0.2
			c0.3-0.1,0.5-0.3,0.7-0.4c0.2-0.2,0.4-0.4,0.5-0.7c0.1-0.3,0.2-0.5,0.2-0.9v-3.2H80V121.9z"/>
		<path class="st0" d="M85.2,116.4l-0.4,0.6c-0.1-0.1-0.2-0.2-0.5-0.3c-0.2-0.1-0.5-0.1-0.7-0.1c-0.1,0-0.2,0-0.3,0
			s-0.2,0.1-0.3,0.1c-0.1,0.1-0.2,0.2-0.2,0.3c-0.1,0.1-0.1,0.2-0.1,0.4c0,0.2,0.1,0.4,0.2,0.5c0.1,0.1,0.3,0.3,0.5,0.4
			c0.2,0.1,0.4,0.2,0.7,0.3s0.5,0.2,0.7,0.3s0.4,0.3,0.5,0.5c0.1,0.2,0.2,0.5,0.2,0.8c0,0.5-0.2,0.9-0.5,1.3
			c-0.3,0.3-0.8,0.5-1.5,0.5c-0.3,0-0.7-0.1-1-0.2c-0.4-0.1-0.6-0.3-0.9-0.6c0,0,0.1-0.1,0.2-0.2c0.1-0.1,0.1-0.1,0.2-0.2
			c0-0.1,0.1-0.1,0.1-0.2s0.1-0.1,0.1-0.1c0,0,0.1,0.1,0.2,0.2c0.1,0.1,0.2,0.1,0.3,0.2c0.1,0.1,0.3,0.1,0.4,0.1
			c0.2,0,0.3,0.1,0.4,0.1c0.1,0,0.2,0,0.4-0.1c0.1,0,0.3-0.1,0.4-0.2c0.1-0.1,0.2-0.2,0.3-0.3c0.1-0.1,0.1-0.3,0.1-0.4
			c0-0.2-0.1-0.4-0.2-0.5c-0.1-0.1-0.3-0.3-0.5-0.4c-0.2-0.1-0.4-0.2-0.7-0.3s-0.5-0.2-0.7-0.3s-0.4-0.3-0.5-0.5
			c-0.1-0.2-0.2-0.5-0.2-0.8c0-0.3,0.1-0.6,0.2-0.8c0.1-0.2,0.2-0.4,0.4-0.5c0.2-0.1,0.4-0.2,0.6-0.3c0.2-0.1,0.4-0.1,0.6-0.1
			c0.3,0,0.5,0.1,0.9,0.2C84.7,116,84.9,116.2,85.2,116.4z"/>
		<path class="st0" d="M87.5,113.2h0.8v2.7h1.8v0.8h-1.8v5.2h-0.8v-5.2h-1.2v-0.8h1.2V113.2z"/>
		<path class="st0" d="M90.7,118.8c0-0.4,0.1-0.8,0.2-1.2c0.2-0.4,0.4-0.7,0.7-1s0.6-0.5,1-0.7c0.4-0.2,0.8-0.2,1.2-0.2
			c0.4,0,0.9,0.1,1.2,0.2s0.7,0.4,1,0.7c0.3,0.3,0.5,0.6,0.7,1c0.2,0.4,0.2,0.8,0.2,1.2s-0.1,0.8-0.2,1.2c-0.2,0.4-0.4,0.7-0.7,1
			s-0.6,0.5-1,0.7c-0.4,0.2-0.8,0.2-1.2,0.2c-0.4,0-0.9-0.1-1.2-0.2c-0.4-0.2-0.7-0.4-1-0.7c-0.3-0.3-0.5-0.6-0.7-1
			C90.7,119.7,90.7,119.3,90.7,118.8z M91.5,118.8c0,0.3,0.1,0.6,0.2,0.9c0.1,0.3,0.3,0.5,0.5,0.7s0.5,0.4,0.7,0.5
			c0.3,0.1,0.6,0.2,0.9,0.2s0.6-0.1,0.9-0.2c0.3-0.1,0.5-0.3,0.7-0.5s0.4-0.5,0.5-0.7c0.1-0.3,0.2-0.6,0.2-0.9s-0.1-0.6-0.2-0.9
			s-0.3-0.5-0.5-0.7s-0.5-0.4-0.7-0.5c-0.3-0.1-0.6-0.2-0.9-0.2s-0.6,0.1-0.9,0.2c-0.3,0.1-0.5,0.3-0.7,0.5s-0.4,0.5-0.5,0.7
			S91.5,118.5,91.5,118.8z"/>
		<path class="st0" d="M98.2,118.8c0-0.5,0.1-0.9,0.2-1.3c0.2-0.4,0.4-0.7,0.7-1c0.3-0.3,0.6-0.5,1-0.7c0.4-0.2,0.8-0.2,1.2-0.2
			c0.3,0,0.6,0,0.9,0.1s0.5,0.2,0.7,0.3s0.4,0.3,0.5,0.5c0.1,0.2,0.3,0.3,0.3,0.5v-6.8h0.8v11.5h-0.8v-0.6c0-0.1,0-0.2,0-0.3
			s0-0.2,0-0.3c-0.2,0.4-0.5,0.7-0.9,1c-0.4,0.3-0.9,0.4-1.5,0.4c-0.5,0-0.9-0.1-1.3-0.2s-0.7-0.4-1-0.7c-0.3-0.3-0.5-0.6-0.6-1
			C98.2,119.7,98.2,119.3,98.2,118.8z M99,118.8c0,0.3,0.1,0.6,0.2,0.9c0.1,0.3,0.3,0.5,0.5,0.7s0.5,0.4,0.7,0.5s0.6,0.2,0.9,0.2
			s0.6-0.1,0.9-0.2s0.5-0.3,0.7-0.5s0.4-0.5,0.5-0.7c0.1-0.3,0.2-0.6,0.2-0.9c0-0.3-0.1-0.6-0.2-0.9s-0.3-0.5-0.5-0.7
			s-0.5-0.4-0.7-0.5c-0.3-0.1-0.6-0.2-0.9-0.2s-0.6,0.1-0.9,0.2c-0.3,0.1-0.5,0.3-0.7,0.5s-0.4,0.4-0.5,0.7
			C99,118.2,99,118.5,99,118.8z"/>
		<path class="st0" d="M107.9,124.7H107c0.1-0.3,0.2-0.5,0.4-0.8c0.1-0.2,0.2-0.5,0.3-0.7c0.1-0.2,0.2-0.5,0.3-0.8
			c0.1-0.3,0.2-0.6,0.4-0.9c-0.5-0.9-0.9-1.9-1.4-2.9c-0.4-1-0.9-2-1.3-2.9h0.9c0.3,0.6,0.6,1.1,0.8,1.6c0.2,0.5,0.4,0.9,0.6,1.3
			c0.2,0.4,0.3,0.8,0.5,1.1c0.1,0.3,0.3,0.7,0.4,1c0.1-0.3,0.3-0.7,0.4-1s0.3-0.7,0.5-1.1s0.4-0.8,0.6-1.3c0.2-0.5,0.5-1,0.8-1.6
			h0.9L107.9,124.7z"/>
	</g>
	<g id="interim_x5F_decision_x5F_icon_x5F_grp_2_">
		<g>
			<g>
				<path class="st0" d="M77.3,69.1h-5.1v-29h5.1V69.1z M73.3,68.1h3.1v-27h-3.1V68.1z"/>
			</g>
			<g>
				<path class="st0" d="M82.6,41.1H67.4c-1.3,0-2.4-1.1-2.4-2.4V28.5c0-1.3,1.1-2.4,2.4-2.4h15.2c1.3,0,2.4,1.1,2.4,2.4v10.2
					C85,40,83.9,41.1,82.6,41.1z M67.4,27.1c-0.8,0-1.4,0.6-1.4,1.4v10.2c0,0.8,0.6,1.4,1.4,1.4h15.2c0.8,0,1.4-0.6,1.4-1.4V28.5
					c0-0.8-0.6-1.4-1.4-1.4H67.4z"/>
			</g>
			<g>
				<path class="st0" d="M87.9,42h-2.3c-0.9,0-1.6-0.7-1.6-1.6V26.8c0-0.9,0.7-1.6,1.6-1.6h2.3c0.9,0,1.6,0.7,1.6,1.6v13.5
					C89.4,41.2,88.7,42,87.9,42z M85.6,26.3c-0.3,0-0.6,0.3-0.6,0.6v13.5c0,0.3,0.3,0.6,0.6,0.6h2.3c0.3,0,0.6-0.3,0.6-0.6V26.8
					c0-0.3-0.3-0.6-0.6-0.6H85.6z"/>
			</g>
			<g>
				<path class="st0" d="M64.4,42h-2.3c-0.9,0-1.6-0.7-1.6-1.6V26.8c0-0.9,0.7-1.6,1.6-1.6h2.3c0.9,0,1.6,0.7,1.6,1.6v13.5
					C66,41.2,65.3,42,64.4,42z M62.1,26.3c-0.3,0-0.6,0.3-0.6,0.6v13.5c0,0.3,0.3,0.6,0.6,0.6h2.3c0.3,0,0.6-0.3,0.6-0.6V26.8
					c0-0.3-0.3-0.6-0.6-0.6H62.1z"/>
			</g>
			<g>
				<rect x="67.5" y="26.6" class="st0" width="1" height="14"/>
			</g>
			<g>
				<rect x="81.4" y="26.6" class="st0" width="1" height="14"/>
			</g>
		</g>
		<g>
			<g>
				<path class="st0" d="M83,74.6H67v-3.7H83V74.6z M68,73.6H82v-1.7H68V73.6z"/>
			</g>
			<g>
				<path class="st0" d="M86.3,77.6H63.7v-4h22.5V77.6z M64.7,76.6h20.5v-2H64.7V76.6z"/>
			</g>
		</g>
	</g>
</g>
</svg>
