<?xml version="1.0" encoding="utf-8"?>
<!-- Generator: Adobe Illustrator 21.0.0, SVG Export Plug-In . SVG Version: 6.00 Build 0)  -->
<svg version="1.1" id="Icons" xmlns="http://www.w3.org/2000/svg" xmlns:xlink="http://www.w3.org/1999/xlink" x="0px" y="0px"
	 viewBox="0 0 150 150" style="enable-background:new 0 0 150 150;" xml:space="preserve">
<style type="text/css">
	.st0{fill:#FFFFFF;}
	.st1{fill:#396D5D;}
	.st2{fill:#333A3B;}
	.st3{fill:#394142;}
</style>
<rect id="bg" x="-1428.4" y="-293.4" class="st0" width="1827.2" height="549.1"/>
<rect id="green_x5F_bg" x="-459.2" y="-293.4" class="st1" width="858" height="549.1"/>
<g id="Final_x5F_Green">
	<g>
		<path class="st0" d="M41.9,121.2v-10.7H48v0.9h-5.1v4.1h4.5v1h-4.5v4.8H41.9z"/>
		<path class="st0" d="M48.8,113c0-0.2,0.1-0.3,0.2-0.4s0.3-0.2,0.4-0.2c0.1,0,0.3,0.1,0.4,0.2s0.2,0.3,0.2,0.4
			c0,0.2-0.1,0.3-0.2,0.4s-0.3,0.2-0.4,0.2c-0.2,0-0.3-0.1-0.4-0.2S48.8,113.2,48.8,113z M49.9,121.2H49v-6h0.8V121.2z"/>
		<path class="st0" d="M51.9,115.2h0.7l0.1,1.5c0.2-0.5,0.5-0.9,1-1.2c0.4-0.3,0.9-0.5,1.5-0.5c0.6,0,1.1,0.2,1.4,0.5
			s0.5,0.8,0.5,1.3v4.3h-0.8v-4.1c0-0.3-0.1-0.6-0.4-0.9c-0.2-0.2-0.5-0.4-1-0.4c-0.3,0-0.6,0.1-0.9,0.2c-0.3,0.1-0.5,0.3-0.7,0.4
			c-0.2,0.2-0.4,0.4-0.5,0.7s-0.2,0.5-0.2,0.9v3.2h-0.8V115.2z"/>
		<path class="st0" d="M58.7,118.2c0-0.4,0.1-0.8,0.2-1.2c0.2-0.4,0.4-0.7,0.7-1c0.3-0.3,0.6-0.5,1-0.7c0.4-0.2,0.8-0.2,1.2-0.2
			c0.3,0,0.6,0,0.8,0.1c0.3,0.1,0.5,0.2,0.7,0.3c0.2,0.1,0.4,0.3,0.5,0.5c0.1,0.2,0.2,0.3,0.3,0.5l0.1-1.2H65v6h-0.8v-0.6
			c0-0.1,0-0.2,0-0.3c0-0.1,0-0.2,0-0.3c-0.1,0.2-0.2,0.3-0.3,0.5c-0.1,0.2-0.3,0.3-0.5,0.4c-0.2,0.1-0.4,0.2-0.7,0.3
			c-0.3,0.1-0.5,0.1-0.9,0.1c-0.5,0-0.9-0.1-1.3-0.2c-0.4-0.2-0.7-0.4-1-0.7c-0.3-0.3-0.5-0.6-0.7-1C58.8,119,58.7,118.6,58.7,118.2
			z M59.5,118.2c0,0.3,0.1,0.6,0.2,0.9c0.1,0.3,0.3,0.5,0.5,0.7c0.2,0.2,0.5,0.4,0.7,0.5c0.3,0.1,0.6,0.2,0.9,0.2s0.6-0.1,0.9-0.2
			c0.3-0.1,0.5-0.3,0.7-0.5c0.2-0.2,0.4-0.5,0.5-0.7c0.1-0.3,0.2-0.6,0.2-0.9c0-0.3-0.1-0.6-0.2-0.9c-0.1-0.3-0.3-0.5-0.5-0.7
			c-0.2-0.2-0.5-0.4-0.7-0.5c-0.3-0.1-0.6-0.2-0.9-0.2s-0.6,0.1-0.9,0.2c-0.3,0.1-0.5,0.3-0.7,0.5s-0.4,0.4-0.5,0.7
			C59.6,117.5,59.5,117.8,59.5,118.2z"/>
		<path class="st0" d="M67.9,121.2h-0.8v-11.5h0.8V121.2z"/>
		<path class="st0" d="M73.4,115.9c0-0.8,0.1-1.5,0.4-2.1c0.3-0.7,0.7-1.2,1.2-1.7c0.5-0.5,1.1-0.9,1.7-1.2c0.7-0.3,1.4-0.4,2.1-0.4
			s1.5,0.1,2.1,0.4c0.7,0.3,1.3,0.7,1.7,1.2s0.9,1.1,1.2,1.7c0.3,0.7,0.4,1.4,0.4,2.1s-0.1,1.5-0.4,2.1c-0.3,0.7-0.7,1.2-1.2,1.7
			c-0.5,0.5-1.1,0.9-1.7,1.2s-1.4,0.4-2.1,0.4s-1.5-0.1-2.1-0.4s-1.2-0.7-1.7-1.2c-0.5-0.5-0.9-1.1-1.2-1.7
			C73.6,117.3,73.4,116.6,73.4,115.9z M74.4,115.9c0,0.6,0.1,1.2,0.4,1.7c0.2,0.5,0.6,1,1,1.4c0.4,0.4,0.9,0.7,1.4,1
			c0.5,0.2,1.1,0.4,1.7,0.4c0.6,0,1.2-0.1,1.7-0.4c0.5-0.2,1-0.6,1.4-1s0.7-0.9,1-1.4c0.2-0.5,0.4-1.1,0.4-1.7
			c0-0.6-0.1-1.2-0.4-1.7c-0.2-0.5-0.6-1-1-1.4s-0.9-0.7-1.4-1c-0.5-0.2-1.1-0.4-1.7-0.4c-0.6,0-1.2,0.1-1.7,0.4
			c-0.5,0.2-1,0.6-1.4,1c-0.4,0.4-0.7,0.9-1,1.4C74.6,114.7,74.4,115.2,74.4,115.9z"/>
		<path class="st0" d="M89,116.1c-0.3,0-0.6,0-0.9,0.1c-0.3,0.1-0.5,0.2-0.7,0.4c-0.2,0.2-0.4,0.4-0.5,0.6c-0.1,0.2-0.2,0.5-0.2,0.8
			v3.1h-0.8v-6h0.7l0.1,1.5c0.1-0.3,0.3-0.5,0.5-0.7c0.2-0.2,0.4-0.4,0.6-0.5c0.2-0.1,0.5-0.3,0.7-0.3s0.5-0.1,0.7-0.1L89,116.1z"/>
		<path class="st0" d="M89.6,118.2c0-0.5,0.1-0.9,0.2-1.3c0.2-0.4,0.4-0.7,0.7-1c0.3-0.3,0.6-0.5,1-0.7c0.4-0.2,0.8-0.2,1.2-0.2
			c0.3,0,0.6,0,0.9,0.1s0.5,0.2,0.7,0.3c0.2,0.1,0.4,0.3,0.5,0.5c0.1,0.2,0.3,0.3,0.3,0.5v-6.8h0.8v11.5h-0.8v-0.6
			c0-0.1,0-0.2,0-0.3s0-0.2,0-0.3c-0.2,0.4-0.5,0.7-0.9,1s-0.9,0.4-1.5,0.4c-0.5,0-0.9-0.1-1.3-0.2c-0.4-0.2-0.7-0.4-1-0.7
			c-0.3-0.3-0.5-0.6-0.6-1C89.7,119,89.6,118.6,89.6,118.2z M90.4,118.2c0,0.3,0.1,0.6,0.2,0.9c0.1,0.3,0.3,0.5,0.5,0.7
			c0.2,0.2,0.5,0.4,0.7,0.5c0.3,0.1,0.6,0.2,0.9,0.2s0.6-0.1,0.9-0.2c0.3-0.1,0.5-0.3,0.7-0.5c0.2-0.2,0.4-0.5,0.5-0.7
			c0.1-0.3,0.2-0.6,0.2-0.9c0-0.3-0.1-0.6-0.2-0.9c-0.1-0.3-0.3-0.5-0.5-0.7c-0.2-0.2-0.5-0.4-0.7-0.5c-0.3-0.1-0.6-0.2-0.9-0.2
			s-0.6,0.1-0.9,0.2c-0.3,0.1-0.5,0.3-0.7,0.5c-0.2,0.2-0.4,0.4-0.5,0.7C90.5,117.5,90.4,117.8,90.4,118.2z"/>
		<path class="st0" d="M103,120.5c-0.3,0.3-0.6,0.5-1,0.6c-0.4,0.2-0.8,0.2-1.2,0.2c-0.4,0-0.9-0.1-1.2-0.2c-0.4-0.2-0.7-0.4-1-0.7
			c-0.3-0.3-0.5-0.6-0.7-1c-0.2-0.4-0.2-0.8-0.2-1.2s0.1-0.8,0.2-1.2c0.2-0.4,0.4-0.7,0.7-1s0.6-0.5,1-0.7c0.4-0.2,0.8-0.2,1.2-0.2
			c0.7,0,1.2,0.2,1.7,0.6s0.8,0.9,1.1,1.5c-0.3,0.1-0.7,0.3-1.1,0.4c-0.4,0.2-0.8,0.3-1.3,0.5c-0.4,0.2-0.9,0.3-1.3,0.5
			s-0.8,0.3-1.2,0.5c0.2,0.4,0.5,0.7,0.8,1c0.4,0.3,0.8,0.4,1.3,0.4c0.3,0,0.6-0.1,0.9-0.2c0.3-0.1,0.5-0.3,0.7-0.4L103,120.5z
			 M102.5,117c-0.2-0.3-0.4-0.6-0.7-0.8s-0.7-0.3-1-0.3c-0.3,0-0.6,0.1-0.9,0.2c-0.3,0.1-0.5,0.3-0.7,0.5c-0.2,0.2-0.4,0.5-0.5,0.7
			s-0.2,0.6-0.2,0.9c0,0.2,0,0.3,0,0.4c0.3-0.1,0.6-0.3,1-0.4c0.3-0.1,0.7-0.3,1-0.4c0.3-0.1,0.7-0.3,1-0.4
			C101.9,117.2,102.2,117.1,102.5,117z"/>
		<path class="st0" d="M108,116.1c-0.3,0-0.6,0-0.9,0.1c-0.3,0.1-0.5,0.2-0.7,0.4s-0.4,0.4-0.5,0.6c-0.1,0.2-0.2,0.5-0.2,0.8v3.1
			h-0.8v-6h0.7l0.1,1.5c0.1-0.3,0.3-0.5,0.5-0.7c0.2-0.2,0.4-0.4,0.6-0.5c0.2-0.1,0.5-0.3,0.7-0.3s0.5-0.1,0.7-0.1L108,116.1z"/>
	</g>
	<g id="final_x5F_order_x5F_grp_2_">
		<g>
			<path class="st0" d="M94.3,89.4H51.6V28.7h34L85,38.2l9.3-1.8V89.4z M52.6,88.4h40.7V37.6l-9.4,1.8l0.6-9.7H52.6V88.4z"/>
		</g>
		<g>
			<g>
				<rect x="57.8" y="76.6" class="st0" width="30.3" height="1"/>
			</g>
			<g>
				<rect x="57.8" y="80.2" class="st0" width="30.3" height="1"/>
			</g>
			<g>
				<rect x="57.8" y="72.9" class="st0" width="30.3" height="1"/>
			</g>
		</g>
		<g>
			<path class="st0" d="M72.9,62.8c-4.4,0-7.9-3.6-7.9-7.9c0-4.4,3.6-7.9,7.9-7.9s7.9,3.6,7.9,7.9C80.9,59.3,77.3,62.8,72.9,62.8z
				 M72.9,47.9c-3.8,0-6.9,3.1-6.9,6.9s3.1,6.9,6.9,6.9s6.9-3.1,6.9-6.9S76.8,47.9,72.9,47.9z"/>
		</g>
		<g>
			<polygon class="st0" points="70.6,60 68.5,58.4 69.1,57.6 70.5,58.7 77.4,51.4 78.1,52 			"/>
		</g>
	</g>
</g>
</svg>
