<?xml version="1.0" encoding="utf-8"?>
<!-- Generator: Adobe Illustrator 21.0.0, SVG Export Plug-In . SVG Version: 6.00 Build 0)  -->
<svg version="1.1" id="Icons" xmlns="http://www.w3.org/2000/svg" xmlns:xlink="http://www.w3.org/1999/xlink" x="0px" y="0px"
	 viewBox="0 0 150 150" style="enable-background:new 0 0 150 150;" xml:space="preserve">
<style type="text/css">
	.st0{fill:#FFFFFF;}
	.st1{fill:#396D5D;}
	.st2{fill:#333A3B;}
	.st3{fill:#394142;}
</style>
<rect id="bg" x="-1232.3" y="-293.4" class="st0" width="1827.2" height="549.1"/>
<rect id="green_x5F_bg" x="-263.1" y="-293.4" class="st1" width="858" height="549.1"/>
<g id="Case_x5F_Green">
	<g>
		<path class="st0" d="M38.5,115.4c-0.3,0.2-0.7,0.4-1.3,0.6c-0.5,0.2-1.1,0.3-1.8,0.3c-0.8,0-1.6-0.1-2.2-0.4
			c-0.7-0.3-1.2-0.7-1.7-1.2c-0.5-0.5-0.8-1.1-1.1-1.7s-0.4-1.3-0.4-2.1c0-0.8,0.1-1.5,0.4-2.2c0.3-0.7,0.7-1.3,1.2-1.8
			c0.5-0.5,1.1-0.9,1.8-1.2c0.7-0.3,1.4-0.4,2.1-0.4c0.3,0,0.5,0,0.8,0.1c0.3,0,0.5,0.1,0.8,0.2c0.3,0.1,0.5,0.2,0.7,0.2
			s0.4,0.2,0.5,0.3c-0.1,0.1-0.1,0.1-0.1,0.2c0,0-0.1,0.1-0.1,0.2c0,0.1-0.1,0.1-0.1,0.2c0,0.1-0.1,0.2-0.2,0.3
			c-0.3-0.2-0.7-0.4-1.1-0.5c-0.4-0.1-0.8-0.2-1.2-0.2c-0.6,0-1.2,0.1-1.8,0.4c-0.6,0.2-1,0.6-1.4,1s-0.7,0.9-1,1.4
			c-0.2,0.5-0.4,1.1-0.4,1.7c0,0.6,0.1,1.1,0.3,1.7s0.5,1,0.9,1.4s0.9,0.7,1.4,1c0.5,0.2,1.1,0.4,1.8,0.4c0.3,0,0.6,0,0.8-0.1
			c0.3,0,0.5-0.1,0.8-0.2c0.2-0.1,0.4-0.2,0.6-0.2s0.3-0.2,0.4-0.2L38.5,115.4z"/>
		<path class="st0" d="M39.2,113.2c0-0.4,0.1-0.8,0.2-1.2c0.2-0.4,0.4-0.7,0.7-1s0.6-0.5,1-0.7s0.8-0.2,1.2-0.2c0.3,0,0.6,0,0.8,0.1
			c0.3,0.1,0.5,0.2,0.7,0.3c0.2,0.1,0.4,0.3,0.5,0.5c0.1,0.2,0.2,0.3,0.3,0.5l0.1-1.2h0.8v6h-0.8v-0.6c0-0.1,0-0.2,0-0.3
			c0-0.1,0-0.2,0-0.3c-0.1,0.2-0.2,0.3-0.3,0.5c-0.1,0.2-0.3,0.3-0.5,0.4s-0.4,0.2-0.7,0.3c-0.3,0.1-0.5,0.1-0.9,0.1
			c-0.5,0-0.9-0.1-1.3-0.2c-0.4-0.2-0.7-0.4-1-0.7c-0.3-0.3-0.5-0.6-0.7-1C39.3,114,39.2,113.6,39.2,113.2z M40,113.1
			c0,0.3,0.1,0.6,0.2,0.9c0.1,0.3,0.3,0.5,0.5,0.7s0.5,0.4,0.7,0.5c0.3,0.1,0.6,0.2,0.9,0.2s0.6-0.1,0.9-0.2
			c0.3-0.1,0.5-0.3,0.7-0.5s0.4-0.5,0.5-0.7c0.1-0.3,0.2-0.6,0.2-0.9c0-0.3-0.1-0.6-0.2-0.9s-0.3-0.5-0.5-0.7s-0.5-0.4-0.7-0.5
			c-0.3-0.1-0.6-0.2-0.9-0.2s-0.6,0.1-0.9,0.2c-0.3,0.1-0.5,0.3-0.7,0.5s-0.4,0.4-0.5,0.7C40.1,112.5,40,112.8,40,113.1z"/>
		<path class="st0" d="M50.7,110.7l-0.4,0.6c-0.1-0.1-0.2-0.2-0.5-0.3c-0.2-0.1-0.5-0.1-0.7-0.1c-0.1,0-0.2,0-0.3,0
			s-0.2,0.1-0.3,0.1c-0.1,0.1-0.2,0.2-0.2,0.3c-0.1,0.1-0.1,0.2-0.1,0.4c0,0.2,0.1,0.4,0.2,0.5c0.1,0.1,0.3,0.3,0.5,0.4
			c0.2,0.1,0.4,0.2,0.7,0.3s0.5,0.2,0.7,0.3s0.4,0.3,0.5,0.5c0.1,0.2,0.2,0.5,0.2,0.8c0,0.5-0.2,0.9-0.5,1.3
			c-0.3,0.3-0.8,0.5-1.5,0.5c-0.3,0-0.7-0.1-1-0.2c-0.4-0.1-0.6-0.3-0.9-0.6c0,0,0.1-0.1,0.2-0.2c0.1-0.1,0.1-0.1,0.2-0.2
			c0-0.1,0.1-0.1,0.1-0.2s0.1-0.1,0.1-0.1c0,0,0.1,0.1,0.2,0.2c0.1,0.1,0.2,0.1,0.3,0.2c0.1,0.1,0.3,0.1,0.4,0.1
			c0.2,0,0.3,0.1,0.4,0.1c0.1,0,0.2,0,0.4-0.1c0.1,0,0.3-0.1,0.4-0.2c0.1-0.1,0.2-0.2,0.3-0.3c0.1-0.1,0.1-0.3,0.1-0.4
			c0-0.2-0.1-0.4-0.2-0.5c-0.1-0.1-0.3-0.3-0.5-0.4c-0.2-0.1-0.4-0.2-0.7-0.3s-0.5-0.2-0.7-0.3s-0.4-0.3-0.5-0.5
			c-0.1-0.2-0.2-0.5-0.2-0.8c0-0.3,0.1-0.6,0.2-0.8c0.1-0.2,0.2-0.4,0.4-0.5c0.2-0.1,0.4-0.2,0.6-0.3c0.2-0.1,0.4-0.1,0.6-0.1
			c0.3,0,0.5,0.1,0.9,0.2C50.2,110.3,50.5,110.5,50.7,110.7z"/>
		<path class="st0" d="M57.5,115.4c-0.3,0.3-0.6,0.5-1,0.6c-0.4,0.2-0.8,0.2-1.2,0.2c-0.4,0-0.9-0.1-1.2-0.2c-0.4-0.2-0.7-0.4-1-0.7
			s-0.5-0.6-0.7-1c-0.2-0.4-0.2-0.8-0.2-1.2s0.1-0.8,0.2-1.2c0.2-0.4,0.4-0.7,0.7-1s0.6-0.5,1-0.7s0.8-0.2,1.2-0.2
			c0.7,0,1.2,0.2,1.7,0.6c0.5,0.4,0.8,0.9,1.1,1.5c-0.3,0.1-0.7,0.3-1.1,0.4c-0.4,0.2-0.8,0.3-1.3,0.5s-0.9,0.3-1.3,0.5
			c-0.4,0.2-0.8,0.3-1.2,0.5c0.2,0.4,0.5,0.7,0.8,1c0.4,0.3,0.8,0.4,1.3,0.4c0.3,0,0.6-0.1,0.9-0.2c0.3-0.1,0.5-0.3,0.7-0.4
			L57.5,115.4z M57,111.9c-0.2-0.3-0.4-0.6-0.7-0.8c-0.3-0.2-0.7-0.3-1-0.3c-0.3,0-0.6,0.1-0.9,0.2c-0.3,0.1-0.5,0.3-0.7,0.5
			s-0.4,0.5-0.5,0.7c-0.1,0.3-0.2,0.6-0.2,0.9c0,0.2,0,0.3,0,0.4c0.3-0.1,0.6-0.3,1-0.4c0.3-0.1,0.7-0.3,1-0.4
			c0.3-0.1,0.7-0.3,1-0.4C56.4,112.1,56.7,112,57,111.9z"/>
		<path class="st0" d="M63.6,116.1v-10.7h2.6c0.5,0,0.9,0.1,1.3,0.2s0.8,0.3,1.1,0.6c0.3,0.3,0.6,0.6,0.8,1c0.2,0.4,0.3,0.9,0.3,1.4
			c0,0.6-0.1,1.2-0.4,1.7c-0.3,0.5-0.7,1-1.3,1.2c0.1,0.2,0.2,0.4,0.4,0.6c0.1,0.3,0.3,0.5,0.5,0.8c0.2,0.3,0.4,0.6,0.6,0.9
			c0.2,0.3,0.4,0.6,0.6,0.9c0.2,0.3,0.3,0.6,0.5,0.8c0.1,0.2,0.3,0.4,0.4,0.6h-1.2c-0.1-0.1-0.2-0.3-0.3-0.5s-0.3-0.4-0.4-0.7
			c-0.2-0.3-0.3-0.5-0.5-0.8c-0.2-0.3-0.4-0.6-0.5-0.9s-0.3-0.5-0.5-0.8s-0.3-0.5-0.4-0.6c-0.1,0-0.2,0-0.3,0c-0.1,0-0.2,0-0.3,0
			h-1.6v4.3H63.6z M64.6,110.9h1.6c0.5,0,0.9-0.1,1.2-0.2s0.6-0.4,0.8-0.6c0.2-0.2,0.3-0.5,0.4-0.8c0.1-0.3,0.1-0.5,0.1-0.7
			c0-0.3-0.1-0.5-0.2-0.8c-0.1-0.3-0.3-0.5-0.5-0.7c-0.2-0.2-0.5-0.4-0.8-0.5c-0.3-0.1-0.7-0.2-1.1-0.2h-1.6V110.9z"/>
		<path class="st0" d="M76.5,115.4c-0.3,0.3-0.6,0.5-1,0.6c-0.4,0.2-0.8,0.2-1.2,0.2c-0.4,0-0.9-0.1-1.2-0.2c-0.4-0.2-0.7-0.4-1-0.7
			s-0.5-0.6-0.7-1c-0.2-0.4-0.2-0.8-0.2-1.2s0.1-0.8,0.2-1.2c0.2-0.4,0.4-0.7,0.7-1s0.6-0.5,1-0.7s0.8-0.2,1.2-0.2
			c0.7,0,1.2,0.2,1.7,0.6c0.5,0.4,0.8,0.9,1.1,1.5c-0.3,0.1-0.7,0.3-1.1,0.4c-0.4,0.2-0.8,0.3-1.3,0.5s-0.9,0.3-1.3,0.5
			c-0.4,0.2-0.8,0.3-1.2,0.5c0.2,0.4,0.5,0.7,0.8,1c0.4,0.3,0.8,0.4,1.3,0.4c0.3,0,0.6-0.1,0.9-0.2c0.3-0.1,0.5-0.3,0.7-0.4
			L76.5,115.4z M76,111.9c-0.2-0.3-0.4-0.6-0.7-0.8c-0.3-0.2-0.7-0.3-1-0.3c-0.3,0-0.6,0.1-0.9,0.2c-0.3,0.1-0.5,0.3-0.7,0.5
			s-0.4,0.5-0.5,0.7c-0.1,0.3-0.2,0.6-0.2,0.9c0,0.2,0,0.3,0,0.4c0.3-0.1,0.6-0.3,1-0.4c0.3-0.1,0.7-0.3,1-0.4
			c0.3-0.1,0.7-0.3,1-0.4C75.4,112.1,75.7,112,76,111.9z"/>
		<path class="st0" d="M82.5,115l0.5,0.6c-0.3,0.2-0.6,0.4-0.9,0.5c-0.3,0.1-0.7,0.2-1.1,0.2c-0.4,0-0.9-0.1-1.2-0.2
			c-0.4-0.2-0.7-0.4-1-0.7s-0.5-0.6-0.7-1c-0.2-0.4-0.2-0.8-0.2-1.2s0.1-0.8,0.2-1.2c0.2-0.4,0.4-0.7,0.7-1s0.6-0.5,1-0.7
			c0.4-0.2,0.8-0.2,1.2-0.2c0.4,0,0.7,0.1,1.1,0.2s0.6,0.3,0.9,0.5c-0.1,0.1-0.2,0.2-0.3,0.3c-0.1,0.1-0.2,0.2-0.3,0.3
			c-0.4-0.3-0.9-0.5-1.5-0.5c-0.3,0-0.6,0.1-0.9,0.2c-0.3,0.1-0.5,0.3-0.7,0.5s-0.4,0.5-0.5,0.7c-0.1,0.3-0.2,0.6-0.2,0.9
			c0,0.3,0.1,0.6,0.2,0.9c0.1,0.3,0.3,0.5,0.5,0.7s0.5,0.4,0.7,0.5c0.3,0.1,0.6,0.2,0.9,0.2C81.6,115.5,82.1,115.3,82.5,115z"/>
		<path class="st0" d="M83.9,113.1c0-0.4,0.1-0.8,0.2-1.2c0.2-0.4,0.4-0.7,0.7-1s0.6-0.5,1-0.7c0.4-0.2,0.8-0.2,1.2-0.2
			c0.4,0,0.9,0.1,1.2,0.2s0.7,0.4,1,0.7c0.3,0.3,0.5,0.6,0.7,1c0.2,0.4,0.2,0.8,0.2,1.2s-0.1,0.8-0.2,1.2c-0.2,0.4-0.4,0.7-0.7,1
			s-0.6,0.5-1,0.7c-0.4,0.2-0.8,0.2-1.2,0.2c-0.4,0-0.9-0.1-1.2-0.2c-0.4-0.2-0.7-0.4-1-0.7c-0.3-0.3-0.5-0.6-0.7-1
			C84,114,83.9,113.6,83.9,113.1z M84.8,113.1c0,0.3,0.1,0.6,0.2,0.9c0.1,0.3,0.3,0.5,0.5,0.7s0.5,0.4,0.7,0.5
			c0.3,0.1,0.6,0.2,0.9,0.2s0.6-0.1,0.9-0.2c0.3-0.1,0.5-0.3,0.7-0.5s0.4-0.5,0.5-0.7c0.1-0.3,0.2-0.6,0.2-0.9s-0.1-0.6-0.2-0.9
			s-0.3-0.5-0.5-0.7s-0.5-0.4-0.7-0.5c-0.3-0.1-0.6-0.2-0.9-0.2s-0.6,0.1-0.9,0.2c-0.3,0.1-0.5,0.3-0.7,0.5s-0.4,0.5-0.5,0.7
			C84.8,112.5,84.8,112.8,84.8,113.1z"/>
		<path class="st0" d="M94.9,111c-0.3,0-0.6,0-0.9,0.1c-0.3,0.1-0.5,0.2-0.7,0.4s-0.4,0.4-0.5,0.6c-0.1,0.2-0.2,0.5-0.2,0.8v3.1
			h-0.8v-6h0.7l0.1,1.5c0.1-0.3,0.3-0.5,0.5-0.7c0.2-0.2,0.4-0.4,0.6-0.5c0.2-0.1,0.5-0.3,0.7-0.3s0.5-0.1,0.7-0.1L94.9,111z"/>
		<path class="st0" d="M95.6,113.1c0-0.5,0.1-0.9,0.2-1.3c0.2-0.4,0.4-0.7,0.7-1c0.3-0.3,0.6-0.5,1-0.7c0.4-0.2,0.8-0.2,1.2-0.2
			c0.3,0,0.6,0,0.9,0.1c0.3,0.1,0.5,0.2,0.7,0.3s0.4,0.3,0.5,0.5c0.1,0.2,0.3,0.3,0.3,0.5v-6.8h0.8v11.5h-0.8v-0.6
			c0-0.1,0-0.2,0-0.3s0-0.2,0-0.3c-0.2,0.4-0.5,0.7-0.9,1c-0.4,0.3-0.9,0.4-1.5,0.4c-0.5,0-0.9-0.1-1.3-0.2s-0.7-0.4-1-0.7
			c-0.3-0.3-0.5-0.6-0.6-1C95.7,114,95.6,113.6,95.6,113.1z M96.4,113.1c0,0.3,0.1,0.6,0.2,0.9c0.1,0.3,0.3,0.5,0.5,0.7
			s0.5,0.4,0.7,0.5s0.6,0.2,0.9,0.2s0.6-0.1,0.9-0.2s0.5-0.3,0.7-0.5s0.4-0.5,0.5-0.7c0.1-0.3,0.2-0.6,0.2-0.9
			c0-0.3-0.1-0.6-0.2-0.9c-0.1-0.3-0.3-0.5-0.5-0.7s-0.5-0.4-0.7-0.5c-0.3-0.1-0.6-0.2-0.9-0.2s-0.6,0.1-0.9,0.2
			c-0.3,0.1-0.5,0.3-0.7,0.5s-0.4,0.4-0.5,0.7C96.5,112.5,96.4,112.8,96.4,113.1z"/>
		<path class="st0" d="M103.8,108c0-0.2,0.1-0.3,0.2-0.4s0.3-0.2,0.4-0.2c0.1,0,0.3,0.1,0.4,0.2s0.2,0.3,0.2,0.4
			c0,0.2-0.1,0.3-0.2,0.4c-0.1,0.1-0.3,0.2-0.4,0.2c-0.2,0-0.3-0.1-0.4-0.2C103.9,108.3,103.8,108.1,103.8,108z M104.8,116.1H104v-6
			h0.8V116.1z"/>
		<path class="st0" d="M106.9,110.1h0.7l0.1,1.5c0.2-0.5,0.5-0.9,1-1.2s0.9-0.5,1.5-0.5c0.6,0,1.1,0.2,1.4,0.5s0.5,0.8,0.5,1.3v4.3
			h-0.8v-4c0-0.3-0.1-0.6-0.4-0.9c-0.2-0.2-0.5-0.4-1-0.4c-0.3,0-0.6,0.1-0.9,0.2c-0.3,0.1-0.5,0.3-0.7,0.4
			c-0.2,0.2-0.4,0.4-0.5,0.7c-0.1,0.3-0.2,0.5-0.2,0.9v3.2h-0.8V110.1z"/>
		<path class="st0" d="M113.7,113.2c0-0.4,0.1-0.9,0.2-1.2c0.2-0.4,0.4-0.7,0.7-1s0.6-0.5,1-0.7c0.4-0.2,0.8-0.2,1.2-0.2
			c0.3,0,0.6,0,0.9,0.1c0.3,0.1,0.5,0.2,0.7,0.3c0.2,0.1,0.4,0.3,0.5,0.4c0.1,0.2,0.2,0.3,0.3,0.5c0-0.2,0-0.4,0-0.6
			c0-0.2,0-0.4,0-0.6h0.8v5.9c0,0.4-0.1,0.8-0.2,1.2c-0.1,0.4-0.3,0.7-0.6,0.9c-0.3,0.3-0.6,0.5-1,0.6c-0.4,0.1-0.9,0.2-1.4,0.2
			c-0.6,0-1.1-0.1-1.5-0.3c-0.4-0.2-0.9-0.5-1.3-0.9l0.5-0.6c0.4,0.4,0.8,0.6,1.1,0.8c0.4,0.1,0.7,0.2,1.1,0.2
			c0.4,0,0.8-0.1,1.1-0.2c0.3-0.1,0.5-0.3,0.7-0.4c0.2-0.2,0.3-0.4,0.4-0.7c0.1-0.3,0.1-0.6,0.1-0.9c0-0.1,0-0.2,0-0.2
			c0-0.1,0-0.2,0-0.3c0,0,0-0.1,0-0.1c0-0.1,0-0.1,0-0.2s0-0.1,0-0.2c0-0.1,0-0.1,0-0.1c-0.2,0.4-0.5,0.7-0.9,1s-0.9,0.4-1.5,0.4
			c-0.4,0-0.8-0.1-1.2-0.2s-0.7-0.4-1-0.7c-0.3-0.3-0.5-0.6-0.7-1C113.8,114,113.7,113.6,113.7,113.2z M114.5,113.1
			c0,0.3,0.1,0.6,0.2,0.9c0.1,0.3,0.3,0.5,0.5,0.7s0.5,0.4,0.7,0.5s0.6,0.2,0.9,0.2s0.6-0.1,0.9-0.2s0.5-0.3,0.7-0.5
			s0.4-0.5,0.5-0.7c0.1-0.3,0.2-0.6,0.2-0.9c0-0.3-0.1-0.6-0.2-0.9s-0.3-0.5-0.5-0.7s-0.5-0.4-0.7-0.5c-0.3-0.1-0.6-0.2-0.9-0.2
			s-0.6,0.1-0.9,0.2c-0.3,0.1-0.5,0.3-0.7,0.5s-0.4,0.4-0.5,0.7C114.6,112.5,114.5,112.8,114.5,113.1z"/>
	</g>
	<g id="case_x5F_recording_x5F_grp_2_">
		<g>
			<path class="st0" d="M90.9,74.9H56.1c-4.7,0-8.5-3.8-8.5-8.5V48.3c0-4.7,3.8-8.5,8.5-8.5h34.8c4.7,0,8.5,3.8,8.5,8.5v18.1
				C99.4,71,95.6,74.9,90.9,74.9z M56.1,40.7c-4.2,0-7.5,3.4-7.5,7.5v18.1c0,4.2,3.4,7.5,7.5,7.5h34.8c4.2,0,7.5-3.4,7.5-7.5V48.3
				c0-4.2-3.4-7.5-7.5-7.5H56.1z"/>
		</g>
		<g>
			<path class="st0" d="M89.9,61.4H57.1c-3.4,0-6.2-2.8-6.2-6.2v-5.3c0-3.4,2.8-6.2,6.2-6.2h32.9c3.4,0,6.2,2.8,6.2,6.2v5.3
				C96.1,58.6,93.4,61.4,89.9,61.4z M57.1,44.7c-2.9,0-5.2,2.3-5.2,5.2v5.3c0,2.9,2.3,5.2,5.2,5.2h32.9c2.9,0,5.2-2.3,5.2-5.2v-5.3
				c0-2.9-2.3-5.2-5.2-5.2H57.1z"/>
		</g>
		<g>
			<g>
				<path class="st0" d="M62.8,56.9c-2.1,0-3.8-1.7-3.8-3.8c0-2.1,1.7-3.8,3.8-3.8c2.1,0,3.8,1.7,3.8,3.8
					C66.6,55.2,64.9,56.9,62.8,56.9z M62.8,50.3c-1.5,0-2.8,1.3-2.8,2.8c0,1.5,1.3,2.8,2.8,2.8c1.5,0,2.8-1.3,2.8-2.8
					C65.6,51.6,64.4,50.3,62.8,50.3z"/>
			</g>
			<g>
				<path class="st0" d="M62.8,55.3c-1.2,0-2.2-1-2.2-2.2s1-2.2,2.2-2.2s2.2,1,2.2,2.2S64.1,55.3,62.8,55.3z M62.8,51.9
					c-0.7,0-1.2,0.5-1.2,1.2c0,0.7,0.5,1.2,1.2,1.2s1.2-0.5,1.2-1.2C64,52.5,63.5,51.9,62.8,51.9z"/>
			</g>
			<g>
				<path class="st0" d="M84.1,55.3c-1.2,0-2.2-1-2.2-2.2s1-2.2,2.2-2.2s2.2,1,2.2,2.2S85.4,55.3,84.1,55.3z M84.1,51.9
					c-0.7,0-1.2,0.5-1.2,1.2c0,0.7,0.5,1.2,1.2,1.2s1.2-0.5,1.2-1.2C85.3,52.5,84.8,51.9,84.1,51.9z"/>
			</g>
			<g>
				<path class="st0" d="M84.1,56.9c-2.1,0-3.8-1.7-3.8-3.8c0-2.1,1.7-3.8,3.8-3.8c2.1,0,3.8,1.7,3.8,3.8
					C87.9,55.2,86.2,56.9,84.1,56.9z M84.1,50.3c-1.5,0-2.8,1.3-2.8,2.8c0,1.5,1.3,2.8,2.8,2.8c1.5,0,2.8-1.3,2.8-2.8
					C86.9,51.6,85.7,50.3,84.1,50.3z"/>
			</g>
			<g>
				<rect x="62.8" y="49.3" class="st0" width="21.3" height="1"/>
			</g>
			<g>
				<rect x="62.8" y="55.9" class="st0" width="21.3" height="1"/>
			</g>
		</g>
		<g>
			<path class="st0" d="M91.9,74.9H55.1l2-7.8c0.4-1.4,1.6-2.3,3-2.3h26.7c1.4,0,2.7,1,3,2.3L91.9,74.9z M56.4,73.9h34.2l-1.7-6.5
				c-0.2-0.9-1.1-1.6-2-1.6H60.1c-1,0-1.8,0.7-2,1.6L56.4,73.9z"/>
		</g>
		<g>
			<g>
				<path class="st0" d="M60.8,72.2c-1,0-1.9-0.8-1.9-1.9c0-1,0.8-1.9,1.9-1.9c1,0,1.9,0.8,1.9,1.9C62.7,71.4,61.9,72.2,60.8,72.2z
					 M60.8,69.5c-0.5,0-0.9,0.4-0.9,0.9c0,0.5,0.4,0.9,0.9,0.9s0.9-0.4,0.9-0.9C61.7,69.9,61.3,69.5,60.8,69.5z"/>
			</g>
			<g>
				<path class="st0" d="M66.1,71.6c-1.1,0-2-0.9-2-2c0-1.1,0.9-2,2-2s2,0.9,2,2C68.1,70.7,67.2,71.6,66.1,71.6z M66.1,68.5
					c-0.6,0-1,0.5-1,1c0,0.6,0.5,1,1,1s1-0.5,1-1C67.1,69,66.7,68.5,66.1,68.5z"/>
			</g>
			<g>
				<path class="st0" d="M80.6,71.6c-1.1,0-2-0.9-2-2c0-1.1,0.9-2,2-2c1.1,0,2,0.9,2,2C82.6,70.7,81.7,71.6,80.6,71.6z M80.6,68.5
					c-0.6,0-1,0.5-1,1c0,0.6,0.5,1,1,1c0.6,0,1-0.5,1-1C81.6,69,81.1,68.5,80.6,68.5z"/>
			</g>
			<g>
				<path class="st0" d="M86,72.5c-1.1,0-2-0.9-2-2c0-1.1,0.9-2,2-2c1.1,0,2,0.9,2,2C88,71.6,87.1,72.5,86,72.5z M86,69.5
					c-0.6,0-1,0.5-1,1c0,0.6,0.5,1,1,1c0.6,0,1-0.5,1-1C87,69.9,86.6,69.5,86,69.5z"/>
			</g>
		</g>
		<g>
			<g>
				<path class="st0" d="M64.1,40.7h-8.6v-7.2h8.6V40.7z M56.5,39.7h6.6v-5.2h-6.6V39.7z"/>
			</g>
			<g>
				<path class="st0" d="M73.2,40.7h-8.6v-5.4h8.6V40.7z M65.6,39.7h6.6v-3.4h-6.6V39.7z"/>
			</g>
			<g>
				<path class="st0" d="M82.3,40.7h-8.6V31h8.6V40.7z M74.8,39.7h6.6V32h-6.6V39.7z"/>
			</g>
			<g>
				<path class="st0" d="M91.5,40.7h-8.6v-3h8.6V40.7z M83.9,39.7h6.6v-1h-6.6V39.7z"/>
			</g>
		</g>
	</g>
</g>
</svg>
