<?xml version="1.0" encoding="utf-8"?>
<!-- Generator: Adobe Illustrator 21.0.0, SVG Export Plug-In . SVG Version: 6.00 Build 0)  -->
<svg version="1.1" id="Icons" xmlns="http://www.w3.org/2000/svg" xmlns:xlink="http://www.w3.org/1999/xlink" x="0px" y="0px"
	 viewBox="0 0 150 150" style="enable-background:new 0 0 150 150;" xml:space="preserve">
<style type="text/css">
	.st0{fill:#FFFFFF;}
	.st1{fill:#396D5D;}
	.st2{fill:#333A3B;}
	.st3{fill:#394142;}
</style>
<rect id="bg" x="-1043.4" y="-108.2" class="st0" width="1827.2" height="549.1"/>
<rect id="green_x5F_bg" x="-74.2" y="-108.2" class="st1" width="858" height="549.1"/>
<g id="SBR_x5F_Green">
	<g>
		<path class="st0" d="M27.4,96.9L27,97.8c-0.4-0.1-0.7-0.3-1.2-0.4c-0.4-0.1-0.8-0.1-1.2-0.1c-0.4,0-0.7,0-1,0.1
			c-0.3,0.1-0.5,0.2-0.7,0.4c-0.2,0.2-0.4,0.3-0.5,0.5s-0.2,0.4-0.2,0.7c0,0.3,0.1,0.5,0.2,0.7c0.2,0.2,0.4,0.4,0.6,0.5
			c0.3,0.1,0.6,0.3,0.9,0.4c0.3,0.1,0.7,0.3,1,0.4c0.3,0.1,0.7,0.3,1,0.4s0.6,0.4,0.9,0.6s0.5,0.5,0.6,0.9c0.2,0.3,0.2,0.7,0.2,1.2
			c0,0.5-0.1,0.9-0.3,1.3c-0.2,0.4-0.4,0.7-0.7,1c-0.3,0.3-0.7,0.5-1.2,0.6s-1,0.2-1.6,0.2c-0.4,0-0.8,0-1.2-0.1
			c-0.4-0.1-0.7-0.2-0.9-0.3c-0.3-0.1-0.5-0.2-0.7-0.3s-0.4-0.2-0.5-0.3l0.5-0.9c0.2,0.1,0.4,0.2,0.6,0.3c0.2,0.1,0.5,0.2,0.7,0.3
			s0.5,0.1,0.8,0.2c0.3,0,0.5,0.1,0.8,0.1c0.3,0,0.6,0,0.9-0.1c0.3-0.1,0.6-0.2,0.9-0.4s0.5-0.4,0.7-0.7c0.2-0.3,0.3-0.6,0.3-1
			c0-0.5-0.1-0.8-0.4-1.1c-0.3-0.3-0.6-0.5-1-0.7c-0.4-0.2-0.9-0.4-1.3-0.5s-0.9-0.3-1.3-0.6c-0.4-0.2-0.8-0.5-1-0.8
			c-0.3-0.3-0.4-0.7-0.4-1.2c0-0.4,0.1-0.7,0.2-1c0.1-0.3,0.4-0.6,0.6-0.9c0.3-0.3,0.6-0.4,1-0.6s0.9-0.2,1.4-0.2
			c0.3,0,0.6,0,0.9,0.1c0.3,0,0.6,0.1,0.8,0.2c0.3,0.1,0.5,0.1,0.7,0.2S27.3,96.9,27.4,96.9z"/>
		<path class="st0" d="M29,104.1c0-0.4,0.1-0.8,0.2-1.2s0.4-0.7,0.7-1c0.3-0.3,0.6-0.5,1-0.7c0.4-0.2,0.8-0.2,1.2-0.2
			s0.9,0.1,1.2,0.2c0.4,0.2,0.7,0.4,1,0.7s0.5,0.6,0.7,1c0.2,0.4,0.2,0.8,0.2,1.2s-0.1,0.8-0.2,1.2c-0.2,0.4-0.4,0.7-0.7,1
			s-0.6,0.5-1,0.7c-0.4,0.2-0.8,0.2-1.2,0.2c-0.4,0-0.9-0.1-1.2-0.2c-0.4-0.2-0.7-0.4-1-0.7c-0.3-0.3-0.5-0.6-0.7-1
			S29,104.5,29,104.1z M29.8,104.1c0,0.3,0.1,0.6,0.2,0.9c0.1,0.3,0.3,0.5,0.5,0.7s0.5,0.4,0.7,0.5s0.6,0.2,0.9,0.2
			c0.3,0,0.6-0.1,0.9-0.2s0.5-0.3,0.7-0.5s0.4-0.5,0.5-0.7c0.1-0.3,0.2-0.6,0.2-0.9s-0.1-0.6-0.2-0.9c-0.1-0.3-0.3-0.5-0.5-0.7
			s-0.5-0.4-0.7-0.5c-0.3-0.1-0.6-0.2-0.9-0.2c-0.3,0-0.6,0.1-0.9,0.2c-0.3,0.1-0.5,0.3-0.7,0.5s-0.4,0.5-0.5,0.7
			C29.9,103.5,29.8,103.8,29.8,104.1z"/>
		<path class="st0" d="M41.1,105.9l0.5,0.6c-0.3,0.2-0.6,0.4-0.9,0.5c-0.3,0.1-0.7,0.2-1.1,0.2c-0.4,0-0.9-0.1-1.2-0.2
			c-0.4-0.2-0.7-0.4-1-0.7c-0.3-0.3-0.5-0.6-0.7-1s-0.2-0.8-0.2-1.2s0.1-0.8,0.2-1.2s0.4-0.7,0.7-1c0.3-0.3,0.6-0.5,1-0.7
			c0.4-0.2,0.8-0.2,1.2-0.2c0.4,0,0.7,0.1,1.1,0.2c0.3,0.1,0.6,0.3,0.9,0.5c-0.1,0.1-0.2,0.2-0.3,0.3c-0.1,0.1-0.2,0.2-0.3,0.3
			c-0.4-0.3-0.9-0.5-1.5-0.5c-0.3,0-0.6,0.1-0.9,0.2c-0.3,0.1-0.5,0.3-0.7,0.5s-0.4,0.5-0.5,0.7c-0.1,0.3-0.2,0.6-0.2,0.9
			c0,0.3,0.1,0.6,0.2,0.9c0.1,0.3,0.3,0.5,0.5,0.7s0.5,0.4,0.7,0.5c0.3,0.1,0.6,0.2,0.9,0.2C40.2,106.4,40.7,106.2,41.1,105.9z"/>
		<path class="st0" d="M43,98.9c0-0.2,0.1-0.3,0.2-0.4s0.3-0.2,0.4-0.2s0.3,0.1,0.4,0.2c0.1,0.1,0.2,0.3,0.2,0.4
			c0,0.2-0.1,0.3-0.2,0.4c-0.1,0.1-0.3,0.2-0.4,0.2s-0.3-0.1-0.4-0.2C43,99.2,43,99.1,43,98.9z M44,107.1h-0.8v-6H44V107.1z"/>
		<path class="st0" d="M45.6,104.1c0-0.4,0.1-0.8,0.2-1.2s0.4-0.7,0.7-1c0.3-0.3,0.6-0.5,1-0.7s0.8-0.2,1.2-0.2c0.3,0,0.6,0,0.8,0.1
			c0.3,0.1,0.5,0.2,0.7,0.3s0.4,0.3,0.5,0.5s0.2,0.3,0.3,0.5l0.1-1.2h0.8v6h-0.8v-0.6c0-0.1,0-0.2,0-0.3c0-0.1,0-0.2,0-0.3
			c-0.1,0.2-0.2,0.3-0.3,0.5c-0.1,0.2-0.3,0.3-0.5,0.4s-0.4,0.2-0.7,0.3c-0.3,0.1-0.5,0.1-0.9,0.1c-0.5,0-0.9-0.1-1.3-0.2
			c-0.4-0.2-0.7-0.4-1-0.7c-0.3-0.3-0.5-0.6-0.7-1C45.6,104.9,45.6,104.5,45.6,104.1z M46.4,104.1c0,0.3,0.1,0.6,0.2,0.9
			c0.1,0.3,0.3,0.5,0.5,0.7s0.5,0.4,0.7,0.5c0.3,0.1,0.6,0.2,0.9,0.2s0.6-0.1,0.9-0.2c0.3-0.1,0.5-0.3,0.7-0.5s0.4-0.5,0.5-0.7
			c0.1-0.3,0.2-0.6,0.2-0.9c0-0.3-0.1-0.6-0.2-0.9c-0.1-0.3-0.3-0.5-0.5-0.7s-0.5-0.4-0.7-0.5c-0.3-0.1-0.6-0.2-0.9-0.2
			s-0.6,0.1-0.9,0.2c-0.3,0.1-0.5,0.3-0.7,0.5s-0.4,0.4-0.5,0.7C46.4,103.4,46.4,103.7,46.4,104.1z"/>
		<path class="st0" d="M54.8,107.1H54V95.6h0.8V107.1z"/>
		<path class="st0" d="M61.1,107.1V96.4h2.5c0.5,0,1,0,1.4,0.2c0.4,0.1,0.8,0.3,1,0.5s0.5,0.5,0.7,0.9c0.2,0.3,0.2,0.8,0.2,1.3
			c0,0.3,0,0.6-0.1,0.8c-0.1,0.3-0.2,0.5-0.3,0.7c-0.1,0.2-0.3,0.4-0.5,0.6s-0.5,0.3-0.8,0.4c0.3,0.1,0.6,0.2,0.8,0.3
			c0.3,0.1,0.5,0.3,0.7,0.5s0.4,0.5,0.5,0.8s0.2,0.6,0.2,1c0,0.5-0.1,0.9-0.3,1.3c-0.2,0.4-0.4,0.7-0.8,0.9
			c-0.3,0.2-0.7,0.4-1.1,0.5c-0.4,0.1-0.8,0.2-1.3,0.2H61.1z M62.1,97.3v3.9h1.8c0.6,0,1.1-0.2,1.5-0.6c0.3-0.4,0.5-0.9,0.5-1.5
			c0-0.7-0.2-1.2-0.6-1.5s-0.9-0.5-1.6-0.5H62.1z M62.1,102.1v4h1.8c0.3,0,0.7,0,1-0.1c0.3-0.1,0.6-0.2,0.8-0.4s0.4-0.4,0.5-0.6
			c0.1-0.3,0.2-0.5,0.2-0.9c0-0.4-0.1-0.7-0.2-0.9c-0.1-0.3-0.4-0.5-0.6-0.6c-0.3-0.2-0.5-0.3-0.9-0.4c-0.3-0.1-0.7-0.1-1-0.1H62.1z
			"/>
		<path class="st0" d="M68.7,104.1c0-0.4,0.1-0.8,0.2-1.2s0.4-0.7,0.7-1c0.3-0.3,0.6-0.5,1-0.7s0.8-0.2,1.2-0.2c0.3,0,0.6,0,0.8,0.1
			c0.3,0.1,0.5,0.2,0.7,0.3s0.4,0.3,0.5,0.5s0.2,0.3,0.3,0.5l0.1-1.2H75v6h-0.8v-0.6c0-0.1,0-0.2,0-0.3c0-0.1,0-0.2,0-0.3
			c-0.1,0.2-0.2,0.3-0.3,0.5c-0.1,0.2-0.3,0.3-0.5,0.4s-0.4,0.2-0.7,0.3c-0.3,0.1-0.5,0.1-0.9,0.1c-0.5,0-0.9-0.1-1.3-0.2
			c-0.4-0.2-0.7-0.4-1-0.7c-0.3-0.3-0.5-0.6-0.7-1C68.7,104.9,68.7,104.5,68.7,104.1z M69.5,104.1c0,0.3,0.1,0.6,0.2,0.9
			c0.1,0.3,0.3,0.5,0.5,0.7s0.5,0.4,0.7,0.5c0.3,0.1,0.6,0.2,0.9,0.2s0.6-0.1,0.9-0.2c0.3-0.1,0.5-0.3,0.7-0.5s0.4-0.5,0.5-0.7
			c0.1-0.3,0.2-0.6,0.2-0.9c0-0.3-0.1-0.6-0.2-0.9c-0.1-0.3-0.3-0.5-0.5-0.7s-0.5-0.4-0.7-0.5c-0.3-0.1-0.6-0.2-0.9-0.2
			s-0.6,0.1-0.9,0.2c-0.3,0.1-0.5,0.3-0.7,0.5s-0.4,0.4-0.5,0.7C69.5,103.4,69.5,103.7,69.5,104.1z"/>
		<path class="st0" d="M81.2,105.9l0.5,0.6c-0.3,0.2-0.6,0.4-0.9,0.5c-0.3,0.1-0.7,0.2-1.1,0.2c-0.4,0-0.9-0.1-1.2-0.2
			s-0.7-0.4-1-0.7s-0.5-0.6-0.7-1s-0.2-0.8-0.2-1.2s0.1-0.8,0.2-1.2s0.4-0.7,0.7-1s0.6-0.5,1-0.7s0.8-0.2,1.2-0.2
			c0.4,0,0.7,0.1,1.1,0.2s0.6,0.3,0.9,0.5c-0.1,0.1-0.2,0.2-0.3,0.3c-0.1,0.1-0.2,0.2-0.3,0.3c-0.4-0.3-0.9-0.5-1.5-0.5
			c-0.3,0-0.6,0.1-0.9,0.2c-0.3,0.1-0.5,0.3-0.7,0.5s-0.4,0.5-0.5,0.7c-0.1,0.3-0.2,0.6-0.2,0.9c0,0.3,0.1,0.6,0.2,0.9
			c0.1,0.3,0.3,0.5,0.5,0.7s0.5,0.4,0.7,0.5c0.3,0.1,0.6,0.2,0.9,0.2C80.3,106.4,80.8,106.2,81.2,105.9z"/>
		<path class="st0" d="M87.3,100.9l0.5,0.5c-0.4,0.3-0.7,0.7-1.1,1c-0.3,0.3-0.7,0.7-1.1,1l2.6,3.6h-1l-2.2-3l-1,0.9v2.1h-0.8V95.6
			h0.8v8.4c0.6-0.5,1.1-1,1.6-1.5C86.2,102,86.8,101.5,87.3,100.9z"/>
		<path class="st0" d="M88.8,104.1c0-0.4,0.1-0.9,0.2-1.2c0.2-0.4,0.4-0.7,0.7-1s0.6-0.5,1-0.7c0.4-0.2,0.8-0.2,1.2-0.2
			c0.3,0,0.6,0,0.9,0.1c0.3,0.1,0.5,0.2,0.7,0.3c0.2,0.1,0.4,0.3,0.5,0.4c0.1,0.2,0.2,0.3,0.3,0.5c0-0.2,0-0.4,0-0.6
			c0-0.2,0-0.4,0-0.6h0.8v5.9c0,0.4-0.1,0.8-0.2,1.2c-0.1,0.4-0.3,0.7-0.6,0.9c-0.3,0.3-0.6,0.5-1,0.6c-0.4,0.1-0.9,0.2-1.4,0.2
			c-0.6,0-1.1-0.1-1.5-0.3s-0.9-0.5-1.3-0.9l0.5-0.6c0.4,0.4,0.8,0.6,1.1,0.8c0.4,0.1,0.7,0.2,1.1,0.2c0.4,0,0.8-0.1,1.1-0.2
			c0.3-0.1,0.5-0.3,0.7-0.4c0.2-0.2,0.3-0.4,0.4-0.7s0.1-0.6,0.1-0.9c0-0.1,0-0.2,0-0.2c0-0.1,0-0.2,0-0.3c0,0,0-0.1,0-0.1
			c0-0.1,0-0.1,0-0.2s0-0.1,0-0.2c0-0.1,0-0.1,0-0.1c-0.2,0.4-0.5,0.7-0.9,1s-0.9,0.4-1.5,0.4c-0.4,0-0.8-0.1-1.2-0.2
			s-0.7-0.4-1-0.7c-0.3-0.3-0.5-0.6-0.7-1C88.8,104.9,88.8,104.5,88.8,104.1z M89.6,104.1c0,0.3,0.1,0.6,0.2,0.9
			c0.1,0.3,0.3,0.5,0.5,0.7s0.5,0.4,0.7,0.5s0.6,0.2,0.9,0.2s0.6-0.1,0.9-0.2s0.5-0.3,0.7-0.5s0.4-0.5,0.5-0.7
			c0.1-0.3,0.2-0.6,0.2-0.9c0-0.3-0.1-0.6-0.2-0.9c-0.1-0.3-0.3-0.5-0.5-0.7s-0.5-0.4-0.7-0.5c-0.3-0.1-0.6-0.2-0.9-0.2
			s-0.6,0.1-0.9,0.2c-0.3,0.1-0.5,0.3-0.7,0.5s-0.4,0.4-0.5,0.7C89.6,103.4,89.6,103.7,89.6,104.1z"/>
		<path class="st0" d="M100.3,102c-0.3,0-0.6,0-0.9,0.1c-0.3,0.1-0.5,0.2-0.7,0.4s-0.4,0.4-0.5,0.6S98,103.7,98,104v3.1h-0.8v-6h0.7
			l0.1,1.5c0.1-0.3,0.3-0.5,0.5-0.7c0.2-0.2,0.4-0.4,0.6-0.5c0.2-0.1,0.5-0.3,0.7-0.3s0.5-0.1,0.7-0.1L100.3,102z"/>
		<path class="st0" d="M100.9,104.1c0-0.4,0.1-0.8,0.2-1.2s0.4-0.7,0.7-1s0.6-0.5,1-0.7s0.8-0.2,1.2-0.2c0.4,0,0.9,0.1,1.2,0.2
			c0.4,0.2,0.7,0.4,1,0.7c0.3,0.3,0.5,0.6,0.7,1c0.2,0.4,0.2,0.8,0.2,1.2s-0.1,0.8-0.2,1.2c-0.2,0.4-0.4,0.7-0.7,1s-0.6,0.5-1,0.7
			c-0.4,0.2-0.8,0.2-1.2,0.2c-0.4,0-0.9-0.1-1.2-0.2c-0.4-0.2-0.7-0.4-1-0.7c-0.3-0.3-0.5-0.6-0.7-1S100.9,104.5,100.9,104.1z
			 M101.7,104.1c0,0.3,0.1,0.6,0.2,0.9c0.1,0.3,0.3,0.5,0.5,0.7s0.5,0.4,0.7,0.5c0.3,0.1,0.6,0.2,0.9,0.2c0.3,0,0.6-0.1,0.9-0.2
			s0.5-0.3,0.7-0.5s0.4-0.5,0.5-0.7c0.1-0.3,0.2-0.6,0.2-0.9s-0.1-0.6-0.2-0.9s-0.3-0.5-0.5-0.7s-0.5-0.4-0.7-0.5
			c-0.3-0.1-0.6-0.2-0.9-0.2c-0.3,0-0.6,0.1-0.9,0.2c-0.3,0.1-0.5,0.3-0.7,0.5s-0.4,0.5-0.5,0.7
			C101.8,103.5,101.7,103.8,101.7,104.1z"/>
		<path class="st0" d="M114,107.2h-0.7l-0.1-1.6c-0.2,0.5-0.5,0.9-1,1.2c-0.4,0.3-1,0.5-1.6,0.5c-0.6,0-1.1-0.2-1.4-0.5
			s-0.5-0.8-0.5-1.3v-4.3h0.8v4c0,0.3,0.1,0.6,0.4,0.9c0.2,0.2,0.5,0.4,1,0.4c0.3,0,0.6-0.1,0.9-0.2c0.3-0.1,0.5-0.3,0.7-0.4
			c0.2-0.2,0.4-0.4,0.5-0.7c0.1-0.3,0.2-0.5,0.2-0.9v-3.2h0.8V107.2z"/>
		<path class="st0" d="M116.1,101.1h0.7l0.1,1.5c0.2-0.5,0.5-0.9,1-1.2c0.4-0.3,0.9-0.5,1.5-0.5c0.6,0,1.1,0.2,1.4,0.5
			s0.5,0.8,0.5,1.3v4.3h-0.8v-4c0-0.3-0.1-0.6-0.4-0.9s-0.5-0.4-1-0.4c-0.3,0-0.6,0.1-0.9,0.2c-0.3,0.1-0.5,0.3-0.7,0.4
			c-0.2,0.2-0.4,0.4-0.5,0.7c-0.1,0.3-0.2,0.5-0.2,0.9v3.2h-0.8V101.1z"/>
		<path class="st0" d="M122.9,104.1c0-0.5,0.1-0.9,0.2-1.3c0.2-0.4,0.4-0.7,0.7-1c0.3-0.3,0.6-0.5,1-0.7c0.4-0.2,0.8-0.2,1.2-0.2
			c0.3,0,0.6,0,0.9,0.1s0.5,0.2,0.7,0.3c0.2,0.1,0.4,0.3,0.5,0.5s0.3,0.3,0.3,0.5v-6.8h0.8v11.5h-0.8v-0.6c0-0.1,0-0.2,0-0.3
			s0-0.2,0-0.3c-0.2,0.4-0.5,0.7-0.9,1c-0.4,0.3-0.9,0.4-1.5,0.4c-0.5,0-0.9-0.1-1.3-0.2s-0.7-0.4-1-0.7c-0.3-0.3-0.5-0.6-0.6-1
			S122.9,104.5,122.9,104.1z M123.7,104.1c0,0.3,0.1,0.6,0.2,0.9c0.1,0.3,0.3,0.5,0.5,0.7s0.5,0.4,0.7,0.5s0.6,0.2,0.9,0.2
			s0.6-0.1,0.9-0.2s0.5-0.3,0.7-0.5s0.4-0.5,0.5-0.7c0.1-0.3,0.2-0.6,0.2-0.9c0-0.3-0.1-0.6-0.2-0.9c-0.1-0.3-0.3-0.5-0.5-0.7
			s-0.5-0.4-0.7-0.5c-0.3-0.1-0.6-0.2-0.9-0.2s-0.6,0.1-0.9,0.2c-0.3,0.1-0.5,0.3-0.7,0.5s-0.4,0.4-0.5,0.7
			C123.8,103.4,123.7,103.7,123.7,104.1z"/>
		<path class="st0" d="M57.2,125.1v-10.7h2.6c0.5,0,0.9,0.1,1.3,0.2c0.4,0.1,0.8,0.3,1.1,0.6c0.3,0.3,0.6,0.6,0.8,1
			c0.2,0.4,0.3,0.9,0.3,1.4c0,0.6-0.1,1.2-0.4,1.7s-0.7,1-1.3,1.2c0.1,0.2,0.2,0.4,0.4,0.6c0.1,0.3,0.3,0.5,0.5,0.8
			c0.2,0.3,0.4,0.6,0.6,0.9c0.2,0.3,0.4,0.6,0.6,0.9c0.2,0.3,0.3,0.6,0.5,0.8c0.1,0.2,0.3,0.4,0.4,0.6h-1.2
			c-0.1-0.1-0.2-0.3-0.3-0.5s-0.3-0.4-0.4-0.7c-0.2-0.3-0.3-0.5-0.5-0.8c-0.2-0.3-0.4-0.6-0.5-0.9c-0.2-0.3-0.3-0.5-0.5-0.8
			c-0.2-0.3-0.3-0.5-0.4-0.6c-0.1,0-0.2,0-0.3,0s-0.2,0-0.3,0h-1.6v4.3H57.2z M58.2,119.8h1.6c0.5,0,0.9-0.1,1.2-0.2
			c0.3-0.2,0.6-0.4,0.8-0.6c0.2-0.2,0.3-0.5,0.4-0.8c0.1-0.3,0.1-0.5,0.1-0.7c0-0.3-0.1-0.5-0.2-0.8c-0.1-0.3-0.3-0.5-0.5-0.7
			s-0.5-0.4-0.8-0.5c-0.3-0.1-0.7-0.2-1.1-0.2h-1.6V119.8z"/>
		<path class="st0" d="M70.1,124.4c-0.3,0.3-0.6,0.5-1,0.6c-0.4,0.2-0.8,0.2-1.2,0.2c-0.4,0-0.9-0.1-1.2-0.2c-0.4-0.2-0.7-0.4-1-0.7
			c-0.3-0.3-0.5-0.6-0.7-1s-0.2-0.8-0.2-1.2s0.1-0.8,0.2-1.2s0.4-0.7,0.7-1c0.3-0.3,0.6-0.5,1-0.7s0.8-0.2,1.2-0.2
			c0.7,0,1.2,0.2,1.7,0.6c0.5,0.4,0.8,0.9,1.1,1.5c-0.3,0.1-0.7,0.3-1.1,0.4s-0.8,0.3-1.3,0.5s-0.9,0.3-1.3,0.5
			c-0.4,0.2-0.8,0.3-1.2,0.5c0.2,0.4,0.5,0.7,0.8,1c0.4,0.3,0.8,0.4,1.3,0.4c0.3,0,0.6-0.1,0.9-0.2c0.3-0.1,0.5-0.3,0.7-0.4
			L70.1,124.4z M69.6,120.9c-0.2-0.3-0.4-0.6-0.7-0.8c-0.3-0.2-0.7-0.3-1-0.3c-0.3,0-0.6,0.1-0.9,0.2s-0.5,0.3-0.7,0.5
			s-0.4,0.5-0.5,0.7c-0.1,0.3-0.2,0.6-0.2,0.9c0,0.2,0,0.3,0,0.4c0.3-0.1,0.6-0.3,1-0.4c0.4-0.1,0.7-0.3,1.1-0.4
			c0.3-0.1,0.7-0.3,1-0.4S69.3,121,69.6,120.9z"/>
		<path class="st0" d="M78.3,122.1c0,0.4-0.1,0.8-0.2,1.2c-0.2,0.4-0.4,0.7-0.7,1c-0.3,0.3-0.6,0.5-1,0.7s-0.8,0.2-1.2,0.2
			c-0.6,0-1.1-0.1-1.5-0.4c-0.4-0.3-0.7-0.6-0.9-1c0,0.1,0,0.2,0,0.3c0,0.1,0,0.2,0,0.3v3.5H72v-8.9h0.8c0,0,0,0.1,0,0.2
			c0,0.1,0,0.2,0,0.3s0,0.3,0,0.4c0,0.1,0,0.2,0,0.3c0.2-0.4,0.5-0.7,0.9-1s0.9-0.4,1.5-0.4c0.5,0,0.9,0.1,1.2,0.2
			c0.4,0.2,0.7,0.4,1,0.6c0.3,0.3,0.5,0.6,0.6,1S78.3,121.6,78.3,122.1z M77.4,122.1c0-0.3-0.1-0.6-0.2-0.9
			c-0.1-0.3-0.3-0.5-0.5-0.7s-0.4-0.4-0.7-0.5c-0.3-0.1-0.6-0.2-0.9-0.2c-0.3,0-0.6,0.1-0.9,0.2c-0.3,0.1-0.5,0.3-0.7,0.5
			s-0.4,0.4-0.5,0.7c-0.1,0.3-0.2,0.6-0.2,0.9s0.1,0.6,0.2,0.9c0.1,0.3,0.3,0.5,0.5,0.7s0.5,0.4,0.7,0.5c0.3,0.1,0.6,0.2,0.9,0.2
			c0.3,0,0.6-0.1,0.9-0.2c0.3-0.1,0.5-0.3,0.7-0.5s0.4-0.5,0.5-0.7C77.4,122.7,77.4,122.4,77.4,122.1z"/>
		<path class="st0" d="M79.5,122.1c0-0.4,0.1-0.8,0.2-1.2s0.4-0.7,0.7-1s0.6-0.5,1-0.7s0.8-0.2,1.2-0.2c0.4,0,0.9,0.1,1.2,0.2
			c0.4,0.2,0.7,0.4,1,0.7c0.3,0.3,0.5,0.6,0.7,1c0.2,0.4,0.2,0.8,0.2,1.2s-0.1,0.8-0.2,1.2c-0.2,0.4-0.4,0.7-0.7,1s-0.6,0.5-1,0.7
			c-0.4,0.2-0.8,0.2-1.2,0.2c-0.4,0-0.9-0.1-1.2-0.2c-0.4-0.2-0.7-0.4-1-0.7c-0.3-0.3-0.5-0.6-0.7-1S79.5,122.5,79.5,122.1z
			 M80.3,122.1c0,0.3,0.1,0.6,0.2,0.9c0.1,0.3,0.3,0.5,0.5,0.7s0.5,0.4,0.7,0.5c0.3,0.1,0.6,0.2,0.9,0.2c0.3,0,0.6-0.1,0.9-0.2
			s0.5-0.3,0.7-0.5s0.4-0.5,0.5-0.7c0.1-0.3,0.2-0.6,0.2-0.9s-0.1-0.6-0.2-0.9s-0.3-0.5-0.5-0.7s-0.5-0.4-0.7-0.5
			c-0.3-0.1-0.6-0.2-0.9-0.2c-0.3,0-0.6,0.1-0.9,0.2c-0.3,0.1-0.5,0.3-0.7,0.5s-0.4,0.5-0.5,0.7C80.4,121.5,80.3,121.8,80.3,122.1z"
			/>
		<path class="st0" d="M90.5,120c-0.3,0-0.6,0-0.9,0.1c-0.3,0.1-0.5,0.2-0.7,0.4s-0.4,0.4-0.5,0.6s-0.2,0.5-0.2,0.8v3.1h-0.8v-6h0.7
			l0.1,1.5c0.1-0.3,0.3-0.5,0.5-0.7c0.2-0.2,0.4-0.4,0.6-0.5c0.2-0.1,0.5-0.3,0.7-0.3s0.5-0.1,0.7-0.1L90.5,120z"/>
		<path class="st0" d="M92.3,116.5h0.8v2.7h1.8v0.8h-1.8v5.2h-0.8v-5.2h-1.2v-0.8h1.2V116.5z"/>
	</g>
	<g id="social_x5F_background_x5F_report_x5F_icon_x5F_grp_4_">
		<g>
			<path class="st0" d="M95.9,80.9H54.5V22h32.9l-0.5,9.2l9-1.7V80.9z M55.5,79.9h39.4V30.7l-9.1,1.7l0.6-9.4H55.5V79.9z"/>
		</g>
		<g>
			<g>
				<path class="st0" d="M67.1,39.4l-0.7-0.7c0.1-0.2,3.7-4,8.9-4c0,0,0,0,0,0c4.9,0,8.1,3.1,8.2,3.3l-0.7,0.7c0,0-3-3-7.5-3
					c0,0,0,0,0,0C70.5,35.8,67.1,39.4,67.1,39.4z"/>
			</g>
			<g>
				<path class="st0" d="M66.4,44l-0.9-0.4c0.1-0.2,2.9-5.9,9.4-6.1c2.7-0.1,6.5,0.7,9.3,4.7c0,0.1,0.1,0.1,0.1,0.2L83.5,43
					c0,0-0.1-0.1-0.2-0.2c-2-3-4.8-4.4-8.4-4.3C69,38.7,66.4,44,66.4,44z"/>
			</g>
			<g>
				<path class="st0" d="M83.6,55.8c-2.9-2-2.2-5.1-1.9-6.5c0.1-0.3,0.1-0.5,0.1-0.7c0.2-1.8,0.5-6.2-5-7.6
					c-4.6-1.2-7.4,3.2-8.3,4.6c-0.1,0.2-0.2,0.3-0.2,0.4c-0.5,0.7-1.4,1.7-2.4,2.2l-0.4-0.9c0.9-0.4,1.6-1.2,2-1.8
					c0-0.1,0.1-0.2,0.2-0.3c2.7-4.3,5.9-6,9.4-5.1c6.4,1.7,5.9,6.9,5.8,8.6c0,0.3-0.1,0.5-0.1,0.9c-0.3,1.4-0.8,3.9,1.5,5.5
					L83.6,55.8z"/>
			</g>
			<g>
				<path class="st0" d="M84.8,54.2c-1.6-1-1.8-3.5-1.3-4.9c0.4-1.1,0.2-3.6-0.1-4.3l0.9-0.3c0.3,0.8,0.6,3.6,0.1,5
					c-0.4,1-0.2,3,0.9,3.6L84.8,54.2z"/>
			</g>
			<g>
				<path class="st0" d="M82.2,57.6c-1.9-1-3.6-2.4-3.1-6.6l0-0.3c0.5-3.6,0.7-5.8-2.7-7.2c-2.8-1.1-4.7,1.4-6.3,3.9
					c-0.2,0.3-0.3,0.5-0.4,0.7c-1,1.4-3.3,3.2-4.2,3.6l-0.4-0.9c0.8-0.4,2.9-2.1,3.8-3.3c0.1-0.2,0.3-0.4,0.4-0.6
					c1.2-1.9,3.7-5.8,7.5-4.3c4.1,1.6,3.7,4.6,3.3,8.2l0,0.3c-0.4,3.4,0.7,4.6,2.5,5.6L82.2,57.6z"/>
			</g>
			<g>
				<path class="st0" d="M69.2,59l-0.5-0.9c2.8-1.4,8-7.2,8.5-9.4c0.2-0.8,0.1-1.6-0.3-2.1c-0.4-0.5-0.9-0.8-1.2-0.8
					c-1-0.1-1.9-0.3-3,2.2c-0.9,2.3-4.2,4.7-6.5,6.4c-0.2,0.1-0.3,0.2-0.4,0.3l-0.6-0.8c0.1-0.1,0.2-0.2,0.4-0.3
					c1.3-0.9,5.2-3.7,6.1-5.9c1.2-2.9,2.7-3,4-2.8c0.5,0.1,1.3,0.5,1.8,1.2c0.4,0.5,0.8,1.5,0.4,2.9C77.7,51.6,72,57.6,69.2,59z"/>
			</g>
			<g>
				<path class="st0" d="M67.1,57.2l-0.5-0.9c0.7-0.4,6.6-4.9,8.2-8.7l0.9,0.4C74.1,52.1,68,56.8,67.1,57.2z"/>
			</g>
			<g>
				<path class="st0" d="M79,59.4c-3.7-2.6-2.5-5.3-2.1-6.2c0-0.1,0.1-0.1,0.1-0.2l0.9,0.3c0,0.1-0.1,0.2-0.1,0.3
					c-0.4,0.9-1.3,2.9,1.7,5L79,59.4z"/>
			</g>
			<g>
				<path class="st0" d="M75.8,60c-0.2-0.8-0.5-1.9-1.2-2c-0.9-0.1-2.2,1.3-2.4,1.5l-0.9-0.5c0.2-0.4,1.8-2.3,3.4-2.1
					c1,0.1,1.7,1.1,2.1,2.8L75.8,60z"/>
			</g>
		</g>
		<g>
			<g>
				<rect x="60.8" y="68.4" class="st0" width="29.4" height="1"/>
			</g>
			<g>
				<rect x="60.8" y="71.9" class="st0" width="29.4" height="1"/>
			</g>
			<g>
				<rect x="60.8" y="64.9" class="st0" width="29.4" height="1"/>
			</g>
		</g>
	</g>
</g>
</svg>
