<?xml version="1.0" encoding="utf-8"?>
<!-- Generator: Adobe Illustrator 21.0.0, SVG Export Plug-In . SVG Version: 6.00 Build 0)  -->
<svg version="1.1" id="Icons" xmlns="http://www.w3.org/2000/svg" xmlns:xlink="http://www.w3.org/1999/xlink" x="0px" y="0px"
	 viewBox="0 0 150 150" style="enable-background:new 0 0 150 150;" xml:space="preserve">
<style type="text/css">
	.st0{fill:#FFFFFF;}
	.st1{fill:#396D5D;}
	.st2{fill:#333A3B;}
	.st3{fill:#394142;}
</style>
<rect id="bg" x="-1239" y="-108.2" class="st0" width="1827.2" height="549.1"/>
<rect id="green_x5F_bg" x="-269.8" y="-108.2" class="st1" width="858" height="549.1"/>
<g id="Edit_x5F_Green">
	<g>
		<path class="st0" d="M38.4,110V99.3h6.8v0.9h-5.7v3.9h5.1v1h-5.1v3.9h5.9v1H38.4z"/>
		<path class="st0" d="M46.3,107c0-0.5,0.1-0.9,0.2-1.3c0.2-0.4,0.4-0.7,0.7-1c0.3-0.3,0.6-0.5,1-0.7c0.4-0.2,0.8-0.2,1.2-0.2
			c0.3,0,0.6,0,0.9,0.1s0.5,0.2,0.7,0.3c0.2,0.1,0.4,0.3,0.5,0.5s0.3,0.3,0.3,0.5v-6.8h0.8V110h-0.8v-0.6c0-0.1,0-0.2,0-0.3
			s0-0.2,0-0.3c-0.2,0.4-0.5,0.7-0.9,1s-0.9,0.4-1.5,0.4c-0.5,0-0.9-0.1-1.3-0.2c-0.4-0.2-0.7-0.4-1-0.7c-0.3-0.3-0.5-0.6-0.6-1
			C46.4,107.9,46.3,107.5,46.3,107z M47.1,107c0,0.3,0.1,0.6,0.2,0.9c0.1,0.3,0.3,0.5,0.5,0.7c0.2,0.2,0.5,0.4,0.7,0.5
			c0.3,0.1,0.6,0.2,0.9,0.2s0.6-0.1,0.9-0.2c0.3-0.1,0.5-0.3,0.7-0.5c0.2-0.2,0.4-0.5,0.5-0.7c0.1-0.3,0.2-0.6,0.2-0.9
			c0-0.3-0.1-0.6-0.2-0.9c-0.1-0.3-0.3-0.5-0.5-0.7c-0.2-0.2-0.5-0.4-0.7-0.5c-0.3-0.1-0.6-0.2-0.9-0.2s-0.6,0.1-0.9,0.2
			c-0.3,0.1-0.5,0.3-0.7,0.5s-0.4,0.4-0.5,0.7C47.2,106.4,47.1,106.7,47.1,107z"/>
		<path class="st0" d="M54.5,101.9c0-0.2,0.1-0.3,0.2-0.4s0.3-0.2,0.4-0.2c0.1,0,0.3,0.1,0.4,0.2c0.1,0.1,0.2,0.3,0.2,0.4
			c0,0.2-0.1,0.3-0.2,0.4c-0.1,0.1-0.3,0.2-0.4,0.2c-0.2,0-0.3-0.1-0.4-0.2S54.5,102,54.5,101.9z M55.5,110h-0.8v-6h0.8V110z"/>
		<path class="st0" d="M58,101.4h0.8v2.7h1.8v0.8h-1.8v5.2H58v-5.2h-1.2v-0.8H58V101.4z"/>
		<path class="st0" d="M61.2,110.3c0.7-1.9,1.4-3.8,2.1-5.7c0.7-1.9,1.4-3.8,2.1-5.7h0.9c-0.7,1.9-1.4,3.8-2.1,5.7
			c-0.7,1.9-1.4,3.8-2.1,5.7H61.2z"/>
		<path class="st0" d="M72.1,110.2c-0.5,0-1-0.1-1.5-0.3c-0.5-0.2-0.9-0.4-1.2-0.7c-0.3-0.3-0.6-0.7-0.8-1.2c-0.2-0.5-0.3-1-0.3-1.6
			v-7.1h1v7c0,0.4,0.1,0.8,0.2,1.2c0.1,0.3,0.3,0.6,0.6,0.9c0.3,0.2,0.5,0.4,0.9,0.6c0.3,0.1,0.7,0.2,1.1,0.2c0.4,0,0.8-0.1,1.1-0.2
			c0.3-0.1,0.6-0.3,0.9-0.6c0.3-0.2,0.4-0.5,0.6-0.9c0.1-0.4,0.2-0.7,0.2-1.2v-7h1v7.1c0,0.6-0.1,1.1-0.3,1.6
			c-0.2,0.5-0.5,0.9-0.8,1.2c-0.3,0.3-0.8,0.6-1.2,0.7C73.2,110.1,72.7,110.2,72.1,110.2z"/>
		<path class="st0" d="M84.4,107c0,0.4-0.1,0.8-0.2,1.2c-0.2,0.4-0.4,0.7-0.7,1c-0.3,0.3-0.6,0.5-1,0.7c-0.4,0.2-0.8,0.2-1.2,0.2
			c-0.6,0-1.1-0.1-1.5-0.4c-0.4-0.3-0.7-0.6-0.9-1c0,0.1,0,0.2,0,0.3c0,0.1,0,0.2,0,0.3v3.5h-0.8V104h0.8c0,0,0,0.1,0,0.2
			c0,0.1,0,0.2,0,0.3s0,0.3,0,0.4c0,0.1,0,0.2,0,0.3c0.2-0.4,0.5-0.7,0.9-1c0.4-0.3,0.9-0.4,1.5-0.4c0.4,0,0.9,0.1,1.2,0.2
			c0.4,0.2,0.7,0.4,1,0.6s0.5,0.6,0.6,1C84.3,106.2,84.4,106.6,84.4,107z M83.5,107c0-0.3-0.1-0.6-0.2-0.9c-0.1-0.3-0.3-0.5-0.5-0.7
			c-0.2-0.2-0.4-0.4-0.7-0.5c-0.3-0.1-0.6-0.2-0.9-0.2s-0.6,0.1-0.9,0.2c-0.3,0.1-0.5,0.3-0.7,0.5s-0.4,0.4-0.5,0.7
			c-0.1,0.3-0.2,0.6-0.2,0.9s0.1,0.6,0.2,0.9c0.1,0.3,0.3,0.5,0.5,0.7c0.2,0.2,0.5,0.4,0.7,0.5c0.3,0.1,0.6,0.2,0.9,0.2
			s0.6-0.1,0.9-0.2c0.3-0.1,0.5-0.3,0.7-0.5c0.2-0.2,0.4-0.5,0.5-0.7C83.5,107.7,83.5,107.4,83.5,107z"/>
		<path class="st0" d="M85.6,107c0-0.5,0.1-0.9,0.2-1.3c0.2-0.4,0.4-0.7,0.7-1c0.3-0.3,0.6-0.5,1-0.7c0.4-0.2,0.8-0.2,1.2-0.2
			c0.3,0,0.6,0,0.9,0.1s0.5,0.2,0.7,0.3c0.2,0.1,0.4,0.3,0.5,0.5c0.1,0.2,0.3,0.3,0.3,0.5v-6.8H92V110h-0.8v-0.6c0-0.1,0-0.2,0-0.3
			s0-0.2,0-0.3c-0.2,0.4-0.5,0.7-0.9,1s-0.9,0.4-1.5,0.4c-0.5,0-0.9-0.1-1.3-0.2c-0.4-0.2-0.7-0.4-1-0.7c-0.3-0.3-0.5-0.6-0.6-1
			C85.7,107.9,85.6,107.5,85.6,107z M86.4,107c0,0.3,0.1,0.6,0.2,0.9c0.1,0.3,0.3,0.5,0.5,0.7c0.2,0.2,0.5,0.4,0.7,0.5
			c0.3,0.1,0.6,0.2,0.9,0.2c0.3,0,0.6-0.1,0.9-0.2c0.3-0.1,0.5-0.3,0.7-0.5c0.2-0.2,0.4-0.5,0.5-0.7c0.1-0.3,0.2-0.6,0.2-0.9
			c0-0.3-0.1-0.6-0.2-0.9c-0.1-0.3-0.3-0.5-0.5-0.7c-0.2-0.2-0.5-0.4-0.7-0.5c-0.3-0.1-0.6-0.2-0.9-0.2c-0.3,0-0.6,0.1-0.9,0.2
			c-0.3,0.1-0.5,0.3-0.7,0.5c-0.2,0.2-0.4,0.4-0.5,0.7C86.5,106.4,86.4,106.7,86.4,107z"/>
		<path class="st0" d="M93.6,107.1c0-0.4,0.1-0.8,0.2-1.2c0.2-0.4,0.4-0.7,0.7-1c0.3-0.3,0.6-0.5,1-0.7c0.4-0.2,0.8-0.2,1.2-0.2
			c0.3,0,0.6,0,0.8,0.1c0.3,0.1,0.5,0.2,0.7,0.3c0.2,0.1,0.4,0.3,0.5,0.5c0.1,0.2,0.2,0.3,0.3,0.5l0.1-1.2h0.8v6h-0.8v-0.6
			c0-0.1,0-0.2,0-0.3c0-0.1,0-0.2,0-0.3c-0.1,0.2-0.2,0.3-0.3,0.5c-0.1,0.2-0.3,0.3-0.5,0.4c-0.2,0.1-0.4,0.2-0.7,0.3
			c-0.3,0.1-0.5,0.1-0.9,0.1c-0.5,0-0.9-0.1-1.3-0.2c-0.4-0.2-0.7-0.4-1-0.7c-0.3-0.3-0.5-0.6-0.7-1
			C93.7,107.9,93.6,107.5,93.6,107.1z M94.4,107c0,0.3,0.1,0.6,0.2,0.9c0.1,0.3,0.3,0.5,0.5,0.7c0.2,0.2,0.5,0.4,0.7,0.5
			c0.3,0.1,0.6,0.2,0.9,0.2s0.6-0.1,0.9-0.2c0.3-0.1,0.5-0.3,0.7-0.5c0.2-0.2,0.4-0.5,0.5-0.7c0.1-0.3,0.2-0.6,0.2-0.9
			c0-0.3-0.1-0.6-0.2-0.9c-0.1-0.3-0.3-0.5-0.5-0.7c-0.2-0.2-0.5-0.4-0.7-0.5c-0.3-0.1-0.6-0.2-0.9-0.2s-0.6,0.1-0.9,0.2
			c-0.3,0.1-0.5,0.3-0.7,0.5s-0.4,0.4-0.5,0.7C94.5,106.4,94.4,106.7,94.4,107z"/>
		<path class="st0" d="M102.4,101.4h0.8v2.7h1.8v0.8h-1.8v5.2h-0.8v-5.2h-1.2v-0.8h1.2V101.4z"/>
		<path class="st0" d="M111,109.3c-0.3,0.3-0.6,0.5-1,0.6c-0.4,0.2-0.8,0.2-1.2,0.2c-0.4,0-0.9-0.1-1.2-0.2c-0.4-0.2-0.7-0.4-1-0.7
			c-0.3-0.3-0.5-0.6-0.7-1c-0.2-0.4-0.2-0.8-0.2-1.2s0.1-0.8,0.2-1.2c0.2-0.4,0.4-0.7,0.7-1s0.6-0.5,1-0.7c0.4-0.2,0.8-0.2,1.2-0.2
			c0.7,0,1.2,0.2,1.7,0.6s0.8,0.9,1.1,1.5c-0.3,0.1-0.7,0.3-1.1,0.4c-0.4,0.2-0.8,0.3-1.3,0.5c-0.4,0.2-0.9,0.3-1.3,0.5
			s-0.8,0.3-1.2,0.5c0.2,0.4,0.5,0.7,0.8,1c0.4,0.3,0.8,0.4,1.3,0.4c0.3,0,0.6-0.1,0.9-0.2s0.5-0.3,0.7-0.4L111,109.3z M110.5,105.8
			c-0.2-0.3-0.4-0.6-0.7-0.8s-0.7-0.3-1-0.3c-0.3,0-0.6,0.1-0.9,0.2c-0.3,0.1-0.5,0.3-0.7,0.5c-0.2,0.2-0.4,0.5-0.5,0.7
			s-0.2,0.6-0.2,0.9c0,0.2,0,0.3,0,0.4c0.3-0.1,0.6-0.3,1-0.4c0.3-0.1,0.7-0.3,1-0.4c0.3-0.1,0.7-0.3,1-0.4
			C109.9,106,110.2,105.9,110.5,105.8z"/>
		<path class="st0" d="M47,127.3c-0.3,0.2-0.7,0.4-1.3,0.6s-1.1,0.3-1.8,0.3c-0.8,0-1.6-0.1-2.2-0.4c-0.7-0.3-1.2-0.7-1.7-1.2
			c-0.5-0.5-0.8-1.1-1.1-1.7s-0.4-1.3-0.4-2.1c0-0.8,0.1-1.5,0.4-2.2c0.3-0.7,0.7-1.3,1.2-1.8s1.1-0.9,1.8-1.2s1.4-0.4,2.1-0.4
			c0.3,0,0.5,0,0.8,0.1c0.3,0,0.5,0.1,0.8,0.2c0.3,0.1,0.5,0.2,0.7,0.2s0.4,0.2,0.5,0.3c-0.1,0.1-0.1,0.1-0.1,0.2
			c0,0-0.1,0.1-0.1,0.2c0,0.1-0.1,0.1-0.1,0.2c0,0.1-0.1,0.2-0.1,0.3c-0.3-0.2-0.7-0.4-1.1-0.5s-0.8-0.2-1.2-0.2
			c-0.6,0-1.2,0.1-1.8,0.4s-1,0.6-1.4,1c-0.4,0.4-0.7,0.9-1,1.4s-0.4,1.1-0.4,1.7c0,0.6,0.1,1.1,0.3,1.7s0.5,1,0.9,1.4
			c0.4,0.4,0.9,0.7,1.4,1c0.5,0.2,1.1,0.4,1.8,0.4c0.3,0,0.6,0,0.8-0.1c0.3,0,0.5-0.1,0.8-0.2c0.2-0.1,0.4-0.2,0.6-0.2
			s0.3-0.2,0.4-0.2L47,127.3z"/>
		<path class="st0" d="M48.3,116.6h0.8v6.9c0.2-0.5,0.5-0.8,0.9-1.1c0.4-0.3,0.9-0.4,1.5-0.5c0.6,0,1.1,0.2,1.4,0.5
			c0.3,0.3,0.5,0.8,0.6,1.3v4.3h-0.8V124c0-0.3-0.1-0.6-0.4-0.9c-0.2-0.2-0.5-0.4-1-0.4c-0.3,0-0.6,0.1-0.9,0.2
			c-0.3,0.1-0.5,0.3-0.7,0.4c-0.2,0.2-0.4,0.4-0.5,0.7c-0.1,0.3-0.2,0.5-0.2,0.9v3.2h-0.8V116.6z"/>
		<path class="st0" d="M55.3,119.9c0-0.2,0.1-0.3,0.2-0.4s0.3-0.2,0.4-0.2c0.2,0,0.3,0.1,0.4,0.2s0.2,0.3,0.2,0.4
			c0,0.2-0.1,0.3-0.2,0.4s-0.3,0.2-0.4,0.2c-0.1,0-0.3-0.1-0.4-0.2S55.3,120,55.3,119.9z M56.3,128h-0.8v-6h0.8V128z"/>
		<path class="st0" d="M59.2,128h-0.8v-11.5h0.8V128z"/>
		<path class="st0" d="M60.9,125c0-0.5,0.1-0.9,0.2-1.3c0.2-0.4,0.4-0.7,0.7-1c0.3-0.3,0.6-0.5,1-0.7c0.4-0.2,0.8-0.2,1.2-0.2
			c0.3,0,0.6,0,0.9,0.1c0.3,0.1,0.5,0.2,0.7,0.3c0.2,0.1,0.4,0.3,0.5,0.5c0.1,0.2,0.3,0.3,0.3,0.5v-6.8h0.8V128h-0.8v-0.6
			c0-0.1,0-0.2,0-0.3c0-0.1,0-0.2,0-0.3c-0.2,0.4-0.5,0.7-0.9,1s-0.9,0.4-1.5,0.4c-0.5,0-0.9-0.1-1.3-0.2c-0.4-0.2-0.7-0.4-1-0.7
			c-0.3-0.3-0.5-0.6-0.6-1C61,125.9,60.9,125.5,60.9,125z M61.7,125c0,0.3,0.1,0.6,0.2,0.9c0.1,0.3,0.3,0.5,0.5,0.7
			c0.2,0.2,0.5,0.4,0.7,0.5c0.3,0.1,0.6,0.2,0.9,0.2s0.6-0.1,0.9-0.2c0.3-0.1,0.5-0.3,0.7-0.5c0.2-0.2,0.4-0.5,0.5-0.7
			c0.1-0.3,0.2-0.6,0.2-0.9c0-0.3-0.1-0.6-0.2-0.9c-0.1-0.3-0.3-0.5-0.5-0.7c-0.2-0.2-0.5-0.4-0.7-0.5c-0.3-0.1-0.6-0.2-0.9-0.2
			s-0.6,0.1-0.9,0.2c-0.3,0.1-0.5,0.3-0.7,0.5s-0.4,0.4-0.5,0.7C61.8,124.4,61.7,124.7,61.7,125z"/>
		<path class="st0" d="M73.5,128v-10.7h2.6c0.5,0,0.9,0.1,1.3,0.2s0.8,0.3,1.1,0.6c0.3,0.3,0.6,0.6,0.8,1c0.2,0.4,0.3,0.9,0.3,1.4
			c0,0.6-0.1,1.2-0.4,1.7c-0.3,0.5-0.7,1-1.3,1.2c0.1,0.2,0.2,0.4,0.4,0.6c0.1,0.3,0.3,0.5,0.5,0.8c0.2,0.3,0.4,0.6,0.6,0.9
			c0.2,0.3,0.4,0.6,0.6,0.9c0.2,0.3,0.3,0.6,0.5,0.8c0.1,0.2,0.3,0.4,0.4,0.6h-1.2c-0.1-0.1-0.2-0.3-0.3-0.5
			c-0.1-0.2-0.3-0.4-0.4-0.7c-0.2-0.3-0.3-0.5-0.5-0.8c-0.2-0.3-0.4-0.6-0.5-0.9c-0.2-0.3-0.3-0.5-0.5-0.8s-0.3-0.5-0.4-0.6
			c-0.1,0-0.2,0-0.3,0c-0.1,0-0.2,0-0.3,0h-1.6v4.3H73.5z M74.5,122.8h1.6c0.5,0,0.9-0.1,1.2-0.2s0.6-0.4,0.8-0.6
			c0.2-0.2,0.3-0.5,0.4-0.8s0.1-0.5,0.1-0.7c0-0.3-0.1-0.5-0.2-0.8c-0.1-0.3-0.3-0.5-0.5-0.7c-0.2-0.2-0.5-0.4-0.8-0.5
			c-0.3-0.1-0.7-0.2-1.1-0.2h-1.6V122.8z"/>
		<path class="st0" d="M86.3,127.3c-0.3,0.3-0.6,0.5-1,0.6c-0.4,0.2-0.8,0.2-1.2,0.2c-0.4,0-0.9-0.1-1.2-0.2c-0.4-0.2-0.7-0.4-1-0.7
			c-0.3-0.3-0.5-0.6-0.7-1c-0.2-0.4-0.2-0.8-0.2-1.2s0.1-0.8,0.2-1.2c0.2-0.4,0.4-0.7,0.7-1s0.6-0.5,1-0.7c0.4-0.2,0.8-0.2,1.2-0.2
			c0.7,0,1.2,0.2,1.7,0.6s0.8,0.9,1.1,1.5c-0.3,0.1-0.7,0.3-1.1,0.4c-0.4,0.2-0.8,0.3-1.3,0.5c-0.4,0.2-0.9,0.3-1.3,0.5
			s-0.8,0.3-1.2,0.5c0.2,0.4,0.5,0.7,0.8,1c0.4,0.3,0.8,0.4,1.3,0.4c0.3,0,0.6-0.1,0.9-0.2s0.5-0.3,0.7-0.4L86.3,127.3z M85.8,123.8
			c-0.2-0.3-0.4-0.6-0.7-0.8s-0.7-0.3-1-0.3c-0.3,0-0.6,0.1-0.9,0.2c-0.3,0.1-0.5,0.3-0.7,0.5c-0.2,0.2-0.4,0.5-0.5,0.7
			s-0.2,0.6-0.2,0.9c0,0.2,0,0.3,0,0.4c0.3-0.1,0.6-0.3,1-0.4c0.3-0.1,0.7-0.3,1-0.4c0.3-0.1,0.7-0.3,1-0.4
			C85.2,124,85.5,123.9,85.8,123.8z"/>
		<path class="st0" d="M94.6,125c0,0.4-0.1,0.8-0.2,1.2c-0.2,0.4-0.4,0.7-0.7,1c-0.3,0.3-0.6,0.5-1,0.7c-0.4,0.2-0.8,0.2-1.2,0.2
			c-0.6,0-1.1-0.1-1.5-0.4c-0.4-0.3-0.7-0.6-0.9-1c0,0.1,0,0.2,0,0.3c0,0.1,0,0.2,0,0.3v3.5h-0.8V122H89c0,0,0,0.1,0,0.2
			c0,0.1,0,0.2,0,0.3s0,0.3,0,0.4c0,0.1,0,0.2,0,0.3c0.2-0.4,0.5-0.7,0.9-1c0.4-0.3,0.9-0.4,1.5-0.4c0.4,0,0.9,0.1,1.2,0.2
			c0.4,0.2,0.7,0.4,1,0.6s0.5,0.6,0.6,1C94.5,124.2,94.6,124.6,94.6,125z M93.7,125c0-0.3-0.1-0.6-0.2-0.9c-0.1-0.3-0.3-0.5-0.5-0.7
			c-0.2-0.2-0.4-0.4-0.7-0.5c-0.3-0.1-0.6-0.2-0.9-0.2s-0.6,0.1-0.9,0.2c-0.3,0.1-0.5,0.3-0.7,0.5s-0.4,0.4-0.5,0.7
			c-0.1,0.3-0.2,0.6-0.2,0.9s0.1,0.6,0.2,0.9c0.1,0.3,0.3,0.5,0.5,0.7c0.2,0.2,0.5,0.4,0.7,0.5c0.3,0.1,0.6,0.2,0.9,0.2
			s0.6-0.1,0.9-0.2c0.3-0.1,0.5-0.3,0.7-0.5c0.2-0.2,0.4-0.5,0.5-0.7C93.6,125.7,93.7,125.4,93.7,125z"/>
		<path class="st0" d="M95.7,125c0-0.4,0.1-0.8,0.2-1.2c0.2-0.4,0.4-0.7,0.7-1s0.6-0.5,1-0.7c0.4-0.2,0.8-0.2,1.2-0.2
			c0.4,0,0.9,0.1,1.2,0.2c0.4,0.2,0.7,0.4,1,0.7c0.3,0.3,0.5,0.6,0.7,1c0.2,0.4,0.2,0.8,0.2,1.2s-0.1,0.8-0.2,1.2
			c-0.2,0.4-0.4,0.7-0.7,1c-0.3,0.3-0.6,0.5-1,0.7c-0.4,0.2-0.8,0.2-1.2,0.2c-0.4,0-0.9-0.1-1.2-0.2s-0.7-0.4-1-0.7s-0.5-0.6-0.7-1
			C95.8,125.9,95.7,125.5,95.7,125z M96.6,125c0,0.3,0.1,0.6,0.2,0.9c0.1,0.3,0.3,0.5,0.5,0.7c0.2,0.2,0.5,0.4,0.7,0.5
			c0.3,0.1,0.6,0.2,0.9,0.2s0.6-0.1,0.9-0.2c0.3-0.1,0.5-0.3,0.7-0.5c0.2-0.2,0.4-0.5,0.5-0.7c0.1-0.3,0.2-0.6,0.2-0.9
			s-0.1-0.6-0.2-0.9s-0.3-0.5-0.5-0.7c-0.2-0.2-0.5-0.4-0.7-0.5c-0.3-0.1-0.6-0.2-0.9-0.2s-0.6,0.1-0.9,0.2
			c-0.3,0.1-0.5,0.3-0.7,0.5c-0.2,0.2-0.4,0.5-0.5,0.7S96.6,124.7,96.6,125z"/>
		<path class="st0" d="M106.8,122.9c-0.3,0-0.6,0-0.9,0.1c-0.3,0.1-0.5,0.2-0.7,0.4s-0.4,0.4-0.5,0.6c-0.1,0.2-0.2,0.5-0.2,0.8v3.1
			h-0.8v-6h0.7l0.1,1.5c0.1-0.3,0.3-0.5,0.5-0.7c0.2-0.2,0.4-0.4,0.6-0.5c0.2-0.1,0.5-0.3,0.7-0.3s0.5-0.1,0.7-0.1L106.8,122.9z"/>
		<path class="st0" d="M108.5,119.4h0.8v2.7h1.8v0.8h-1.8v5.2h-0.8v-5.2h-1.2v-0.8h1.2V119.4z"/>
	</g>
	<g id="edit_x5F_child_x5F_report_x5F_icon_x5F_grp_2_">
		<g>
			<rect x="60" y="65.4" class="st0" width="29.4" height="1"/>
		</g>
		<g>
			<rect x="60" y="69" class="st0" width="29.4" height="1"/>
		</g>
		<g>
			<rect x="60" y="61.9" class="st0" width="29.4" height="1"/>
		</g>
		<g>
			<g>
				<path class="st0" d="M77.9,35.2h-7v-1.1c0-1.9,1.6-3.5,3.5-3.5s3.5,1.6,3.5,3.5V35.2z M71.9,34.2h5v-0.1c0-1.4-1.1-2.5-2.5-2.5
					s-2.5,1.1-2.5,2.5V34.2z"/>
			</g>
			<g>
				<path class="st0" d="M77.9,52.3h-7V35.4h7V52.3z M71.9,51.3h5V36.4h-5V51.3z"/>
			</g>
			<g>
				<path class="st0" d="M74.4,59.2l-3.9-6.7h7.8L74.4,59.2z M72.2,53.5l2.2,3.7l2.2-3.7H72.2z"/>
			</g>
			<g>
				<polygon class="st0" points="74.8,57.1 74.4,56.6 74,57.1 73.2,56.5 74.4,55.1 75.6,56.5 				"/>
			</g>
			<g>
				<rect x="72.5" y="35.9" class="st0" width="1" height="15.9"/>
			</g>
			<g>
				<rect x="75.3" y="35.9" class="st0" width="1" height="15.9"/>
			</g>
		</g>
		<g>
			<path class="st0" d="M95.1,77.9H53.7V19.1h32.9l-0.5,9.2l9-1.7V77.9z M54.7,76.9h39.4V27.8L85,29.5l0.6-9.4H54.7V76.9z"/>
		</g>
	</g>
</g>
</svg>
