<?xml version="1.0" encoding="utf-8"?>
<!-- Generator: Adobe Illustrator 21.0.0, SVG Export Plug-In . SVG Version: 6.00 Build 0)  -->
<svg version="1.1" id="Icons" xmlns="http://www.w3.org/2000/svg" xmlns:xlink="http://www.w3.org/1999/xlink" x="0px" y="0px"
	 viewBox="0 0 150 150" style="enable-background:new 0 0 150 150;" xml:space="preserve">
<style type="text/css">
	.st0{fill:#FFFFFF;}
	.st1{fill:#396D5D;}
	.st2{fill:#333A3B;}
	.st3{fill:#394142;}
</style>
<rect id="bg" x="-271.2" y="-479.6" class="st0" width="1827.2" height="718.2"/>
<g>
	<g id="child_x5F_in_x5F_foster_x5F_care_x5F_grp">
		<g>
			<g>
				<path class="st2" d="M76.1,82.5c-8.6,0-15.6-7-15.6-15.6s7-15.6,15.6-15.6s15.6,7,15.6,15.6S84.7,82.5,76.1,82.5z M76.1,52.3
					c-8,0-14.6,6.5-14.6,14.6c0,8,6.5,14.6,14.6,14.6s14.6-6.5,14.6-14.6C90.7,58.8,84.2,52.3,76.1,52.3z"/>
			</g>
			<g>
				<path class="st2" d="M91.2,69.9v-1c1.5,0,2.8-1.3,2.8-2.8s-1.2-2.8-2.8-2.8v-1c2.1,0,3.8,1.7,3.8,3.8S93.3,69.9,91.2,69.9z"/>
			</g>
			<g>
				<path class="st2" d="M61.1,69.9c-2.1,0-3.8-1.7-3.8-3.8s1.7-3.8,3.8-3.8v1c-1.5,0-2.8,1.3-2.8,2.8s1.3,2.8,2.8,2.8V69.9z"/>
			</g>
			<g>
				<path class="st2" d="M74,65.8c-0.7,0-1.2-0.6-1.2-1.2s0.6-1.2,1.2-1.2s1.2,0.6,1.2,1.2S74.7,65.8,74,65.8z M74,64.3
					c-0.1,0-0.2,0.1-0.2,0.2c0,0.3,0.5,0.3,0.5,0C74.2,64.4,74.1,64.3,74,64.3z"/>
			</g>
			<g>
				<path class="st2" d="M78.1,65.8c-0.7,0-1.2-0.6-1.2-1.2s0.6-1.2,1.2-1.2c0.7,0,1.2,0.6,1.2,1.2S78.8,65.8,78.1,65.8z M78.1,64.3
					c-0.1,0-0.2,0.1-0.2,0.2c0,0.3,0.5,0.3,0.5,0C78.3,64.4,78.2,64.3,78.1,64.3z"/>
			</g>
			<g>
				<path class="st2" d="M75.9,76.4c-5.1,0-9.3-3.5-9.3-7.7h1c0,3.7,3.7,6.7,8.3,6.7s8.3-3,8.3-6.7h1C85.2,72.9,81.1,76.4,75.9,76.4
					z"/>
			</g>
		</g>
		<g>
			<g>
				<path class="st2" d="M50.3,77.8c-8.6,0-15.6-9.1-15.6-20.3s7-20.3,15.6-20.3s15.6,9.1,15.6,20.3S58.8,77.8,50.3,77.8z
					 M50.3,38.3c-8,0-14.6,8.6-14.6,19.3s6.5,19.3,14.6,19.3c8,0,14.6-8.6,14.6-19.3S58.3,38.3,50.3,38.3z"/>
			</g>
			<g>
				<path class="st2" d="M65.3,60.6v-1c1.5,0,2.8-1.2,2.8-2.8S66.9,54,65.3,54v-1c2.1,0,3.8,1.7,3.8,3.8
					C69.1,58.9,67.4,60.6,65.3,60.6z"/>
			</g>
			<g>
				<path class="st2" d="M35.2,60.6c-2.1,0-3.8-1.7-3.8-3.8c0-2.1,1.7-3.8,3.8-3.8v1c-1.5,0-2.8,1.3-2.8,2.8c0,1.5,1.3,2.8,2.8,2.8
					V60.6z"/>
			</g>
			<g>
				<path class="st2" d="M48.1,56.4c-0.7,0-1.2-0.6-1.2-1.2s0.6-1.2,1.2-1.2s1.2,0.6,1.2,1.2S48.8,56.4,48.1,56.4z M48.1,55
					c-0.1,0-0.2,0.1-0.2,0.2c0,0.3,0.5,0.3,0.5,0C48.3,55.1,48.2,55,48.1,55z"/>
			</g>
			<g>
				<path class="st2" d="M52.2,56.4c-0.7,0-1.2-0.6-1.2-1.2s0.6-1.2,1.2-1.2s1.2,0.6,1.2,1.2S52.9,56.4,52.2,56.4z M52.2,55
					c-0.1,0-0.2,0.1-0.2,0.2c0,0.3,0.5,0.3,0.5,0C52.4,55.1,52.3,55,52.2,55z"/>
			</g>
			<g>
				<path class="st2" d="M50,69.4c-5.1,0-9.3-4.5-9.3-10.1h1c0,5,3.7,9.1,8.3,9.1c4.6,0,8.3-4.1,8.3-9.1h1
					C59.4,64.9,55.2,69.4,50,69.4z"/>
			</g>
			<g>
				<path class="st2" d="M35.9,52.4l-0.2-1c7.6-1.3,19.6-8.3,19.8-8.3l0.4-0.2l0.3,0.3c0,0,4,4.7,8,5.6l-0.2,1
					c-3.7-0.9-7.2-4.5-8.2-5.6C53.5,45.4,43,51.2,35.9,52.4z"/>
			</g>
		</g>
		<g>
			<g>
				<path class="st2" d="M101.4,78.4c-7,0-12.7-8.8-12.7-19.6s5.7-19.6,12.7-19.6c7,0,12.7,8.8,12.7,19.6S108.4,78.4,101.4,78.4z
					 M101.4,40.1c-6.4,0-11.7,8.4-11.7,18.6s5.2,18.6,11.7,18.6s11.7-8.4,11.7-18.6S107.8,40.1,101.4,40.1z"/>
			</g>
			<g>
				<path class="st2" d="M113.6,62.4v-1c1.5,0,2.8-1.2,2.8-2.8s-1.3-2.8-2.8-2.8v-1c2.1,0,3.8,1.7,3.8,3.8
					C117.3,60.7,115.7,62.4,113.6,62.4z"/>
			</g>
			<g>
				<path class="st2" d="M89.2,62.4c-2.1,0-3.8-1.7-3.8-3.8c0-2.1,1.7-3.8,3.8-3.8v1c-1.5,0-2.8,1.3-2.8,2.8s1.3,2.8,2.8,2.8V62.4z"
					/>
			</g>
			<g>
				<path class="st2" d="M103.3,58.9c-1,0-1.9-0.8-1.9-1.9s0.8-1.9,1.9-1.9s1.9,0.8,1.9,1.9S104.3,58.9,103.3,58.9z M103.3,56.2
					c-0.5,0-0.9,0.4-0.9,0.9c0,0.5,0.4,0.9,0.9,0.9s0.9-0.4,0.9-0.9C104.2,56.6,103.8,56.2,103.3,56.2z"/>
			</g>
			<g>
				<path class="st2" d="M99.2,59c-1.1,0-1.9-0.9-1.9-1.9c0-1.1,0.9-1.9,1.9-1.9s1.9,0.9,1.9,1.9C101.1,58.1,100.3,59,99.2,59z
					 M99.2,56.1c-0.5,0-0.9,0.4-0.9,0.9s0.4,0.9,0.9,0.9s0.9-0.4,0.9-0.9S99.7,56.1,99.2,56.1z"/>
			</g>
			<g>
				<path class="st2" d="M101.2,71.3c-5.1,0-9.3-4.5-9.3-10.1h1c0,5,3.7,9.1,8.3,9.1c4.6,0,8.3-4.1,8.3-9.1h1
					C110.5,66.7,106.3,71.3,101.2,71.3z"/>
			</g>
			<g>
				<path class="st2" d="M89.8,54.3l-0.2-1c6.1-1.3,15.8-8.2,15.9-8.3l0.4-0.3l0.3,0.4c0,0,3.2,4.6,6.4,5.6l-0.3,1
					c-3-0.9-5.8-4.4-6.6-5.6C103.7,47.4,95.4,53,89.8,54.3z"/>
			</g>
			<g>
				<path class="st2" d="M110,45.1l-0.7-0.7c0.9-0.9,1.4-2.1,1.4-3.3c0-2.6-2.1-4.7-4.7-4.7c-2.1,0-4,1.4-4.6,3.5l-1-0.3
					c0.7-2.5,3-4.2,5.5-4.2c3.2,0,5.7,2.6,5.7,5.7C111.7,42.5,111.1,44,110,45.1z"/>
			</g>
		</g>
	</g>
	<g>
		<path class="st2" d="M30,117.7c-0.3,0.2-0.7,0.4-1.2,0.5s-1.1,0.3-1.7,0.3c-0.8,0-1.5-0.1-2.1-0.4c-0.6-0.3-1.1-0.6-1.6-1.1
			c-0.4-0.5-0.8-1-1-1.6c-0.2-0.6-0.4-1.3-0.4-1.9c0-0.7,0.1-1.4,0.4-2.1c0.3-0.6,0.6-1.2,1.1-1.6c0.5-0.5,1-0.8,1.6-1.1
			c0.6-0.3,1.3-0.4,2-0.4c0.3,0,0.5,0,0.8,0s0.5,0.1,0.7,0.1c0.2,0.1,0.4,0.1,0.6,0.2s0.4,0.2,0.5,0.3c0,0.1-0.1,0.1-0.1,0.2
			c0,0-0.1,0.1-0.1,0.1c0,0.1-0.1,0.1-0.1,0.2c0,0.1-0.1,0.2-0.1,0.3c-0.3-0.2-0.6-0.3-1-0.4c-0.4-0.1-0.8-0.1-1.1-0.1
			c-0.6,0-1.1,0.1-1.7,0.3c-0.5,0.2-1,0.5-1.3,0.9c-0.4,0.4-0.7,0.8-0.9,1.3c-0.2,0.5-0.3,1-0.3,1.6c0,0.5,0.1,1.1,0.3,1.6
			c0.2,0.5,0.5,0.9,0.8,1.3c0.4,0.4,0.8,0.7,1.3,0.9c0.5,0.2,1.1,0.3,1.7,0.3c0.3,0,0.5,0,0.8-0.1c0.3,0,0.5-0.1,0.7-0.2
			c0.2-0.1,0.4-0.1,0.6-0.2c0.2-0.1,0.3-0.1,0.4-0.2L30,117.7z"/>
		<path class="st2" d="M31.2,107.7H32v6.5c0.2-0.4,0.5-0.8,0.9-1.1c0.4-0.3,0.9-0.4,1.4-0.4c0.6,0,1,0.2,1.3,0.5
			c0.3,0.3,0.5,0.7,0.5,1.2v4h-0.8v-3.8c0-0.3-0.1-0.6-0.3-0.8s-0.5-0.3-0.9-0.4c-0.3,0-0.6,0-0.8,0.1s-0.5,0.2-0.7,0.4
			c-0.2,0.2-0.3,0.4-0.4,0.6s-0.2,0.5-0.2,0.8v3h-0.8V107.7z"/>
		<path class="st2" d="M37.8,110.8c0-0.2,0.1-0.3,0.2-0.4c0.1-0.1,0.2-0.2,0.4-0.2c0.1,0,0.3,0.1,0.4,0.2c0.1,0.1,0.2,0.2,0.2,0.4
			c0,0.2-0.1,0.3-0.2,0.4c-0.1,0.1-0.2,0.2-0.4,0.2c-0.1,0-0.3-0.1-0.4-0.2C37.9,111.1,37.8,111,37.8,110.8z M38.7,118.4H38v-5.6
			h0.8V118.4z"/>
		<path class="st2" d="M41.4,118.4h-0.8v-10.7h0.8V118.4z"/>
		<path class="st2" d="M43,115.6c0-0.4,0.1-0.8,0.2-1.2s0.4-0.7,0.6-0.9c0.3-0.3,0.6-0.5,0.9-0.6c0.4-0.1,0.7-0.2,1.1-0.2
			c0.3,0,0.6,0,0.8,0.1c0.2,0.1,0.5,0.2,0.7,0.3c0.2,0.1,0.4,0.3,0.5,0.4c0.1,0.2,0.2,0.3,0.3,0.5v-6.3h0.8v10.7h-0.8v-0.6
			c0-0.1,0-0.2,0-0.3c0-0.1,0-0.2,0-0.3c-0.2,0.3-0.5,0.6-0.9,0.9c-0.4,0.3-0.9,0.4-1.4,0.4c-0.4,0-0.8-0.1-1.2-0.2
			c-0.3-0.2-0.7-0.4-0.9-0.6c-0.3-0.3-0.4-0.6-0.6-0.9C43.1,116.4,43,116,43,115.6z M43.8,115.6c0,0.3,0.1,0.6,0.2,0.9
			s0.3,0.5,0.5,0.7s0.4,0.3,0.7,0.5c0.3,0.1,0.6,0.2,0.9,0.2c0.3,0,0.6-0.1,0.9-0.2c0.3-0.1,0.5-0.3,0.7-0.5
			c0.2-0.2,0.3-0.4,0.5-0.7c0.1-0.3,0.2-0.5,0.2-0.9c0-0.3-0.1-0.6-0.2-0.8c-0.1-0.3-0.3-0.5-0.5-0.7c-0.2-0.2-0.4-0.3-0.7-0.5
			c-0.3-0.1-0.6-0.2-0.9-0.2c-0.3,0-0.6,0.1-0.9,0.2c-0.3,0.1-0.5,0.3-0.7,0.5s-0.3,0.4-0.5,0.7C43.8,115,43.8,115.3,43.8,115.6z"/>
		<path class="st2" d="M54.1,110.8c0-0.2,0.1-0.3,0.2-0.4c0.1-0.1,0.2-0.2,0.4-0.2c0.1,0,0.3,0.1,0.4,0.2c0.1,0.1,0.2,0.2,0.2,0.4
			c0,0.2-0.1,0.3-0.2,0.4c-0.1,0.1-0.2,0.2-0.4,0.2c-0.1,0-0.3-0.1-0.4-0.2C54.1,111.1,54.1,111,54.1,110.8z M55,118.4h-0.8v-5.6H55
			V118.4z"/>
		<path class="st2" d="M56.9,112.8h0.7l0.1,1.4c0.2-0.5,0.5-0.8,0.9-1.1s0.9-0.4,1.4-0.4c0.6,0,1,0.2,1.3,0.5
			c0.3,0.3,0.5,0.7,0.5,1.2v4h-0.8v-3.8c0-0.3-0.1-0.6-0.3-0.8s-0.5-0.3-0.9-0.4c-0.3,0-0.6,0-0.8,0.1s-0.5,0.2-0.7,0.4
			c-0.2,0.2-0.3,0.4-0.4,0.6c-0.1,0.2-0.2,0.5-0.2,0.8v3h-0.8V112.8z"/>
		<path class="st2" d="M67.6,118.4v-10h5.7v0.9h-4.8v3.8h4.2v0.9h-4.2v4.4H67.6z"/>
		<path class="st2" d="M73.6,115.6c0-0.4,0.1-0.8,0.2-1.1c0.2-0.4,0.4-0.7,0.6-0.9c0.3-0.3,0.6-0.5,0.9-0.6c0.4-0.2,0.7-0.2,1.2-0.2
			c0.4,0,0.8,0.1,1.2,0.2c0.4,0.2,0.7,0.4,0.9,0.6s0.5,0.6,0.6,0.9c0.1,0.4,0.2,0.7,0.2,1.1c0,0.4-0.1,0.8-0.2,1.1
			c-0.1,0.4-0.4,0.7-0.6,0.9c-0.3,0.3-0.6,0.5-0.9,0.6c-0.4,0.2-0.7,0.2-1.2,0.2c-0.4,0-0.8-0.1-1.1-0.2c-0.4-0.1-0.7-0.3-0.9-0.6
			c-0.3-0.3-0.5-0.6-0.6-0.9C73.6,116.4,73.6,116,73.6,115.6z M74.3,115.6c0,0.3,0.1,0.6,0.2,0.8c0.1,0.3,0.3,0.5,0.5,0.7
			c0.2,0.2,0.4,0.3,0.7,0.5c0.3,0.1,0.5,0.2,0.8,0.2s0.6-0.1,0.8-0.2c0.3-0.1,0.5-0.3,0.7-0.5c0.2-0.2,0.4-0.4,0.5-0.7
			c0.1-0.3,0.2-0.5,0.2-0.8s-0.1-0.6-0.2-0.8c-0.1-0.3-0.3-0.5-0.5-0.7c-0.2-0.2-0.4-0.3-0.7-0.5c-0.3-0.1-0.5-0.2-0.8-0.2
			s-0.6,0.1-0.8,0.2c-0.3,0.1-0.5,0.3-0.7,0.5c-0.2,0.2-0.4,0.4-0.5,0.7C74.4,115,74.3,115.3,74.3,115.6z"/>
		<path class="st2" d="M83.9,113.4l-0.4,0.5c-0.1-0.1-0.2-0.2-0.4-0.3c-0.2-0.1-0.4-0.1-0.7-0.1c-0.1,0-0.2,0-0.3,0
			c-0.1,0-0.2,0.1-0.3,0.1s-0.2,0.1-0.2,0.2c-0.1,0.1-0.1,0.2-0.1,0.4c0,0.2,0.1,0.4,0.2,0.5c0.1,0.1,0.3,0.2,0.5,0.3
			c0.2,0.1,0.4,0.2,0.6,0.3s0.4,0.2,0.6,0.3c0.2,0.1,0.4,0.3,0.5,0.5s0.2,0.4,0.2,0.7c0,0.5-0.2,0.9-0.5,1.2s-0.8,0.5-1.4,0.5
			c-0.3,0-0.6-0.1-1-0.2c-0.3-0.1-0.6-0.3-0.8-0.5c0,0,0.1-0.1,0.1-0.2c0.1-0.1,0.1-0.1,0.2-0.2s0.1-0.1,0.1-0.1
			c0,0,0.1-0.1,0.1-0.1c0,0,0.1,0.1,0.2,0.2c0.1,0.1,0.2,0.1,0.3,0.2c0.1,0.1,0.3,0.1,0.4,0.1s0.3,0.1,0.4,0.1c0.1,0,0.2,0,0.4,0
			c0.1,0,0.2-0.1,0.4-0.2c0.1-0.1,0.2-0.2,0.3-0.3c0.1-0.1,0.1-0.2,0.1-0.4c0-0.2-0.1-0.4-0.2-0.5c-0.1-0.1-0.3-0.2-0.5-0.3
			s-0.4-0.2-0.6-0.3c-0.2-0.1-0.4-0.2-0.6-0.3s-0.4-0.3-0.5-0.5c-0.1-0.2-0.2-0.4-0.2-0.8c0-0.3,0.1-0.5,0.2-0.7s0.2-0.3,0.4-0.5
			c0.2-0.1,0.3-0.2,0.5-0.3c0.2-0.1,0.4-0.1,0.6-0.1c0.2,0,0.5,0.1,0.8,0.2C83.4,113,83.7,113.1,83.9,113.4z"/>
		<path class="st2" d="M86,110.4h0.8v2.5h1.7v0.7h-1.7v4.8H86v-4.8h-1.1v-0.7H86V110.4z"/>
		<path class="st2" d="M94.1,117.7c-0.3,0.2-0.6,0.4-1,0.6s-0.7,0.2-1.1,0.2c-0.4,0-0.8-0.1-1.2-0.2s-0.7-0.4-0.9-0.6
			c-0.3-0.3-0.5-0.6-0.6-0.9c-0.2-0.4-0.2-0.7-0.2-1.1c0-0.4,0.1-0.8,0.2-1.1c0.2-0.4,0.4-0.7,0.6-0.9c0.3-0.3,0.6-0.5,0.9-0.6
			c0.4-0.2,0.7-0.2,1.1-0.2c0.6,0,1.2,0.2,1.6,0.6c0.5,0.4,0.8,0.8,1,1.4c-0.3,0.1-0.7,0.3-1.1,0.4c-0.4,0.2-0.8,0.3-1.2,0.5
			c-0.4,0.2-0.8,0.3-1.2,0.5c-0.4,0.2-0.8,0.3-1.1,0.5c0.2,0.4,0.4,0.7,0.8,0.9c0.3,0.2,0.7,0.4,1.2,0.4c0.3,0,0.6-0.1,0.9-0.2
			c0.3-0.1,0.5-0.2,0.7-0.4L94.1,117.7z M93.6,114.5c-0.2-0.3-0.4-0.6-0.7-0.8c-0.3-0.2-0.6-0.3-1-0.3c-0.3,0-0.6,0.1-0.8,0.2
			c-0.3,0.1-0.5,0.3-0.7,0.5c-0.2,0.2-0.4,0.4-0.5,0.7c-0.1,0.3-0.2,0.5-0.2,0.8c0,0.2,0,0.3,0,0.4c0.3-0.1,0.6-0.2,0.9-0.4
			c0.3-0.1,0.7-0.3,1-0.4c0.3-0.1,0.6-0.3,1-0.4C93,114.7,93.3,114.6,93.6,114.5z"/>
		<path class="st2" d="M98.7,113.7c-0.3,0-0.5,0-0.8,0.1c-0.3,0.1-0.5,0.2-0.7,0.4s-0.4,0.4-0.5,0.6c-0.1,0.2-0.2,0.5-0.2,0.8v2.9
			h-0.8v-5.6h0.7l0.1,1.4c0.1-0.2,0.3-0.5,0.4-0.7s0.4-0.4,0.6-0.5s0.4-0.2,0.7-0.3s0.4-0.1,0.7-0.1L98.7,113.7z"/>
		<path class="st2" d="M110.8,117.7c-0.3,0.2-0.7,0.4-1.2,0.5s-1.1,0.3-1.7,0.3c-0.8,0-1.5-0.1-2.1-0.4c-0.6-0.3-1.1-0.6-1.6-1.1
			c-0.4-0.5-0.8-1-1-1.6c-0.2-0.6-0.4-1.3-0.4-1.9c0-0.7,0.1-1.4,0.4-2.1c0.3-0.6,0.6-1.2,1.1-1.6c0.5-0.5,1-0.8,1.6-1.1
			c0.6-0.3,1.3-0.4,2-0.4c0.3,0,0.5,0,0.8,0s0.5,0.1,0.7,0.1c0.2,0.1,0.4,0.1,0.6,0.2s0.4,0.2,0.5,0.3c0,0.1-0.1,0.1-0.1,0.2
			c0,0-0.1,0.1-0.1,0.1c0,0.1-0.1,0.1-0.1,0.2c0,0.1-0.1,0.2-0.1,0.3c-0.3-0.2-0.6-0.3-1-0.4c-0.4-0.1-0.8-0.1-1.1-0.1
			c-0.6,0-1.1,0.1-1.7,0.3c-0.5,0.2-1,0.5-1.3,0.9c-0.4,0.4-0.7,0.8-0.9,1.3c-0.2,0.5-0.3,1-0.3,1.6c0,0.5,0.1,1.1,0.3,1.6
			c0.2,0.5,0.5,0.9,0.8,1.3c0.4,0.4,0.8,0.7,1.3,0.9c0.5,0.2,1.1,0.3,1.7,0.3c0.3,0,0.5,0,0.8-0.1c0.3,0,0.5-0.1,0.7-0.2
			c0.2-0.1,0.4-0.1,0.6-0.2c0.2-0.1,0.3-0.1,0.4-0.2L110.8,117.7z"/>
		<path class="st2" d="M111.4,115.6c0-0.4,0.1-0.8,0.2-1.1c0.2-0.4,0.4-0.7,0.6-0.9c0.3-0.3,0.6-0.5,0.9-0.6s0.7-0.2,1.1-0.2
			c0.3,0,0.5,0,0.8,0.1c0.2,0.1,0.5,0.2,0.7,0.3s0.4,0.3,0.5,0.4s0.2,0.3,0.3,0.5l0.1-1.2h0.7v5.6h-0.8v-0.6c0-0.1,0-0.2,0-0.3
			c0-0.1,0-0.2,0-0.3c-0.1,0.2-0.2,0.3-0.3,0.5c-0.1,0.1-0.3,0.3-0.5,0.4s-0.4,0.2-0.7,0.3c-0.2,0.1-0.5,0.1-0.8,0.1
			c-0.4,0-0.8-0.1-1.2-0.2s-0.7-0.4-0.9-0.6c-0.3-0.3-0.5-0.6-0.6-0.9S111.4,116,111.4,115.6z M112.2,115.6c0,0.3,0.1,0.6,0.2,0.9
			c0.1,0.3,0.3,0.5,0.5,0.7c0.2,0.2,0.4,0.3,0.7,0.5c0.3,0.1,0.6,0.2,0.9,0.2s0.6-0.1,0.9-0.2c0.3-0.1,0.5-0.3,0.7-0.5
			c0.2-0.2,0.4-0.4,0.5-0.7c0.1-0.3,0.2-0.5,0.2-0.9c0-0.3-0.1-0.6-0.2-0.8c-0.1-0.3-0.3-0.5-0.5-0.7c-0.2-0.2-0.4-0.3-0.7-0.5
			c-0.3-0.1-0.6-0.2-0.9-0.2s-0.6,0.1-0.9,0.2c-0.3,0.1-0.5,0.3-0.7,0.5c-0.2,0.2-0.4,0.4-0.5,0.7
			C112.3,115,112.2,115.3,112.2,115.6z"/>
		<path class="st2" d="M122.2,113.7c-0.3,0-0.5,0-0.8,0.1c-0.3,0.1-0.5,0.2-0.7,0.4s-0.4,0.4-0.5,0.6c-0.1,0.2-0.2,0.5-0.2,0.8v2.9
			h-0.8v-5.6h0.7l0.1,1.4c0.1-0.2,0.3-0.5,0.4-0.7s0.4-0.4,0.6-0.5s0.4-0.2,0.7-0.3s0.4-0.1,0.7-0.1L122.2,113.7z"/>
		<path class="st2" d="M127.8,117.7c-0.3,0.2-0.6,0.4-1,0.6s-0.7,0.2-1.1,0.2c-0.4,0-0.8-0.1-1.2-0.2s-0.7-0.4-0.9-0.6
			c-0.3-0.3-0.5-0.6-0.6-0.9c-0.2-0.4-0.2-0.7-0.2-1.1c0-0.4,0.1-0.8,0.2-1.1c0.2-0.4,0.4-0.7,0.6-0.9c0.3-0.3,0.6-0.5,0.9-0.6
			c0.4-0.2,0.7-0.2,1.1-0.2c0.6,0,1.2,0.2,1.6,0.6c0.5,0.4,0.8,0.8,1,1.4c-0.3,0.1-0.7,0.3-1.1,0.4c-0.4,0.2-0.8,0.3-1.2,0.5
			c-0.4,0.2-0.8,0.3-1.2,0.5c-0.4,0.2-0.8,0.3-1.1,0.5c0.2,0.4,0.4,0.7,0.8,0.9c0.3,0.2,0.7,0.4,1.2,0.4c0.3,0,0.6-0.1,0.9-0.2
			c0.3-0.1,0.5-0.2,0.7-0.4L127.8,117.7z M127.3,114.5c-0.2-0.3-0.4-0.6-0.7-0.8c-0.3-0.2-0.6-0.3-1-0.3c-0.3,0-0.6,0.1-0.8,0.2
			c-0.3,0.1-0.5,0.3-0.7,0.5c-0.2,0.2-0.4,0.4-0.5,0.7c-0.1,0.3-0.2,0.5-0.2,0.8c0,0.2,0,0.3,0,0.4c0.3-0.1,0.6-0.2,0.9-0.4
			c0.3-0.1,0.7-0.3,1-0.4c0.3-0.1,0.6-0.3,1-0.4C126.8,114.7,127.1,114.6,127.3,114.5z"/>
	</g>
</g>
</svg>
