<?xml version="1.0" encoding="utf-8"?>
<!-- Generator: Adobe Illustrator 21.0.0, SVG Export Plug-In . SVG Version: 6.00 Build 0)  -->
<svg version="1.1" id="Layer_1" xmlns="http://www.w3.org/2000/svg" xmlns:xlink="http://www.w3.org/1999/xlink" x="0px" y="0px"
	 viewBox="0 0 150 150" style="enable-background:new 0 0 150 150;" xml:space="preserve">
<style type="text/css">
	.st0{fill:#FFFFFF;}
	.st1{fill:none;stroke:#394142;stroke-miterlimit:10;}
	.st2{enable-background:new    ;}
	.st3{fill:#333A3B;}
</style>
<rect y="0" class="st0" width="150" height="150"/>
<g id="case_x5F_history_x5F_grp">
	<path class="st1" d="M73.1,73.5h-2.6c-0.3,0-0.6,0.3-0.6,0.6v0.4c0,0.3,0.3,0.6,0.6,0.6h0.2v2l-1.6,0.5c-0.6,0.2-1.1,0.5-1.6,1l0,0
		c-0.5,0.5-0.8,1.2-0.9,2l-0.4,3.7c0,0.4,0.1,0.9,0.4,1.2l0,0c0.3,0.3,0.7,0.5,1.2,0.5h5.3h5.3c0.5,0,0.9-0.2,1.2-0.5l0,0
		c0.3-0.3,0.4-0.8,0.4-1.2l-0.4-3.7c-0.1-0.7-0.4-1.4-0.9-2l0,0c-0.4-0.5-1-0.8-1.6-1L75.6,77v-2h0.2c0.3,0,0.6-0.3,0.6-0.6V74
		c0-0.3-0.3-0.6-0.6-0.6L73.1,73.5L73.1,73.5z"/>
	<path class="st1" d="M73.1,70.7c0,0-2.3-7.6-1.8-12.6c1.2,2.4,3.3,3.9,3.3,3.9s-1.8-5.1-2.2-6c0.4-1.6,9.7-24,23.4-20.1
		c-3.1,2.8-4.9,10.3-3.9,12.4c-2.5-0.1-4.6,0.1-4.6,0.1s3.4,1,4.3,1.1c-1,1.9-10.7,17.7-15.3,18.9C78,65.4,83,53,83,53
		C82.5,53.2,73.7,69,73.1,70.7z"/>
	<path class="st1" d="M72.8,73.5c0,0-0.1-2.2,1.3-4.9"/>
</g>
<g>
	<g class="st2">
		<path class="st3" d="M47.2,114.4c-0.3,0.2-0.7,0.4-1.3,0.6c-0.5,0.2-1.1,0.3-1.8,0.3c-0.8,0-1.6-0.1-2.2-0.4
			c-0.7-0.3-1.2-0.7-1.7-1.2c-0.5-0.5-0.8-1.1-1.1-1.7c-0.3-0.7-0.4-1.3-0.4-2.1c0-0.8,0.1-1.5,0.4-2.2c0.3-0.7,0.7-1.3,1.2-1.8
			c0.5-0.5,1.1-0.9,1.8-1.2c0.7-0.3,1.4-0.4,2.1-0.4c0.3,0,0.5,0,0.8,0.1s0.5,0.1,0.8,0.2c0.3,0.1,0.5,0.2,0.7,0.2s0.4,0.2,0.5,0.3
			c-0.1,0.1-0.1,0.1-0.1,0.2c0,0-0.1,0.1-0.1,0.2s-0.1,0.1-0.1,0.2c0,0.1-0.1,0.2-0.1,0.3c-0.3-0.2-0.7-0.4-1.1-0.5
			c-0.4-0.1-0.8-0.2-1.2-0.2c-0.6,0-1.2,0.1-1.8,0.4c-0.5,0.2-1,0.6-1.4,1c-0.4,0.4-0.7,0.9-1,1.4c-0.2,0.5-0.4,1.1-0.4,1.7
			c0,0.6,0.1,1.1,0.3,1.7s0.5,1,0.9,1.4s0.9,0.7,1.4,1c0.5,0.2,1.1,0.4,1.8,0.4c0.3,0,0.6,0,0.8-0.1c0.3,0,0.5-0.1,0.8-0.2
			c0.2-0.1,0.4-0.2,0.6-0.2c0.2-0.1,0.3-0.2,0.4-0.2L47.2,114.4z"/>
	</g>
	<g class="st2">
		<path class="st3" d="M47.9,112.1c0-0.4,0.1-0.8,0.2-1.2s0.4-0.7,0.7-1c0.3-0.3,0.6-0.5,1-0.7s0.8-0.2,1.2-0.2c0.3,0,0.6,0,0.8,0.1
			c0.3,0.1,0.5,0.2,0.7,0.3s0.4,0.3,0.5,0.5s0.2,0.3,0.3,0.5l0.1-1.2h0.8v6h-0.8v-0.6c0-0.1,0-0.2,0-0.3c0-0.1,0-0.2,0-0.3
			c-0.1,0.2-0.2,0.3-0.3,0.5c-0.1,0.2-0.3,0.3-0.5,0.4s-0.4,0.2-0.7,0.3c-0.3,0.1-0.5,0.1-0.9,0.1c-0.5,0-0.9-0.1-1.3-0.2
			c-0.4-0.2-0.7-0.4-1-0.7c-0.3-0.3-0.5-0.6-0.7-1C48,112.9,47.9,112.5,47.9,112.1z M48.7,112.1c0,0.3,0.1,0.6,0.2,0.9
			c0.1,0.3,0.3,0.5,0.5,0.7s0.5,0.4,0.7,0.5c0.3,0.1,0.6,0.2,0.9,0.2s0.6-0.1,0.9-0.2c0.3-0.1,0.5-0.3,0.7-0.5s0.4-0.5,0.5-0.7
			c0.1-0.3,0.2-0.6,0.2-0.9c0-0.3-0.1-0.6-0.2-0.9c-0.1-0.3-0.3-0.5-0.5-0.7s-0.5-0.4-0.7-0.5c-0.3-0.1-0.6-0.2-0.9-0.2
			s-0.6,0.1-0.9,0.2c-0.3,0.1-0.5,0.3-0.7,0.5s-0.4,0.4-0.5,0.7C48.8,111.4,48.7,111.7,48.7,112.1z"/>
		<path class="st3" d="M59.4,109.7l-0.5,0.6c-0.1-0.1-0.2-0.2-0.5-0.3c-0.2-0.1-0.5-0.1-0.7-0.1c-0.1,0-0.2,0-0.3,0
			c-0.1,0-0.2,0.1-0.3,0.1c-0.1,0.1-0.2,0.2-0.2,0.3c-0.1,0.1-0.1,0.2-0.1,0.4c0,0.2,0.1,0.4,0.2,0.5c0.1,0.1,0.3,0.3,0.5,0.4
			c0.2,0.1,0.4,0.2,0.7,0.3c0.2,0.1,0.5,0.2,0.7,0.3s0.4,0.3,0.5,0.5c0.1,0.2,0.2,0.5,0.2,0.8c0,0.5-0.2,0.9-0.5,1.3
			s-0.8,0.5-1.5,0.5c-0.3,0-0.7-0.1-1-0.2c-0.4-0.1-0.6-0.3-0.9-0.6c0,0,0.1-0.1,0.1-0.2s0.1-0.1,0.2-0.2c0-0.1,0.1-0.1,0.1-0.2
			s0.1-0.1,0.1-0.1c0,0,0.1,0.1,0.2,0.2c0.1,0.1,0.2,0.1,0.3,0.2c0.1,0.1,0.3,0.1,0.4,0.1c0.2,0,0.3,0.1,0.4,0.1
			c0.1,0,0.2,0,0.4-0.1c0.1,0,0.3-0.1,0.4-0.2c0.1-0.1,0.2-0.2,0.3-0.3s0.1-0.3,0.1-0.4c0-0.2-0.1-0.4-0.2-0.5s-0.3-0.3-0.5-0.4
			c-0.2-0.1-0.4-0.2-0.7-0.3c-0.3-0.1-0.5-0.2-0.7-0.3c-0.2-0.1-0.4-0.3-0.5-0.5c-0.1-0.2-0.2-0.5-0.2-0.8c0-0.3,0.1-0.6,0.2-0.8
			c0.1-0.2,0.3-0.4,0.4-0.5s0.4-0.2,0.6-0.3c0.2-0.1,0.4-0.1,0.6-0.1c0.3,0,0.5,0.1,0.9,0.2C58.9,109.3,59.2,109.4,59.4,109.7z"/>
		<path class="st3" d="M66.2,114.4c-0.3,0.3-0.6,0.5-1,0.6c-0.4,0.2-0.8,0.2-1.2,0.2c-0.4,0-0.9-0.1-1.2-0.2c-0.4-0.2-0.7-0.4-1-0.7
			c-0.3-0.3-0.5-0.6-0.7-1s-0.2-0.8-0.2-1.2s0.1-0.8,0.2-1.2s0.4-0.7,0.7-1c0.3-0.3,0.6-0.5,1-0.7s0.8-0.2,1.2-0.2
			c0.7,0,1.2,0.2,1.7,0.6c0.5,0.4,0.8,0.9,1.1,1.5c-0.3,0.1-0.7,0.3-1.1,0.4s-0.8,0.3-1.3,0.5s-0.9,0.3-1.3,0.5
			c-0.4,0.2-0.8,0.3-1.2,0.5c0.2,0.4,0.5,0.7,0.8,1c0.4,0.3,0.8,0.4,1.3,0.4c0.3,0,0.6-0.1,0.9-0.2c0.3-0.1,0.5-0.3,0.7-0.4
			L66.2,114.4z M65.7,110.9c-0.2-0.3-0.4-0.6-0.7-0.8c-0.3-0.2-0.7-0.3-1-0.3c-0.3,0-0.6,0.1-0.9,0.2s-0.5,0.3-0.7,0.5
			s-0.4,0.5-0.5,0.7c-0.1,0.3-0.2,0.6-0.2,0.9c0,0.2,0,0.3,0,0.4c0.3-0.1,0.6-0.3,1-0.4c0.4-0.1,0.7-0.3,1.1-0.4
			c0.3-0.1,0.7-0.3,1-0.4S65.4,111,65.7,110.9z"/>
	</g>
	<g class="st2">
		<path class="st3" d="M72.2,115.1v-10.7h1v4.8h6.1v-4.8h1c0,0.4,0,0.8,0,1.4c0,0.6,0,1.2,0,1.9s0,1.4,0,2.1c0,0.7,0,1.4,0,2.1
			c0,0.7,0,1.3,0,1.9s0,1,0,1.4h-1v-4.9h-6.1v4.9H72.2z"/>
	</g>
	<g class="st2">
		<path class="st3" d="M82.6,106.9c0-0.2,0.1-0.3,0.2-0.4s0.3-0.2,0.4-0.2c0.1,0,0.3,0.1,0.4,0.2c0.1,0.1,0.2,0.3,0.2,0.4
			c0,0.2-0.1,0.3-0.2,0.4c-0.1,0.1-0.3,0.2-0.4,0.2c-0.2,0-0.3-0.1-0.4-0.2C82.7,107.2,82.6,107.1,82.6,106.9z M83.6,115.1h-0.8v-6
			h0.8V115.1z"/>
		<path class="st3" d="M88.8,109.7l-0.5,0.6c-0.1-0.1-0.2-0.2-0.5-0.3c-0.2-0.1-0.5-0.1-0.7-0.1c-0.1,0-0.2,0-0.3,0
			c-0.1,0-0.2,0.1-0.3,0.1s-0.2,0.2-0.2,0.3c-0.1,0.1-0.1,0.2-0.1,0.4c0,0.2,0.1,0.4,0.2,0.5c0.1,0.1,0.3,0.3,0.5,0.4
			c0.2,0.1,0.4,0.2,0.7,0.3s0.5,0.2,0.7,0.3s0.4,0.3,0.5,0.5c0.1,0.2,0.2,0.5,0.2,0.8c0,0.5-0.2,0.9-0.5,1.3s-0.8,0.5-1.5,0.5
			c-0.3,0-0.7-0.1-1-0.2c-0.4-0.1-0.6-0.3-0.9-0.6c0,0,0.1-0.1,0.1-0.2c0.1-0.1,0.1-0.1,0.2-0.2c0-0.1,0.1-0.1,0.1-0.2
			s0.1-0.1,0.1-0.1c0,0,0.1,0.1,0.2,0.2c0.1,0.1,0.2,0.1,0.3,0.2c0.1,0.1,0.3,0.1,0.4,0.1c0.2,0,0.3,0.1,0.4,0.1
			c0.1,0,0.2,0,0.4-0.1s0.3-0.1,0.4-0.2c0.1-0.1,0.2-0.2,0.3-0.3c0.1-0.1,0.1-0.3,0.1-0.4c0-0.2-0.1-0.4-0.2-0.5
			c-0.1-0.1-0.3-0.3-0.5-0.4c-0.2-0.1-0.4-0.2-0.7-0.3c-0.3-0.1-0.5-0.2-0.7-0.3s-0.4-0.3-0.5-0.5c-0.1-0.2-0.2-0.5-0.2-0.8
			c0-0.3,0.1-0.6,0.2-0.8c0.1-0.2,0.3-0.4,0.4-0.5s0.4-0.2,0.6-0.3c0.2-0.1,0.4-0.1,0.6-0.1c0.3,0,0.5,0.1,0.9,0.2
			C88.3,109.3,88.6,109.4,88.8,109.7z"/>
	</g>
	<g class="st2">
		<path class="st3" d="M91.1,106.5h0.8v2.7h1.8v0.8h-1.8v5.2h-0.8v-5.2h-1.2v-0.8h1.2V106.5z"/>
	</g>
	<g class="st2">
		<path class="st3" d="M94.3,112.1c0-0.4,0.1-0.8,0.2-1.2s0.4-0.7,0.7-1s0.6-0.5,1-0.7s0.8-0.2,1.2-0.2c0.4,0,0.9,0.1,1.2,0.2
			c0.4,0.2,0.7,0.4,1,0.7c0.3,0.3,0.5,0.6,0.7,1c0.2,0.4,0.2,0.8,0.2,1.2s-0.1,0.8-0.2,1.2c-0.2,0.4-0.4,0.7-0.7,1s-0.6,0.5-1,0.7
			c-0.4,0.2-0.8,0.2-1.2,0.2c-0.4,0-0.9-0.1-1.2-0.2c-0.4-0.2-0.7-0.4-1-0.7c-0.3-0.3-0.5-0.6-0.7-1S94.3,112.5,94.3,112.1z
			 M95.1,112.1c0,0.3,0.1,0.6,0.2,0.9c0.1,0.3,0.3,0.5,0.5,0.7s0.5,0.4,0.7,0.5c0.3,0.1,0.6,0.2,0.9,0.2c0.3,0,0.6-0.1,0.9-0.2
			s0.5-0.3,0.7-0.5s0.4-0.5,0.5-0.7c0.1-0.3,0.2-0.6,0.2-0.9s-0.1-0.6-0.2-0.9s-0.3-0.5-0.5-0.7s-0.5-0.4-0.7-0.5
			c-0.3-0.1-0.6-0.2-0.9-0.2c-0.3,0-0.6,0.1-0.9,0.2c-0.3,0.1-0.5,0.3-0.7,0.5s-0.4,0.5-0.5,0.7C95.2,111.5,95.1,111.8,95.1,112.1z"
			/>
	</g>
	<g class="st2">
		<path class="st3" d="M105.3,110c-0.3,0-0.6,0-0.9,0.1c-0.3,0.1-0.5,0.2-0.7,0.4s-0.4,0.4-0.5,0.6s-0.2,0.5-0.2,0.8v3.1h-0.8v-6
			h0.7l0.1,1.5c0.1-0.3,0.3-0.5,0.5-0.7c0.2-0.2,0.4-0.4,0.6-0.5c0.2-0.1,0.5-0.3,0.7-0.3s0.5-0.1,0.7-0.1L105.3,110z"/>
	</g>
	<g class="st2">
		<path class="st3" d="M108,118h-0.9c0.1-0.3,0.2-0.5,0.4-0.8c0.1-0.2,0.2-0.5,0.3-0.7c0.1-0.2,0.2-0.5,0.3-0.8
			c0.1-0.3,0.2-0.6,0.4-0.9c-0.5-0.9-0.9-1.9-1.4-2.9s-0.9-2-1.3-2.9h0.9c0.3,0.6,0.6,1.1,0.8,1.6c0.2,0.5,0.4,0.9,0.6,1.3
			c0.2,0.4,0.3,0.8,0.5,1.1c0.1,0.3,0.3,0.7,0.4,1c0.1-0.3,0.3-0.7,0.4-1s0.3-0.7,0.5-1.1s0.4-0.8,0.6-1.3c0.2-0.5,0.5-1,0.8-1.6
			h0.9L108,118z"/>
	</g>
</g>
</svg>
