<?xml version="1.0" encoding="utf-8"?>
<!-- Generator: Adobe Illustrator 21.0.0, SVG Export Plug-In . SVG Version: 6.00 Build 0)  -->
<svg version="1.1" id="Icons" xmlns="http://www.w3.org/2000/svg" xmlns:xlink="http://www.w3.org/1999/xlink" x="0px" y="0px"
	 viewBox="0 0 150 150" style="enable-background:new 0 0 150 150;" xml:space="preserve">
<style type="text/css">
	.st0{fill:#FFFFFF;}
	.st1{fill:#396D5D;}
	.st2{fill:#333A3B;}
	.st3{fill:#394142;}
</style>
<rect id="bg" x="-1994.1" y="-108.2" class="st0" width="2000" height="718.2"/>
<rect id="green_x5F_bg" x="-852.1" y="-108.2" class="st1" width="1050" height="718.2"/>
<g>
	<path class="st0" d="M22.1,98.4v10.5c-0.3-0.3-0.6-0.7-1-1.2c-0.4-0.5-0.8-0.9-1.3-1.4c-0.5-0.5-0.9-1-1.4-1.6
		c-0.5-0.5-1-1.1-1.4-1.6c-0.5-0.5-0.9-1-1.3-1.4c-0.4-0.4-0.7-0.8-0.9-1.2c0,0-0.1-0.1-0.1-0.2c-0.1-0.1-0.1-0.1-0.2-0.2l0,0.4v7.8
		h-1V98c0.3,0.3,0.6,0.7,1,1.2c0.4,0.4,0.8,0.9,1.3,1.4c0.5,0.5,0.9,1,1.4,1.6c0.5,0.5,1,1,1.4,1.5c0.5,0.5,0.9,1,1.3,1.4
		c0.4,0.4,0.7,0.8,1,1.2c0,0,0.1,0.1,0.1,0.2c0.1,0.1,0.1,0.1,0.2,0.2l0-0.5v-7.7H22.1z"/>
	<path class="st0" d="M28.8,107.7c-0.3,0.2-0.6,0.4-1,0.6c-0.4,0.1-0.7,0.2-1.1,0.2c-0.4,0-0.8-0.1-1.2-0.2s-0.7-0.4-0.9-0.6
		c-0.3-0.3-0.5-0.6-0.6-0.9s-0.2-0.7-0.2-1.1s0.1-0.8,0.2-1.1c0.2-0.4,0.4-0.7,0.6-0.9c0.3-0.3,0.6-0.5,0.9-0.6
		c0.4-0.2,0.7-0.2,1.1-0.2c0.6,0,1.2,0.2,1.6,0.6c0.5,0.4,0.8,0.8,1,1.4c-0.3,0.1-0.7,0.3-1.1,0.4s-0.8,0.3-1.2,0.5
		c-0.4,0.2-0.8,0.3-1.2,0.5c-0.4,0.2-0.8,0.3-1.1,0.5c0.2,0.4,0.4,0.7,0.8,0.9s0.7,0.4,1.2,0.4c0.3,0,0.6-0.1,0.9-0.2
		c0.3-0.1,0.5-0.2,0.7-0.4L28.8,107.7z M28.3,104.5c-0.2-0.3-0.4-0.6-0.7-0.7c-0.3-0.2-0.6-0.3-1-0.3c-0.3,0-0.6,0.1-0.8,0.2
		c-0.3,0.1-0.5,0.3-0.7,0.5s-0.3,0.4-0.5,0.7c-0.1,0.3-0.2,0.5-0.2,0.8c0,0.1,0,0.3,0,0.4c0.3-0.1,0.6-0.2,0.9-0.4
		c0.3-0.1,0.7-0.3,1-0.4c0.3-0.1,0.6-0.3,1-0.4C27.7,104.7,28,104.6,28.3,104.5z"/>
	<path class="st0" d="M33.6,104l-0.5-1.2h0.7c0.5,1,0.9,1.9,1.2,2.6c0.3,0.7,0.6,1.3,0.8,1.9c0.1-0.3,0.2-0.7,0.4-1s0.3-0.6,0.4-1
		c0.1-0.3,0.3-0.7,0.5-1.1c0.2-0.4,0.4-0.9,0.6-1.4h0.8l-2.6,5.9c-0.3-0.7-0.6-1.3-0.9-2c-0.3-0.7-0.6-1.3-0.9-2l-1.7,4
		c-0.4-1-0.9-2-1.3-3c-0.4-1-0.9-2-1.3-3h0.8c0.2,0.5,0.4,1,0.6,1.4c0.2,0.4,0.3,0.8,0.5,1.1c0.1,0.3,0.3,0.7,0.4,1
		c0.1,0.3,0.2,0.6,0.4,1c0.1-0.2,0.2-0.4,0.2-0.6c0.1-0.2,0.2-0.4,0.3-0.7c0.1-0.3,0.2-0.5,0.3-0.9S33.4,104.4,33.6,104z"/>
	<path class="st0" d="M50.3,107.7c-0.3,0.2-0.7,0.4-1.2,0.5s-1.1,0.3-1.7,0.3c-0.8,0-1.5-0.1-2.1-0.4c-0.6-0.3-1.1-0.6-1.6-1.1
		c-0.4-0.5-0.8-1-1-1.6s-0.4-1.3-0.4-1.9c0-0.7,0.1-1.4,0.4-2.1c0.3-0.6,0.6-1.2,1.1-1.6s1-0.8,1.6-1.1c0.6-0.3,1.3-0.4,2-0.4
		c0.3,0,0.5,0,0.8,0c0.3,0,0.5,0.1,0.7,0.1c0.2,0.1,0.4,0.1,0.6,0.2c0.2,0.1,0.4,0.2,0.5,0.3c0,0.1-0.1,0.1-0.1,0.2
		c0,0-0.1,0.1-0.1,0.1c0,0.1-0.1,0.1-0.1,0.2c0,0.1-0.1,0.1-0.1,0.3c-0.3-0.2-0.6-0.3-1-0.4c-0.4-0.1-0.8-0.1-1.1-0.1
		c-0.6,0-1.1,0.1-1.7,0.3c-0.5,0.2-1,0.5-1.3,0.9c-0.4,0.4-0.7,0.8-0.9,1.3s-0.3,1-0.3,1.6c0,0.5,0.1,1.1,0.3,1.6
		c0.2,0.5,0.5,0.9,0.8,1.3s0.8,0.7,1.3,0.9s1.1,0.3,1.7,0.3c0.3,0,0.5,0,0.8-0.1s0.5-0.1,0.7-0.2c0.2-0.1,0.4-0.1,0.6-0.2
		c0.2-0.1,0.3-0.1,0.4-0.2L50.3,107.7z"/>
	<path class="st0" d="M51.5,97.7h0.8v6.5c0.2-0.4,0.5-0.8,0.9-1.1s0.9-0.4,1.4-0.4c0.6,0,1,0.2,1.3,0.5c0.3,0.3,0.5,0.7,0.5,1.2v4
		h-0.8v-3.8c0-0.3-0.1-0.6-0.3-0.8c-0.2-0.2-0.5-0.3-0.9-0.4c-0.3,0-0.6,0-0.8,0.1c-0.3,0.1-0.5,0.2-0.7,0.4
		c-0.2,0.2-0.3,0.4-0.4,0.6c-0.1,0.2-0.2,0.5-0.2,0.8v3h-0.8V97.7z"/>
	<path class="st0" d="M58.1,100.8c0-0.2,0.1-0.3,0.2-0.4c0.1-0.1,0.2-0.2,0.4-0.2c0.1,0,0.3,0.1,0.4,0.2c0.1,0.1,0.2,0.2,0.2,0.4
		c0,0.2-0.1,0.3-0.2,0.4c-0.1,0.1-0.2,0.2-0.4,0.2c-0.1,0-0.3-0.1-0.4-0.2S58.1,101,58.1,100.8z M59,108.4h-0.8v-5.6H59V108.4z"/>
	<path class="st0" d="M61.7,108.4h-0.8V97.7h0.8V108.4z"/>
	<path class="st0" d="M63.2,105.6c0-0.4,0.1-0.8,0.2-1.2c0.1-0.4,0.4-0.7,0.6-0.9c0.3-0.3,0.6-0.5,0.9-0.6c0.3-0.1,0.7-0.2,1.1-0.2
		c0.3,0,0.6,0,0.8,0.1c0.2,0.1,0.5,0.2,0.7,0.3c0.2,0.1,0.4,0.3,0.5,0.4c0.1,0.2,0.2,0.3,0.3,0.5v-6.3h0.8v10.7h-0.8v-0.6
		c0-0.1,0-0.2,0-0.3c0-0.1,0-0.2,0-0.3c-0.2,0.3-0.5,0.6-0.9,0.9s-0.9,0.4-1.4,0.4c-0.4,0-0.8-0.1-1.2-0.2s-0.7-0.4-0.9-0.6
		c-0.3-0.3-0.4-0.6-0.6-0.9S63.2,106,63.2,105.6z M64,105.6c0,0.3,0.1,0.6,0.2,0.9c0.1,0.3,0.3,0.5,0.5,0.7c0.2,0.2,0.4,0.4,0.7,0.5
		c0.3,0.1,0.6,0.2,0.9,0.2s0.6-0.1,0.9-0.2c0.3-0.1,0.5-0.3,0.7-0.5c0.2-0.2,0.3-0.4,0.5-0.7c0.1-0.3,0.2-0.5,0.2-0.9
		c0-0.3-0.1-0.6-0.2-0.8c-0.1-0.3-0.3-0.5-0.5-0.7c-0.2-0.2-0.4-0.4-0.7-0.5c-0.3-0.1-0.6-0.2-0.9-0.2s-0.6,0.1-0.9,0.2
		c-0.3,0.1-0.5,0.3-0.7,0.5c-0.2,0.2-0.4,0.4-0.5,0.7C64.1,105,64,105.3,64,105.6z"/>
	<path class="st0" d="M75,108.4v-10h2.4c0.4,0,0.8,0.1,1.2,0.2c0.4,0.1,0.7,0.3,1,0.5c0.3,0.2,0.5,0.5,0.7,0.9s0.3,0.8,0.3,1.3
		c0,0.6-0.1,1.1-0.4,1.6s-0.7,0.9-1.2,1.2c0.1,0.1,0.2,0.3,0.3,0.6s0.3,0.5,0.5,0.8s0.3,0.6,0.5,0.9c0.2,0.3,0.4,0.6,0.5,0.9
		c0.2,0.3,0.3,0.5,0.5,0.7c0.1,0.2,0.3,0.4,0.3,0.5h-1.2c-0.1-0.1-0.2-0.3-0.3-0.5c-0.1-0.2-0.3-0.4-0.4-0.7
		c-0.2-0.2-0.3-0.5-0.5-0.8s-0.3-0.5-0.5-0.8c-0.2-0.3-0.3-0.5-0.5-0.7s-0.3-0.4-0.4-0.6c-0.1,0-0.2,0-0.3,0c-0.1,0-0.2,0-0.3,0
		h-1.5v4H75z M75.9,103.5h1.5c0.4,0,0.8-0.1,1.1-0.2s0.5-0.3,0.7-0.6c0.2-0.2,0.3-0.5,0.4-0.7c0.1-0.2,0.1-0.5,0.1-0.7
		c0-0.3,0-0.5-0.1-0.7c-0.1-0.2-0.2-0.5-0.4-0.7s-0.4-0.3-0.7-0.5c-0.3-0.1-0.6-0.2-1-0.2h-1.5V103.5z"/>
	<path class="st0" d="M87,107.7c-0.3,0.2-0.6,0.4-1,0.6c-0.4,0.1-0.7,0.2-1.1,0.2c-0.4,0-0.8-0.1-1.2-0.2c-0.4-0.2-0.7-0.4-0.9-0.6
		c-0.3-0.3-0.5-0.6-0.6-0.9S82,106,82,105.6s0.1-0.8,0.2-1.1c0.2-0.4,0.4-0.7,0.6-0.9c0.3-0.3,0.6-0.5,0.9-0.6
		c0.4-0.2,0.7-0.2,1.1-0.2c0.6,0,1.1,0.2,1.6,0.6c0.5,0.4,0.8,0.8,1,1.4c-0.3,0.1-0.7,0.3-1.1,0.4c-0.4,0.2-0.8,0.3-1.2,0.5
		c-0.4,0.2-0.8,0.3-1.2,0.5s-0.8,0.3-1.1,0.5c0.2,0.4,0.4,0.7,0.8,0.9c0.3,0.2,0.7,0.4,1.2,0.4c0.3,0,0.6-0.1,0.9-0.2
		c0.3-0.1,0.5-0.2,0.7-0.4L87,107.7z M86.5,104.5c-0.2-0.3-0.4-0.6-0.7-0.7c-0.3-0.2-0.6-0.3-1-0.3c-0.3,0-0.6,0.1-0.8,0.2
		c-0.3,0.1-0.5,0.3-0.7,0.5c-0.2,0.2-0.3,0.4-0.5,0.7c-0.1,0.3-0.2,0.5-0.2,0.8c0,0.1,0,0.3,0,0.4c0.3-0.1,0.6-0.2,0.9-0.4
		c0.3-0.1,0.7-0.3,1-0.4s0.6-0.3,1-0.4C86,104.7,86.2,104.6,86.5,104.5z"/>
	<path class="st0" d="M88.3,105.6c0-0.4,0.1-0.8,0.2-1.2c0.1-0.4,0.4-0.7,0.6-0.9c0.3-0.3,0.6-0.5,0.9-0.6c0.3-0.1,0.7-0.2,1.1-0.2
		c0.3,0,0.6,0,0.8,0.1c0.3,0.1,0.5,0.2,0.7,0.3s0.4,0.3,0.5,0.4s0.2,0.3,0.3,0.4c0-0.2,0-0.4,0-0.6c0-0.2,0-0.4,0-0.6h0.7v5.5
		c0,0.4-0.1,0.8-0.2,1.1s-0.3,0.6-0.5,0.9c-0.2,0.2-0.6,0.4-0.9,0.6c-0.4,0.1-0.8,0.2-1.3,0.2c-0.5,0-1-0.1-1.4-0.3
		c-0.4-0.2-0.8-0.5-1.2-0.9l0.5-0.5c0.4,0.4,0.7,0.6,1,0.7c0.3,0.1,0.7,0.2,1,0.2c0.4,0,0.7,0,1-0.1c0.3-0.1,0.5-0.2,0.7-0.4
		c0.2-0.2,0.3-0.4,0.4-0.6s0.1-0.5,0.1-0.8c0-0.1,0-0.1,0-0.2s0-0.2,0-0.3c0,0,0-0.1,0-0.1s0-0.1,0-0.2c0-0.1,0-0.1,0-0.2
		s0-0.1,0-0.1c-0.2,0.4-0.5,0.7-0.8,0.9s-0.9,0.4-1.4,0.4c-0.4,0-0.8-0.1-1.1-0.2c-0.4-0.1-0.7-0.4-0.9-0.6
		c-0.3-0.3-0.5-0.6-0.6-0.9C88.4,106.4,88.3,106,88.3,105.6z M89.1,105.6c0,0.3,0.1,0.6,0.2,0.9c0.1,0.3,0.3,0.5,0.5,0.7
		c0.2,0.2,0.4,0.4,0.7,0.5c0.3,0.1,0.6,0.2,0.9,0.2c0.3,0,0.6-0.1,0.9-0.2c0.3-0.1,0.5-0.3,0.7-0.5c0.2-0.2,0.3-0.4,0.5-0.7
		c0.1-0.3,0.2-0.5,0.2-0.9c0-0.3-0.1-0.6-0.2-0.8c-0.1-0.3-0.3-0.5-0.5-0.7c-0.2-0.2-0.4-0.4-0.7-0.5c-0.3-0.1-0.6-0.2-0.9-0.2
		c-0.3,0-0.6,0.1-0.9,0.2c-0.3,0.1-0.5,0.3-0.7,0.5s-0.3,0.4-0.5,0.7C89.2,105,89.1,105.3,89.1,105.6z"/>
	<path class="st0" d="M96,100.8c0-0.2,0.1-0.3,0.2-0.4c0.1-0.1,0.2-0.2,0.4-0.2c0.1,0,0.3,0.1,0.4,0.2c0.1,0.1,0.2,0.2,0.2,0.4
		c0,0.2-0.1,0.3-0.2,0.4c-0.1,0.1-0.2,0.2-0.4,0.2c-0.1,0-0.3-0.1-0.4-0.2C96.1,101.1,96,101,96,100.8z M96.9,108.4h-0.8v-5.6h0.8
		V108.4z"/>
	<path class="st0" d="M101.8,103.3l-0.4,0.5c-0.1-0.1-0.2-0.2-0.4-0.3s-0.4-0.1-0.7-0.1c-0.1,0-0.2,0-0.3,0c-0.1,0-0.2,0.1-0.3,0.1
		s-0.2,0.1-0.2,0.2c-0.1,0.1-0.1,0.2-0.1,0.4c0,0.2,0.1,0.4,0.2,0.5s0.3,0.2,0.5,0.3c0.2,0.1,0.4,0.2,0.6,0.3s0.4,0.2,0.6,0.3
		c0.2,0.1,0.4,0.3,0.5,0.5s0.2,0.4,0.2,0.7c0,0.5-0.2,0.9-0.5,1.2s-0.8,0.5-1.4,0.5c-0.3,0-0.6-0.1-1-0.2c-0.3-0.1-0.6-0.3-0.8-0.5
		c0,0,0.1-0.1,0.1-0.2c0.1-0.1,0.1-0.1,0.2-0.2c0-0.1,0.1-0.1,0.1-0.1c0,0,0.1-0.1,0.1-0.1c0,0,0.1,0.1,0.2,0.2
		c0.1,0.1,0.2,0.1,0.3,0.2c0.1,0.1,0.3,0.1,0.4,0.1c0.1,0,0.3,0.1,0.4,0.1c0.1,0,0.2,0,0.4,0c0.1,0,0.2-0.1,0.4-0.2
		c0.1-0.1,0.2-0.2,0.3-0.3s0.1-0.2,0.1-0.4c0-0.2-0.1-0.4-0.2-0.5c-0.1-0.1-0.3-0.2-0.5-0.3c-0.2-0.1-0.4-0.2-0.6-0.3
		s-0.4-0.2-0.6-0.3s-0.4-0.3-0.5-0.5c-0.1-0.2-0.2-0.4-0.2-0.8c0-0.3,0.1-0.5,0.2-0.7s0.2-0.3,0.4-0.5c0.2-0.1,0.3-0.2,0.5-0.3
		c0.2-0.1,0.4-0.1,0.6-0.1c0.2,0,0.5,0.1,0.8,0.2C101.3,103,101.6,103.1,101.8,103.3z"/>
	<path class="st0" d="M103.9,100.4h0.8v2.5h1.7v0.7h-1.7v4.8h-0.8v-4.8h-1.1v-0.7h1.1V100.4z"/>
	<path class="st0" d="M110.4,103.7c-0.3,0-0.5,0-0.8,0.1s-0.5,0.2-0.7,0.4c-0.2,0.2-0.4,0.4-0.5,0.6c-0.1,0.2-0.2,0.5-0.2,0.8v2.9
		h-0.8v-5.6h0.7l0.1,1.4c0.1-0.2,0.3-0.5,0.4-0.7s0.4-0.4,0.6-0.5c0.2-0.1,0.4-0.2,0.7-0.3c0.2-0.1,0.4-0.1,0.7-0.1L110.4,103.7z"/>
	<path class="st0" d="M111,105.6c0-0.4,0.1-0.8,0.2-1.1c0.2-0.4,0.4-0.7,0.6-0.9c0.3-0.3,0.6-0.5,0.9-0.6s0.7-0.2,1.1-0.2
		c0.3,0,0.5,0,0.8,0.1c0.2,0.1,0.5,0.2,0.7,0.3c0.2,0.1,0.4,0.3,0.5,0.4c0.1,0.2,0.2,0.3,0.3,0.5l0.1-1.2h0.7v5.6h-0.8v-0.6
		c0-0.1,0-0.2,0-0.3c0-0.1,0-0.2,0-0.3c-0.1,0.2-0.2,0.3-0.3,0.5c-0.1,0.1-0.3,0.3-0.5,0.4c-0.2,0.1-0.4,0.2-0.7,0.3
		c-0.2,0.1-0.5,0.1-0.8,0.1c-0.4,0-0.8-0.1-1.2-0.2s-0.7-0.4-0.9-0.6c-0.3-0.3-0.5-0.6-0.6-0.9C111.1,106.4,111,106,111,105.6z
		 M111.8,105.6c0,0.3,0.1,0.6,0.2,0.9c0.1,0.3,0.3,0.5,0.5,0.7c0.2,0.2,0.4,0.4,0.7,0.5c0.3,0.1,0.6,0.2,0.9,0.2s0.6-0.1,0.9-0.2
		c0.3-0.1,0.5-0.3,0.7-0.5c0.2-0.2,0.4-0.4,0.5-0.7c0.1-0.3,0.2-0.5,0.2-0.9c0-0.3-0.1-0.6-0.2-0.8c-0.1-0.3-0.3-0.5-0.5-0.7
		c-0.2-0.2-0.4-0.4-0.7-0.5c-0.3-0.1-0.6-0.2-0.9-0.2s-0.6,0.1-0.9,0.2c-0.3,0.1-0.5,0.3-0.7,0.5c-0.2,0.2-0.4,0.4-0.5,0.7
		C111.8,105,111.8,105.3,111.8,105.6z"/>
	<path class="st0" d="M119.3,100.4h0.8v2.5h1.7v0.7H120v4.8h-0.8v-4.8h-1.1v-0.7h1.1V100.4z"/>
	<path class="st0" d="M122.7,100.8c0-0.2,0.1-0.3,0.2-0.4c0.1-0.1,0.2-0.2,0.4-0.2c0.1,0,0.3,0.1,0.4,0.2c0.1,0.1,0.2,0.2,0.2,0.4
		c0,0.2-0.1,0.3-0.2,0.4c-0.1,0.1-0.2,0.2-0.4,0.2c-0.1,0-0.3-0.1-0.4-0.2C122.7,101.1,122.7,101,122.7,100.8z M123.6,108.4h-0.8
		v-5.6h0.8V108.4z"/>
	<path class="st0" d="M125.1,105.6c0-0.4,0.1-0.8,0.2-1.1c0.2-0.4,0.4-0.7,0.6-0.9c0.3-0.3,0.6-0.5,0.9-0.6c0.4-0.2,0.7-0.2,1.2-0.2
		c0.4,0,0.8,0.1,1.2,0.2c0.4,0.2,0.7,0.4,0.9,0.6s0.5,0.6,0.6,0.9c0.1,0.4,0.2,0.7,0.2,1.1s-0.1,0.8-0.2,1.1s-0.4,0.7-0.6,0.9
		c-0.3,0.3-0.6,0.5-0.9,0.6c-0.4,0.2-0.7,0.2-1.2,0.2c-0.4,0-0.8-0.1-1.1-0.2c-0.4-0.1-0.7-0.3-0.9-0.6c-0.3-0.3-0.5-0.6-0.6-0.9
		C125.2,106.4,125.1,106,125.1,105.6z M125.9,105.6c0,0.3,0.1,0.6,0.2,0.8c0.1,0.3,0.3,0.5,0.5,0.7c0.2,0.2,0.4,0.4,0.7,0.5
		c0.3,0.1,0.5,0.2,0.8,0.2c0.3,0,0.6-0.1,0.8-0.2c0.3-0.1,0.5-0.3,0.7-0.5c0.2-0.2,0.4-0.4,0.5-0.7c0.1-0.3,0.2-0.5,0.2-0.8
		s-0.1-0.6-0.2-0.8c-0.1-0.3-0.3-0.5-0.5-0.7c-0.2-0.2-0.4-0.4-0.7-0.5c-0.3-0.1-0.5-0.2-0.8-0.2c-0.3,0-0.6,0.1-0.8,0.2
		c-0.3,0.1-0.5,0.3-0.7,0.5c-0.2,0.2-0.4,0.4-0.5,0.7C125.9,105,125.9,105.3,125.9,105.6z"/>
	<path class="st0" d="M132.5,102.8h0.7l0.1,1.4c0.2-0.5,0.5-0.8,0.9-1.1s0.9-0.4,1.4-0.4c0.6,0,1,0.2,1.3,0.5
		c0.3,0.3,0.5,0.7,0.5,1.2v4h-0.8v-3.8c0-0.3-0.1-0.6-0.3-0.8c-0.2-0.2-0.5-0.3-0.9-0.4c-0.3,0-0.6,0-0.8,0.1
		c-0.3,0.1-0.5,0.2-0.7,0.4c-0.2,0.2-0.3,0.4-0.4,0.6c-0.1,0.2-0.2,0.5-0.2,0.8v3h-0.8V102.8z"/>
	<path class="st0" d="M53.6,121.1c0-0.7,0.1-1.4,0.2-2s0.3-1.2,0.5-1.8c0.2-0.6,0.5-1,0.7-1.5c0.3-0.4,0.6-0.8,0.9-1.1l0.7,0.3
		c-0.3,0.3-0.5,0.7-0.8,1.1c-0.3,0.4-0.5,0.9-0.7,1.4c-0.2,0.5-0.4,1.1-0.5,1.7c-0.1,0.6-0.2,1.2-0.2,1.9s0.1,1.3,0.2,1.9
		c0.1,0.6,0.3,1.2,0.5,1.7c0.2,0.5,0.4,1,0.7,1.4s0.5,0.8,0.8,1.1l-0.7,0.3c-0.3-0.3-0.6-0.7-0.9-1.1s-0.5-0.9-0.7-1.5
		c-0.2-0.5-0.4-1.1-0.5-1.8S53.6,121.8,53.6,121.1z"/>
	<path class="st0" d="M65.1,124.5c-0.3,0.2-0.7,0.4-1.2,0.5c-0.5,0.2-1.1,0.3-1.7,0.3c-0.8,0-1.5-0.1-2.1-0.4
		c-0.6-0.3-1.1-0.6-1.6-1.1c-0.4-0.5-0.8-1-1-1.6s-0.4-1.3-0.4-1.9c0-0.7,0.1-1.4,0.4-2.1c0.3-0.6,0.6-1.2,1.1-1.6s1-0.8,1.6-1.1
		c0.6-0.3,1.3-0.4,2-0.4c0.3,0,0.5,0,0.8,0c0.3,0,0.5,0.1,0.7,0.1c0.2,0.1,0.4,0.1,0.6,0.2c0.2,0.1,0.4,0.2,0.5,0.3
		c0,0.1-0.1,0.1-0.1,0.2c0,0-0.1,0.1-0.1,0.1c0,0.1-0.1,0.1-0.1,0.2c0,0.1-0.1,0.1-0.1,0.3c-0.3-0.2-0.6-0.3-1-0.4
		c-0.4-0.1-0.8-0.1-1.1-0.1c-0.6,0-1.1,0.1-1.7,0.3c-0.5,0.2-1,0.5-1.3,0.9c-0.4,0.4-0.7,0.8-0.9,1.3s-0.3,1-0.3,1.6
		c0,0.5,0.1,1.1,0.3,1.6c0.2,0.5,0.5,0.9,0.8,1.3s0.8,0.7,1.3,0.9s1.1,0.3,1.7,0.3c0.3,0,0.5,0,0.8-0.1s0.5-0.1,0.7-0.2
		c0.2-0.1,0.4-0.1,0.6-0.2c0.2-0.1,0.3-0.1,0.4-0.2L65.1,124.5z"/>
	<path class="st0" d="M75.4,115.2v10.5c-0.3-0.3-0.6-0.7-1-1.2c-0.4-0.5-0.8-0.9-1.3-1.4c-0.5-0.5-0.9-1-1.4-1.6
		c-0.5-0.5-1-1.1-1.4-1.6c-0.5-0.5-0.9-1-1.3-1.4c-0.4-0.4-0.7-0.8-0.9-1.2c0,0-0.1-0.1-0.1-0.2c-0.1-0.1-0.1-0.1-0.2-0.2l0,0.4v7.8
		h-1v-10.5c0.3,0.3,0.6,0.7,1,1.2c0.4,0.4,0.8,0.9,1.3,1.4c0.5,0.5,0.9,1,1.4,1.6c0.5,0.5,1,1,1.4,1.5c0.5,0.5,0.9,1,1.3,1.4
		c0.4,0.4,0.7,0.8,1,1.2c0,0,0.1,0.1,0.1,0.2c0.1,0.1,0.1,0.1,0.2,0.2l0-0.5v-7.7H75.4z"/>
	<path class="st0" d="M85.5,124.5c-0.3,0.2-0.7,0.4-1.2,0.5s-1.1,0.3-1.7,0.3c-0.8,0-1.5-0.1-2.1-0.4c-0.6-0.3-1.1-0.6-1.6-1.1
		c-0.4-0.5-0.8-1-1-1.6c-0.2-0.6-0.4-1.3-0.4-1.9c0-0.7,0.1-1.4,0.4-2.1c0.3-0.6,0.6-1.2,1.1-1.6s1-0.8,1.6-1.1
		c0.6-0.3,1.3-0.4,2-0.4c0.3,0,0.5,0,0.8,0c0.3,0,0.5,0.1,0.7,0.1c0.2,0.1,0.4,0.1,0.6,0.2c0.2,0.1,0.4,0.2,0.5,0.3
		c0,0.1-0.1,0.1-0.1,0.2c0,0-0.1,0.1-0.1,0.1c0,0.1-0.1,0.1-0.1,0.2c0,0.1-0.1,0.1-0.1,0.3c-0.3-0.2-0.6-0.3-1-0.4
		c-0.4-0.1-0.8-0.1-1.1-0.1c-0.6,0-1.1,0.1-1.7,0.3s-1,0.5-1.3,0.9c-0.4,0.4-0.7,0.8-0.9,1.3c-0.2,0.5-0.3,1-0.3,1.6
		c0,0.5,0.1,1.1,0.3,1.6c0.2,0.5,0.5,0.9,0.8,1.3c0.4,0.4,0.8,0.7,1.3,0.9s1.1,0.3,1.7,0.3c0.3,0,0.5,0,0.8-0.1s0.5-0.1,0.7-0.2
		c0.2-0.1,0.4-0.1,0.6-0.2c0.2-0.1,0.3-0.1,0.4-0.2L85.5,124.5z"/>
	<path class="st0" d="M87.3,125.2v-10h2.4c0.4,0,0.8,0.1,1.2,0.2c0.4,0.1,0.7,0.3,1,0.5c0.3,0.2,0.5,0.5,0.7,0.9
		c0.2,0.4,0.3,0.8,0.3,1.3c0,0.4-0.1,0.8-0.2,1.1c-0.1,0.4-0.3,0.7-0.6,1c-0.3,0.3-0.6,0.5-1,0.7c-0.4,0.2-0.9,0.3-1.5,0.3h-1.5v4
		H87.3z M88.3,120.3h1.5c0.4,0,0.8-0.1,1.1-0.2s0.5-0.3,0.7-0.5c0.2-0.2,0.3-0.5,0.4-0.7s0.1-0.5,0.1-0.7c0-0.3,0-0.5-0.1-0.7
		c-0.1-0.2-0.2-0.5-0.4-0.7c-0.2-0.2-0.4-0.3-0.7-0.5c-0.3-0.1-0.6-0.2-1-0.2h-1.5V120.3z"/>
	<path class="st0" d="M96.9,121.1c0,0.7-0.1,1.4-0.2,2c-0.1,0.6-0.3,1.2-0.5,1.8c-0.2,0.5-0.5,1-0.7,1.5c-0.3,0.4-0.6,0.8-0.9,1.1
		c-0.1-0.1-0.2-0.1-0.3-0.2c-0.1-0.1-0.2-0.1-0.3-0.1c0.3-0.3,0.5-0.7,0.8-1.1c0.3-0.4,0.5-0.9,0.7-1.4c0.2-0.5,0.4-1.1,0.5-1.7
		c0.1-0.6,0.2-1.2,0.2-1.9c0-0.7-0.1-1.3-0.2-1.9c-0.1-0.6-0.3-1.2-0.5-1.7c-0.2-0.5-0.4-1-0.7-1.4c-0.3-0.4-0.5-0.8-0.8-1.1
		c0.1-0.1,0.2-0.1,0.3-0.2c0.1-0.1,0.2-0.1,0.3-0.2c0.3,0.3,0.6,0.7,0.9,1.1c0.3,0.4,0.5,0.9,0.7,1.5c0.2,0.6,0.4,1.1,0.5,1.8
		C96.8,119.8,96.9,120.4,96.9,121.1z"/>
</g>
<g>
	<g>
		<g>
			<path class="st0" d="M57.2,72.8c-8.6,0-15.7-9.1-15.7-20.4s7-20.4,15.7-20.4c8.6,0,15.7,9.1,15.7,20.4S65.9,72.8,57.2,72.8z
				 M57.2,33.1c-8.1,0-14.7,8.7-14.7,19.4s6.6,19.4,14.7,19.4s14.7-8.7,14.7-19.4S65.3,33.1,57.2,33.1z"/>
		</g>
		<g>
			<path class="st0" d="M72.4,55.5v-1c1.5,0,2.8-1.3,2.8-2.8c0-1.5-1.3-2.8-2.8-2.8v-1c2.1,0,3.8,1.7,3.8,3.8S74.5,55.5,72.4,55.5z"
				/>
		</g>
		<g>
			<path class="st0" d="M42.1,55.5c-2.1,0-3.8-1.7-3.8-3.8s1.7-3.8,3.8-3.8v1c-1.5,0-2.8,1.3-2.8,2.8c0,1.5,1.3,2.8,2.8,2.8V55.5z"
				/>
		</g>
		<g>
			<path class="st0" d="M55.1,51.4c-0.7,0-1.2-0.6-1.2-1.2c0-0.7,0.6-1.2,1.2-1.2s1.2,0.6,1.2,1.2C56.3,50.8,55.7,51.4,55.1,51.4z
				 M55.1,49.9c-0.1,0-0.2,0.1-0.2,0.2c0,0.3,0.5,0.3,0.5,0C55.3,50,55.2,49.9,55.1,49.9z"/>
		</g>
		<g>
			<path class="st0" d="M59.2,51.4c-0.7,0-1.2-0.6-1.2-1.2c0-0.7,0.6-1.2,1.2-1.2s1.2,0.6,1.2,1.2C60.4,50.8,59.9,51.4,59.2,51.4z
				 M59.2,49.9c-0.1,0-0.2,0.1-0.2,0.2c0,0.3,0.5,0.3,0.5,0C59.4,50,59.3,49.9,59.2,49.9z"/>
		</g>
		<g>
			<path class="st0" d="M57,64.4c-5.2,0-9.3-4.5-9.3-10.1h1c0,5,3.7,9.1,8.3,9.1s8.3-4.1,8.3-9.1h1C66.4,59.9,62.2,64.4,57,64.4z"/>
		</g>
		<g>
			<path class="st0" d="M42.8,47.3l-0.2-1C50.2,45,62.4,38,62.5,38l0.4-0.2l0.3,0.3c0,0,4,4.7,8,5.6l-0.2,1
				c-3.8-0.9-7.3-4.6-8.3-5.7C60.5,40.2,49.9,46.1,42.8,47.3z"/>
		</g>
	</g>
	<g>
		<g>
			<path class="st0" d="M95.6,73.4c-7,0-12.8-8.9-12.8-19.7S88.6,34,95.6,34c7,0,12.8,8.9,12.8,19.7S102.7,73.4,95.6,73.4z M95.6,35
				c-6.5,0-11.8,8.4-11.8,18.7s5.3,18.7,11.8,18.7s11.8-8.4,11.8-18.7S102.1,35,95.6,35z"/>
		</g>
		<g>
			<path class="st0" d="M107.9,57.4v-1c1.5,0,2.8-1.3,2.8-2.8s-1.3-2.8-2.8-2.8v-1c2.1,0,3.8,1.7,3.8,3.8S110,57.4,107.9,57.4z"/>
		</g>
		<g>
			<path class="st0" d="M83.4,57.4c-2.1,0-3.8-1.7-3.8-3.8s1.7-3.8,3.8-3.8v1c-1.5,0-2.8,1.3-2.8,2.8s1.3,2.8,2.8,2.8V57.4z"/>
		</g>
		<g>
			<path class="st0" d="M97.6,53.8c-1,0-1.9-0.8-1.9-1.9s0.8-1.9,1.9-1.9s1.9,0.8,1.9,1.9S98.6,53.8,97.6,53.8z M97.6,51.1
				c-0.5,0-0.9,0.4-0.9,0.9s0.4,0.9,0.9,0.9c0.5,0,0.9-0.4,0.9-0.9S98,51.1,97.6,51.1z"/>
		</g>
		<g>
			<path class="st0" d="M93.4,53.9c-1.1,0-1.9-0.9-1.9-1.9s0.9-1.9,1.9-1.9s1.9,0.9,1.9,1.9S94.5,53.9,93.4,53.9z M93.4,51.1
				c-0.5,0-0.9,0.4-0.9,0.9s0.4,0.9,0.9,0.9s0.9-0.4,0.9-0.9S93.9,51.1,93.4,51.1z"/>
		</g>
		<g>
			<path class="st0" d="M95.4,66.3c-5.2,0-9.3-4.5-9.3-10.1h1c0,5,3.7,9.1,8.3,9.1s8.3-4.1,8.3-9.1h1
				C104.8,61.7,100.6,66.3,95.4,66.3z"/>
		</g>
		<g>
			<path class="st0" d="M84,49.2l-0.2-1c6.1-1.3,15.9-8.3,16-8.3l0.4-0.3l0.3,0.4c0,0,3.2,4.7,6.4,5.6l-0.3,1
				c-3-0.9-5.8-4.4-6.7-5.6C98,42.3,89.6,47.9,84,49.2z"/>
		</g>
		<g>
			<path class="st0" d="M104.3,39.9l-0.7-0.7c0.9-0.9,1.4-2.1,1.4-3.4c0-2.6-2.1-4.8-4.8-4.8c-2.1,0-4,1.4-4.6,3.5l-1-0.3
				c0.7-2.5,3-4.2,5.5-4.2c3.2,0,5.8,2.6,5.8,5.8C106,37.4,105.4,38.8,104.3,39.9z"/>
		</g>
	</g>
</g>
</svg>
