<?xml version="1.0" encoding="utf-8"?>
<!-- Generator: Adobe Illustrator 21.0.0, SVG Export Plug-In . SVG Version: 6.00 Build 0)  -->
<svg version="1.1" id="Icons" xmlns="http://www.w3.org/2000/svg" xmlns:xlink="http://www.w3.org/1999/xlink" x="0px" y="0px"
	 viewBox="0 0 150 150" style="enable-background:new 0 0 150 150;" xml:space="preserve">
<style type="text/css">
	.st0{fill:#FFFFFF;}
	.st1{fill:#396D5D;}
	.st2{fill:#333A3B;}
	.st3{fill:#394142;}
</style>
<rect id="bg" x="-1616" y="-108.2" class="st0" width="1827.2" height="549.1"/>
<rect id="green_x5F_bg" x="-646.8" y="-108.2" class="st1" width="858" height="549.1"/>
<g id="Indiviual_x5F_Green">
	<g id="individual_x5F_care_x5F_report_x5F_grp_1_">
		<g id="social_x5F_background_x5F_report_x5F_icon_x5F_grp_2_">
			<g>
				<path class="st0" d="M95.5,83.1H53.4V23.2h33.5l-0.5,9.3l9.2-1.7V83.1z M54.4,82.1h40.2V32.1l-9.3,1.7l0.6-9.6H54.4V82.1z"/>
			</g>
			<g>
				<g>
					<rect x="59.8" y="70.5" class="st0" width="29.9" height="1"/>
				</g>
				<g>
					<rect x="59.8" y="74.1" class="st0" width="29.9" height="1"/>
				</g>
				<g>
					<rect x="59.8" y="66.9" class="st0" width="29.9" height="1"/>
				</g>
			</g>
		</g>
		<g>
			<g>
				<path class="st0" d="M74.4,59.4c-5.1,0-9.3-4.2-9.3-9.3c0-5.1,4.2-9.3,9.3-9.3s9.3,4.2,9.3,9.3C83.7,55.2,79.5,59.4,74.4,59.4z
					 M74.4,41.9c-4.5,0-8.3,3.7-8.3,8.3s3.7,8.3,8.3,8.3s8.3-3.7,8.3-8.3S79,41.9,74.4,41.9z"/>
			</g>
			<g>
				<path class="st0" d="M83.2,52.1v-1c0.8,0,1.4-0.6,1.4-1.4c0-0.8-0.6-1.4-1.4-1.4v-1c1.3,0,2.4,1.1,2.4,2.4
					C85.6,51,84.5,52.1,83.2,52.1z"/>
			</g>
			<g>
				<path class="st0" d="M65.7,52.1c-1.3,0-2.4-1.1-2.4-2.4c0-1.3,1.1-2.4,2.4-2.4v1c-0.8,0-1.4,0.6-1.4,1.4c0,0.8,0.6,1.4,1.4,1.4
					V52.1z"/>
			</g>
			<g>
				<path class="st0" d="M73.2,49.7c-0.5,0-0.9-0.4-0.9-0.9s0.4-0.9,0.9-0.9c0.5,0,0.9,0.4,0.9,0.9S73.7,49.7,73.2,49.7z M73.2,48.7
					C73.1,48.7,73.1,48.7,73.2,48.7C73.1,48.9,73.2,48.9,73.2,48.7C73.2,48.7,73.2,48.7,73.2,48.7z"/>
			</g>
			<g>
				<path class="st0" d="M75.5,49.7c-0.5,0-0.9-0.4-0.9-0.9s0.4-0.9,0.9-0.9s0.9,0.4,0.9,0.9S76,49.7,75.5,49.7z M75.5,48.7
					C75.5,48.7,75.5,48.7,75.5,48.7C75.5,48.9,75.6,48.9,75.5,48.7C75.6,48.7,75.6,48.7,75.5,48.7z"/>
			</g>
			<g>
				<path class="st0" d="M74.3,55.9c-3.1,0-5.6-2.1-5.6-4.7h1c0,2,2.1,3.7,4.6,3.7s4.6-1.7,4.6-3.7h1C79.9,53.8,77.4,55.9,74.3,55.9
					z"/>
			</g>
			<g>
				<g>
					<path class="st0" d="M79.3,48.8C79.3,48.8,79.3,48.8,79.3,48.8c-0.5,0-1-0.2-1.4-0.6l-2.7-2.8c-0.7-0.8-0.7-2,0-2.7
						c0.8-0.7,2-0.7,2.7,0l2.7,2.8c0.4,0.4,0.6,0.8,0.5,1.4c0,0.5-0.2,1-0.6,1.3C80.3,48.6,79.8,48.8,79.3,48.8z M76.6,43.2
						c-0.2,0-0.5,0.1-0.6,0.3c-0.4,0.4-0.4,0.9,0,1.3l2.7,2.8c0.2,0.2,0.4,0.3,0.6,0.3c0,0,0,0,0,0c0.2,0,0.5-0.1,0.6-0.3l0,0
						c0.2-0.2,0.3-0.4,0.3-0.6c0-0.2-0.1-0.5-0.3-0.6l-2.7-2.8C77,43.3,76.8,43.2,76.6,43.2z"/>
				</g>
				<g>
					<path class="st0" d="M77.8,48.1l-2.5-2.5l2.7-2.7l2.5,2.5L77.8,48.1z M76.8,45.6l1.1,1.1l1.3-1.3l-1.1-1.1L76.8,45.6z"/>
				</g>
			</g>
		</g>
	</g>
	<g>
		<path class="st0" d="M31.2,97.9h1v10.7h-1V97.9z"/>
		<path class="st0" d="M34.7,102.6h0.7l0.1,1.5c0.2-0.5,0.5-0.9,1-1.2s0.9-0.5,1.5-0.5c0.6,0,1.1,0.2,1.4,0.5s0.5,0.8,0.5,1.3v4.3
			h-0.8v-4c0-0.3-0.1-0.6-0.4-0.9c-0.2-0.2-0.5-0.4-1-0.4c-0.3,0-0.6,0.1-0.9,0.2c-0.3,0.1-0.5,0.3-0.7,0.4
			c-0.2,0.2-0.4,0.4-0.5,0.7c-0.1,0.3-0.2,0.5-0.2,0.9v3.2h-0.8V102.6z"/>
		<path class="st0" d="M41.5,105.6c0-0.5,0.1-0.9,0.2-1.3c0.2-0.4,0.4-0.7,0.7-1c0.3-0.3,0.6-0.5,1-0.7c0.4-0.2,0.8-0.2,1.2-0.2
			c0.3,0,0.6,0,0.9,0.1s0.5,0.2,0.7,0.3s0.4,0.3,0.5,0.5c0.1,0.2,0.3,0.3,0.3,0.5v-6.8h0.8v11.5H47V108c0-0.1,0-0.2,0-0.3
			s0-0.2,0-0.3c-0.2,0.4-0.5,0.7-0.9,1c-0.4,0.3-0.9,0.4-1.5,0.4c-0.5,0-0.9-0.1-1.3-0.2s-0.7-0.4-1-0.7c-0.3-0.3-0.5-0.6-0.6-1
			C41.6,106.5,41.5,106.1,41.5,105.6z M42.3,105.6c0,0.3,0.1,0.6,0.2,0.9c0.1,0.3,0.3,0.5,0.5,0.7s0.5,0.4,0.7,0.5s0.6,0.2,0.9,0.2
			s0.6-0.1,0.9-0.2s0.5-0.3,0.7-0.5s0.4-0.5,0.5-0.7c0.1-0.3,0.2-0.6,0.2-0.9c0-0.3-0.1-0.6-0.2-0.9s-0.3-0.5-0.5-0.7
			s-0.5-0.4-0.7-0.5c-0.3-0.1-0.6-0.2-0.9-0.2s-0.6,0.1-0.9,0.2c-0.3,0.1-0.5,0.3-0.7,0.5s-0.4,0.4-0.5,0.7
			C42.4,105,42.3,105.3,42.3,105.6z"/>
		<path class="st0" d="M49.7,100.5c0-0.2,0.1-0.3,0.2-0.4s0.3-0.2,0.4-0.2c0.1,0,0.3,0.1,0.4,0.2s0.2,0.3,0.2,0.4
			c0,0.2-0.1,0.3-0.2,0.4c-0.1,0.1-0.3,0.2-0.4,0.2c-0.2,0-0.3-0.1-0.4-0.2C49.7,100.8,49.7,100.6,49.7,100.5z M50.7,108.6h-0.8v-6
			h0.8V108.6z"/>
		<path class="st0" d="M54.9,109c-0.3-0.5-0.5-1.1-0.8-1.6c-0.3-0.5-0.5-1.1-0.7-1.6c-0.2-0.5-0.5-1.1-0.7-1.6
			c-0.2-0.5-0.5-1.1-0.8-1.6h0.9c0.3,0.6,0.6,1.1,0.8,1.6c0.2,0.5,0.4,0.9,0.5,1.2c0.2,0.4,0.3,0.7,0.4,1c0.1,0.3,0.3,0.6,0.4,1
			c0.1-0.3,0.3-0.6,0.4-1c0.1-0.3,0.3-0.7,0.4-1s0.3-0.8,0.5-1.2c0.2-0.5,0.5-1,0.8-1.6h0.9c-0.5,1.1-1,2.1-1.5,3.2
			C56,106.9,55.5,107.9,54.9,109z"/>
		<path class="st0" d="M58.9,100.5c0-0.2,0.1-0.3,0.2-0.4s0.3-0.2,0.4-0.2c0.1,0,0.3,0.1,0.4,0.2s0.2,0.3,0.2,0.4
			c0,0.2-0.1,0.3-0.2,0.4c-0.1,0.1-0.3,0.2-0.4,0.2c-0.2,0-0.3-0.1-0.4-0.2C59,100.8,58.9,100.6,58.9,100.5z M60,108.6h-0.8v-6H60
			V108.6z"/>
		<path class="st0" d="M61.6,105.6c0-0.5,0.1-0.9,0.2-1.3c0.2-0.4,0.4-0.7,0.7-1c0.3-0.3,0.6-0.5,1-0.7c0.4-0.2,0.8-0.2,1.2-0.2
			c0.3,0,0.6,0,0.9,0.1s0.5,0.2,0.7,0.3c0.2,0.1,0.4,0.3,0.5,0.5c0.1,0.2,0.3,0.3,0.3,0.5v-6.8h0.8v11.5h-0.8V108c0-0.1,0-0.2,0-0.3
			s0-0.2,0-0.3c-0.2,0.4-0.5,0.7-0.9,1c-0.4,0.3-0.9,0.4-1.5,0.4c-0.5,0-0.9-0.1-1.3-0.2s-0.7-0.4-1-0.7c-0.3-0.3-0.5-0.6-0.6-1
			C61.6,106.5,61.6,106.1,61.6,105.6z M62.4,105.6c0,0.3,0.1,0.6,0.2,0.9c0.1,0.3,0.3,0.5,0.5,0.7s0.5,0.4,0.7,0.5s0.6,0.2,0.9,0.2
			s0.6-0.1,0.9-0.2s0.5-0.3,0.7-0.5s0.4-0.5,0.5-0.7c0.1-0.3,0.2-0.6,0.2-0.9c0-0.3-0.1-0.6-0.2-0.9s-0.3-0.5-0.5-0.7
			s-0.5-0.4-0.7-0.5c-0.3-0.1-0.6-0.2-0.9-0.2s-0.6,0.1-0.9,0.2c-0.3,0.1-0.5,0.3-0.7,0.5s-0.4,0.4-0.5,0.7
			C62.5,105,62.4,105.3,62.4,105.6z"/>
		<path class="st0" d="M75.1,108.7h-0.7l-0.1-1.6c-0.2,0.5-0.5,0.9-1,1.2c-0.4,0.3-1,0.5-1.6,0.5c-0.6,0-1.1-0.2-1.4-0.5
			c-0.3-0.3-0.5-0.8-0.5-1.3v-4.3h0.8v4c0,0.3,0.1,0.6,0.4,0.9c0.2,0.2,0.6,0.4,1,0.4c0.3,0,0.6-0.1,0.9-0.2
			c0.3-0.1,0.5-0.3,0.7-0.4c0.2-0.2,0.4-0.4,0.5-0.7c0.1-0.3,0.2-0.5,0.2-0.9v-3.2h0.8V108.7z"/>
		<path class="st0" d="M76.8,105.7c0-0.4,0.1-0.8,0.2-1.2c0.2-0.4,0.4-0.7,0.7-1s0.6-0.5,1-0.7s0.8-0.2,1.2-0.2c0.3,0,0.6,0,0.8,0.1
			c0.3,0.1,0.5,0.2,0.7,0.3c0.2,0.1,0.4,0.3,0.5,0.5c0.1,0.2,0.2,0.3,0.3,0.5l0.1-1.2h0.8v6h-0.8V108c0-0.1,0-0.2,0-0.3
			c0-0.1,0-0.2,0-0.3c-0.1,0.2-0.2,0.3-0.3,0.5c-0.1,0.2-0.3,0.3-0.5,0.4s-0.4,0.2-0.7,0.3c-0.3,0.1-0.5,0.1-0.9,0.1
			c-0.5,0-0.9-0.1-1.3-0.2c-0.4-0.2-0.7-0.4-1-0.7c-0.3-0.3-0.5-0.6-0.7-1C76.8,106.5,76.8,106.1,76.8,105.7z M77.6,105.6
			c0,0.3,0.1,0.6,0.2,0.9c0.1,0.3,0.3,0.5,0.5,0.7s0.5,0.4,0.7,0.5c0.3,0.1,0.6,0.2,0.9,0.2s0.6-0.1,0.9-0.2
			c0.3-0.1,0.5-0.3,0.7-0.5s0.4-0.5,0.5-0.7c0.1-0.3,0.2-0.6,0.2-0.9c0-0.3-0.1-0.6-0.2-0.9s-0.3-0.5-0.5-0.7s-0.5-0.4-0.7-0.5
			c-0.3-0.1-0.6-0.2-0.9-0.2s-0.6,0.1-0.9,0.2c-0.3,0.1-0.5,0.3-0.7,0.5s-0.4,0.4-0.5,0.7C77.6,105,77.6,105.3,77.6,105.6z"/>
		<path class="st0" d="M86,108.6h-0.8V97.1H86V108.6z"/>
		<path class="st0" d="M100,107.9c-0.3,0.2-0.7,0.4-1.3,0.6c-0.5,0.2-1.1,0.3-1.8,0.3c-0.8,0-1.6-0.1-2.2-0.4
			c-0.7-0.3-1.2-0.7-1.7-1.2c-0.5-0.5-0.8-1.1-1.1-1.7s-0.4-1.3-0.4-2.1c0-0.8,0.1-1.5,0.4-2.2c0.3-0.7,0.7-1.3,1.2-1.8
			c0.5-0.5,1.1-0.9,1.8-1.2c0.7-0.3,1.4-0.4,2.1-0.4c0.3,0,0.5,0,0.8,0.1c0.3,0,0.5,0.1,0.8,0.2c0.3,0.1,0.5,0.2,0.7,0.2
			s0.4,0.2,0.5,0.3c-0.1,0.1-0.1,0.1-0.1,0.2c0,0-0.1,0.1-0.1,0.2c0,0.1-0.1,0.1-0.1,0.2c0,0.1-0.1,0.2-0.2,0.3
			c-0.3-0.2-0.7-0.4-1.1-0.5c-0.4-0.1-0.8-0.2-1.2-0.2c-0.6,0-1.2,0.1-1.8,0.4c-0.6,0.2-1,0.6-1.4,1s-0.7,0.9-1,1.4
			c-0.2,0.5-0.4,1.1-0.4,1.7c0,0.6,0.1,1.1,0.3,1.7s0.5,1,0.9,1.4s0.9,0.7,1.4,1c0.5,0.2,1.1,0.4,1.8,0.4c0.3,0,0.6,0,0.8-0.1
			c0.3,0,0.5-0.1,0.8-0.2c0.2-0.1,0.4-0.2,0.6-0.2s0.3-0.2,0.4-0.2L100,107.9z"/>
		<path class="st0" d="M100.7,105.7c0-0.4,0.1-0.8,0.2-1.2c0.2-0.4,0.4-0.7,0.7-1s0.6-0.5,1-0.7s0.8-0.2,1.2-0.2
			c0.3,0,0.6,0,0.8,0.1c0.3,0.1,0.5,0.2,0.7,0.3c0.2,0.1,0.4,0.3,0.5,0.5c0.1,0.2,0.2,0.3,0.3,0.5l0.1-1.2h0.8v6h-0.8V108
			c0-0.1,0-0.2,0-0.3c0-0.1,0-0.2,0-0.3c-0.1,0.2-0.2,0.3-0.3,0.5c-0.1,0.2-0.3,0.3-0.5,0.4s-0.4,0.2-0.7,0.3
			c-0.3,0.1-0.5,0.1-0.9,0.1c-0.5,0-0.9-0.1-1.3-0.2c-0.4-0.2-0.7-0.4-1-0.7c-0.3-0.3-0.5-0.6-0.7-1
			C100.8,106.5,100.7,106.1,100.7,105.7z M101.5,105.6c0,0.3,0.1,0.6,0.2,0.9c0.1,0.3,0.3,0.5,0.5,0.7s0.5,0.4,0.7,0.5
			c0.3,0.1,0.6,0.2,0.9,0.2s0.6-0.1,0.9-0.2c0.3-0.1,0.5-0.3,0.7-0.5s0.4-0.5,0.5-0.7c0.1-0.3,0.2-0.6,0.2-0.9
			c0-0.3-0.1-0.6-0.2-0.9s-0.3-0.5-0.5-0.7s-0.5-0.4-0.7-0.5c-0.3-0.1-0.6-0.2-0.9-0.2s-0.6,0.1-0.9,0.2c-0.3,0.1-0.5,0.3-0.7,0.5
			s-0.4,0.4-0.5,0.7C101.6,105,101.5,105.3,101.5,105.6z"/>
		<path class="st0" d="M112.2,103.5c-0.3,0-0.6,0-0.9,0.1c-0.3,0.1-0.5,0.2-0.7,0.4s-0.4,0.4-0.5,0.6c-0.1,0.2-0.2,0.5-0.2,0.8v3.1
			h-0.8v-6h0.7l0.1,1.5c0.1-0.3,0.3-0.5,0.5-0.7c0.2-0.2,0.4-0.4,0.6-0.5c0.2-0.1,0.5-0.3,0.7-0.3s0.5-0.1,0.7-0.1L112.2,103.5z"/>
		<path class="st0" d="M118.2,107.9c-0.3,0.3-0.6,0.5-1,0.6c-0.4,0.2-0.8,0.2-1.2,0.2c-0.4,0-0.9-0.1-1.2-0.2
			c-0.4-0.2-0.7-0.4-1-0.7s-0.5-0.6-0.7-1c-0.2-0.4-0.2-0.8-0.2-1.2s0.1-0.8,0.2-1.2c0.2-0.4,0.4-0.7,0.7-1s0.6-0.5,1-0.7
			s0.8-0.2,1.2-0.2c0.7,0,1.2,0.2,1.7,0.6c0.5,0.4,0.8,0.9,1.1,1.5c-0.3,0.1-0.7,0.3-1.1,0.4c-0.4,0.2-0.8,0.3-1.3,0.5
			s-0.9,0.3-1.3,0.5c-0.4,0.2-0.8,0.3-1.2,0.5c0.2,0.4,0.5,0.7,0.8,1c0.4,0.3,0.8,0.4,1.3,0.4c0.3,0,0.6-0.1,0.9-0.2
			c0.3-0.1,0.5-0.3,0.7-0.4L118.2,107.9z M117.7,104.4c-0.2-0.3-0.4-0.6-0.7-0.8c-0.3-0.2-0.7-0.3-1-0.3c-0.3,0-0.6,0.1-0.9,0.2
			c-0.3,0.1-0.5,0.3-0.7,0.5s-0.4,0.5-0.5,0.7c-0.1,0.3-0.2,0.6-0.2,0.9c0,0.2,0,0.3,0,0.4c0.3-0.1,0.6-0.3,1-0.4
			c0.3-0.1,0.7-0.3,1-0.4c0.3-0.1,0.7-0.3,1-0.4C117.1,104.6,117.4,104.5,117.7,104.4z"/>
		<path class="st0" d="M62.8,126.6v-10.7h2.6c0.5,0,0.9,0.1,1.3,0.2s0.8,0.3,1.1,0.6c0.3,0.3,0.6,0.6,0.8,1c0.2,0.4,0.3,0.9,0.3,1.4
			c0,0.4-0.1,0.8-0.2,1.2c-0.1,0.4-0.3,0.7-0.6,1c-0.3,0.3-0.6,0.6-1.1,0.7c-0.4,0.2-1,0.3-1.6,0.3h-1.6v4.3H62.8z M63.9,121.4h1.6
			c0.5,0,0.9-0.1,1.2-0.2c0.3-0.2,0.6-0.4,0.8-0.6c0.2-0.2,0.3-0.5,0.4-0.8c0.1-0.3,0.1-0.5,0.1-0.7c0-0.3-0.1-0.5-0.2-0.8
			c-0.1-0.3-0.3-0.5-0.5-0.7s-0.5-0.4-0.8-0.5c-0.3-0.1-0.7-0.2-1.1-0.2h-1.6V121.4z"/>
		<path class="st0" d="M71.3,126.6h-0.8v-11.5h0.8V126.6z"/>
		<path class="st0" d="M72.9,123.7c0-0.4,0.1-0.8,0.2-1.2c0.2-0.4,0.4-0.7,0.7-1s0.6-0.5,1-0.7s0.8-0.2,1.2-0.2c0.3,0,0.6,0,0.8,0.1
			c0.3,0.1,0.5,0.2,0.7,0.3c0.2,0.1,0.4,0.3,0.5,0.5c0.1,0.2,0.2,0.3,0.3,0.5l0.1-1.2h0.8v6h-0.8V126c0-0.1,0-0.2,0-0.3
			c0-0.1,0-0.2,0-0.3c-0.1,0.2-0.2,0.3-0.3,0.5c-0.1,0.2-0.3,0.3-0.5,0.4s-0.4,0.2-0.7,0.3c-0.3,0.1-0.5,0.1-0.9,0.1
			c-0.5,0-0.9-0.1-1.3-0.2c-0.4-0.2-0.7-0.4-1-0.7c-0.3-0.3-0.5-0.6-0.7-1C73,124.5,72.9,124.1,72.9,123.7z M73.7,123.6
			c0,0.3,0.1,0.6,0.2,0.9c0.1,0.3,0.3,0.5,0.5,0.7s0.5,0.4,0.7,0.5c0.3,0.1,0.6,0.2,0.9,0.2s0.6-0.1,0.9-0.2
			c0.3-0.1,0.5-0.3,0.7-0.5s0.4-0.5,0.5-0.7c0.1-0.3,0.2-0.6,0.2-0.9c0-0.3-0.1-0.6-0.2-0.9s-0.3-0.5-0.5-0.7s-0.5-0.4-0.7-0.5
			c-0.3-0.1-0.6-0.2-0.9-0.2s-0.6,0.1-0.9,0.2c-0.3,0.1-0.5,0.3-0.7,0.5s-0.4,0.4-0.5,0.7C73.8,123,73.7,123.3,73.7,123.6z"/>
		<path class="st0" d="M81.3,120.6H82l0.1,1.5c0.2-0.5,0.5-0.9,1-1.2s0.9-0.5,1.5-0.5c0.6,0,1.1,0.2,1.4,0.5s0.5,0.8,0.5,1.3v4.3
			h-0.8v-4c0-0.3-0.1-0.6-0.4-0.9c-0.2-0.2-0.5-0.4-1-0.4c-0.3,0-0.6,0.1-0.9,0.2c-0.3,0.1-0.5,0.3-0.7,0.4
			c-0.2,0.2-0.4,0.4-0.5,0.7c-0.1,0.3-0.2,0.5-0.2,0.9v3.2h-0.8V120.6z"/>
	</g>
</g>
</svg>
