<?xml version="1.0" encoding="utf-8"?>
<!-- Generator: Adobe Illustrator 21.0.0, SVG Export Plug-In . SVG Version: 6.00 Build 0)  -->
<svg version="1.1" id="Icons" xmlns="http://www.w3.org/2000/svg" xmlns:xlink="http://www.w3.org/1999/xlink" x="0px" y="0px"
	 viewBox="0 0 150 150" style="enable-background:new 0 0 150 150;" xml:space="preserve">
<style type="text/css">
	.st0{fill:#FFFFFF;}
	.st1{fill:#396D5D;}
	.st2{fill:#333A3B;}
	.st3{fill:#394142;}
</style>
<rect id="bg" x="-621.9" y="-479.6" class="st0" width="1827.2" height="718.2"/>
<g>
	<g>
		<path class="st2" d="M32.3,115.5v-10.7h2.6c0.5,0,0.9,0.1,1.3,0.2s0.8,0.3,1.1,0.6c0.3,0.3,0.6,0.6,0.8,1c0.2,0.4,0.3,0.9,0.3,1.4
			c0,0.4-0.1,0.8-0.2,1.2c-0.1,0.4-0.3,0.7-0.6,1c-0.3,0.3-0.6,0.6-1.1,0.7c-0.4,0.2-1,0.3-1.6,0.3h-1.6v4.3H32.3z M33.3,110.3h1.6
			c0.5,0,0.9-0.1,1.2-0.2c0.3-0.2,0.6-0.4,0.8-0.6c0.2-0.2,0.3-0.5,0.4-0.8c0.1-0.3,0.1-0.5,0.1-0.7c0-0.3-0.1-0.5-0.2-0.8
			c-0.1-0.3-0.3-0.5-0.5-0.7s-0.5-0.4-0.8-0.5c-0.3-0.1-0.7-0.2-1.1-0.2h-1.6V110.3z"/>
		<path class="st2" d="M43.8,114.8c-0.3,0.3-0.6,0.5-1,0.6c-0.4,0.2-0.8,0.2-1.2,0.2c-0.4,0-0.9-0.1-1.2-0.2c-0.4-0.2-0.7-0.4-1-0.7
			s-0.5-0.6-0.7-1c-0.2-0.4-0.2-0.8-0.2-1.2s0.1-0.8,0.2-1.2c0.2-0.4,0.4-0.7,0.7-1s0.6-0.5,1-0.7s0.8-0.2,1.2-0.2
			c0.7,0,1.2,0.2,1.7,0.6c0.5,0.4,0.8,0.9,1.1,1.5c-0.3,0.1-0.7,0.3-1.1,0.4c-0.4,0.2-0.8,0.3-1.3,0.5s-0.9,0.3-1.3,0.5
			c-0.4,0.2-0.8,0.3-1.2,0.5c0.2,0.4,0.5,0.7,0.8,1c0.4,0.3,0.8,0.4,1.3,0.4c0.3,0,0.6-0.1,0.9-0.2c0.3-0.1,0.5-0.3,0.7-0.4
			L43.8,114.8z M43.3,111.3c-0.2-0.3-0.4-0.6-0.7-0.8c-0.3-0.2-0.7-0.3-1-0.3c-0.3,0-0.6,0.1-0.9,0.2c-0.3,0.1-0.5,0.3-0.7,0.5
			s-0.4,0.5-0.5,0.7c-0.1,0.3-0.2,0.6-0.2,0.9c0,0.2,0,0.3,0,0.4c0.3-0.1,0.6-0.3,1-0.4c0.3-0.1,0.7-0.3,1-0.4
			c0.3-0.1,0.7-0.3,1-0.4C42.7,111.5,43,111.4,43.3,111.3z"/>
		<path class="st2" d="M48.8,110.4c-0.3,0-0.6,0-0.9,0.1c-0.3,0.1-0.5,0.2-0.7,0.4s-0.4,0.4-0.5,0.6c-0.1,0.2-0.2,0.5-0.2,0.8v3.1
			h-0.8v-6h0.7l0.1,1.5c0.1-0.3,0.3-0.5,0.5-0.7c0.2-0.2,0.4-0.4,0.6-0.5c0.2-0.1,0.5-0.3,0.7-0.3s0.5-0.1,0.7-0.1L48.8,110.4z"/>
		<path class="st2" d="M49.9,107.4c0-0.2,0.1-0.3,0.2-0.4s0.3-0.2,0.4-0.2c0.1,0,0.3,0.1,0.4,0.2s0.2,0.3,0.2,0.4
			c0,0.2-0.1,0.3-0.2,0.4c-0.1,0.1-0.3,0.2-0.4,0.2c-0.2,0-0.3-0.1-0.4-0.2C49.9,107.7,49.9,107.5,49.9,107.4z M50.9,115.5h-0.8v-6
			h0.8V115.5z"/>
		<path class="st2" d="M52.5,112.5c0-0.4,0.1-0.8,0.2-1.2c0.2-0.4,0.4-0.7,0.7-1s0.6-0.5,1-0.7c0.4-0.2,0.8-0.2,1.2-0.2
			c0.4,0,0.9,0.1,1.2,0.2s0.7,0.4,1,0.7c0.3,0.3,0.5,0.6,0.7,1c0.2,0.4,0.2,0.8,0.2,1.2s-0.1,0.8-0.2,1.2c-0.2,0.4-0.4,0.7-0.7,1
			s-0.6,0.5-1,0.7c-0.4,0.2-0.8,0.2-1.2,0.2c-0.4,0-0.9-0.1-1.2-0.2c-0.4-0.2-0.7-0.4-1-0.7c-0.3-0.3-0.5-0.6-0.7-1
			C52.6,113.4,52.5,113,52.5,112.5z M53.3,112.5c0,0.3,0.1,0.6,0.2,0.9c0.1,0.3,0.3,0.5,0.5,0.7s0.5,0.4,0.7,0.5
			c0.3,0.1,0.6,0.2,0.9,0.2s0.6-0.1,0.9-0.2c0.3-0.1,0.5-0.3,0.7-0.5s0.4-0.5,0.5-0.7c0.1-0.3,0.2-0.6,0.2-0.9s-0.1-0.6-0.2-0.9
			s-0.3-0.5-0.5-0.7s-0.5-0.4-0.7-0.5c-0.3-0.1-0.6-0.2-0.9-0.2s-0.6,0.1-0.9,0.2c-0.3,0.1-0.5,0.3-0.7,0.5s-0.4,0.5-0.5,0.7
			S53.3,112.2,53.3,112.5z"/>
		<path class="st2" d="M60,112.5c0-0.5,0.1-0.9,0.2-1.3c0.2-0.4,0.4-0.7,0.7-1c0.3-0.3,0.6-0.5,1-0.7c0.4-0.2,0.8-0.2,1.2-0.2
			c0.3,0,0.6,0,0.9,0.1s0.5,0.2,0.7,0.3s0.4,0.3,0.5,0.5c0.1,0.2,0.3,0.3,0.3,0.5V104h0.8v11.5h-0.8v-0.6c0-0.1,0-0.2,0-0.3
			s0-0.2,0-0.3c-0.2,0.4-0.5,0.7-0.9,1c-0.4,0.3-0.9,0.4-1.5,0.4c-0.5,0-0.9-0.1-1.3-0.2s-0.7-0.4-1-0.7c-0.3-0.3-0.5-0.6-0.6-1
			C60,113.4,60,113,60,112.5z M60.8,112.5c0,0.3,0.1,0.6,0.2,0.9c0.1,0.3,0.3,0.5,0.5,0.7s0.5,0.4,0.7,0.5s0.6,0.2,0.9,0.2
			s0.6-0.1,0.9-0.2s0.5-0.3,0.7-0.5s0.4-0.5,0.5-0.7c0.1-0.3,0.2-0.6,0.2-0.9c0-0.3-0.1-0.6-0.2-0.9s-0.3-0.5-0.5-0.7
			s-0.5-0.4-0.7-0.5c-0.3-0.1-0.6-0.2-0.9-0.2s-0.6,0.1-0.9,0.2c-0.3,0.1-0.5,0.3-0.7,0.5s-0.4,0.4-0.5,0.7
			C60.9,111.9,60.8,112.2,60.8,112.5z"/>
		<path class="st2" d="M68.2,107.4c0-0.2,0.1-0.3,0.2-0.4s0.3-0.2,0.4-0.2c0.1,0,0.3,0.1,0.4,0.2s0.2,0.3,0.2,0.4
			c0,0.2-0.1,0.3-0.2,0.4c-0.1,0.1-0.3,0.2-0.4,0.2c-0.2,0-0.3-0.1-0.4-0.2C68.2,107.7,68.2,107.5,68.2,107.4z M69.2,115.5h-0.8v-6
			h0.8V115.5z"/>
		<path class="st2" d="M75.4,114.4l0.5,0.6c-0.3,0.2-0.6,0.4-0.9,0.5c-0.3,0.1-0.7,0.2-1.1,0.2c-0.4,0-0.9-0.1-1.2-0.2
			c-0.4-0.2-0.7-0.4-1-0.7s-0.5-0.6-0.7-1c-0.2-0.4-0.2-0.8-0.2-1.2s0.1-0.8,0.2-1.2c0.2-0.4,0.4-0.7,0.7-1s0.6-0.5,1-0.7
			c0.4-0.2,0.8-0.2,1.2-0.2c0.4,0,0.7,0.1,1.1,0.2s0.6,0.3,0.9,0.5c-0.1,0.1-0.2,0.2-0.3,0.3c-0.1,0.1-0.2,0.2-0.3,0.3
			c-0.4-0.3-0.9-0.5-1.5-0.5c-0.3,0-0.6,0.1-0.9,0.2c-0.3,0.1-0.5,0.3-0.7,0.5s-0.4,0.5-0.5,0.7c-0.1,0.3-0.2,0.6-0.2,0.9
			c0,0.3,0.1,0.6,0.2,0.9c0.1,0.3,0.3,0.5,0.5,0.7s0.5,0.4,0.7,0.5c0.3,0.1,0.6,0.2,0.9,0.2C74.5,114.8,75,114.7,75.4,114.4z"/>
		<path class="st2" d="M81.6,115.5v-10.7h2.6c0.5,0,0.9,0.1,1.3,0.2s0.8,0.3,1.1,0.6c0.3,0.3,0.6,0.6,0.8,1c0.2,0.4,0.3,0.9,0.3,1.4
			c0,0.6-0.1,1.2-0.4,1.7c-0.3,0.5-0.7,1-1.3,1.2c0.1,0.2,0.2,0.4,0.4,0.6c0.1,0.3,0.3,0.5,0.5,0.8c0.2,0.3,0.4,0.6,0.6,0.9
			c0.2,0.3,0.4,0.6,0.6,0.9c0.2,0.3,0.3,0.6,0.5,0.8c0.1,0.2,0.3,0.4,0.4,0.6h-1.2c-0.1-0.1-0.2-0.3-0.3-0.5s-0.3-0.4-0.4-0.7
			c-0.2-0.3-0.3-0.5-0.5-0.8c-0.2-0.3-0.4-0.6-0.5-0.9s-0.3-0.5-0.5-0.8s-0.3-0.5-0.4-0.6c-0.1,0-0.2,0-0.3,0c-0.1,0-0.2,0-0.3,0
			h-1.6v4.3H81.6z M82.6,110.3h1.6c0.5,0,0.9-0.1,1.2-0.2s0.6-0.4,0.8-0.6c0.2-0.2,0.3-0.5,0.4-0.8c0.1-0.3,0.1-0.5,0.1-0.7
			c0-0.3-0.1-0.5-0.2-0.8c-0.1-0.3-0.3-0.5-0.5-0.7c-0.2-0.2-0.5-0.4-0.8-0.5c-0.3-0.1-0.7-0.2-1.1-0.2h-1.6V110.3z"/>
		<path class="st2" d="M94.5,114.8c-0.3,0.3-0.6,0.5-1,0.6c-0.4,0.2-0.8,0.2-1.2,0.2c-0.4,0-0.9-0.1-1.2-0.2c-0.4-0.2-0.7-0.4-1-0.7
			s-0.5-0.6-0.7-1c-0.2-0.4-0.2-0.8-0.2-1.2s0.1-0.8,0.2-1.2c0.2-0.4,0.4-0.7,0.7-1s0.6-0.5,1-0.7s0.8-0.2,1.2-0.2
			c0.7,0,1.2,0.2,1.7,0.6c0.5,0.4,0.8,0.9,1.1,1.5c-0.3,0.1-0.7,0.3-1.1,0.4c-0.4,0.2-0.8,0.3-1.3,0.5s-0.9,0.3-1.3,0.5
			c-0.4,0.2-0.8,0.3-1.2,0.5c0.2,0.4,0.5,0.7,0.8,1c0.4,0.3,0.8,0.4,1.3,0.4c0.3,0,0.6-0.1,0.9-0.2c0.3-0.1,0.5-0.3,0.7-0.4
			L94.5,114.8z M94,111.3c-0.2-0.3-0.4-0.6-0.7-0.8c-0.3-0.2-0.7-0.3-1-0.3c-0.3,0-0.6,0.1-0.9,0.2c-0.3,0.1-0.5,0.3-0.7,0.5
			s-0.4,0.5-0.5,0.7c-0.1,0.3-0.2,0.6-0.2,0.9c0,0.2,0,0.3,0,0.4c0.3-0.1,0.6-0.3,1-0.4c0.3-0.1,0.7-0.3,1-0.4
			c0.3-0.1,0.7-0.3,1-0.4C93.4,111.5,93.7,111.4,94,111.3z"/>
		<path class="st2" d="M102.7,112.5c0,0.4-0.1,0.8-0.2,1.2c-0.2,0.4-0.4,0.7-0.7,1c-0.3,0.3-0.6,0.5-1,0.7c-0.4,0.2-0.8,0.2-1.2,0.2
			c-0.6,0-1.1-0.1-1.5-0.4c-0.4-0.3-0.7-0.6-0.9-1c0,0.1,0,0.2,0,0.3s0,0.2,0,0.3v3.5h-0.8v-8.9h0.8c0,0,0,0.1,0,0.2
			c0,0.1,0,0.2,0,0.3s0,0.3,0,0.4s0,0.2,0,0.3c0.2-0.4,0.5-0.7,0.9-1s0.9-0.4,1.5-0.4c0.4,0,0.9,0.1,1.2,0.2s0.7,0.4,1,0.6
			c0.3,0.3,0.5,0.6,0.6,1C102.6,111.7,102.7,112.1,102.7,112.5z M101.8,112.5c0-0.3-0.1-0.6-0.2-0.9c-0.1-0.3-0.3-0.5-0.5-0.7
			c-0.2-0.2-0.4-0.4-0.7-0.5c-0.3-0.1-0.6-0.2-0.9-0.2s-0.6,0.1-0.9,0.2c-0.3,0.1-0.5,0.3-0.7,0.5s-0.4,0.4-0.5,0.7
			c-0.1,0.3-0.2,0.6-0.2,0.9s0.1,0.6,0.2,0.9c0.1,0.3,0.3,0.5,0.5,0.7s0.5,0.4,0.7,0.5s0.6,0.2,0.9,0.2s0.6-0.1,0.9-0.2
			c0.3-0.1,0.5-0.3,0.7-0.5c0.2-0.2,0.4-0.5,0.5-0.7C101.8,113.2,101.8,112.9,101.8,112.5z"/>
		<path class="st2" d="M103.9,112.5c0-0.4,0.1-0.8,0.2-1.2c0.2-0.4,0.4-0.7,0.7-1s0.6-0.5,1-0.7c0.4-0.2,0.8-0.2,1.2-0.2
			c0.4,0,0.9,0.1,1.2,0.2s0.7,0.4,1,0.7c0.3,0.3,0.5,0.6,0.7,1c0.2,0.4,0.2,0.8,0.2,1.2s-0.1,0.8-0.2,1.2c-0.2,0.4-0.4,0.7-0.7,1
			s-0.6,0.5-1,0.7c-0.4,0.2-0.8,0.2-1.2,0.2c-0.4,0-0.9-0.1-1.2-0.2c-0.4-0.2-0.7-0.4-1-0.7c-0.3-0.3-0.5-0.6-0.7-1
			C104,113.4,103.9,113,103.9,112.5z M104.7,112.5c0,0.3,0.1,0.6,0.2,0.9c0.1,0.3,0.3,0.5,0.5,0.7s0.5,0.4,0.7,0.5
			c0.3,0.1,0.6,0.2,0.9,0.2s0.6-0.1,0.9-0.2c0.3-0.1,0.5-0.3,0.7-0.5s0.4-0.5,0.5-0.7c0.1-0.3,0.2-0.6,0.2-0.9s-0.1-0.6-0.2-0.9
			s-0.3-0.5-0.5-0.7s-0.5-0.4-0.7-0.5c-0.3-0.1-0.6-0.2-0.9-0.2s-0.6,0.1-0.9,0.2c-0.3,0.1-0.5,0.3-0.7,0.5s-0.4,0.5-0.5,0.7
			S104.7,112.2,104.7,112.5z"/>
		<path class="st2" d="M114.9,110.4c-0.3,0-0.6,0-0.9,0.1c-0.3,0.1-0.5,0.2-0.7,0.4s-0.4,0.4-0.5,0.6c-0.1,0.2-0.2,0.5-0.2,0.8v3.1
			h-0.8v-6h0.7l0.1,1.5c0.1-0.3,0.3-0.5,0.5-0.7c0.2-0.2,0.4-0.4,0.6-0.5c0.2-0.1,0.5-0.3,0.7-0.3s0.5-0.1,0.7-0.1L114.9,110.4z"/>
		<path class="st2" d="M116.7,106.9h0.8v2.7h1.8v0.8h-1.8v5.2h-0.8v-5.2h-1.2v-0.8h1.2V106.9z"/>
	</g>
	<g>
		<g id="social_x5F_background_x5F_report_x5F_icon_x5F_grp_5_">
			<g>
				<path class="st3" d="M95.5,91h-43V30.1h34.3l-0.5,9.4l9.3-1.7V91z M54,89.5h40V39.5l-9.4,1.8l0.6-9.7H54V89.5z"/>
			</g>
			<g>
				<g>
					<rect x="59.2" y="77.7" class="st3" width="30.2" height="1.5"/>
				</g>
				<g>
					<rect x="59.2" y="81.3" class="st3" width="30.2" height="1.5"/>
				</g>
				<g>
					<rect x="59.2" y="74.1" class="st3" width="30.2" height="1.5"/>
				</g>
			</g>
		</g>
		<g>
			<g>
				<g>
					<path class="st3" d="M84,59.4L82.6,59c0.2-0.7,0.3-1.5,0.3-2.3c0-4.9-4-8.9-8.9-8.9c-2.8,0-5.3,1.3-7,3.4l-1.2-0.9
						c2-2.5,5-4,8.2-4c5.7,0,10.4,4.7,10.4,10.4C84.3,57.6,84.2,58.5,84,59.4z"/>
				</g>
				<g>
					<g>
						<polygon class="st3" points="76.1,52.3 77.6,51.3 82.9,58.4 89.6,52.6 90.8,53.9 82.6,61 						"/>
					</g>
				</g>
			</g>
			<g>
				<g>
					<path class="st3" d="M74,67.8c-5.7,0-10.4-4.7-10.4-10.4c0-0.9,0.1-1.8,0.3-2.6l1.5,0.4c-0.2,0.7-0.3,1.5-0.3,2.3
						c0,4.9,4,8.9,8.9,8.9c2.8,0,5.3-1.3,7-3.4l1.2,0.9C80.3,66.4,77.3,67.8,74,67.8z"/>
				</g>
				<g>
					<g>
						<polygon class="st3" points="71.9,61.8 70.4,62.9 65.1,55.8 58.4,61.6 57.2,60.2 65.4,53.2 						"/>
					</g>
				</g>
			</g>
		</g>
	</g>
</g>
</svg>
