<?xml version="1.0" encoding="utf-8"?>
<!-- Generator: Adobe Illustrator 21.0.0, SVG Export Plug-In . SVG Version: 6.00 Build 0)  -->
<svg version="1.1" id="Icons" xmlns="http://www.w3.org/2000/svg" xmlns:xlink="http://www.w3.org/1999/xlink" x="0px" y="0px"
	 viewBox="0 0 150 150" style="enable-background:new 0 0 150 150;" xml:space="preserve">
<style type="text/css">
	.st0{fill:#FFFFFF;}
	.st1{fill:#396D5D;}
	.st2{fill:#333A3B;}
	.st3{fill:#394142;}
</style>
<rect id="bg" x="-1232.3" y="-479.6" class="st0" width="1827.2" height="718.2"/>
<rect id="green_x5F_bg" x="-263.1" y="-479.6" class="st1" width="858" height="718.2"/>
<g>
	<g>
		<path class="st0" d="M46.9,111.8c-0.3,0.2-0.6,0.3-1.1,0.5c-0.5,0.2-1,0.2-1.6,0.2c-0.7,0-1.4-0.1-1.9-0.4c-0.6-0.3-1.1-0.6-1.5-1
			c-0.4-0.4-0.7-0.9-0.9-1.5s-0.3-1.2-0.3-1.8c0-0.7,0.1-1.3,0.4-1.9c0.3-0.6,0.6-1.1,1-1.5s0.9-0.8,1.5-1c0.6-0.2,1.2-0.4,1.9-0.4
			c0.2,0,0.5,0,0.7,0c0.2,0,0.5,0.1,0.7,0.1s0.4,0.1,0.6,0.2c0.2,0.1,0.3,0.2,0.5,0.3c0,0.1-0.1,0.1-0.1,0.2c0,0-0.1,0.1-0.1,0.1
			s-0.1,0.1-0.1,0.2c0,0.1-0.1,0.1-0.1,0.2c-0.3-0.2-0.6-0.3-1-0.4s-0.7-0.1-1.1-0.1c-0.5,0-1.1,0.1-1.5,0.3s-0.9,0.5-1.2,0.9
			s-0.6,0.8-0.8,1.2c-0.2,0.5-0.3,1-0.3,1.5c0,0.5,0.1,1,0.3,1.4c0.2,0.5,0.4,0.9,0.8,1.2c0.3,0.4,0.7,0.6,1.2,0.8
			c0.5,0.2,1,0.3,1.6,0.3c0.3,0,0.5,0,0.7-0.1c0.2,0,0.5-0.1,0.7-0.2s0.4-0.1,0.5-0.2s0.3-0.1,0.4-0.2L46.9,111.8z"/>
		<path class="st0" d="M47.5,109.8c0-0.4,0.1-0.7,0.2-1.1c0.1-0.3,0.3-0.6,0.6-0.9s0.5-0.4,0.9-0.6c0.3-0.1,0.7-0.2,1.1-0.2
			c0.4,0,0.7,0.1,1.1,0.2c0.3,0.1,0.6,0.3,0.9,0.6c0.2,0.2,0.4,0.5,0.6,0.9c0.1,0.3,0.2,0.7,0.2,1.1c0,0.4-0.1,0.7-0.2,1.1
			s-0.3,0.6-0.6,0.9c-0.2,0.2-0.5,0.4-0.9,0.6c-0.3,0.1-0.7,0.2-1.1,0.2c-0.4,0-0.7-0.1-1.1-0.2c-0.3-0.1-0.6-0.3-0.9-0.6
			c-0.2-0.2-0.4-0.5-0.6-0.9C47.6,110.6,47.5,110.2,47.5,109.8z M48.3,109.8c0,0.3,0.1,0.5,0.2,0.8c0.1,0.2,0.2,0.5,0.4,0.6
			c0.2,0.2,0.4,0.3,0.6,0.4c0.2,0.1,0.5,0.2,0.8,0.2s0.5-0.1,0.8-0.2c0.2-0.1,0.5-0.2,0.6-0.4c0.2-0.2,0.3-0.4,0.4-0.6
			c0.1-0.2,0.2-0.5,0.2-0.8s-0.1-0.5-0.2-0.8c-0.1-0.2-0.2-0.5-0.4-0.6c-0.2-0.2-0.4-0.3-0.6-0.4c-0.2-0.1-0.5-0.2-0.8-0.2
			s-0.5,0.1-0.8,0.2c-0.2,0.1-0.5,0.2-0.6,0.4c-0.2,0.2-0.3,0.4-0.4,0.6C48.3,109.3,48.3,109.5,48.3,109.8z"/>
		<path class="st0" d="M54.4,107.2H55l0.1,1.3c0.2-0.4,0.5-0.8,0.8-1.1s0.8-0.4,1.3-0.4c0.5,0,0.9,0.1,1.2,0.4s0.5,0.7,0.5,1.1v3.8
			h-0.7v-3.5c0-0.3-0.1-0.5-0.3-0.8s-0.5-0.3-0.9-0.3c-0.3,0-0.5,0-0.8,0.1c-0.2,0.1-0.4,0.2-0.6,0.4c-0.2,0.2-0.3,0.4-0.4,0.6
			s-0.1,0.5-0.1,0.7v2.8h-0.7V107.2z"/>
		<path class="st0" d="M63.4,107.7l-0.4,0.5c-0.1-0.1-0.2-0.2-0.4-0.3c-0.2-0.1-0.4-0.1-0.6-0.1c-0.1,0-0.2,0-0.3,0
			c-0.1,0-0.2,0.1-0.3,0.1c-0.1,0.1-0.2,0.1-0.2,0.2c-0.1,0.1-0.1,0.2-0.1,0.3c0,0.2,0.1,0.4,0.2,0.5s0.3,0.2,0.5,0.3
			s0.4,0.2,0.6,0.2c0.2,0.1,0.4,0.2,0.6,0.3c0.2,0.1,0.3,0.3,0.5,0.4c0.1,0.2,0.2,0.4,0.2,0.7c0,0.4-0.1,0.8-0.4,1.1
			s-0.7,0.4-1.3,0.4c-0.3,0-0.6-0.1-0.9-0.2c-0.3-0.1-0.6-0.3-0.7-0.5c0,0,0.1-0.1,0.1-0.1c0.1-0.1,0.1-0.1,0.1-0.2
			c0-0.1,0.1-0.1,0.1-0.1s0-0.1,0.1-0.1c0,0,0.1,0.1,0.2,0.1s0.2,0.1,0.3,0.1c0.1,0,0.2,0.1,0.4,0.1c0.1,0,0.3,0.1,0.4,0.1
			c0.1,0,0.2,0,0.3,0c0.1,0,0.2-0.1,0.3-0.1s0.2-0.2,0.2-0.3c0.1-0.1,0.1-0.2,0.1-0.4c0-0.2-0.1-0.4-0.2-0.5s-0.3-0.2-0.5-0.3
			c-0.2-0.1-0.4-0.2-0.6-0.2c-0.2-0.1-0.4-0.2-0.6-0.3c-0.2-0.1-0.3-0.3-0.5-0.4c-0.1-0.2-0.2-0.4-0.2-0.7c0-0.3,0-0.5,0.1-0.7
			c0.1-0.2,0.2-0.3,0.4-0.4c0.1-0.1,0.3-0.2,0.5-0.3s0.4-0.1,0.5-0.1c0.2,0,0.5,0,0.7,0.1C63,107.4,63.2,107.5,63.4,107.7z"/>
		<path class="st0" d="M65.4,104.9h0.7v2.3h1.5v0.7h-1.5v4.5h-0.7v-4.5h-1v-0.7h1V104.9z"/>
		<path class="st0" d="M68.5,105.3c0-0.1,0.1-0.3,0.2-0.4s0.2-0.2,0.4-0.2s0.2,0.1,0.4,0.2c0.1,0.1,0.2,0.2,0.2,0.4
			c0,0.2-0.1,0.3-0.2,0.4c-0.1,0.1-0.2,0.1-0.4,0.1s-0.2,0-0.4-0.1S68.5,105.5,68.5,105.3z M69.4,112.4h-0.7v-5.2h0.7V112.4z"/>
		<path class="st0" d="M71.6,104.9h0.7v2.3h1.5v0.7h-1.5v4.5h-0.7v-4.5h-1v-0.7h1V104.9z"/>
		<path class="st0" d="M79.4,112.5h-0.6l-0.1-1.4c-0.2,0.4-0.5,0.8-0.8,1.1c-0.4,0.3-0.8,0.4-1.4,0.4c-0.5,0-0.9-0.1-1.2-0.4
			c-0.3-0.3-0.5-0.7-0.5-1.1v-3.8h0.7v3.5c0,0.3,0.1,0.5,0.3,0.8c0.2,0.2,0.5,0.3,0.9,0.3c0.3,0,0.5,0,0.8-0.1s0.4-0.2,0.6-0.4
			c0.2-0.2,0.3-0.4,0.4-0.6c0.1-0.2,0.2-0.5,0.2-0.7v-2.8h0.7V112.5z"/>
		<path class="st0" d="M81.6,104.9h0.7v2.3h1.5v0.7h-1.5v4.5h-0.7v-4.5h-1v-0.7h1V104.9z"/>
		<path class="st0" d="M84.7,105.3c0-0.1,0.1-0.3,0.2-0.4s0.2-0.2,0.4-0.2s0.2,0.1,0.4,0.2c0.1,0.1,0.2,0.2,0.2,0.4
			c0,0.2-0.1,0.3-0.2,0.4c-0.1,0.1-0.2,0.1-0.4,0.1s-0.2,0-0.4-0.1S84.7,105.5,84.7,105.3z M85.6,112.4h-0.7v-5.2h0.7V112.4z"/>
		<path class="st0" d="M87,109.8c0-0.4,0.1-0.7,0.2-1.1c0.1-0.3,0.3-0.6,0.6-0.9s0.5-0.4,0.9-0.6c0.3-0.1,0.7-0.2,1.1-0.2
			c0.4,0,0.7,0.1,1.1,0.2c0.3,0.1,0.6,0.3,0.9,0.6c0.2,0.2,0.4,0.5,0.6,0.9c0.1,0.3,0.2,0.7,0.2,1.1c0,0.4-0.1,0.7-0.2,1.1
			s-0.3,0.6-0.6,0.9c-0.2,0.2-0.5,0.4-0.9,0.6c-0.3,0.1-0.7,0.2-1.1,0.2c-0.4,0-0.7-0.1-1.1-0.2c-0.3-0.1-0.6-0.3-0.9-0.6
			c-0.2-0.2-0.4-0.5-0.6-0.9C87.1,110.6,87,110.2,87,109.8z M87.7,109.8c0,0.3,0.1,0.5,0.2,0.8c0.1,0.2,0.2,0.5,0.4,0.6
			c0.2,0.2,0.4,0.3,0.6,0.4c0.2,0.1,0.5,0.2,0.8,0.2s0.5-0.1,0.8-0.2c0.2-0.1,0.5-0.2,0.6-0.4c0.2-0.2,0.3-0.4,0.4-0.6
			c0.1-0.2,0.2-0.5,0.2-0.8s-0.1-0.5-0.2-0.8c-0.1-0.2-0.2-0.5-0.4-0.6c-0.2-0.2-0.4-0.3-0.6-0.4c-0.2-0.1-0.5-0.2-0.8-0.2
			s-0.5,0.1-0.8,0.2c-0.2,0.1-0.5,0.2-0.6,0.4c-0.2,0.2-0.3,0.4-0.4,0.6C87.8,109.3,87.7,109.5,87.7,109.8z"/>
		<path class="st0" d="M93.9,107.2h0.6l0.1,1.3c0.2-0.4,0.5-0.8,0.8-1.1s0.8-0.4,1.3-0.4c0.5,0,0.9,0.1,1.2,0.4s0.5,0.7,0.5,1.1v3.8
			h-0.7v-3.5c0-0.3-0.1-0.5-0.3-0.8s-0.5-0.3-0.9-0.3c-0.3,0-0.5,0-0.8,0.1c-0.2,0.1-0.4,0.2-0.6,0.4c-0.2,0.2-0.3,0.4-0.4,0.6
			s-0.1,0.5-0.1,0.7v2.8h-0.7V107.2z"/>
		<path class="st0" d="M102.9,109.8c0-0.4,0.1-0.7,0.2-1.1c0.1-0.3,0.3-0.6,0.6-0.9s0.5-0.4,0.9-0.6c0.3-0.1,0.7-0.2,1.1-0.2
			c0.4,0,0.7,0.1,1.1,0.2c0.3,0.1,0.6,0.3,0.9,0.6c0.2,0.2,0.4,0.5,0.6,0.9c0.1,0.3,0.2,0.7,0.2,1.1c0,0.4-0.1,0.7-0.2,1.1
			s-0.3,0.6-0.6,0.9c-0.2,0.2-0.5,0.4-0.9,0.6c-0.3,0.1-0.7,0.2-1.1,0.2c-0.4,0-0.7-0.1-1.1-0.2c-0.3-0.1-0.6-0.3-0.9-0.6
			c-0.2-0.2-0.4-0.5-0.6-0.9C103,110.6,102.9,110.2,102.9,109.8z M103.7,109.8c0,0.3,0.1,0.5,0.2,0.8c0.1,0.2,0.2,0.5,0.4,0.6
			c0.2,0.2,0.4,0.3,0.6,0.4c0.2,0.1,0.5,0.2,0.8,0.2s0.5-0.1,0.8-0.2c0.2-0.1,0.5-0.2,0.6-0.4c0.2-0.2,0.3-0.4,0.4-0.6
			c0.1-0.2,0.2-0.5,0.2-0.8s-0.1-0.5-0.2-0.8c-0.1-0.2-0.2-0.5-0.4-0.6c-0.2-0.2-0.4-0.3-0.6-0.4c-0.2-0.1-0.5-0.2-0.8-0.2
			s-0.5,0.1-0.8,0.2c-0.2,0.1-0.5,0.2-0.6,0.4c-0.2,0.2-0.3,0.4-0.4,0.6C103.7,109.3,103.7,109.5,103.7,109.8z"/>
		<path class="st0" d="M109.2,107.9v-0.7h0.9v-1.5c0-1.1,0.3-1.9,0.8-2.4s1.2-0.8,2-0.9v0.7c-0.6,0-1.1,0.2-1.5,0.7
			s-0.6,1.1-0.6,1.9v1.5h1.7v0.7h-1.7v4.5h-0.7v-4.5H109.2z"/>
		<path class="st0" d="M32.7,119.2l-0.3,0.7c-0.3-0.1-0.6-0.2-1-0.3c-0.4-0.1-0.7-0.1-1.1-0.1c-0.3,0-0.6,0-0.8,0.1
			c-0.2,0.1-0.5,0.2-0.6,0.3c-0.2,0.1-0.3,0.3-0.4,0.5s-0.1,0.4-0.1,0.6c0,0.3,0.1,0.5,0.2,0.6s0.3,0.3,0.5,0.5s0.5,0.2,0.8,0.4
			c0.3,0.1,0.6,0.2,0.9,0.3c0.3,0.1,0.6,0.2,0.9,0.4s0.5,0.3,0.8,0.5s0.4,0.5,0.5,0.7s0.2,0.6,0.2,1s-0.1,0.8-0.2,1.1
			s-0.4,0.6-0.6,0.8c-0.3,0.2-0.6,0.4-1,0.5c-0.4,0.1-0.9,0.2-1.4,0.2c-0.4,0-0.7,0-1-0.1c-0.3-0.1-0.6-0.1-0.8-0.2
			s-0.4-0.2-0.6-0.3s-0.3-0.2-0.4-0.2l0.4-0.8c0.2,0.1,0.3,0.2,0.5,0.3s0.4,0.2,0.6,0.2c0.2,0.1,0.4,0.1,0.7,0.2
			c0.2,0,0.4,0.1,0.7,0.1c0.2,0,0.5,0,0.8-0.1c0.3-0.1,0.5-0.2,0.8-0.3c0.2-0.1,0.4-0.3,0.6-0.6c0.2-0.2,0.2-0.5,0.2-0.8
			c0-0.4-0.1-0.7-0.4-1c-0.2-0.3-0.5-0.5-0.9-0.6s-0.7-0.3-1.2-0.5c-0.4-0.1-0.8-0.3-1.2-0.5s-0.7-0.4-0.9-0.7s-0.4-0.6-0.4-1.1
			c0-0.3,0.1-0.6,0.2-0.9c0.1-0.3,0.3-0.5,0.6-0.8c0.2-0.2,0.5-0.4,0.9-0.5s0.7-0.2,1.2-0.2c0.2,0,0.5,0,0.7,0.1s0.5,0.1,0.7,0.1
			c0.2,0.1,0.4,0.1,0.6,0.2C32.5,119.1,32.6,119.2,32.7,119.2z"/>
		<path class="st0" d="M34.1,125.4c0-0.4,0.1-0.7,0.2-1.1c0.1-0.3,0.3-0.6,0.6-0.9s0.5-0.4,0.9-0.6c0.3-0.1,0.7-0.2,1.1-0.2
			c0.4,0,0.7,0.1,1.1,0.2c0.3,0.1,0.6,0.3,0.9,0.6c0.2,0.2,0.4,0.5,0.6,0.9c0.1,0.3,0.2,0.7,0.2,1.1c0,0.4-0.1,0.7-0.2,1.1
			s-0.3,0.6-0.6,0.9c-0.2,0.2-0.5,0.4-0.9,0.6c-0.3,0.1-0.7,0.2-1.1,0.2c-0.4,0-0.7-0.1-1.1-0.2c-0.3-0.1-0.6-0.3-0.9-0.6
			c-0.2-0.2-0.4-0.5-0.6-0.9C34.2,126.2,34.1,125.8,34.1,125.4z M34.8,125.4c0,0.3,0.1,0.5,0.2,0.8c0.1,0.2,0.2,0.5,0.4,0.6
			c0.2,0.2,0.4,0.3,0.6,0.4c0.2,0.1,0.5,0.2,0.8,0.2s0.5-0.1,0.8-0.2c0.2-0.1,0.5-0.2,0.6-0.4c0.2-0.2,0.3-0.4,0.4-0.6
			c0.1-0.2,0.2-0.5,0.2-0.8s-0.1-0.5-0.2-0.8c-0.1-0.2-0.2-0.5-0.4-0.6c-0.2-0.2-0.4-0.3-0.6-0.4c-0.2-0.1-0.5-0.2-0.8-0.2
			s-0.5,0.1-0.8,0.2c-0.2,0.1-0.5,0.2-0.6,0.4c-0.2,0.2-0.3,0.4-0.4,0.6C34.9,124.9,34.8,125.1,34.8,125.4z"/>
		<path class="st0" d="M44.6,127l0.4,0.5c-0.2,0.2-0.5,0.3-0.8,0.4c-0.3,0.1-0.6,0.2-0.9,0.2c-0.4,0-0.7-0.1-1.1-0.2
			c-0.3-0.1-0.6-0.3-0.9-0.6c-0.2-0.2-0.4-0.5-0.6-0.9c-0.1-0.3-0.2-0.7-0.2-1.1c0-0.4,0.1-0.7,0.2-1.1c0.1-0.3,0.3-0.6,0.6-0.9
			c0.2-0.2,0.5-0.4,0.9-0.6c0.3-0.1,0.7-0.2,1.1-0.2c0.3,0,0.6,0.1,0.9,0.2c0.3,0.1,0.6,0.3,0.8,0.4c-0.1,0.1-0.1,0.2-0.2,0.3
			c-0.1,0.1-0.2,0.2-0.2,0.3c-0.4-0.3-0.8-0.4-1.3-0.4c-0.3,0-0.6,0.1-0.8,0.2c-0.2,0.1-0.5,0.2-0.6,0.4c-0.2,0.2-0.3,0.4-0.4,0.6
			c-0.1,0.2-0.2,0.5-0.2,0.8c0,0.3,0.1,0.5,0.2,0.8c0.1,0.2,0.2,0.5,0.4,0.6c0.2,0.2,0.4,0.3,0.6,0.4c0.2,0.1,0.5,0.2,0.8,0.2
			C43.8,127.4,44.3,127.3,44.6,127z"/>
		<path class="st0" d="M46.2,120.9c0-0.1,0.1-0.3,0.2-0.4s0.2-0.2,0.4-0.2s0.2,0.1,0.4,0.2c0.1,0.1,0.2,0.2,0.2,0.4
			c0,0.2-0.1,0.3-0.2,0.4c-0.1,0.1-0.2,0.1-0.4,0.1s-0.2,0-0.4-0.1S46.2,121.1,46.2,120.9z M47.1,128h-0.7v-5.2h0.7V128z"/>
		<path class="st0" d="M53.1,127.4c-0.3,0.2-0.5,0.4-0.9,0.5c-0.3,0.1-0.7,0.2-1.1,0.2c-0.4,0-0.7-0.1-1.1-0.2
			c-0.3-0.1-0.6-0.3-0.9-0.6c-0.2-0.2-0.4-0.5-0.6-0.9c-0.1-0.3-0.2-0.7-0.2-1.1c0-0.4,0.1-0.7,0.2-1.1c0.1-0.3,0.3-0.6,0.6-0.9
			s0.5-0.4,0.9-0.6c0.3-0.1,0.7-0.2,1.1-0.2c0.6,0,1.1,0.2,1.5,0.5c0.4,0.3,0.7,0.8,0.9,1.3c-0.3,0.1-0.6,0.2-1,0.4
			c-0.4,0.1-0.7,0.3-1.1,0.4s-0.8,0.3-1.1,0.5c-0.4,0.2-0.7,0.3-1,0.4c0.2,0.4,0.4,0.6,0.7,0.9s0.7,0.3,1.1,0.3c0.3,0,0.5,0,0.8-0.1
			c0.3-0.1,0.5-0.2,0.6-0.4L53.1,127.4z M52.7,124.3c-0.1-0.3-0.4-0.5-0.6-0.7s-0.6-0.3-0.9-0.3c-0.3,0-0.5,0.1-0.8,0.2
			c-0.2,0.1-0.5,0.3-0.6,0.4c-0.2,0.2-0.3,0.4-0.4,0.6c-0.1,0.2-0.2,0.5-0.2,0.8c0,0.1,0,0.3,0,0.4c0.3-0.1,0.6-0.2,0.9-0.4
			c0.3-0.1,0.6-0.2,0.9-0.4c0.3-0.1,0.6-0.2,0.9-0.4S52.4,124.4,52.7,124.3z"/>
		<path class="st0" d="M55.2,120.5h0.7v2.3h1.5v0.7h-1.5v4.5h-0.7v-4.5h-1v-0.7h1V120.5z"/>
		<path class="st0" d="M59.7,130.5h-0.8c0.1-0.2,0.2-0.5,0.3-0.7c0.1-0.2,0.2-0.4,0.3-0.6c0.1-0.2,0.2-0.4,0.3-0.7s0.2-0.5,0.3-0.8
			c-0.4-0.8-0.8-1.6-1.2-2.5c-0.4-0.9-0.8-1.7-1.2-2.5h0.8c0.3,0.5,0.5,1,0.7,1.4s0.4,0.8,0.5,1.1c0.2,0.3,0.3,0.7,0.4,1
			c0.1,0.3,0.2,0.6,0.4,0.9c0.1-0.3,0.2-0.6,0.4-0.9c0.1-0.3,0.3-0.6,0.4-1c0.2-0.3,0.3-0.7,0.5-1.1c0.2-0.4,0.4-0.9,0.7-1.4h0.8
			L59.7,130.5z"/>
		<path class="st0" d="M63.8,128.3c0.6-1.7,1.2-3.3,1.8-4.9c0.6-1.6,1.2-3.3,1.8-4.9h0.8c-0.6,1.7-1.2,3.3-1.8,4.9
			c-0.6,1.6-1.2,3.3-1.8,4.9H63.8z"/>
		<path class="st0" d="M76.6,127.4c-0.3,0.2-0.6,0.3-1.1,0.5c-0.5,0.2-1,0.2-1.6,0.2c-0.7,0-1.4-0.1-1.9-0.4c-0.6-0.3-1.1-0.6-1.5-1
			c-0.4-0.4-0.7-0.9-0.9-1.5s-0.3-1.2-0.3-1.8c0-0.7,0.1-1.3,0.4-1.9c0.3-0.6,0.6-1.1,1-1.5s0.9-0.8,1.5-1c0.6-0.2,1.2-0.4,1.9-0.4
			c0.2,0,0.5,0,0.7,0c0.2,0,0.5,0.1,0.7,0.1s0.4,0.1,0.6,0.2c0.2,0.1,0.3,0.2,0.5,0.3c0,0.1-0.1,0.1-0.1,0.2c0,0-0.1,0.1-0.1,0.1
			s-0.1,0.1-0.1,0.2c0,0.1-0.1,0.1-0.1,0.2c-0.3-0.2-0.6-0.3-1-0.4s-0.7-0.1-1.1-0.1c-0.5,0-1.1,0.1-1.5,0.3s-0.9,0.5-1.2,0.9
			s-0.6,0.8-0.8,1.2c-0.2,0.5-0.3,1-0.3,1.5c0,0.5,0.1,1,0.3,1.4c0.2,0.5,0.4,0.9,0.8,1.2c0.3,0.4,0.7,0.6,1.2,0.8
			c0.5,0.2,1,0.3,1.6,0.3c0.3,0,0.5,0,0.7-0.1c0.2,0,0.5-0.1,0.7-0.2s0.4-0.1,0.5-0.2s0.3-0.1,0.4-0.2L76.6,127.4z"/>
		<path class="st0" d="M77.2,125.4c0-0.4,0.1-0.7,0.2-1.1c0.1-0.3,0.3-0.6,0.6-0.9s0.5-0.4,0.9-0.6c0.3-0.1,0.7-0.2,1.1-0.2
			c0.4,0,0.7,0.1,1.1,0.2c0.3,0.1,0.6,0.3,0.9,0.6c0.2,0.2,0.4,0.5,0.6,0.9c0.1,0.3,0.2,0.7,0.2,1.1c0,0.4-0.1,0.7-0.2,1.1
			s-0.3,0.6-0.6,0.9c-0.2,0.2-0.5,0.4-0.9,0.6c-0.3,0.1-0.7,0.2-1.1,0.2c-0.4,0-0.7-0.1-1.1-0.2c-0.3-0.1-0.6-0.3-0.9-0.6
			c-0.2-0.2-0.4-0.5-0.6-0.9C77.3,126.2,77.2,125.8,77.2,125.4z M77.9,125.4c0,0.3,0.1,0.5,0.2,0.8c0.1,0.2,0.2,0.5,0.4,0.6
			c0.2,0.2,0.4,0.3,0.6,0.4c0.2,0.1,0.5,0.2,0.8,0.2s0.5-0.1,0.8-0.2c0.2-0.1,0.5-0.2,0.6-0.4c0.2-0.2,0.3-0.4,0.4-0.6
			c0.1-0.2,0.2-0.5,0.2-0.8s-0.1-0.5-0.2-0.8c-0.1-0.2-0.2-0.5-0.4-0.6c-0.2-0.2-0.4-0.3-0.6-0.4c-0.2-0.1-0.5-0.2-0.8-0.2
			s-0.5,0.1-0.8,0.2c-0.2,0.1-0.5,0.2-0.6,0.4c-0.2,0.2-0.3,0.4-0.4,0.6C78,124.9,77.9,125.1,77.9,125.4z"/>
		<path class="st0" d="M84.1,122.8h0.6c0,0.1,0,0.2,0,0.3c0,0.1,0,0.3,0,0.4c0,0.1,0,0.3,0,0.4c0,0.1,0,0.2,0,0.3
			c0.2-0.4,0.5-0.8,0.8-1c0.4-0.3,0.8-0.4,1.3-0.4c0.5,0,0.9,0.1,1.2,0.4c0.3,0.3,0.5,0.6,0.5,1c0.2-0.4,0.5-0.8,0.8-1
			c0.3-0.3,0.8-0.4,1.3-0.4c0.5,0,0.9,0.1,1.2,0.4c0.3,0.3,0.5,0.7,0.5,1.1v3.8h-0.7v-3.5c0-0.3-0.1-0.5-0.3-0.8
			c-0.2-0.2-0.5-0.3-0.9-0.3c-0.3,0-0.5,0-0.7,0.1c-0.2,0.1-0.4,0.2-0.6,0.4c-0.2,0.2-0.3,0.4-0.4,0.6s-0.1,0.5-0.2,0.7v2.8h-0.7
			v-3.5c0-0.3-0.1-0.5-0.3-0.8s-0.5-0.3-0.8-0.3c-0.3,0-0.5,0-0.8,0.1c-0.2,0.1-0.4,0.2-0.6,0.4c-0.2,0.2-0.3,0.4-0.4,0.6
			s-0.1,0.5-0.1,0.7v2.8h-0.7V122.8z"/>
		<path class="st0" d="M94.1,122.8h0.6c0,0.1,0,0.2,0,0.3c0,0.1,0,0.3,0,0.4c0,0.1,0,0.3,0,0.4c0,0.1,0,0.2,0,0.3
			c0.2-0.4,0.5-0.8,0.8-1c0.4-0.3,0.8-0.4,1.3-0.4c0.5,0,0.9,0.1,1.2,0.4c0.3,0.3,0.5,0.6,0.5,1c0.2-0.4,0.5-0.8,0.8-1
			c0.3-0.3,0.8-0.4,1.3-0.4c0.5,0,0.9,0.1,1.2,0.4c0.3,0.3,0.5,0.7,0.5,1.1v3.8h-0.7v-3.5c0-0.3-0.1-0.5-0.3-0.8
			c-0.2-0.2-0.5-0.3-0.9-0.3c-0.3,0-0.5,0-0.7,0.1c-0.2,0.1-0.4,0.2-0.6,0.4c-0.2,0.2-0.3,0.4-0.4,0.6s-0.1,0.5-0.2,0.7v2.8h-0.7
			v-3.5c0-0.3-0.1-0.5-0.3-0.8s-0.5-0.3-0.8-0.3c-0.3,0-0.5,0-0.8,0.1c-0.2,0.1-0.4,0.2-0.6,0.4c-0.2,0.2-0.3,0.4-0.4,0.6
			s-0.1,0.5-0.1,0.7v2.8h-0.7V122.8z"/>
		<path class="st0" d="M103.9,120.9c0-0.1,0.1-0.3,0.2-0.4s0.2-0.2,0.4-0.2s0.2,0.1,0.4,0.2c0.1,0.1,0.2,0.2,0.2,0.4
			c0,0.2-0.1,0.3-0.2,0.4c-0.1,0.1-0.2,0.1-0.4,0.1s-0.2,0-0.4-0.1S103.9,121.1,103.9,120.9z M104.8,128h-0.7v-5.2h0.7V128z"/>
		<path class="st0" d="M106.9,120.5h0.7v2.3h1.5v0.7h-1.5v4.5h-0.7v-4.5h-1v-0.7h1V120.5z"/>
		<path class="st0" d="M110.7,120.5h0.7v2.3h1.5v0.7h-1.5v4.5h-0.7v-4.5h-1v-0.7h1V120.5z"/>
		<path class="st0" d="M118.1,127.4c-0.3,0.2-0.5,0.4-0.9,0.5c-0.3,0.1-0.7,0.2-1.1,0.2c-0.4,0-0.7-0.1-1.1-0.2
			c-0.3-0.1-0.6-0.3-0.9-0.6c-0.2-0.2-0.4-0.5-0.6-0.9c-0.1-0.3-0.2-0.7-0.2-1.1c0-0.4,0.1-0.7,0.2-1.1c0.1-0.3,0.3-0.6,0.6-0.9
			s0.5-0.4,0.9-0.6c0.3-0.1,0.7-0.2,1.1-0.2c0.6,0,1.1,0.2,1.5,0.5c0.4,0.3,0.7,0.8,0.9,1.3c-0.3,0.1-0.6,0.2-1,0.4
			c-0.4,0.1-0.7,0.3-1.1,0.4s-0.8,0.3-1.1,0.5c-0.4,0.2-0.7,0.3-1,0.4c0.2,0.4,0.4,0.6,0.7,0.9s0.7,0.3,1.1,0.3c0.3,0,0.5,0,0.8-0.1
			c0.3-0.1,0.5-0.2,0.6-0.4L118.1,127.4z M117.7,124.3c-0.1-0.3-0.4-0.5-0.6-0.7s-0.6-0.3-0.9-0.3c-0.3,0-0.5,0.1-0.8,0.2
			c-0.2,0.1-0.5,0.3-0.6,0.4c-0.2,0.2-0.3,0.4-0.4,0.6c-0.1,0.2-0.2,0.5-0.2,0.8c0,0.1,0,0.3,0,0.4c0.3-0.1,0.6-0.2,0.9-0.4
			c0.3-0.1,0.6-0.2,0.9-0.4c0.3-0.1,0.6-0.2,0.9-0.4S117.4,124.4,117.7,124.3z"/>
		<path class="st0" d="M124.1,127.4c-0.3,0.2-0.5,0.4-0.9,0.5c-0.3,0.1-0.7,0.2-1.1,0.2c-0.4,0-0.7-0.1-1.1-0.2
			c-0.3-0.1-0.6-0.3-0.9-0.6c-0.2-0.2-0.4-0.5-0.6-0.9c-0.1-0.3-0.2-0.7-0.2-1.1c0-0.4,0.1-0.7,0.2-1.1c0.1-0.3,0.3-0.6,0.6-0.9
			s0.5-0.4,0.9-0.6c0.3-0.1,0.7-0.2,1.1-0.2c0.6,0,1.1,0.2,1.5,0.5c0.4,0.3,0.7,0.8,0.9,1.3c-0.3,0.1-0.6,0.2-1,0.4
			c-0.4,0.1-0.7,0.3-1.1,0.4s-0.8,0.3-1.1,0.5c-0.4,0.2-0.7,0.3-1,0.4c0.2,0.4,0.4,0.6,0.7,0.9s0.7,0.3,1.1,0.3c0.3,0,0.5,0,0.8-0.1
			c0.3-0.1,0.5-0.2,0.6-0.4L124.1,127.4z M123.6,124.3c-0.1-0.3-0.4-0.5-0.6-0.7s-0.6-0.3-0.9-0.3c-0.3,0-0.5,0.1-0.8,0.2
			c-0.2,0.1-0.5,0.3-0.6,0.4c-0.2,0.2-0.3,0.4-0.4,0.6c-0.1,0.2-0.2,0.5-0.2,0.8c0,0.1,0,0.3,0,0.4c0.3-0.1,0.6-0.2,0.9-0.4
			c0.3-0.1,0.6-0.2,0.9-0.4c0.3-0.1,0.6-0.2,0.9-0.4S123.4,124.4,123.6,124.3z"/>
	</g>
	<g>
		<g>
			<g>
				<path class="st0" d="M69.8,68.2l-0.5-1.5c-0.1-0.2-1.7-5.8-1.4-9.4l0.2-1.7l0.8,1.5c0.2,0.5,0.5,0.9,0.8,1.2
					c-0.4-1-0.8-2.1-0.9-2.4l-0.1-0.2l0.1-0.2c0.4-1.2,4.4-10.7,10.6-14.2c2.4-1.3,4.8-1.6,7.2-0.9l0.8,0.2l-0.6,0.6
					c-2.1,1.9-3.4,7.2-2.7,8.6l0.3,0.7l-0.6,0l0.3,0.1l-0.3,0.6c-0.4,0.9-7.8,13.1-11.6,14.2l-1.2,0.3l0.7-1.1
					c0.5-0.9,1.4-2.8,2.3-4.8c-1.7,3-3.4,6.2-3.6,6.8L69.8,68.2z M68.9,58.9c0.1,2.2,0.6,4.8,1,6.3c1.5-2.9,5.3-10.1,6.6-11.7
					c0,0,0,0,0,0l0,0c0.1-0.2,0.3-0.3,0.3-0.3l0.9-0.2l-0.4,0.9c-0.1,0.3-2.7,6.6-4.3,9.9c3.1-2.5,7.9-9.8,9.3-12.3
					c-1-0.2-2.4-0.7-2.5-0.7L77.5,50l2.6-0.3c0.1,0,1.3-0.1,2.8-0.1c-0.3-2.1,0.8-6.1,2.6-8.3c-1.9-0.3-3.8,0-5.6,1
					c-5.6,3.1-9.5,11.7-10.1,13.4c0.4,1,1.5,3.9,1.6,4.3l0.5,1.5l-1.3-0.9C70.5,60.5,69.7,59.9,68.9,58.9z"/>
			</g>
			<g>
				<path class="st0" d="M69,68.7c0-0.1-0.1-1.8,1-3.8l0.9,0.5C70,67.1,70,68.6,70,68.6L69,68.7z"/>
			</g>
		</g>
		<g>
			<g>
				<path class="st0" d="M73.8,87.1c-5.8,0-10.6-0.1-11.6-0.3C59.2,86.3,58,83,57,80.3c-0.2-0.5-0.3-0.9-0.5-1.3
					c-0.6-1.5-0.6-6.7-0.6-15.1c0-6.8,0-14.5-0.5-19.3c-1-9.8-2.8-12.4-3.8-13.1l-1.3-0.9l1.6,0c0.3,0,30.9-0.1,36.8,0.1l0.2,0.1
					c5.7,2.9,5.9,14.3,5.7,15.9c-0.2,1.9,0.4,25.7,0.5,29.3c0.8,0,2.6,0.1,5.9,0l0.3,0l0.2,0.2c4,5.8-0.1,10.4-0.2,10.5l-0.1,0.2
					l-0.2,0C100,86.8,84.9,87.1,73.8,87.1z M53.2,31.7c1.5,2,2.6,6.3,3.3,12.9C57,49.4,57,57.1,57,63.9c0,6.9,0,13.4,0.5,14.8
					c0.2,0.4,0.3,0.9,0.5,1.3c0.9,2.5,2,5.4,4.3,5.9c2.9,0.5,35.4,0,38.4,0c0.6-0.8,3-4.3,0.1-8.8c-4.5,0.1-6.1,0-6.2,0l-0.4,0
					l0-0.4c0-1.1-0.7-27.7-0.5-29.9c0.3-2.5-0.4-12.4-5.1-14.9C83.2,31.6,58.9,31.7,53.2,31.7z"/>
			</g>
			<g>
				<path class="st0" d="M49.8,41.8c-1.6,0-2.5-2.8-2.5-5.6c0-2.8,0.8-5.5,2.5-5.5s2.5,2.8,2.5,5.5C52.2,39,51.4,41.8,49.8,41.8z
					 M49.8,31.7c-0.6,0-1.5,1.8-1.5,4.5c0,2.8,0.9,4.6,1.5,4.6s1.5-1.8,1.5-4.6C51.2,33.5,50.4,31.7,49.8,31.7z"/>
			</g>
			<g>
				<path class="st0" d="M62.6,87.1c-1.6,0-2.5-2.8-2.5-5.5s0.8-5.5,2.5-5.5s2.5,2.8,2.5,5.5S64.2,87.1,62.6,87.1z M62.6,77
					c-0.6,0-1.5,1.8-1.5,4.5s0.9,4.5,1.5,4.5s1.5-1.8,1.5-4.5S63.2,77,62.6,77z"/>
			</g>
			<g>
				<rect x="49.8" y="40.8" class="st0" width="6.2" height="1"/>
			</g>
			<g>
				<rect x="62.6" y="76" class="st0" width="32.4" height="1"/>
			</g>
		</g>
	</g>
</g>
</svg>
