<?xml version="1.0" encoding="utf-8"?>
<!-- Generator: Adobe Illustrator 21.0.0, SVG Export Plug-In . SVG Version: 6.00 Build 0)  -->
<svg version="1.1" id="Layer_1" xmlns="http://www.w3.org/2000/svg" xmlns:xlink="http://www.w3.org/1999/xlink" x="0px" y="0px"
	 viewBox="0 0 150 150" style="enable-background:new 0 0 150 150;" xml:space="preserve">
<style type="text/css">
	.st0{fill:#FFFFFF;}
	.st1{fill:none;stroke:#394142;stroke-miterlimit:10;}
	.st2{fill:none;stroke:#333A3B;stroke-miterlimit:10;}
	.st3{enable-background:new    ;}
	.st4{fill:#333A3B;}
</style>
<rect y="0" class="st0" width="150" height="150"/>
<g id="individual_x5F_care_x5F_report_x5F_grp">
	<g id="social_x5F_background_x5F_report_x5F_icon_x5F_grp_3_">
		<polygon class="st1" points="95.6,82.2 54.4,82.2 54.4,23.3 86.9,23.3 86.3,32.7 95.6,31 		"/>
		<g>
			<line class="st1" x1="60.3" y1="70.5" x2="90.2" y2="70.5"/>
			<line class="st1" x1="60.3" y1="74.1" x2="90.2" y2="74.1"/>
			<line class="st1" x1="90.2" y1="66.9" x2="60.3" y2="66.9"/>
		</g>
	</g>
	<g>
		<circle class="st2" cx="75" cy="49.6" r="8.8"/>
		<path class="st2" d="M83.7,47.3c1.1,0,1.9,0.9,1.9,1.9c0,1.1-0.9,1.9-1.9,1.9"/>
		<path class="st2" d="M66.2,47.3c-1.1,0-1.9,0.9-1.9,1.9c0,1.1,0.9,1.9,1.9,1.9"/>
		<circle class="st2" cx="73.7" cy="48.3" r="0.4"/>
		<circle class="st2" cx="76.1" cy="48.3" r="0.4"/>
		<path class="st2" d="M79.9,50.7c0,2.3-2.3,4.2-5.1,4.2s-5.1-1.9-5.1-4.2"/>
		<g>
			<path class="st1" d="M80.8,47.4L80.8,47.4c-0.6,0.5-1.4,0.5-2,0l-2.7-2.8c-0.5-0.6-0.5-1.4,0-2l0,0c0.6-0.5,1.4-0.5,2,0l2.7,2.8
				C81.4,46,81.4,46.9,80.8,47.4z"/>
			
				<rect x="77.1" y="43.7" transform="matrix(0.7136 -0.7005 0.7005 0.7136 -9.0357 67.8734)" class="st1" width="2.8" height="2.6"/>
		</g>
	</g>
</g>
<g>
	<g class="st3">
		<path class="st4" d="M31.8,97.4h1v10.7h-1V97.4z"/>
	</g>
	<g class="st3">
		<path class="st4" d="M35.2,102.1h0.7l0.1,1.5c0.2-0.5,0.5-0.9,1-1.2c0.4-0.3,0.9-0.5,1.5-0.5c0.6,0,1.1,0.2,1.4,0.5
			c0.3,0.3,0.5,0.8,0.5,1.3v4.3h-0.8v-4c0-0.3-0.1-0.6-0.4-0.9c-0.2-0.2-0.6-0.4-1-0.4c-0.3,0-0.6,0.1-0.9,0.2
			c-0.3,0.1-0.5,0.3-0.7,0.4c-0.2,0.2-0.4,0.4-0.5,0.7c-0.1,0.3-0.2,0.5-0.2,0.9v3.2h-0.8V102.1z"/>
		<path class="st4" d="M42,105.1c0-0.5,0.1-0.9,0.2-1.3c0.2-0.4,0.4-0.7,0.7-1c0.3-0.3,0.6-0.5,1-0.7c0.4-0.2,0.8-0.2,1.2-0.2
			c0.3,0,0.6,0,0.9,0.1c0.3,0.1,0.5,0.2,0.7,0.3c0.2,0.1,0.4,0.3,0.5,0.5c0.1,0.2,0.3,0.3,0.3,0.5v-6.8h0.8v11.5h-0.8v-0.6
			c0-0.1,0-0.2,0-0.3c0-0.1,0-0.2,0-0.3c-0.2,0.4-0.5,0.7-0.9,1c-0.4,0.3-0.9,0.4-1.5,0.4c-0.5,0-0.9-0.1-1.3-0.2s-0.7-0.4-1-0.7
			s-0.5-0.6-0.6-1C42.1,106,42,105.6,42,105.1z M42.8,105.1c0,0.3,0.1,0.6,0.2,0.9c0.1,0.3,0.3,0.5,0.5,0.7s0.5,0.4,0.7,0.5
			c0.3,0.1,0.6,0.2,0.9,0.2s0.6-0.1,0.9-0.2s0.5-0.3,0.7-0.5s0.4-0.5,0.5-0.7c0.1-0.3,0.2-0.6,0.2-0.9c0-0.3-0.1-0.6-0.2-0.9
			c-0.1-0.3-0.3-0.5-0.5-0.7s-0.5-0.4-0.7-0.5c-0.3-0.1-0.6-0.2-0.9-0.2s-0.6,0.1-0.9,0.2c-0.3,0.1-0.5,0.3-0.7,0.5
			s-0.4,0.4-0.5,0.7C42.9,104.5,42.8,104.8,42.8,105.1z"/>
		<path class="st4" d="M50.2,100c0-0.2,0.1-0.3,0.2-0.4s0.3-0.2,0.4-0.2s0.3,0.1,0.4,0.2c0.1,0.1,0.2,0.3,0.2,0.4
			c0,0.2-0.1,0.3-0.2,0.4c-0.1,0.1-0.3,0.2-0.4,0.2s-0.3-0.1-0.4-0.2C50.3,100.3,50.2,100.2,50.2,100z M51.2,108.1h-0.8v-6h0.8
			V108.1z"/>
		<path class="st4" d="M55.4,108.5c-0.3-0.5-0.5-1.1-0.8-1.6c-0.3-0.5-0.5-1.1-0.7-1.6c-0.2-0.5-0.5-1.1-0.7-1.6
			c-0.2-0.5-0.5-1.1-0.8-1.6h0.9c0.3,0.6,0.6,1.1,0.8,1.6c0.2,0.5,0.4,0.9,0.5,1.2c0.2,0.4,0.3,0.7,0.4,1c0.1,0.3,0.3,0.6,0.4,1
			c0.1-0.3,0.3-0.6,0.4-1c0.1-0.3,0.3-0.7,0.4-1c0.2-0.4,0.3-0.8,0.5-1.2c0.2-0.5,0.5-1,0.8-1.6h0.9c-0.5,1.1-1,2.1-1.5,3.2
			C56.5,106.4,56,107.4,55.4,108.5z"/>
		<path class="st4" d="M59.5,100c0-0.2,0.1-0.3,0.2-0.4s0.3-0.2,0.4-0.2s0.3,0.1,0.4,0.2c0.1,0.1,0.2,0.3,0.2,0.4
			c0,0.2-0.1,0.3-0.2,0.4c-0.1,0.1-0.3,0.2-0.4,0.2s-0.3-0.1-0.4-0.2C59.5,100.3,59.5,100.2,59.5,100z M60.5,108.1h-0.8v-6h0.8
			V108.1z"/>
		<path class="st4" d="M62.1,105.1c0-0.5,0.1-0.9,0.2-1.3c0.2-0.4,0.4-0.7,0.7-1c0.3-0.3,0.6-0.5,1-0.7c0.4-0.2,0.8-0.2,1.2-0.2
			c0.3,0,0.6,0,0.9,0.1c0.3,0.1,0.5,0.2,0.7,0.3c0.2,0.1,0.4,0.3,0.5,0.5c0.1,0.2,0.3,0.3,0.3,0.5v-6.8h0.8v11.5h-0.8v-0.6
			c0-0.1,0-0.2,0-0.3c0-0.1,0-0.2,0-0.3c-0.2,0.4-0.5,0.7-0.9,1c-0.4,0.3-0.9,0.4-1.5,0.4c-0.5,0-0.9-0.1-1.3-0.2s-0.7-0.4-1-0.7
			s-0.5-0.6-0.6-1C62.2,106,62.1,105.6,62.1,105.1z M62.9,105.1c0,0.3,0.1,0.6,0.2,0.9c0.1,0.3,0.3,0.5,0.5,0.7s0.5,0.4,0.7,0.5
			c0.3,0.1,0.6,0.2,0.9,0.2s0.6-0.1,0.9-0.2s0.5-0.3,0.7-0.5s0.4-0.5,0.5-0.7c0.1-0.3,0.2-0.6,0.2-0.9c0-0.3-0.1-0.6-0.2-0.9
			c-0.1-0.3-0.3-0.5-0.5-0.7s-0.5-0.4-0.7-0.5c-0.3-0.1-0.6-0.2-0.9-0.2s-0.6,0.1-0.9,0.2c-0.3,0.1-0.5,0.3-0.7,0.5
			s-0.4,0.4-0.5,0.7C63,104.5,62.9,104.8,62.9,105.1z"/>
		<path class="st4" d="M75.7,108.2H75l-0.1-1.6c-0.2,0.5-0.5,0.9-1,1.2c-0.4,0.3-1,0.5-1.6,0.5c-0.6,0-1.1-0.2-1.4-0.5
			c-0.3-0.3-0.5-0.8-0.5-1.3v-4.3h0.8v4c0,0.3,0.1,0.6,0.4,0.9c0.2,0.2,0.5,0.4,1,0.4c0.3,0,0.6-0.1,0.9-0.2
			c0.3-0.1,0.5-0.3,0.7-0.4c0.2-0.2,0.4-0.4,0.5-0.7c0.1-0.3,0.2-0.5,0.2-0.9v-3.2h0.8V108.2z"/>
		<path class="st4" d="M77.3,105.2c0-0.4,0.1-0.8,0.2-1.2s0.4-0.7,0.7-1c0.3-0.3,0.6-0.5,1-0.7s0.8-0.2,1.2-0.2c0.3,0,0.6,0,0.8,0.1
			s0.5,0.2,0.7,0.3s0.4,0.3,0.5,0.5c0.1,0.2,0.2,0.3,0.3,0.5l0.1-1.2h0.8v6h-0.8v-0.6c0-0.1,0-0.2,0-0.3c0-0.1,0-0.2,0-0.3
			c-0.1,0.2-0.2,0.3-0.3,0.5c-0.1,0.2-0.3,0.3-0.5,0.4s-0.4,0.2-0.7,0.3c-0.3,0.1-0.5,0.1-0.9,0.1c-0.5,0-0.9-0.1-1.3-0.2
			c-0.4-0.2-0.7-0.4-1-0.7c-0.3-0.3-0.5-0.6-0.7-1C77.3,106,77.3,105.6,77.3,105.2z M78.1,105.1c0,0.3,0.1,0.6,0.2,0.9
			c0.1,0.3,0.3,0.5,0.5,0.7s0.5,0.4,0.7,0.5s0.6,0.2,0.9,0.2s0.6-0.1,0.9-0.2c0.3-0.1,0.5-0.3,0.7-0.5s0.4-0.5,0.5-0.7
			c0.1-0.3,0.2-0.6,0.2-0.9c0-0.3-0.1-0.6-0.2-0.9c-0.1-0.3-0.3-0.5-0.5-0.7s-0.5-0.4-0.7-0.5c-0.3-0.1-0.6-0.2-0.9-0.2
			s-0.6,0.1-0.9,0.2c-0.3,0.1-0.5,0.3-0.7,0.5s-0.4,0.4-0.5,0.7C78.2,104.5,78.1,104.8,78.1,105.1z"/>
		<path class="st4" d="M86.5,108.1h-0.8V96.7h0.8V108.1z"/>
	</g>
	<g class="st3">
		<path class="st4" d="M100.5,107.4c-0.3,0.2-0.7,0.4-1.3,0.6c-0.5,0.2-1.1,0.3-1.8,0.3c-0.8,0-1.6-0.1-2.2-0.4
			c-0.7-0.3-1.2-0.7-1.7-1.2c-0.5-0.5-0.8-1.1-1.1-1.7c-0.3-0.7-0.4-1.3-0.4-2.1c0-0.8,0.1-1.5,0.4-2.2c0.3-0.7,0.7-1.3,1.2-1.8
			c0.5-0.5,1.1-0.9,1.8-1.2c0.7-0.3,1.4-0.4,2.1-0.4c0.3,0,0.5,0,0.8,0.1c0.3,0,0.5,0.1,0.8,0.2c0.3,0.1,0.5,0.2,0.7,0.2
			c0.2,0.1,0.4,0.2,0.5,0.3c0,0.1-0.1,0.1-0.1,0.2c0,0-0.1,0.1-0.1,0.2c0,0.1-0.1,0.1-0.1,0.2c0,0.1-0.1,0.2-0.2,0.3
			c-0.3-0.2-0.7-0.4-1.1-0.5c-0.4-0.1-0.8-0.2-1.2-0.2c-0.6,0-1.2,0.1-1.8,0.4c-0.6,0.2-1,0.6-1.4,1s-0.7,0.9-1,1.4
			c-0.2,0.5-0.4,1.1-0.4,1.7c0,0.6,0.1,1.1,0.3,1.7c0.2,0.5,0.5,1,0.9,1.4s0.9,0.7,1.4,1c0.5,0.2,1.1,0.4,1.8,0.4
			c0.3,0,0.6,0,0.8-0.1c0.3,0,0.5-0.1,0.8-0.2c0.2-0.1,0.4-0.2,0.6-0.2s0.3-0.2,0.4-0.2L100.5,107.4z"/>
	</g>
	<g class="st3">
		<path class="st4" d="M101.2,105.2c0-0.4,0.1-0.8,0.2-1.2s0.4-0.7,0.7-1c0.3-0.3,0.6-0.5,1-0.7s0.8-0.2,1.2-0.2
			c0.3,0,0.6,0,0.8,0.1s0.5,0.2,0.7,0.3s0.4,0.3,0.5,0.5c0.1,0.2,0.2,0.3,0.3,0.5l0.1-1.2h0.8v6h-0.8v-0.6c0-0.1,0-0.2,0-0.3
			c0-0.1,0-0.2,0-0.3c-0.1,0.2-0.2,0.3-0.3,0.5c-0.1,0.2-0.3,0.3-0.5,0.4s-0.4,0.2-0.7,0.3c-0.3,0.1-0.5,0.1-0.9,0.1
			c-0.5,0-0.9-0.1-1.3-0.2c-0.4-0.2-0.7-0.4-1-0.7c-0.3-0.3-0.5-0.6-0.7-1C101.3,106,101.2,105.6,101.2,105.2z M102.1,105.1
			c0,0.3,0.1,0.6,0.2,0.9c0.1,0.3,0.3,0.5,0.5,0.7s0.5,0.4,0.7,0.5s0.6,0.2,0.9,0.2s0.6-0.1,0.9-0.2c0.3-0.1,0.5-0.3,0.7-0.5
			s0.4-0.5,0.5-0.7c0.1-0.3,0.2-0.6,0.2-0.9c0-0.3-0.1-0.6-0.2-0.9c-0.1-0.3-0.3-0.5-0.5-0.7s-0.5-0.4-0.7-0.5
			c-0.3-0.1-0.6-0.2-0.9-0.2s-0.6,0.1-0.9,0.2c-0.3,0.1-0.5,0.3-0.7,0.5s-0.4,0.4-0.5,0.7C102.1,104.5,102.1,104.8,102.1,105.1z"/>
	</g>
	<g class="st3">
		<path class="st4" d="M112.8,103.1c-0.3,0-0.6,0-0.9,0.1c-0.3,0.1-0.5,0.2-0.7,0.4s-0.4,0.4-0.5,0.6s-0.2,0.5-0.2,0.8v3.1h-0.8v-6
			h0.7l0.1,1.5c0.1-0.3,0.3-0.5,0.5-0.7c0.2-0.2,0.4-0.4,0.6-0.5c0.2-0.1,0.5-0.3,0.7-0.3s0.5-0.1,0.7-0.1L112.8,103.1z"/>
	</g>
	<g class="st3">
		<path class="st4" d="M118.8,107.4c-0.3,0.3-0.6,0.5-1,0.6c-0.4,0.2-0.8,0.2-1.2,0.2c-0.4,0-0.9-0.1-1.2-0.2s-0.7-0.4-1-0.7
			s-0.5-0.6-0.7-1s-0.2-0.8-0.2-1.2s0.1-0.8,0.2-1.2s0.4-0.7,0.7-1s0.6-0.5,1-0.7s0.8-0.2,1.2-0.2c0.7,0,1.2,0.2,1.7,0.6
			c0.5,0.4,0.8,0.9,1.1,1.5c-0.3,0.1-0.7,0.3-1.1,0.4s-0.8,0.3-1.3,0.5c-0.4,0.2-0.9,0.3-1.3,0.5c-0.4,0.2-0.8,0.3-1.2,0.5
			c0.2,0.4,0.5,0.7,0.8,1c0.4,0.3,0.8,0.4,1.3,0.4c0.3,0,0.6-0.1,0.9-0.2c0.3-0.1,0.5-0.3,0.7-0.4L118.8,107.4z M118.3,103.9
			c-0.2-0.3-0.4-0.6-0.7-0.8c-0.3-0.2-0.7-0.3-1-0.3c-0.3,0-0.6,0.1-0.9,0.2c-0.3,0.1-0.5,0.3-0.7,0.5s-0.4,0.5-0.5,0.7
			c-0.1,0.3-0.2,0.6-0.2,0.9c0,0.2,0,0.3,0,0.4c0.3-0.1,0.6-0.3,1-0.4c0.3-0.1,0.7-0.3,1-0.4s0.7-0.3,1-0.4S118,104,118.3,103.9z"/>
	</g>
	<g class="st3">
		<path class="st4" d="M63.4,126.1v-10.7H66c0.4,0,0.9,0.1,1.3,0.2c0.4,0.1,0.8,0.3,1.1,0.6c0.3,0.3,0.6,0.6,0.8,1
			c0.2,0.4,0.3,0.9,0.3,1.4c0,0.4-0.1,0.8-0.2,1.2c-0.1,0.4-0.3,0.7-0.6,1c-0.3,0.3-0.6,0.6-1.1,0.7c-0.4,0.2-1,0.3-1.6,0.3h-1.6
			v4.3H63.4z M64.4,120.9H66c0.5,0,0.9-0.1,1.2-0.2c0.3-0.2,0.6-0.4,0.8-0.6c0.2-0.2,0.3-0.5,0.4-0.8c0.1-0.3,0.1-0.5,0.1-0.7
			c0-0.3-0.1-0.5-0.2-0.8s-0.3-0.5-0.5-0.7c-0.2-0.2-0.5-0.4-0.8-0.5s-0.7-0.2-1.1-0.2h-1.6V120.9z"/>
	</g>
	<g class="st3">
		<path class="st4" d="M71.8,126.1H71v-11.5h0.8V126.1z"/>
		<path class="st4" d="M73.5,123.2c0-0.4,0.1-0.8,0.2-1.2s0.4-0.7,0.7-1c0.3-0.3,0.6-0.5,1-0.7s0.8-0.2,1.2-0.2c0.3,0,0.6,0,0.8,0.1
			s0.5,0.2,0.7,0.3s0.4,0.3,0.5,0.5c0.1,0.2,0.2,0.3,0.3,0.5l0.1-1.2h0.8v6H79v-0.6c0-0.1,0-0.2,0-0.3c0-0.1,0-0.2,0-0.3
			c-0.1,0.2-0.2,0.3-0.3,0.5c-0.1,0.2-0.3,0.3-0.5,0.4s-0.4,0.2-0.7,0.3c-0.3,0.1-0.5,0.1-0.9,0.1c-0.5,0-0.9-0.1-1.3-0.2
			c-0.4-0.2-0.7-0.4-1-0.7c-0.3-0.3-0.5-0.6-0.7-1C73.5,124,73.5,123.6,73.5,123.2z M74.3,123.1c0,0.3,0.1,0.6,0.2,0.9
			c0.1,0.3,0.3,0.5,0.5,0.7s0.5,0.4,0.7,0.5c0.3,0.1,0.6,0.2,0.9,0.2s0.6-0.1,0.9-0.2c0.3-0.1,0.5-0.3,0.7-0.5s0.4-0.5,0.5-0.7
			c0.1-0.3,0.2-0.6,0.2-0.9c0-0.3-0.1-0.6-0.2-0.9c-0.1-0.3-0.3-0.5-0.5-0.7s-0.5-0.4-0.7-0.5c-0.3-0.1-0.6-0.2-0.9-0.2
			s-0.6,0.1-0.9,0.2c-0.3,0.1-0.5,0.3-0.7,0.5s-0.4,0.4-0.5,0.7C74.3,122.5,74.3,122.8,74.3,123.1z"/>
		<path class="st4" d="M81.9,120.1h0.7l0.1,1.5c0.2-0.5,0.5-0.9,1-1.2c0.4-0.3,0.9-0.5,1.5-0.5c0.6,0,1.1,0.2,1.4,0.5
			s0.5,0.8,0.5,1.3v4.3h-0.8v-4c0-0.3-0.1-0.6-0.4-0.9s-0.5-0.4-1-0.4c-0.3,0-0.6,0.1-0.9,0.2c-0.3,0.1-0.5,0.3-0.7,0.4
			c-0.2,0.2-0.4,0.4-0.5,0.7c-0.1,0.3-0.2,0.5-0.2,0.9v3.2h-0.8V120.1z"/>
	</g>
</g>
</svg>
