<?xml version="1.0" encoding="utf-8"?>
<!-- Generator: Adobe Illustrator 21.0.0, SVG Export Plug-In . SVG Version: 6.00 Build 0)  -->
<svg version="1.1" id="child_x5F_default_x5F_photo_x5F_SVG"
	 xmlns="http://www.w3.org/2000/svg" xmlns:xlink="http://www.w3.org/1999/xlink" x="0px" y="0px" viewBox="0 0 91 91"
	 style="enable-background:new 0 0 91 91;" xml:space="preserve">
<style type="text/css">
	.st0{fill:#FFFFFF;}
	.st1{fill:none;stroke:#333A3B;stroke-width:2;stroke-miterlimit:10;}
	.st2{fill:#333A3B;}
</style>
<rect class="st0" width="91" height="91"/>
<g>
	<circle class="st1" cx="45.5" cy="45.5" r="18.9"/>
	<path class="st1" d="M64.4,40.5c2.3,0,4.1,1.8,4.1,4.1s-1.8,4.1-4.1,4.1"/>
	<path class="st1" d="M26.6,40.5c-2.3,0-4.1,1.8-4.1,4.1s1.8,4.1,4.1,4.1"/>
	<g>
		<path class="st2" d="M42.8,44.5c-1,0-1.9-0.9-1.9-1.9s0.9-1.9,1.9-1.9s1.9,0.9,1.9,1.9S43.8,44.5,42.8,44.5z"/>
	</g>
	<g>
		<path class="st2" d="M47.9,44.5c-1,0-1.9-0.9-1.9-1.9s0.9-1.9,1.9-1.9s1.9,0.9,1.9,1.9S48.9,44.5,47.9,44.5z"/>
	</g>
	<path class="st1" d="M56.3,47.7c0,5-4.9,9.1-11,9.1s-11-4.1-11-9.1"/>
</g>
</svg>
