<?xml version="1.0" encoding="utf-8"?>
<!-- Generator: Adobe Illustrator 21.0.0, SVG Export Plug-In . SVG Version: 6.00 Build 0)  -->
<svg version="1.1" id="home_x5F_quick_x5F_Stats_x5F_icon"
	 xmlns="http://www.w3.org/2000/svg" xmlns:xlink="http://www.w3.org/1999/xlink" x="0px" y="0px" viewBox="0 0 129.5 142"
	 style="enable-background:new 0 0 129.5 142;" xml:space="preserve">
<style type="text/css">
	.st0{fill:none;stroke:#3A4243;stroke-width:2;stroke-miterlimit:10;}
	.st1{fill:none;stroke:#3A4243;stroke-miterlimit:10;}
</style>
<g id="CICL_x5F_disposed_x5F_grp">
	<circle class="st0" cx="64.8" cy="36.3" r="22"/>
	<line class="st0" x1="64.8" y1="2.7" x2="64.8" y2="14.3"/>
	<line class="st0" x1="64.8" y1="58.4" x2="64.8" y2="139.3"/>
	<line class="st0" x1="26.6" y1="139.3" x2="102.6" y2="139.3"/>
	<line class="st0" x1="13.2" y1="36.8" x2="42.6" y2="36.6"/>
	<line class="st0" x1="86.8" y1="36.1" x2="116.3" y2="35.9"/>
	<g>
		<polygon class="st0" points="29.3,39.1 46.3,91.7 13.9,91.7 		"/>
		<path class="st0" d="M46.5,92.1c0,9.2-7.4,16.6-16.5,16.6s-16.5-7.4-16.5-16.6"/>
	</g>
	<g>
		<polygon class="st0" points="98.6,39.1 115.6,91.7 83.2,91.7 		"/>
		<path class="st0" d="M115.9,92.1c0,9.2-7.4,16.6-16.5,16.6S83,101.3,83,92.1"/>
	</g>
	<g id="CICL_x5F_disposed_x5F_grp_2_">
		<polyline class="st0" points="56.1,40.4 62.3,44.7 75.1,27.6 		"/>
	</g>
</g>
</svg>
