<?xml version="1.0" encoding="utf-8"?>
<!-- Generator: Adobe Illustrator 21.0.0, SVG Export Plug-In . SVG Version: 6.00 Build 0)  -->
<svg version="1.1" id="home_x5F_quick_x5F_Stats_x5F_icon"
	 xmlns="http://www.w3.org/2000/svg" xmlns:xlink="http://www.w3.org/1999/xlink" x="0px" y="0px" viewBox="0 0 129.5 142"
	 style="enable-background:new 0 0 129.5 142;" xml:space="preserve">
<style type="text/css">
	.st0{fill:none;stroke:#3A4243;stroke-width:2;stroke-miterlimit:10;}
	.st1{fill:none;stroke:#3A4243;stroke-miterlimit:10;}
</style>
<g id="CICL_x5F_registered_x5F_grp">
	<circle class="st0" cx="64.8" cy="36.3" r="22"/>
	<line class="st0" x1="64.8" y1="2.7" x2="64.8" y2="14.3"/>
	<line class="st0" x1="64.8" y1="58.4" x2="64.8" y2="139.3"/>
	<line class="st0" x1="26.6" y1="139.3" x2="102.6" y2="139.3"/>
	<line class="st0" x1="13.6" y1="42.7" x2="42.7" y2="39.1"/>
	<line class="st0" x1="86.6" y1="33.6" x2="115.9" y2="30"/>
	<g>
		<polygon class="st0" points="29.3,42.7 46.3,95.2 13.9,95.2 		"/>
		<path class="st0" d="M46.5,95.6c0,9.2-7.4,16.6-16.5,16.6s-16.5-7.4-16.5-16.6"/>
	</g>
	<g>
		<polygon class="st0" points="98.6,34.1 115.6,86.7 83.2,86.7 		"/>
		<path class="st0" d="M115.9,87.1c0,9.2-7.4,16.6-16.5,16.6S83,96.3,83,87.1"/>
	</g>
	<g>
		<path class="st1" d="M74.5,30.5l-5-5l2.5-2.5c0.3-0.3,0.8-0.3,1.2,0l3.9,3.9c0.3,0.3,0.3,0.8,0,1.2L74.5,30.5z"/>
		
			<rect x="60.8" y="26.2" transform="matrix(0.7071 0.7071 -0.7071 0.7071 44.0091 -35.0937)" class="st1" width="7.1" height="18.8"/>
		<polygon class="st1" points="52.4,47.5 59.3,45.7 54.2,40.7 		"/>
		<polyline class="st1" points="52.9,45.7 54.3,45.6 54.2,47.1 		"/>
		<line class="st1" x1="71" y1="28.9" x2="57.7" y2="42.2"/>
	</g>
</g>
</svg>
