<?xml version="1.0" encoding="utf-8"?>
<!-- Generator: Adobe Illustrator 21.0.0, SVG Export Plug-In . SVG Version: 6.00 Build 0)  -->
<svg version="1.1" id="home_x5F_quick_x5F_Stats_x5F_icon"
	 xmlns="http://www.w3.org/2000/svg" xmlns:xlink="http://www.w3.org/1999/xlink" x="0px" y="0px" viewBox="0 0 129.5 142"
	 style="enable-background:new 0 0 129.5 142;" xml:space="preserve">
<style type="text/css">
	.st0{fill:none;stroke:#3A4243;stroke-width:2;stroke-miterlimit:10;}
	.st1{fill:none;stroke:#3A4243;stroke-miterlimit:10;}
</style>
<g id="CNCP_x5F_disposed_x5F_grp">
	<g id="CICL_x5F_disposed_x5F_grp_1_">
		<circle class="st0" cx="67.4" cy="96.8" r="20.8"/>
		<polyline class="st0" points="59.2,100.6 65,104.7 77.2,88.5 		"/>
	</g>
	<g>
		<path class="st0" d="M23.7,24.4c0,0,3.9,6,10,6.7c6.1,0.7,29.6-4.2,36.7-3.4s53.8,10.5,55.1,12.1c1.3,1.6-0.6,3.5-4.5,3.5
			c-3.9,0-30.3-5.5-32.8-5.5c-5.2,0.3-20,1-23.2,2.3c-3.2,1.3-7.8,5.5-2.3,8.7s17.4,5.8,19.8,7.1s0.5,4.2-2.7,4.2
			c-3.2,0-21.2-4.8-23.5-5.2C54,54.7,34,53.7,27.9,51.5c-4.2-2.9-19-16.7-19-16.7"/>
		<path class="st0" d="M106.4,41.1c0,0,10,3.9,11,5.5c1,1.6-0.1,4.2-5.5,2.9c-5.4-1.3-24.4-11.6-29.4-11.3"/>
		<path class="st0" d="M82.5,38.3c0,0,23.8,10,25.3,13.2c1.5,3.3-3.7,3.9-6.1,2.9c-4.5-1.9-26.2-15.6-27.7-15.5"/>
		<path class="st0" d="M72.9,39c0,0,18.6,10.3,19.8,12.3c1.2,1.9-1.4,5-3.7,3.6c-2.2-1.4-18.4-14.6-20.9-15.3"/>
	</g>
</g>
</svg>
