<?xml version="1.0" encoding="utf-8"?>
<!-- Generator: Adobe Illustrator 21.0.0, SVG Export Plug-In . SVG Version: 6.00 Build 0)  -->
<svg version="1.1" id="Layer_1" xmlns="http://www.w3.org/2000/svg" xmlns:xlink="http://www.w3.org/1999/xlink" x="0px" y="0px"
	 viewBox="0 0 35.1 31.8" style="enable-background:new 0 0 35.1 31.8;" xml:space="preserve">
<style type="text/css">
	.st0{fill:#343A3B;}
	.st1{fill:#3B6E5E;}
</style>
<g>
	<path class="st0" d="M2.6,26.5c-1.5,0-2.6,1.2-2.6,2.6c0,1.5,1.2,2.6,2.6,2.6c1.5,0,2.6-1.2,2.6-2.6C5.3,27.7,4.1,26.5,2.6,26.5z
		 M2.6,30.9c-1,0-1.8-0.8-1.8-1.8c0-1,0.8-1.8,1.8-1.8s1.8,0.8,1.8,1.8C4.4,30.1,3.6,30.9,2.6,30.9z"/>
	<path class="st0" d="M14.1,26.5c-1.5,0-2.6,1.2-2.6,2.6c0,1.5,1.2,2.6,2.6,2.6c1.5,0,2.6-1.2,2.6-2.6
		C16.7,27.7,15.5,26.5,14.1,26.5z M14.1,30.9c-1,0-1.8-0.8-1.8-1.8c0-1,0.8-1.8,1.8-1.8c1,0,1.8,0.8,1.8,1.8
		C15.9,30.1,15.1,30.9,14.1,30.9z"/>
	<path class="st0" d="M26.4,27.1c2.6-3.4,8.8-12.2,8.8-16.7C35.2,4.7,30.5,0,24.8,0S14.4,4.7,14.4,10.4c0,4.5,6.2,13.3,8.8,16.7
		c-0.6,0.5-1,1.2-1,2.1c0,1.5,1.2,2.6,2.6,2.6c1.5,0,2.6-1.2,2.6-2.6C27.4,28.3,27,27.6,26.4,27.1z M15.9,10.4c0-4.9,4-8.9,8.9-8.9
		s8.9,4,8.9,8.9c0,4.2-6.7,13.4-8.8,16.2c0,0-0.1,0-0.1,0c-0.1,0-0.1,0-0.1,0C22.6,23.8,15.9,14.6,15.9,10.4z M24.8,30.9
		c-1,0-1.8-0.8-1.8-1.8c0-0.6,0.3-1.1,0.7-1.4c0.2,0.3,0.4,0.5,0.5,0.6l0.6,0.7l0.6-0.7c0.1-0.1,0.3-0.3,0.5-0.6
		c0.4,0.3,0.7,0.8,0.7,1.4C26.6,30.1,25.8,30.9,24.8,30.9z"/>
	<path class="st0" d="M32.4,10.4c0-4.2-3.4-7.6-7.6-7.6s-7.6,3.4-7.6,7.6c0,4.2,3.4,7.6,7.6,7.6S32.4,14.6,32.4,10.4z M18.7,10.4
		c0-3.4,2.7-6.1,6.1-6.1s6.1,2.7,6.1,6.1s-2.7,6.1-6.1,6.1S18.7,13.7,18.7,10.4z"/>
</g>
</svg>
