<?xml version="1.0" encoding="utf-8"?>
<!-- Generator: Adobe Illustrator 21.0.0, SVG Export Plug-In . SVG Version: 6.00 Build 0)  -->
<svg version="1.1" id="Layer_1" xmlns="http://www.w3.org/2000/svg" xmlns:xlink="http://www.w3.org/1999/xlink" x="0px" y="0px"
	 viewBox="0 0 20.8 29.1" style="enable-background:new 0 0 20.8 29.1;" xml:space="preserve">
<style type="text/css">
	.st0{fill:#3B6E5E;}
</style>
<g>
	<g>
		<path class="st0" d="M10.4,29.1l-0.6-0.7c-1-1.3-9.8-12.6-9.8-18C0,4.7,4.7,0,10.4,0s10.4,4.7,10.4,10.4c0,5.4-8.8,16.7-9.8,18
			L10.4,29.1z M10.4,1.5c-4.9,0-8.9,4-8.9,8.9c0,4.3,7,13.8,8.9,16.4c1.9-2.5,8.9-12.1,8.9-16.4C19.3,5.5,15.3,1.5,10.4,1.5z"/>
	</g>
	<g>
		<path class="st0" d="M10.4,15.9c-3.1,0-5.6-2.5-5.6-5.6s2.5-5.6,5.6-5.6S16,7.2,16,10.3S13.5,15.9,10.4,15.9z M10.4,5.9
			c-2.5,0-4.5,2-4.5,4.5s2,4.5,4.5,4.5s4.5-2,4.5-4.5S12.8,5.9,10.4,5.9z"/>
	</g>
</g>
</svg>
