<?xml version="1.0" encoding="utf-8"?>
<!-- Generator: Adobe Illustrator 21.0.0, SVG Export Plug-In . SVG Version: 6.00 Build 0)  -->
<svg version="1.1" id="cpis_x5F_logo" xmlns="http://www.w3.org/2000/svg" xmlns:xlink="http://www.w3.org/1999/xlink" x="0px"
	 y="0px" viewBox="0 0 364.5 278.8" style="enable-background:new 0 0 364.5 278.8;" xml:space="preserve">
<style type="text/css">
	.st0{fill:#EFB46A;}
	.st1{fill:#F09667;}
	.st2{fill:#343A3B;}
</style>
<g>
	<g>
		<path class="st0" d="M364.3,168.7c-0.6-4.7-2.7-8.5-6.1-11.8c-6-6.1-13.2-7.1-21.4-5.9c-11,1.6-22,3.2-32.9,5
			c-4.8,0.8-9.7,1.5-14.5,2.2c-0.5,0.1-1,0.1-1.3,0.2c-1.3,0.2-2.6,0.3-3.9,0.5c-3.2,0.4-6.5,0.8-9.8,1.1c-11,1.1-22,1.8-33.1,1.8
			c-3.3,0-6.7-0.1-10-0.2c8.8-1,17.6-2.3,26.2-4c17.6-3.6,36.8-7.9,52.7-18.1c6.8-4.3,11.6-13.3,7-21c-3.4-5.7-10.5-7.7-16.7-6.1
			c-0.9,0.2-1.8,0.6-2.7,1c-0.2-4.5-2.5-8.7-6.8-11.4c-1-0.6-1.8-1-3-1.5c-3.9-1.6-1.4-0.5-0.6-0.2c-3.6-1.5-6.9-2.9-10.9-2.9
			c-5,0-10.2,2.1-15,3.5c-7.5,2.1-15.1,3.9-22.8,5.4c-3.5,0.7-7,1.3-10.5,1.8c-0.2,0-3,0.4-3.4,0.4c-2.2,0.2-4.4,0.5-6.5,0.6
			c-7.8,0.6-15.6,0.7-23.3,0.3c-13.7-0.6-25.7-2.6-39.5-6.9c-3-0.9-5.9-2-8.9-3.1c-3.7-1.4-3.4-1.3-7.2-3.1
			c-5.9-2.8-11.6-5.9-17-9.5c-6-3.9-11.2-7.3-16-11.5c-5.8-5-11.8-10.1-18.6-13.8c-6.7-3.6-13.2,2.3-12,9.2
			C77.5,80,83,88.3,89.6,95.5c-1.5-1-3-2.1-4.5-3.1c-4.7-3.3-9.5-6.4-14.2-9.7c-4.6-3.3-9-7.2-14.1-9.7C49,69.1,38.5,77.4,44,85.8
			c5.5,8.3,14,15.1,21.4,21.8c2.9,2.6,5.9,5.1,8.9,7.5c1.9,17.5,17.6,32,30.5,42.8c15.1,12.6,32.7,21.2,51.1,28.1
			c24.1,9.1,49.9,13,75.8,14.2c-12.1,3-24,4.6-36.3,5.5c-13.4,0.9-26.8,1.8-40.3,1.8c-13.7,0-27.4,1.2-41.1,1.6
			c-2.4,0.1-4.2,1.4-5.4,3.1c-2.1-0.4-4.2-0.7-6.3-1c-1-0.1-2.1-0.3-3.1-0.3c-1.5,0.2-2.9,0.4-4.4,0.6c0.3-0.2-3.3,0.5-4.4,0.8
			c-1.6,0.4-3,1.1-4.3,1.9c-3.8,2.5-6.1,6.6-6.1,11.2c0,3.2,1,5.8,2.5,8.2c4.8,11.3,16,15.7,27.7,18c9.9,1.9,20,3,30,3.6
			c18.1,1.1,36.3,0.6,54.3-1.4c37.6-4.3,74.7-13.8,108.3-31.4c9.1-4.7,18.7-9.7,26.9-16c4.3-3.3,8.1-6.6,11.6-10.8
			c0.6-0.7,1.2-1.4,1.8-2.1c1.2-0.2,2.3-0.4,3.5-0.7C357.3,190.4,365.9,180.2,364.3,168.7z"/>
		<path class="st0" d="M323.3,206.6c-0.2-2.4-1.7-5.1-4.3-5.6c-8.6-1.6-17.4,4.5-24.7,8.2c-7.7,3.9-14.9,8.4-22.7,12
			c-14.8,6.9-33.6,10.9-48.2,18.6c-3.5,1.9-6.1,6.3-5.9,10.3c0,1,0.1,2.3,0.4,3.2c1.7,5.5,6,8.2,11.5,8.8
			c19.5,1.9,38.8-7.2,55.5-16.5c8.1-4.5,16.5-9.4,23.3-15.7c3.6-3.3,7.6-6.8,10.3-10.9C320.8,215.5,323.6,210.9,323.3,206.6z"/>
		<path class="st0" d="M357.4,58.1c-3.9-8.7-13.9-11.7-22.5-12.5c-6.5-0.6-13,0.1-19.4,1.1c-0.6,0.1-1.1,0.2-1.7,0.3
			C303.4,40,293.2,33.5,280.9,30c-12.5-3.5-25.4-5.4-37.9-9.2c-13.4-4.1-26-10.1-39.7-13c-15.5-3.3-32.7-3.6-47.8,1.5
			c-7.2,2.4-14.2,5.3-20.7,9.3c-3.3,2.1-6.6,4.4-8.8,6.4c-3,2.7-6.8,4.8-9.5,7.7c-5.5,6-4.4,14.5,2.4,18.6c4.1,2.5,8,1.2,11.9,0.4
			c-1,1.5-1.8,3-2.5,4.6c-0.8,1.9-1.1,3.7-0.8,5.4c-4.1-1.1-7.6-2.6-12.6-1.8c-3,0.5-6.1,3.7-6.6,6.6c-1.7,8.8,4.2,16.2,10.5,21.8
			c6.7,5.9,14,9.2,22.8,10.7c0.3,0,0.6,0.1,0.8,0.1c-3.5,6.8-1.9,16.4,7.6,19c15.6,4.3,31.8,6.6,48,6.8c8,0.1,16.3-0.1,24.1-1.5
			c8-1.5,17.1-4.3,22.3-10.8c1.8-2.3,2.7-5.6,1.8-8.3c8.9-1.3,17.8-2.9,26.4-5.5c1.5,1.3,3.3,2.1,5.3,2.1
			c12.1,0.2,24.5-1.2,35.3-6.9c5.9-3.1,12.9-7,18.3-12.2c0,0,0.1,0,0.1,0c0.1,0,0.6,0,1.1,0.1c0.9,0.2,5.5,0.7,6.5,0.7
			c4.4-0.2,9-1.1,12.8-3.4C359.5,74.6,360.9,65.8,357.4,58.1z"/>
		<path class="st1" d="M297.1,113.6c-0.6-2.7-1.6-5.4-2.5-8c-2.1-6.5-4.1-13.3-7.4-19.3c-3-5.5-6.3-10.5-12.1-13.5
			c-7.7-4-19-2-21.9,7c-0.3-0.3-0.5-0.5-0.8-0.8c-4.7-4.4-11.1-10.5-18.1-9.7c-4.2,0.5-8.2,2.7-9.3,7.1c-1,4.2,0,8,1.4,11.6
			c-5.4-4.1-11.2-7.5-17.4-9.5c-7.6-2.4-15.7,5.5-13.1,13.1c1.1,3.4,2.6,6.6,4.4,9.8c-5.4-0.8-10.8-0.6-15.7,0.8
			c-6.3,1.9-8.8,12-2,15.2c7.4,3.5,11.9,8.7,17.5,14.4c3,3.1,5.7,6.4,8.4,9.7c1.5,1.7,2.8,3.7,4.5,5.2c1.4,1.2,2.9,2.3,4.5,3.3
			c3.6,1.9,4.6,2.2,3,1.1c2.7,1.2,5.6,1.6,8.3,1.2c0.2,0.2,0.3,0.4,0.5,0.6c7.7,8.8,20.6,5,26.1-3.6c1.2,0.1,2.5,0.1,3.8-0.1
			c6.2-0.8,10.4-4.3,12.9-9.1c2.7,1.1,5.6,1.5,8.9,1c5.4-0.7,11.2-3.8,13.7-9C297.7,125.8,298.7,120.4,297.1,113.6z"/>
		<path class="st1" d="M270,159.8c-10.1-0.3-21.4,1.1-30.7,5.1c-3.9,1.7-1.4,6.8,1.9,7.2c9.6,0.9,20.7-1.3,29.8-4.5
			C275.2,166.1,274.6,159.9,270,159.8z"/>
		<g>
			<g>
				<path class="st2" d="M89.5,71.5c4.1,1.6,8.3,2.1,12.6,3.1c6.1,1.6,8.7,5.5,12.7,9.9c4.9,5.4,11.5,8.9,18.2,11.5
					c7.1,2.8,14.5,4.6,21.6,7.3c3.8,1.4,7.5,3.1,10.9,5.3c3,2,5.3,5.1,8.6,6.4c1.9,0.8,3.6-1.4,3.2-3.2
					c-1.5-6.4-11.3-10.6-16.7-12.9c-7.6-3.2-15.6-5.1-23.4-7.7c-8.7-2.9-15-7.1-21.5-13.4c-3.2-3.1-6.6-5.5-10.9-6.6
					c-4.7-1.2-9.6-1.2-14.3-2.6C88.4,68,87.7,70.8,89.5,71.5L89.5,71.5z"/>
			</g>
			<g>
				<path class="st2" d="M167.5,117.4c1.6,1.1,3.4,0.3,5.2,0c2.2-0.3,4.4-0.4,6.6-0.4c1.1,0,2.1-0.8,2.4-1.8c0.1-0.5,0.2-0.9,0-1.3
					c-0.4-0.9-1.2-1.9-2.4-1.8c-2.4,0.2-4.7,0.6-7,1.1c-1.9,0.4-4.3,0.6-5.2,2.5C166.7,116.3,166.9,117,167.5,117.4L167.5,117.4z"/>
			</g>
			<g>
				<path class="st2" d="M68.8,149.4c2.8,7.8,11.6,13,18.9,15.9c10.2,4,20.6,6.4,31.5,8.4c11.5,2.1,22.3,5.4,33.6,8.3
					c11,2.8,22.1,2.7,33.3,1.1c23.6-3.3,46.1-10,68.8-17.2c11.2-3.5,22.5-6.6,33.7-10c10.1-3.1,20.3-5.7,28.1-13.3
					c8.3-8.1,9.7-18,4.8-28.4c-4.2-8.9-14.3-21.1-25.5-17c-6.4,2.4-3.7,12.7,2.9,10.4c3.8-1.4,7.2,3.1,9.3,5.8
					c3,3.7,5.4,7.9,5.4,12.7c0,9.7-8.2,13.9-16.2,17c-9,3.6-18.3,6.3-27.4,9.6c-9.6,3.4-19,6.9-28.8,9.7
					c-18.8,5.4-37.5,11.2-56.9,14.1c-10.7,1.6-21,1.9-31.6-0.8c-9.2-2.3-18.1-4.9-27.4-6.5c-10.2-1.8-20.5-3.3-30.3-6.7
					c-4.6-1.6-9.2-3.9-13.3-6.5c-3.9-2.5-7.1-5.6-11.1-7.9C69.7,147.6,68.4,148.4,68.8,149.4L68.8,149.4z"/>
			</g>
			<g>
				<path class="st2" d="M309.4,109.1c-5.6-2.8-14.3,1.8-17.6,6.5c-2.1,3,2.4,6,4.9,3.7c1.8-1.6,3.2-3.2,5.5-4.2
					c2.2-0.9,4.5-0.7,6.6-1.5C310.6,113,311.5,110.2,309.4,109.1L309.4,109.1z"/>
			</g>
			<g>
				<path class="st2" d="M161,104c10.7,0,12.2-17.4,15.3-24.4c1.1-2.5-1.3-5.5-4-4c-4.1,2.3-4.2,7.2-4.9,11.4
					c-0.5,2.8-1.4,5.5-2.9,8c-1.4,2.4-3.8,3.8-5.2,6.2C158.8,102.5,159.6,104,161,104L161,104z"/>
			</g>
			<g>
				<path class="st2" d="M129.2,70.1c4,4.3,9.5,4.9,15,4.7c4.6-0.1,8.7-0.4,13.1,0.9c3.5,1,6.9,2.4,10.3,3.7
					c7,2.5,14.3,3.9,21.7,4.5c6.8,0.5,15.6,1.4,21.9-1.4c1.9-0.8,1.2-3.6-0.5-4.1c-6-1.8-13.4-0.3-19.6-0.5
					c-7.2-0.2-14.3-1.2-21.2-3.5c-5.5-1.8-10.9-4.1-16.7-4.6c-6.8-0.6-15.5,2.9-21-2.5C130.2,65.2,127.3,68.1,129.2,70.1L129.2,70.1
					z"/>
			</g>
			<g>
				<path class="st2" d="M294.1,94.7c7.8-1.1,14.9-3.5,22.2-6.3c6.1-2.3,12.6-4.6,18-8.3c9.8-6.5,15.5-19.6,6.4-29.4
					c-10-10.8-24.5-8.1-37.5-10.5c-15.5-2.8-27.7-11.1-41.4-18.1c-7.4-3.8-15.1-5-23.3-5.4c-4.7-0.2-9.4-0.4-14.1-0.1
					c-3.7,0.2-6.5,0.4-8.9,3.5c-0.7,0.9-0.4,2.5,0.4,3.2c2.7,2.7,5.8,2.2,9.4,2.1c4.4,0,8.8-0.1,13.2,0.2c8.2,0.5,15.1,2.1,22.3,6.2
					c13.7,7.9,27.8,16.3,43.9,17.6c7.9,0.6,16.1-0.8,23.8,1.5c8.4,2.5,13.3,10.1,8.3,18.4c-4.2,6.9-13,10.5-20.3,13.2
					c-7.8,2.8-16,4.5-24.1,6.3C288.6,89.8,290.4,95.2,294.1,94.7L294.1,94.7z"/>
			</g>
			<g>
				<path class="st2" d="M309,44.7c-2.3,1.9-3,4.4-2.9,7.3c0.1,2.2,2,3.6,4.1,3.1c4.5-0.9,9-1.5,13.6-1.3c3.5,0.2,7.3,2,10.3-0.3
					c0.8-0.6,1.2-1.6,0.7-2.6c-1.9-3.7-7.2-3.4-10.9-3.6c-5.1-0.3-10.3,0.2-15.3,1.5c1.4,1,2.7,2.1,4.1,3.1c-0.3-1.4,0-2.7,0.8-3.9
					C314.7,45.1,311.5,42.6,309,44.7L309,44.7z"/>
			</g>
			<g>
				<path class="st2" d="M178.5,111.1c1.7-3.5,1.6-7.1,5-9.7c3.5-2.5,8.1-5.9,12.6-5.1c3.4,0.6,8.7,3,11.3,5.1
					c2.6,2.1,3.4,7.8,5,10.9c1.8,3.6,5.1,9.7,1.5,13.4c-3.2,3.3-8.9,3.4-12.8,1.4c-3.4-1.8-5.9-4.9-8.4-7.7
					c-1.2-1.3-2.4-2.5-3.8-3.6c-0.8-0.6-3.9-1.9-4.2-3c-1.5-5.2-9.5-3-8.1,2.2c1.4,5.4,7.8,7.4,11.5,11.1c4.5,4.4,9.6,8.6,16.1,9.5
					c5.3,0.7,12.9-1.8,16.3-6.2c3.4-4.4,2-11.8,0.1-16.5c-1.3-3.1-3.2-5.9-4.1-9.2c-1-3.4-1.3-5.6-4.3-7.7
					c-4.7-3.3-12.3-7.2-18.3-6.9c-9.4,0.4-25.3,11.3-17.3,21.8C177,111.6,178.1,111.9,178.5,111.1L178.5,111.1z"/>
			</g>
			<g>
				<path class="st2" d="M177.5,108.9c-0.2,1.5-0.9,8.7,2,8.3c1.2-0.2,1-1.5,0.7-2.4c-0.9-2-1.6-3.7-1.8-5.9
					C178.4,108.2,177.6,108.3,177.5,108.9L177.5,108.9z"/>
			</g>
			<g>
				<path class="st2" d="M201.2,93.3c2.9-8.3,14.2-16,23.2-14.2c4.7,0.9,7.5,5.8,8.9,10.1c1.4,4.3,2.7,8.5,3.9,12.8
					c2.5,9.1,5.5,18,5.2,27.5c-0.1,3.5-0.4,5.7-4,7.1c-2.3,0.8-4.8,1.8-7.3,1.6c-4.4-0.3-6.4-4.4-8.2-7.9c-1-2-3.3-2.6-5.3-2.2
					c-0.9,0.2-1.5,0.6-2.1,1.2c-1.6,1.5-1.7,3.9-0.7,5.7c2.6,5,6.1,10.1,11.8,11.8c6.3,2,14.4-0.7,19.6-4.5c5.6-4.1,5-12.1,4.4-18.2
					c-0.8-8-3.9-14.4-6.7-21.7c-2.7-7-1.9-14.5-5.9-21.2c-2.9-4.7-7.7-8.2-13.4-8.3c-11.1-0.2-23.5,8.6-26.2,19.4
					C197.8,94.4,200.6,95.1,201.2,93.3L201.2,93.3z"/>
			</g>
			<g>
				<path class="st2" d="M237.9,79.1c1,1.5,10.6-2.2,12.8-2.2c4.9,0,7.9,4,9.5,8.2c2.9,7.7,3.6,16.7,4.5,24.8c0.4,4,0.7,8.1,1,12.1
					c0.2,2.8,1.6,9-0.1,11.7c-2.9,4.5-12.2,1.9-16.5,2.2c-2.1,0.2-4.3,1.7-4.1,4.1c0.7,11.6,20.9,8.9,27.1,3.3
					c4.3-3.9,5.2-9.4,4.6-15c-0.8-7.2-1.8-14.4-2.9-21.6c-1.7-11.4-2.9-28.2-13.6-35.2c-5.3-3.4-11.1-2.7-16.4,0.2
					c-2.8,1.5-10,3.5-9.5,7.8c0.1,0.9,0.5,1.5,1.4,1.8c0.2,0.1,0.4,0.1,0.5,0.2C237.4,81.9,238.7,80.3,237.9,79.1L237.9,79.1z"/>
			</g>
			<g>
				<path class="st2" d="M236.8,83.4c0.1-0.3,0.3-0.6,0.5-0.8c0-0.1,0.3-0.4,0.1-0.1c-0.1,0.2-0.1,0.2,0,0.1
					c0.2-0.2,0.4-0.5,0.5-0.7c0.1-0.1,0.1-0.2,0.2-0.3c0.2-0.3,0-0.1-0.1,0.1c0.5-0.7,1-1.3,0.9-2.3c0-1.1-0.8-2.2-1.9-2.5
					c-2.8-0.8-4.7,2.2-5.6,4.3c-0.3,0.6-0.1,1.7,0.3,2.3c0.4,0.5,0.8,1,1.4,1.2C234.3,85.2,236.1,84.8,236.8,83.4L236.8,83.4z"/>
			</g>
			<g>
				<path class="st2" d="M267.7,88.1c5.5-5,11.5-0.7,16.4,3.3c2.3,1.9,4.6,3.3,5.8,6.2c1.3,3.2,1.6,6.8,1.7,10.2
					c0.2,5.4,0.6,12.2-0.9,17.5c-0.8,2.7-2.5,4.9-5.6,4.7c-2.7-0.1-4-2.6-6.3-3.8c-2.7-1.5-6.7,0.3-6.4,3.7
					c0.7,10.3,15.1,12.4,21.8,6.5c7.8-6.9,6.1-21.2,5-30.3c-0.6-4.8-1.4-10.2-4.2-14.3c-2.7-3.9-7.9-7.5-12.1-9.8
					c-3.7-2-8.5-3.7-12.8-2.8c-3.9,0.8-7.5,3.9-6,8.1C264.7,88.7,266.5,89.2,267.7,88.1L267.7,88.1z"/>
			</g>
			<g>
				<path class="st2" d="M221.1,17.7c-8.2-1.1-16.6-3.1-24.6-5.4c-7.6-2.2-14-6.3-21.3-9c-7-2.7-13.5-4.1-21-2.7
					c-7.8,1.5-15,5.1-22.2,8.2c-7.8,3.3-15.5,6.8-23.3,9.8c-7.4,2.8-15,4.3-22.6,6.2c-6.9,1.7-13.2,4.4-18.9,8.6
					c-2.9,2.1-5.6,4.3-8.6,6.2c-2.5,1.6-5.4,3.2-7.3,5.4c-0.5,0.6-0.6,1.7,0.3,2.1c5,2.6,10.6-0.5,14.9-3c6.2-3.6,11.8-7.6,18.8-9.6
					c7.4-2.1,15.1-3.1,22.5-5.6c8.1-2.7,15.9-6.2,23.8-9.5c7.5-3.1,14.9-6.8,22.8-8.9c9-2.4,14.5,0.7,22.2,4.8
					c6.6,3.6,13.5,6.4,21,7.6c8,1.2,15.7,0.6,23.8,0.8C225.2,23.8,224.9,18.2,221.1,17.7L221.1,17.7z"/>
			</g>
			<g>
				<path class="st2" d="M282.5,134.8c-6.4,6.3,3,20.1,11.1,16.5c1.7-0.7,1.5-3.4,0-4.2c-2.3-1.2-4.8-0.9-6.7-3.1
					c-2.1-2.4-1.4-5.2-1.6-8.1C285.3,134.6,283.6,133.8,282.5,134.8L282.5,134.8z"/>
			</g>
			<g>
				<path class="st2" d="M258,174.4c0,0.1,0.1,0.2,0.1,0.3c0.5,0.9,1.5,1.1,2.4,1c8.8-1.2,20.1-7.4,18.9-17.8
					c-0.3-2.6-4.4-3.7-5-0.7c-0.8,4.2-1.8,7.3-5.4,10c-3,2.2-6.2,3-9.6,4.3c-0.9,0.3-1.6,1.1-1.6,2.1
					C257.8,173.8,257.8,174.1,258,174.4L258,174.4z"/>
			</g>
			<g>
				<path class="st2" d="M259,170.4c-6.3-1-12.2,0.2-18.5,0.8c-6.3,0.6-12.3-1.9-17.8,1.9c-0.5,0.3-0.6,1.1,0,1.4
					c5.8,3.1,12.1,3.6,18.6,2.9c3.7-0.4,6.5-0.4,10.2,0c3,0.4,5.6,0,8.2-1.5C261.8,174.8,261.7,170.9,259,170.4L259,170.4z"/>
			</g>
			<g>
				<path class="st2" d="M205.4,177.4c13.1,1.5,27.1-0.2,40.1-2.1c13.7-1.9,27.2-4.9,40.4-9c12.9-3.9,26-10,39.8-9.2
					c6.4,0.4,12.3,2.2,16.6,7.2c3.7,4.2,4.8,9.6,8.2,14c1.5,1.9,4.2,2.3,5.7,0c7.3-11.6-7.4-22.2-16.7-25.9c-13.5-5.4-28-2-41.2,2.7
					c-14.8,5.3-29.4,10.5-44.9,13.6c-16,3.2-31.9,3.3-48,4.8C202.9,173.8,203,177.2,205.4,177.4L205.4,177.4z"/>
			</g>
			<g>
				<path class="st2" d="M351.3,173.4c2.7,11.1-6.5,17.3-15.7,20.5c-9.5,3.4-19.2,6.5-28.7,10c-19.2,7-38.5,13.5-57.7,20.2
					c-18.4,6.4-36.5,13.3-56.2,14.5c-9.7,0.6-19.4,0.1-28.9-1.6c-8.9-1.6-17.5-5.4-26.5-6.4c-3.2-0.4-3.6,4-1.5,5.5
					c6.3,4.6,15,6.2,22.5,7.7c7.8,1.5,15.9,2.4,23.9,2.6c16.3,0.3,32.3-2.6,47.7-7.9c17.3-5.9,34.4-12.5,51.6-18.8
					c17.2-6.3,34.8-11.7,51.8-18.6c11.1-4.5,28.6-14.4,21.7-29.2C354.2,169.4,350.7,171.1,351.3,173.4L351.3,173.4z"/>
			</g>
			<g>
				<path class="st2" d="M317.8,201.1c6.1-0.5,13.6-1.3,18.6-5.1c0.4-0.3,0.2-0.9-0.3-0.8c-3.1,0.6-6.1,2.1-9.1,3
					C323.9,199.3,320.9,200.3,317.8,201.1C317.8,201.1,317.8,201.1,317.8,201.1L317.8,201.1z"/>
			</g>
			<g>
				<path class="st2" d="M338.5,194.1c0.2,0,0.4,0,0.6,0c0.1,0,0.1-0.1,0-0.1c-0.2,0-0.4,0-0.6,0C338.5,194,338.5,194.1,338.5,194.1
					L338.5,194.1z"/>
			</g>
			<g>
				<path class="st2" d="M146.5,235.9c-2.8-1-5.7-0.7-8.6-0.9c-3.7-0.3-7.3-1-10.8-2c-6-1.7-11.7-4.6-17.9-5.9
					c-6.1-1.3-12.4-0.3-18.5-1.6c-5.5-1.1-10.3-4.7-15.9-5.4c-1-0.1-1.8,1.1-1.5,2c4.4,13.4,23.4,9.6,33.7,11.2
					c7.3,1.1,13.9,4.6,21.1,5.9c5.7,1.1,13.4,2.5,18.8-0.3C148.4,238.3,147.9,236.3,146.5,235.9L146.5,235.9z"/>
			</g>
			<g>
				<path class="st2" d="M343.9,193c-3.5,4.4-6.4,7.3-11.2,10.1c-4.2,2.5-8.7,4.5-12.8,7.2c-9.1,6.1-15.7,15.1-24.1,22.1
					c-10,8.3-23.9,10.1-35.9,14.6c-6.7,2.5-13.3,5-19.9,7.6c-5,2-12.2,3.3-15.5,7.8c-0.8,1.1,0,3,1.3,3.2c5.9,1.1,13.2-3.6,18.6-5.6
					c7-2.6,13.9-5.1,21.1-7.2c12.4-3.6,24.9-6,35.2-14.4c9.1-7.5,15.9-17.3,26.1-23.5c7.9-4.9,18.4-9.8,20.1-20.1
					C347.1,193.2,345.1,191.4,343.9,193L343.9,193z"/>
			</g>
			<g>
				<path class="st2" d="M230.8,259.5c-5.2-0.2-9.9,3.3-14.7,5.2c-5.7,2.2-11.6,4-17.5,5.4c-6,1.4-12.1,2.4-18.2,3.1
					c-4.8,0.5-11.4-0.7-15.6,2c-1,0.6-0.9,1.9,0,2.5c4.1,3.1,11.6,1.7,16.4,1.3c6.4-0.5,12.6-1.5,18.8-3.3c5.8-1.6,11.5-3.7,17-6.2
					c4.9-2.2,11.4-4.3,13.9-9.3C231.3,259.8,231.1,259.5,230.8,259.5L230.8,259.5z"/>
			</g>
			<g>
				<path class="st2" d="M61.5,39.7c-7.1,1.6-14,4.4-20.7,7c-5.9,2.3-11.9,4.6-17.2,8c-4.9,3-8.7,7.1-12.7,11.2
					c-3.4,3.6-9,6.8-10.8,11.3c-0.3,0.8,0.4,2,1.2,2.2c4.7,0.8,8.3-3.1,11.4-6.1c4.4-4.3,8.3-9.1,13.4-12.5
					C37.4,53.2,51.3,50.2,63,43.1C64.8,42,63.6,39.2,61.5,39.7L61.5,39.7z"/>
			</g>
		</g>
		<g>
			<path class="st2" d="M315.1,202.4c0.2-2.8-0.5-5.4-0.7-8.2c-0.2-3.1,0-6.3,0.5-9.3c0.5-3.2,1.2-5.7,3.9-7.8
				c2.1-1.7,4.6-3,6.9-4.5c4.7-3.1,11.3-8.9,16.4-3.6c4,4.1,2.6,10,4.7,14.8c0.8,1.9,3.6,1.1,4.1-0.5c2-6.4-1.1-15.5-6.4-19.6
				c-5.7-4.5-11.9-2.2-17.5,1.2c-5.8,3.5-14.3,6.9-16.9,13.8c-2.6,6.8-3.2,18.5,1.3,24.6C312.5,205,314.9,204.5,315.1,202.4
				L315.1,202.4z"/>
		</g>
	</g>
</g>
</svg>
