<?xml version="1.0" encoding="utf-8"?>
<!-- Generator: Adobe Illustrator 21.0.0, SVG Export Plug-In . SVG Version: 6.00 Build 0)  -->
<svg version="1.1" id="home_x5F_quick_x5F_Stats_x5F_icon"
	 xmlns="http://www.w3.org/2000/svg" xmlns:xlink="http://www.w3.org/1999/xlink" x="0px" y="0px" viewBox="0 0 129.5 142"
	 style="enable-background:new 0 0 129.5 142;" xml:space="preserve">
<style type="text/css">
	.st0{fill:none;stroke:#3A4243;stroke-width:2;stroke-miterlimit:10;}
	.st1{fill:none;stroke:#3A4243;stroke-miterlimit:10;}
</style>
<g id="CNCP_x5F_registed_x5F_grp">
	<g>
		<circle class="st0" cx="64.6" cy="45.3" r="20.8"/>
		<g>
			<path class="st1" d="M73.8,39.8L69,35l2.3-2.3c0.3-0.3,0.8-0.3,1.2,0l3.6,3.6c0.3,0.3,0.3,0.8,0,1.2L73.8,39.8z"/>
			
				<rect x="60.9" y="35.7" transform="matrix(0.7071 0.7071 -0.7071 0.7071 50.3277 -32.386)" class="st1" width="6.7" height="17.7"/>
			<polygon class="st1" points="53,55.9 59.4,54.1 54.7,49.4 			"/>
			<polyline class="st1" points="53.4,54.1 54.8,54 54.7,55.4 			"/>
			<line class="st1" x1="70.5" y1="38.3" x2="58" y2="50.8"/>
		</g>
	</g>
	<g>
		<path class="st0" d="M108.4,117.5c0,0-3.9-6-10-6.7c-6.1-0.7-29.6,4.2-36.7,3.4C54.6,113.3,8,103.6,6.7,102
			c-1.3-1.6,0.6-3.5,4.5-3.5S41.4,104,44,104c5.2-0.3,20-1,23.2-2.3c3.2-1.3,7.8-5.5,2.3-8.7c-5.5-3.2-17.4-5.8-19.8-7.1
			c-2.4-1.3-0.5-4.2,2.7-4.2s21.2,4.8,23.5,5.2c2.3,0.3,22.2,1.3,28.3,3.5c4.2,2.9,19,16.7,19,16.7"/>
		<path class="st0" d="M25.7,100.8c0,0-10-3.9-11-5.5s0.1-4.2,5.5-2.9s24.4,11.6,29.4,11.3"/>
		<path class="st0" d="M49.7,103.6c0,0-23.8-10-25.3-13.2c-1.5-3.3,3.7-3.9,6.1-2.9c4.5,1.9,26.2,15.6,27.7,15.5"/>
		<path class="st0" d="M59.2,103c0,0-18.6-10.3-19.8-12.3s1.4-5,3.7-3.6c2.2,1.4,18.4,14.6,20.9,15.3"/>
	</g>
</g>
</svg>
