<?xml version="1.0" encoding="utf-8"?>
<!-- Generator: Adobe Illustrator 21.0.0, SVG Export Plug-In . SVG Version: 6.00 Build 0)  -->
<svg version="1.1" id="Layer_1" xmlns="http://www.w3.org/2000/svg" xmlns:xlink="http://www.w3.org/1999/xlink" x="0px" y="0px"
	 viewBox="0 0 20.8 29.1" style="enable-background:new 0 0 20.8 29.1;" xml:space="preserve">
<style type="text/css">
	.st0{fill:#343A3B;}
	.st1{fill:#3B6E5E;}
</style>
<g>
	<g>
		<path class="st1" d="M10.4,29.1l-0.6-0.7c-1-1.3-9.8-12.6-9.8-18C0,4.7,4.7,0,10.4,0s10.4,4.7,10.4,10.4c0,5.4-8.8,16.7-9.8,18
			L10.4,29.1z M10.4,1.5c-4.9,0-8.9,4-8.9,8.9c0,4.3,7,13.8,8.9,16.4c1.9-2.5,8.9-12.1,8.9-16.4C19.3,5.5,15.3,1.5,10.4,1.5z"/>
	</g>
	<g>
		<path class="st1" d="M10.4,17.9c-4.2,0-7.6-3.4-7.6-7.6s3.4-7.6,7.6-7.6s7.6,3.4,7.6,7.6S14.6,17.9,10.4,17.9z M10.4,4.3
			C7,4.3,4.3,7,4.3,10.4c0,3.4,2.7,6.1,6.1,6.1s6.1-2.7,6.1-6.1C16.5,7,13.7,4.3,10.4,4.3z"/>
	</g>
</g>
</svg>
